solid uploads-c5-af-25-85-c2-plotclock_SUP7
facet normal -1.48002380441233e-016 -3.30880501195185e-016 -1.0
outer loop
vertex 218.166459335959 79.1905542130853 -7.82669955846915e-014
vertex 223.666459335959 76.1905542130853 -7.82669955846915e-014
vertex 218.166459335959 75.1905542130853 -7.82669955846915e-014
endloop
endfacet
facet normal -1.48002380441233e-016 -3.30880501195185e-016 -1.0
outer loop
vertex 223.666459335959 76.1905542130853 -7.82669955846915e-014
vertex 218.166459335959 79.1905542130853 -7.82669955846915e-014
vertex 252.666459335959 79.1905542130853 -9.02518531355201e-014
endloop
endfacet
facet normal -1.48002380441233e-016 -3.30880501195185e-016 -1.0
outer loop
vertex 218.166459335959 75.1905542130853 -7.82669955846915e-014
vertex 223.666459335959 76.1905542130853 -7.82669955846915e-014
vertex 220.76694028312 70.5655542130853 -7.82669955846915e-014
endloop
endfacet
facet normal -1.48002380441233e-016 -3.30880501195185e-016 -1.0
outer loop
vertex 218.166459335959 75.1905542130853 -7.82669955846915e-014
vertex 220.76694028312 70.5655542130853 -7.82669955846915e-014
vertex 218.166459335959 65.1905542130853 -7.75620039640545e-014
endloop
endfacet
facet normal -1.48002380441233e-016 -3.30880501195185e-016 -1.0
outer loop
vertex 218.166459335959 65.1905542130853 -7.75620039640545e-014
vertex 220.76694028312 70.5655542130853 -7.82669955846915e-014
vertex 220.692014966242 70.3846684969122 -7.82669955846915e-014
endloop
endfacet
facet normal -1.48002380441233e-016 -3.30880501195185e-016 -1.0
outer loop
vertex 218.166459335959 65.1905542130853 -7.75620039640545e-014
vertex 220.692014966242 70.3846684969122 -7.82669955846915e-014
vertex 218.166459335959 61.1905542130854 -7.75620039640545e-014
endloop
endfacet
facet normal -1.48002380441233e-016 -3.30880501195185e-016 -1.0
outer loop
vertex 218.166459335959 61.1905542130854 -7.75620039640545e-014
vertex 220.692014966242 70.3846684969122 -7.82669955846915e-014
vertex 220.666459335959 70.1905542130853 -7.82669955846915e-014
endloop
endfacet
facet normal -1.48002380441233e-016 -3.30880501195185e-016 -1.0
outer loop
vertex 220.76694028312 70.5655542130853 -7.82669955846915e-014
vertex 223.666459335959 76.1905542130853 -7.82669955846915e-014
vertex 220.886129250069 70.7208842989752 -7.82669955846915e-014
endloop
endfacet
facet normal -1.48002380441233e-016 -3.30880501195185e-016 -1.0
outer loop
vertex 220.886129250069 70.7208842989752 -7.82669955846915e-014
vertex 223.666459335959 76.1905542130853 -7.82669955846915e-014
vertex 221.041459335959 70.8400732659236 -7.82669955846915e-014
endloop
endfacet
facet normal -1.48002380441233e-016 -3.30880501195185e-016 -1.0
outer loop
vertex 221.041459335959 70.8400732659236 -7.82669955846915e-014
vertex 223.666459335959 76.1905542130853 -7.82669955846915e-014
vertex 221.222345052132 70.9149985828021 -7.82669955846915e-014
endloop
endfacet
facet normal -1.48002380441233e-016 -3.30880501195185e-016 -1.0
outer loop
vertex 221.222345052132 70.9149985828021 -7.82669955846915e-014
vertex 223.666459335959 76.1905542130853 -7.82669955846915e-014
vertex 221.416459335959 70.9405542130853 -7.82669955846915e-014
endloop
endfacet
facet normal -1.48002380441233e-016 -3.30880501195185e-016 -1.0
outer loop
vertex 221.416459335959 70.9405542130853 -7.82669955846915e-014
vertex 223.666459335959 76.1905542130853 -7.82669955846915e-014
vertex 221.610573619785 70.9149985828021 -7.82669955846915e-014
endloop
endfacet
facet normal -1.48002380441233e-016 -3.30880501195185e-016 -1.0
outer loop
vertex 221.610573619785 70.9149985828021 -7.82669955846915e-014
vertex 223.666459335959 76.1905542130853 -7.82669955846915e-014
vertex 221.791459335959 70.8400732659236 -7.82669955846915e-014
endloop
endfacet
facet normal -1.48002380441233e-016 -3.30880501195185e-016 -1.0
outer loop
vertex 221.791459335959 70.8400732659236 -7.82669955846915e-014
vertex 223.666459335959 76.1905542130853 -7.82669955846915e-014
vertex 221.946789421849 70.7208842989752 -7.82669955846915e-014
endloop
endfacet
facet normal -1.48002380441233e-016 -3.30880501195185e-016 -1.0
outer loop
vertex 221.946789421849 70.7208842989752 -7.82669955846915e-014
vertex 223.666459335959 76.1905542130853 -7.82669955846915e-014
vertex 222.065978388797 70.5655542130853 -7.82669955846915e-014
endloop
endfacet
facet normal -1.48002380441233e-016 -3.30880501195185e-016 -1.0
outer loop
vertex 222.065978388797 70.5655542130853 -7.82669955846915e-014
vertex 223.666459335959 76.1905542130853 -7.82669955846915e-014
vertex 222.140903705675 70.3846684969122 -7.82669955846915e-014
endloop
endfacet
facet normal -1.48002380441233e-016 -3.30880501195185e-016 -1.0
outer loop
vertex 222.140903705675 70.3846684969122 -7.82669955846915e-014
vertex 223.666459335959 76.1905542130853 -7.82669955846915e-014
vertex 222.166459335959 70.1905542130853 -7.82669955846915e-014
endloop
endfacet
facet normal -1.48002380441233e-016 -3.30880501195185e-016 -1.0
outer loop
vertex 223.666459335959 76.1905542130853 -7.82669955846915e-014
vertex 252.666459335959 79.1905542130853 -9.02518531355201e-014
vertex 246.666459335959 76.1905542130853 -8.67268950323352e-014
endloop
endfacet
facet normal -1.48002380441233e-016 -3.30880501195185e-016 -1.0
outer loop
vertex 246.666459335959 76.1905542130853 -8.67268950323352e-014
vertex 252.666459335959 79.1905542130853 -9.02518531355201e-014
vertex 248.26694028312 70.5655542130853 -7.82669955846915e-014
endloop
endfacet
facet normal -1.48002380441233e-016 -3.30880501195185e-016 -1.0
outer loop
vertex 246.666459335959 76.1905542130853 -8.67268950323352e-014
vertex 248.26694028312 70.5655542130853 -7.82669955846915e-014
vertex 248.192014966242 70.3846684969122 -7.82669955846915e-014
endloop
endfacet
facet normal -1.48002380441233e-016 -3.30880501195185e-016 -1.0
outer loop
vertex 246.666459335959 76.1905542130853 -8.67268950323352e-014
vertex 248.192014966242 70.3846684969122 -7.82669955846915e-014
vertex 246.666459335959 64.1905542130854 -7.82669955846915e-014
endloop
endfacet
facet normal -1.48002380441233e-016 -3.30880501195185e-016 -1.0
outer loop
vertex 246.666459335959 64.1905542130854 -7.82669955846915e-014
vertex 248.192014966242 70.3846684969122 -7.82669955846915e-014
vertex 248.166459335959 70.1905542130853 -7.82669955846915e-014
endloop
endfacet
facet normal -1.48002380441233e-016 -3.30880501195185e-016 -1.0
outer loop
vertex 248.26694028312 70.5655542130853 -7.82669955846915e-014
vertex 252.666459335959 79.1905542130853 -9.02518531355201e-014
vertex 248.386129250069 70.7208842989752 -7.82669955846915e-014
endloop
endfacet
facet normal -1.48002380441233e-016 -3.30880501195185e-016 -1.0
outer loop
vertex 248.386129250069 70.7208842989752 -7.82669955846915e-014
vertex 252.666459335959 79.1905542130853 -9.02518531355201e-014
vertex 248.541459335959 70.8400732659236 -7.82669955846915e-014
endloop
endfacet
facet normal -1.48002380441233e-016 -3.30880501195185e-016 -1.0
outer loop
vertex 248.541459335959 70.8400732659236 -7.82669955846915e-014
vertex 252.666459335959 79.1905542130853 -9.02518531355201e-014
vertex 248.722345052132 70.9149985828021 -7.82669955846915e-014
endloop
endfacet
facet normal -1.48002380441233e-016 -3.30880501195185e-016 -1.0
outer loop
vertex 248.722345052132 70.9149985828021 -7.82669955846915e-014
vertex 252.666459335959 79.1905542130853 -9.02518531355201e-014
vertex 248.916459335959 70.9405542130853 -7.82669955846915e-014
endloop
endfacet
facet normal -1.48002380441233e-016 -3.30880501195185e-016 -1.0
outer loop
vertex 248.916459335959 70.9405542130853 -7.82669955846915e-014
vertex 252.666459335959 79.1905542130853 -9.02518531355201e-014
vertex 249.110573619785 70.9149985828021 -7.82669955846915e-014
endloop
endfacet
facet normal -1.48002380441233e-016 -3.30880501195185e-016 -1.0
outer loop
vertex 249.110573619785 70.9149985828021 -7.82669955846915e-014
vertex 252.666459335959 79.1905542130853 -9.02518531355201e-014
vertex 249.291459335959 70.8400732659236 -7.82669955846915e-014
endloop
endfacet
facet normal -1.48002380441233e-016 -3.30880501195185e-016 -1.0
outer loop
vertex 249.291459335959 70.8400732659236 -7.82669955846915e-014
vertex 252.666459335959 79.1905542130853 -9.02518531355201e-014
vertex 249.446789421848 70.7208842989752 -7.82669955846915e-014
endloop
endfacet
facet normal -1.48002380441233e-016 -3.30880501195185e-016 -1.0
outer loop
vertex 249.446789421848 70.7208842989752 -7.82669955846915e-014
vertex 252.666459335959 79.1905542130853 -9.02518531355201e-014
vertex 249.565978388797 70.5655542130853 -7.82669955846915e-014
endloop
endfacet
facet normal -1.48002380441233e-016 -3.30880501195185e-016 -1.0
outer loop
vertex 249.565978388797 70.5655542130853 -7.82669955846915e-014
vertex 252.666459335959 79.1905542130853 -9.02518531355201e-014
vertex 249.640903705675 70.3846684969122 -7.82669955846915e-014
endloop
endfacet
facet normal -1.48002380441233e-016 -3.30880501195185e-016 -1.0
outer loop
vertex 249.640903705675 70.3846684969122 -7.82669955846915e-014
vertex 252.666459335959 79.1905542130853 -9.02518531355201e-014
vertex 249.666459335959 70.1905542130853 -7.82669955846915e-014
endloop
endfacet
facet normal -1.48002380441233e-016 -3.30880501195185e-016 -1.0
outer loop
vertex 218.166459335959 61.1905542130854 -7.75620039640545e-014
vertex 223.666459335959 64.1905542130854 -7.82669955846915e-014
vertex 252.666459335959 61.1905542130854 -7.61520207227806e-014
endloop
endfacet
facet normal -1.48002380441233e-016 -3.30880501195185e-016 -1.0
outer loop
vertex 223.666459335959 64.1905542130854 -7.82669955846915e-014
vertex 218.166459335959 61.1905542130854 -7.75620039640545e-014
vertex 220.76694028312 69.8155542130853 -7.75620039640545e-014
endloop
endfacet
facet normal -1.48002380441233e-016 -3.30880501195185e-016 -1.0
outer loop
vertex 220.76694028312 69.8155542130853 -7.75620039640545e-014
vertex 218.166459335959 61.1905542130854 -7.75620039640545e-014
vertex 220.692014966242 69.9964399292584 -7.75620039640545e-014
endloop
endfacet
facet normal -1.48002380441233e-016 -3.30880501195185e-016 -1.0
outer loop
vertex 220.692014966242 69.9964399292584 -7.75620039640545e-014
vertex 218.166459335959 61.1905542130854 -7.75620039640545e-014
vertex 220.666459335959 70.1905542130853 -7.82669955846915e-014
endloop
endfacet
facet normal -1.48002380441233e-016 -3.30880501195185e-016 -1.0
outer loop
vertex 223.666459335959 64.1905542130854 -7.82669955846915e-014
vertex 220.76694028312 69.8155542130853 -7.75620039640545e-014
vertex 220.886129250069 69.6602241271954 -7.75620039640545e-014
endloop
endfacet
facet normal -1.48002380441233e-016 -3.30880501195185e-016 -1.0
outer loop
vertex 223.666459335959 64.1905542130854 -7.82669955846915e-014
vertex 220.886129250069 69.6602241271954 -7.75620039640545e-014
vertex 221.041459335959 69.5410351602469 -7.75620039640545e-014
endloop
endfacet
facet normal -1.48002380441233e-016 -3.30880501195185e-016 -1.0
outer loop
vertex 223.666459335959 64.1905542130854 -7.82669955846915e-014
vertex 221.041459335959 69.5410351602469 -7.75620039640545e-014
vertex 221.222345052132 69.4661098433685 -7.75620039640545e-014
endloop
endfacet
facet normal -1.48002380441233e-016 -3.30880501195185e-016 -1.0
outer loop
vertex 223.666459335959 64.1905542130854 -7.82669955846915e-014
vertex 221.222345052132 69.4661098433685 -7.75620039640545e-014
vertex 221.416459335959 69.4405542130853 -7.75620039640545e-014
endloop
endfacet
facet normal -1.48002380441233e-016 -3.30880501195185e-016 -1.0
outer loop
vertex 223.666459335959 64.1905542130854 -7.82669955846915e-014
vertex 221.416459335959 69.4405542130853 -7.75620039640545e-014
vertex 221.610573619785 69.4661098433685 -7.75620039640545e-014
endloop
endfacet
facet normal -1.48002380441233e-016 -3.30880501195185e-016 -1.0
outer loop
vertex 223.666459335959 64.1905542130854 -7.82669955846915e-014
vertex 221.610573619785 69.4661098433685 -7.75620039640545e-014
vertex 221.791459335959 69.5410351602469 -7.75620039640545e-014
endloop
endfacet
facet normal -1.48002380441233e-016 -3.30880501195185e-016 -1.0
outer loop
vertex 223.666459335959 64.1905542130854 -7.82669955846915e-014
vertex 221.791459335959 69.5410351602469 -7.75620039640545e-014
vertex 221.946789421849 69.6602241271954 -7.82669955846915e-014
endloop
endfacet
facet normal -1.48002380441233e-016 -3.30880501195185e-016 -1.0
outer loop
vertex 223.666459335959 64.1905542130854 -7.82669955846915e-014
vertex 221.946789421849 69.6602241271954 -7.82669955846915e-014
vertex 222.065978388797 69.8155542130853 -7.82669955846915e-014
endloop
endfacet
facet normal -1.48002380441233e-016 -3.30880501195185e-016 -1.0
outer loop
vertex 223.666459335959 64.1905542130854 -7.82669955846915e-014
vertex 222.065978388797 69.8155542130853 -7.82669955846915e-014
vertex 222.140903705675 69.9964399292584 -7.82669955846915e-014
endloop
endfacet
facet normal -1.48002380441233e-016 -3.30880501195185e-016 -1.0
outer loop
vertex 223.666459335959 64.1905542130854 -7.82669955846915e-014
vertex 222.140903705675 69.9964399292584 -7.82669955846915e-014
vertex 222.166459335959 70.1905542130853 -7.82669955846915e-014
endloop
endfacet
facet normal -1.48002380441233e-016 -3.30880501195185e-016 -1.0
outer loop
vertex 223.666459335959 64.1905542130854 -7.82669955846915e-014
vertex 222.166459335959 70.1905542130853 -7.82669955846915e-014
vertex 223.666459335959 76.1905542130853 -7.82669955846915e-014
endloop
endfacet
facet normal -1.48002380441233e-016 -3.30880501195185e-016 -1.0
outer loop
vertex 252.666459335959 61.1905542130854 -7.61520207227806e-014
vertex 223.666459335959 64.1905542130854 -7.82669955846915e-014
vertex 246.666459335959 64.1905542130854 -7.82669955846915e-014
endloop
endfacet
facet normal -1.48002380441233e-016 -3.30880501195185e-016 -1.0
outer loop
vertex 252.666459335959 61.1905542130854 -7.61520207227806e-014
vertex 246.666459335959 64.1905542130854 -7.82669955846915e-014
vertex 248.26694028312 69.8155542130853 -7.75620039640545e-014
endloop
endfacet
facet normal -1.48002380441233e-016 -3.30880501195185e-016 -1.0
outer loop
vertex 248.26694028312 69.8155542130853 -7.75620039640545e-014
vertex 246.666459335959 64.1905542130854 -7.82669955846915e-014
vertex 248.192014966242 69.9964399292584 -7.75620039640545e-014
endloop
endfacet
facet normal -1.48002380441233e-016 -3.30880501195185e-016 -1.0
outer loop
vertex 248.192014966242 69.9964399292584 -7.75620039640545e-014
vertex 246.666459335959 64.1905542130854 -7.82669955846915e-014
vertex 248.166459335959 70.1905542130853 -7.82669955846915e-014
endloop
endfacet
facet normal -1.48002380441233e-016 -3.30880501195185e-016 -1.0
outer loop
vertex 252.666459335959 61.1905542130854 -7.61520207227806e-014
vertex 248.26694028312 69.8155542130853 -7.75620039640545e-014
vertex 248.386129250069 69.6602241271954 -7.75620039640545e-014
endloop
endfacet
facet normal -1.48002380441233e-016 -3.30880501195185e-016 -1.0
outer loop
vertex 252.666459335959 61.1905542130854 -7.61520207227806e-014
vertex 248.386129250069 69.6602241271954 -7.75620039640545e-014
vertex 248.541459335959 69.5410351602469 -7.75620039640545e-014
endloop
endfacet
facet normal -1.48002380441233e-016 -3.30880501195185e-016 -1.0
outer loop
vertex 252.666459335959 61.1905542130854 -7.61520207227806e-014
vertex 248.541459335959 69.5410351602469 -7.75620039640545e-014
vertex 248.722345052132 69.4661098433685 -7.75620039640545e-014
endloop
endfacet
facet normal -1.48002380441233e-016 -3.30880501195185e-016 -1.0
outer loop
vertex 252.666459335959 61.1905542130854 -7.61520207227806e-014
vertex 248.722345052132 69.4661098433685 -7.75620039640545e-014
vertex 248.916459335959 69.4405542130853 -7.75620039640545e-014
endloop
endfacet
facet normal -1.48002380441233e-016 -3.30880501195185e-016 -1.0
outer loop
vertex 252.666459335959 61.1905542130854 -7.61520207227806e-014
vertex 248.916459335959 69.4405542130853 -7.75620039640545e-014
vertex 249.110573619785 69.4661098433685 -7.75620039640545e-014
endloop
endfacet
facet normal -1.48002380441233e-016 -3.30880501195185e-016 -1.0
outer loop
vertex 252.666459335959 61.1905542130854 -7.61520207227806e-014
vertex 249.110573619785 69.4661098433685 -7.75620039640545e-014
vertex 249.291459335959 69.5410351602469 -7.75620039640545e-014
endloop
endfacet
facet normal -1.48002380441233e-016 -3.30880501195185e-016 -1.0
outer loop
vertex 252.666459335959 61.1905542130854 -7.61520207227806e-014
vertex 249.291459335959 69.5410351602469 -7.75620039640545e-014
vertex 249.446789421848 69.6602241271954 -7.82669955846915e-014
endloop
endfacet
facet normal -1.48002380441233e-016 -3.30880501195185e-016 -1.0
outer loop
vertex 252.666459335959 61.1905542130854 -7.61520207227806e-014
vertex 249.446789421848 69.6602241271954 -7.82669955846915e-014
vertex 249.565978388797 69.8155542130853 -7.82669955846915e-014
endloop
endfacet
facet normal -1.48002380441233e-016 -3.30880501195185e-016 -1.0
outer loop
vertex 252.666459335959 61.1905542130854 -7.61520207227806e-014
vertex 249.565978388797 69.8155542130853 -7.82669955846915e-014
vertex 249.640903705675 69.9964399292584 -7.82669955846915e-014
endloop
endfacet
facet normal -1.48002380441233e-016 -3.30880501195185e-016 -1.0
outer loop
vertex 252.666459335959 61.1905542130854 -7.61520207227806e-014
vertex 249.640903705675 69.9964399292584 -7.82669955846915e-014
vertex 249.666459335959 70.1905542130853 -7.82669955846915e-014
endloop
endfacet
facet normal -1.48002380441233e-016 -3.30880501195185e-016 -1.0
outer loop
vertex 252.666459335959 61.1905542130854 -7.61520207227806e-014
vertex 249.666459335959 70.1905542130853 -7.82669955846915e-014
vertex 252.666459335959 79.1905542130853 -9.02518531355201e-014
endloop
endfacet
facet normal -1.48002380441233e-016 -3.30880501195185e-016 -1.0
outer loop
vertex 215.166459335959 75.1905542130853 -7.82669955846915e-014
vertex 215.216459335959 70.1905542130853 -7.12170793783218e-014
vertex 215.166459335959 65.1905542130853 -7.75620039640545e-014
endloop
endfacet
facet normal -1.48002380441233e-016 -3.30880501195185e-016 -1.0
outer loop
vertex 215.216459335959 70.1905542130853 -7.12170793783218e-014
vertex 215.166459335959 75.1905542130853 -7.82669955846915e-014
vertex 215.265866887839 70.5658418284839 -7.12170793783218e-014
endloop
endfacet
facet normal -1.48002380441233e-016 -3.30880501195185e-016 -1.0
outer loop
vertex 215.265866887839 70.5658418284839 -7.12170793783218e-014
vertex 215.166459335959 75.1905542130853 -7.82669955846915e-014
vertex 215.410722500471 70.9155542130853 -7.12170793783218e-014
endloop
endfacet
facet normal -1.48002380441233e-016 -3.30880501195185e-016 -1.0
outer loop
vertex 215.410722500471 70.9155542130853 -7.12170793783218e-014
vertex 215.166459335959 75.1905542130853 -7.82669955846915e-014
vertex 218.166459335959 75.1905542130853 -7.82669955846915e-014
endloop
endfacet
facet normal -1.48002380441233e-016 -3.30880501195185e-016 -1.0
outer loop
vertex 215.410722500471 70.9155542130853 -7.12170793783218e-014
vertex 218.166459335959 75.1905542130853 -7.82669955846915e-014
vertex 215.641154503238 71.2158590458058 -7.12170793783218e-014
endloop
endfacet
facet normal -1.48002380441233e-016 -3.30880501195185e-016 -1.0
outer loop
vertex 215.641154503238 71.2158590458058 -7.12170793783218e-014
vertex 218.166459335959 75.1905542130853 -7.82669955846915e-014
vertex 215.941459335959 71.4462910485727 -7.12170793783218e-014
endloop
endfacet
facet normal -1.48002380441233e-016 -3.30880501195185e-016 -1.0
outer loop
vertex 215.941459335959 71.4462910485727 -7.12170793783218e-014
vertex 218.166459335959 75.1905542130853 -7.82669955846915e-014
vertex 216.29117172056 71.5911466612044 -7.12170793783218e-014
endloop
endfacet
facet normal -1.48002380441233e-016 -3.30880501195185e-016 -1.0
outer loop
vertex 216.29117172056 71.5911466612044 -7.12170793783218e-014
vertex 218.166459335959 75.1905542130853 -7.82669955846915e-014
vertex 216.666459335959 71.6405542130853 -7.12170793783218e-014
endloop
endfacet
facet normal -1.48002380441233e-016 -3.30880501195185e-016 -1.0
outer loop
vertex 216.666459335959 71.6405542130853 -7.12170793783218e-014
vertex 218.166459335959 75.1905542130853 -7.82669955846915e-014
vertex 217.041746951357 71.5911466612044 -7.12170793783218e-014
endloop
endfacet
facet normal -1.48002380441233e-016 -3.30880501195185e-016 -1.0
outer loop
vertex 217.041746951357 71.5911466612044 -7.12170793783218e-014
vertex 218.166459335959 75.1905542130853 -7.82669955846915e-014
vertex 217.391459335959 71.4462910485727 -7.12170793783218e-014
endloop
endfacet
facet normal -1.48002380441233e-016 -3.30880501195185e-016 -1.0
outer loop
vertex 217.391459335959 71.4462910485727 -7.12170793783218e-014
vertex 218.166459335959 75.1905542130853 -7.82669955846915e-014
vertex 217.691764168679 71.2158590458058 -7.12170793783218e-014
endloop
endfacet
facet normal -1.48002380441233e-016 -3.30880501195185e-016 -1.0
outer loop
vertex 217.691764168679 71.2158590458058 -7.12170793783218e-014
vertex 218.166459335959 75.1905542130853 -7.82669955846915e-014
vertex 217.922196171446 70.9155542130852 -7.12170793783218e-014
endloop
endfacet
facet normal -1.48002380441233e-016 -3.30880501195185e-016 -1.0
outer loop
vertex 217.922196171446 70.9155542130852 -7.12170793783218e-014
vertex 218.166459335959 75.1905542130853 -7.82669955846915e-014
vertex 218.067051784078 70.5658418284839 -7.12170793783218e-014
endloop
endfacet
facet normal -1.48002380441233e-016 -3.30880501195185e-016 -1.0
outer loop
vertex 218.067051784078 70.5658418284839 -7.12170793783218e-014
vertex 218.166459335959 75.1905542130853 -7.82669955846915e-014
vertex 218.116459335959 70.1905542130853 -7.12170793783218e-014
endloop
endfacet
facet normal -1.48002380441233e-016 -3.30880501195185e-016 -1.0
outer loop
vertex 215.166459335959 65.1905542130853 -7.75620039640545e-014
vertex 215.410722500471 69.4655542130853 -7.12170793783218e-014
vertex 218.166459335959 65.1905542130853 -7.75620039640545e-014
endloop
endfacet
facet normal -1.48002380441233e-016 -3.30880501195185e-016 -1.0
outer loop
vertex 215.410722500471 69.4655542130853 -7.12170793783218e-014
vertex 215.166459335959 65.1905542130853 -7.75620039640545e-014
vertex 215.265866887839 69.8152665976866 -7.12170793783218e-014
endloop
endfacet
facet normal -1.48002380441233e-016 -3.30880501195185e-016 -1.0
outer loop
vertex 215.265866887839 69.8152665976866 -7.12170793783218e-014
vertex 215.166459335959 65.1905542130853 -7.75620039640545e-014
vertex 215.216459335959 70.1905542130853 -7.12170793783218e-014
endloop
endfacet
facet normal -1.48002380441233e-016 -3.30880501195185e-016 -1.0
outer loop
vertex 218.166459335959 65.1905542130853 -7.75620039640545e-014
vertex 215.410722500471 69.4655542130853 -7.12170793783218e-014
vertex 215.641154503238 69.1652493803648 -7.12170793783218e-014
endloop
endfacet
facet normal -1.48002380441233e-016 -3.30880501195185e-016 -1.0
outer loop
vertex 218.166459335959 65.1905542130853 -7.75620039640545e-014
vertex 215.641154503238 69.1652493803648 -7.12170793783218e-014
vertex 215.941459335959 68.9348173775978 -7.12170793783218e-014
endloop
endfacet
facet normal -1.48002380441233e-016 -3.30880501195185e-016 -1.0
outer loop
vertex 218.166459335959 65.1905542130853 -7.75620039640545e-014
vertex 215.941459335959 68.9348173775978 -7.12170793783218e-014
vertex 216.29117172056 68.7899617649662 -7.12170793783218e-014
endloop
endfacet
facet normal -1.48002380441233e-016 -3.30880501195185e-016 -1.0
outer loop
vertex 218.166459335959 65.1905542130853 -7.75620039640545e-014
vertex 216.29117172056 68.7899617649662 -7.12170793783218e-014
vertex 216.666459335959 68.7405542130853 -7.12170793783218e-014
endloop
endfacet
facet normal -1.48002380441233e-016 -3.30880501195185e-016 -1.0
outer loop
vertex 218.166459335959 65.1905542130853 -7.75620039640545e-014
vertex 216.666459335959 68.7405542130853 -7.12170793783218e-014
vertex 217.041746951357 68.7899617649662 -7.12170793783218e-014
endloop
endfacet
facet normal -1.48002380441233e-016 -3.30880501195185e-016 -1.0
outer loop
vertex 218.166459335959 65.1905542130853 -7.75620039640545e-014
vertex 217.041746951357 68.7899617649662 -7.12170793783218e-014
vertex 217.391459335959 68.9348173775978 -7.12170793783218e-014
endloop
endfacet
facet normal -1.48002380441233e-016 -3.30880501195185e-016 -1.0
outer loop
vertex 218.166459335959 65.1905542130853 -7.75620039640545e-014
vertex 217.391459335959 68.9348173775978 -7.12170793783218e-014
vertex 217.691764168679 69.1652493803648 -7.12170793783218e-014
endloop
endfacet
facet normal -1.48002380441233e-016 -3.30880501195185e-016 -1.0
outer loop
vertex 218.166459335959 65.1905542130853 -7.75620039640545e-014
vertex 217.691764168679 69.1652493803648 -7.12170793783218e-014
vertex 217.922196171446 69.4655542130853 -7.12170793783218e-014
endloop
endfacet
facet normal -1.48002380441233e-016 -3.30880501195185e-016 -1.0
outer loop
vertex 218.166459335959 65.1905542130853 -7.75620039640545e-014
vertex 217.922196171446 69.4655542130853 -7.12170793783218e-014
vertex 218.067051784078 69.8152665976866 -7.12170793783218e-014
endloop
endfacet
facet normal -1.48002380441233e-016 -3.30880501195185e-016 -1.0
outer loop
vertex 218.166459335959 65.1905542130853 -7.75620039640545e-014
vertex 218.067051784078 69.8152665976866 -7.12170793783218e-014
vertex 218.116459335959 70.1905542130853 -7.12170793783218e-014
endloop
endfacet
facet normal -1.48002380441233e-016 -3.30880501195185e-016 -1.0
outer loop
vertex 218.166459335959 65.1905542130853 -7.75620039640545e-014
vertex 218.116459335959 70.1905542130853 -7.12170793783218e-014
vertex 218.166459335959 75.1905542130853 -7.82669955846915e-014
endloop
endfacet
facet normal 1.48002380441233e-016 3.30880501195185e-016 1.0
outer loop
vertex 218.166459335959 61.1905542130854 2.99999999999992
vertex 223.666459335959 64.1905542130854 2.99999999999992
vertex 218.166459335959 65.1905542130853 2.99999999999992
endloop
endfacet
facet normal 1.48002380441233e-016 3.30880501195185e-016 1.0
outer loop
vertex 223.666459335959 64.1905542130854 2.99999999999992
vertex 218.166459335959 61.1905542130854 2.99999999999992
vertex 252.666459335959 61.1905542130854 2.99999999999992
endloop
endfacet
facet normal 1.48002380441233e-016 3.30880501195185e-016 1.0
outer loop
vertex 218.166459335959 65.1905542130853 2.99999999999992
vertex 223.666459335959 64.1905542130854 2.99999999999992
vertex 220.76694028312 69.8155542130853 2.99999999999992
endloop
endfacet
facet normal 1.48002380441233e-016 3.30880501195185e-016 1.0
outer loop
vertex 218.166459335959 65.1905542130853 2.99999999999992
vertex 220.76694028312 69.8155542130853 2.99999999999992
vertex 218.166459335959 75.1905542130853 2.99999999999992
endloop
endfacet
facet normal 1.48002380441233e-016 3.30880501195185e-016 1.0
outer loop
vertex 218.166459335959 75.1905542130853 2.99999999999992
vertex 220.76694028312 69.8155542130853 2.99999999999992
vertex 220.692014966242 69.9964399292584 2.99999999999992
endloop
endfacet
facet normal 1.48002380441233e-016 3.30880501195185e-016 1.0
outer loop
vertex 218.166459335959 75.1905542130853 2.99999999999992
vertex 220.692014966242 69.9964399292584 2.99999999999992
vertex 218.166459335959 79.1905542130853 2.99999999999992
endloop
endfacet
facet normal 1.48002380441233e-016 3.30880501195185e-016 1.0
outer loop
vertex 218.166459335959 79.1905542130853 2.99999999999992
vertex 220.692014966242 69.9964399292584 2.99999999999992
vertex 220.666459335959 70.1905542130853 2.99999999999992
endloop
endfacet
facet normal 1.48002380441233e-016 3.30880501195185e-016 1.0
outer loop
vertex 220.76694028312 69.8155542130853 2.99999999999992
vertex 223.666459335959 64.1905542130854 2.99999999999992
vertex 220.886129250069 69.6602241271954 2.99999999999992
endloop
endfacet
facet normal 1.48002380441233e-016 3.30880501195185e-016 1.0
outer loop
vertex 220.886129250069 69.6602241271954 2.99999999999992
vertex 223.666459335959 64.1905542130854 2.99999999999992
vertex 221.041459335959 69.5410351602469 2.99999999999992
endloop
endfacet
facet normal 1.48002380441233e-016 3.30880501195185e-016 1.0
outer loop
vertex 221.041459335959 69.5410351602469 2.99999999999992
vertex 223.666459335959 64.1905542130854 2.99999999999992
vertex 221.222345052132 69.4661098433685 2.99999999999992
endloop
endfacet
facet normal 1.48002380441233e-016 3.30880501195185e-016 1.0
outer loop
vertex 221.222345052132 69.4661098433685 2.99999999999992
vertex 223.666459335959 64.1905542130854 2.99999999999992
vertex 221.416459335959 69.4405542130853 2.99999999999992
endloop
endfacet
facet normal 1.48002380441233e-016 3.30880501195185e-016 1.0
outer loop
vertex 221.416459335959 69.4405542130853 2.99999999999992
vertex 223.666459335959 64.1905542130854 2.99999999999992
vertex 221.610573619785 69.4661098433685 2.99999999999992
endloop
endfacet
facet normal 1.48002380441233e-016 3.30880501195185e-016 1.0
outer loop
vertex 221.610573619785 69.4661098433685 2.99999999999992
vertex 223.666459335959 64.1905542130854 2.99999999999992
vertex 221.791459335959 69.5410351602469 2.99999999999992
endloop
endfacet
facet normal 1.48002380441233e-016 3.30880501195185e-016 1.0
outer loop
vertex 221.791459335959 69.5410351602469 2.99999999999992
vertex 223.666459335959 64.1905542130854 2.99999999999992
vertex 221.946789421849 69.6602241271954 2.99999999999992
endloop
endfacet
facet normal 1.48002380441233e-016 3.30880501195185e-016 1.0
outer loop
vertex 221.946789421849 69.6602241271954 2.99999999999992
vertex 223.666459335959 64.1905542130854 2.99999999999992
vertex 222.065978388797 69.8155542130853 2.99999999999992
endloop
endfacet
facet normal 1.48002380441233e-016 3.30880501195185e-016 1.0
outer loop
vertex 222.065978388797 69.8155542130853 2.99999999999992
vertex 223.666459335959 64.1905542130854 2.99999999999992
vertex 222.140903705675 69.9964399292584 2.99999999999992
endloop
endfacet
facet normal 1.48002380441233e-016 3.30880501195185e-016 1.0
outer loop
vertex 222.140903705675 69.9964399292584 2.99999999999992
vertex 223.666459335959 64.1905542130854 2.99999999999992
vertex 222.166459335959 70.1905542130853 2.99999999999992
endloop
endfacet
facet normal 1.48002380441233e-016 3.30880501195185e-016 1.0
outer loop
vertex 223.666459335959 64.1905542130854 2.99999999999992
vertex 252.666459335959 61.1905542130854 2.99999999999992
vertex 246.666459335959 64.1905542130854 2.99999999999992
endloop
endfacet
facet normal 1.48002380441233e-016 3.30880501195185e-016 1.0
outer loop
vertex 246.666459335959 64.1905542130854 2.99999999999992
vertex 252.666459335959 61.1905542130854 2.99999999999992
vertex 248.26694028312 69.8155542130853 2.99999999999992
endloop
endfacet
facet normal 1.48002380441233e-016 3.30880501195185e-016 1.0
outer loop
vertex 246.666459335959 64.1905542130854 2.99999999999992
vertex 248.26694028312 69.8155542130853 2.99999999999992
vertex 248.192014966242 69.9964399292584 2.99999999999992
endloop
endfacet
facet normal 1.48002380441233e-016 3.30880501195185e-016 1.0
outer loop
vertex 246.666459335959 64.1905542130854 2.99999999999992
vertex 248.192014966242 69.9964399292584 2.99999999999992
vertex 246.666459335959 76.1905542130853 2.99999999999991
endloop
endfacet
facet normal 1.48002380441233e-016 3.30880501195185e-016 1.0
outer loop
vertex 246.666459335959 76.1905542130853 2.99999999999991
vertex 248.192014966242 69.9964399292584 2.99999999999992
vertex 248.166459335959 70.1905542130853 2.99999999999992
endloop
endfacet
facet normal 1.48002380441233e-016 3.30880501195185e-016 1.0
outer loop
vertex 248.26694028312 69.8155542130853 2.99999999999992
vertex 252.666459335959 61.1905542130854 2.99999999999992
vertex 248.386129250069 69.6602241271954 2.99999999999992
endloop
endfacet
facet normal 1.48002380441233e-016 3.30880501195185e-016 1.0
outer loop
vertex 248.386129250069 69.6602241271954 2.99999999999992
vertex 252.666459335959 61.1905542130854 2.99999999999992
vertex 248.541459335959 69.5410351602469 2.99999999999992
endloop
endfacet
facet normal 1.48002380441233e-016 3.30880501195185e-016 1.0
outer loop
vertex 248.541459335959 69.5410351602469 2.99999999999992
vertex 252.666459335959 61.1905542130854 2.99999999999992
vertex 248.722345052132 69.4661098433685 2.99999999999992
endloop
endfacet
facet normal 1.48002380441233e-016 3.30880501195185e-016 1.0
outer loop
vertex 248.722345052132 69.4661098433685 2.99999999999992
vertex 252.666459335959 61.1905542130854 2.99999999999992
vertex 248.916459335959 69.4405542130853 2.99999999999992
endloop
endfacet
facet normal 1.48002380441233e-016 3.30880501195185e-016 1.0
outer loop
vertex 248.916459335959 69.4405542130853 2.99999999999992
vertex 252.666459335959 61.1905542130854 2.99999999999992
vertex 249.110573619785 69.4661098433685 2.99999999999992
endloop
endfacet
facet normal 1.48002380441233e-016 3.30880501195185e-016 1.0
outer loop
vertex 249.110573619785 69.4661098433685 2.99999999999992
vertex 252.666459335959 61.1905542130854 2.99999999999992
vertex 249.291459335959 69.5410351602469 2.99999999999992
endloop
endfacet
facet normal 1.48002380441233e-016 3.30880501195185e-016 1.0
outer loop
vertex 249.291459335959 69.5410351602469 2.99999999999992
vertex 252.666459335959 61.1905542130854 2.99999999999992
vertex 249.446789421848 69.6602241271954 2.99999999999992
endloop
endfacet
facet normal 1.48002380441233e-016 3.30880501195185e-016 1.0
outer loop
vertex 249.446789421848 69.6602241271954 2.99999999999992
vertex 252.666459335959 61.1905542130854 2.99999999999992
vertex 249.565978388797 69.8155542130853 2.99999999999992
endloop
endfacet
facet normal 1.48002380441233e-016 3.30880501195185e-016 1.0
outer loop
vertex 249.565978388797 69.8155542130853 2.99999999999992
vertex 252.666459335959 61.1905542130854 2.99999999999992
vertex 249.640903705675 69.9964399292584 2.99999999999992
endloop
endfacet
facet normal 1.48002380441233e-016 3.30880501195185e-016 1.0
outer loop
vertex 249.640903705675 69.9964399292584 2.99999999999992
vertex 252.666459335959 61.1905542130854 2.99999999999992
vertex 249.666459335959 70.1905542130853 2.99999999999992
endloop
endfacet
facet normal 1.48002380441233e-016 3.30880501195185e-016 1.0
outer loop
vertex 218.166459335959 79.1905542130853 2.99999999999992
vertex 223.666459335959 76.1905542130853 2.99999999999992
vertex 252.666459335959 79.1905542130853 2.99999999999991
endloop
endfacet
facet normal 1.48002380441233e-016 3.30880501195185e-016 1.0
outer loop
vertex 223.666459335959 76.1905542130853 2.99999999999992
vertex 218.166459335959 79.1905542130853 2.99999999999992
vertex 220.76694028312 70.5655542130853 2.99999999999992
endloop
endfacet
facet normal 1.48002380441233e-016 3.30880501195185e-016 1.0
outer loop
vertex 220.76694028312 70.5655542130853 2.99999999999992
vertex 218.166459335959 79.1905542130853 2.99999999999992
vertex 220.692014966242 70.3846684969122 2.99999999999992
endloop
endfacet
facet normal 1.48002380441233e-016 3.30880501195185e-016 1.0
outer loop
vertex 220.692014966242 70.3846684969122 2.99999999999992
vertex 218.166459335959 79.1905542130853 2.99999999999992
vertex 220.666459335959 70.1905542130853 2.99999999999992
endloop
endfacet
facet normal 1.48002380441233e-016 3.30880501195185e-016 1.0
outer loop
vertex 223.666459335959 76.1905542130853 2.99999999999992
vertex 220.76694028312 70.5655542130853 2.99999999999992
vertex 220.886129250069 70.7208842989752 2.99999999999992
endloop
endfacet
facet normal 1.48002380441233e-016 3.30880501195185e-016 1.0
outer loop
vertex 223.666459335959 76.1905542130853 2.99999999999992
vertex 220.886129250069 70.7208842989752 2.99999999999992
vertex 221.041459335959 70.8400732659236 2.99999999999992
endloop
endfacet
facet normal 1.48002380441233e-016 3.30880501195185e-016 1.0
outer loop
vertex 223.666459335959 76.1905542130853 2.99999999999992
vertex 221.041459335959 70.8400732659236 2.99999999999992
vertex 221.222345052132 70.9149985828021 2.99999999999992
endloop
endfacet
facet normal 1.48002380441233e-016 3.30880501195185e-016 1.0
outer loop
vertex 223.666459335959 76.1905542130853 2.99999999999992
vertex 221.222345052132 70.9149985828021 2.99999999999992
vertex 221.416459335959 70.9405542130853 2.99999999999992
endloop
endfacet
facet normal 1.48002380441233e-016 3.30880501195185e-016 1.0
outer loop
vertex 223.666459335959 76.1905542130853 2.99999999999992
vertex 221.416459335959 70.9405542130853 2.99999999999992
vertex 221.610573619785 70.9149985828021 2.99999999999992
endloop
endfacet
facet normal 1.48002380441233e-016 3.30880501195185e-016 1.0
outer loop
vertex 223.666459335959 76.1905542130853 2.99999999999992
vertex 221.610573619785 70.9149985828021 2.99999999999992
vertex 221.791459335959 70.8400732659236 2.99999999999992
endloop
endfacet
facet normal 1.48002380441233e-016 3.30880501195185e-016 1.0
outer loop
vertex 223.666459335959 76.1905542130853 2.99999999999992
vertex 221.791459335959 70.8400732659236 2.99999999999992
vertex 221.946789421849 70.7208842989752 2.99999999999992
endloop
endfacet
facet normal 1.48002380441233e-016 3.30880501195185e-016 1.0
outer loop
vertex 223.666459335959 76.1905542130853 2.99999999999992
vertex 221.946789421849 70.7208842989752 2.99999999999992
vertex 222.065978388797 70.5655542130853 2.99999999999992
endloop
endfacet
facet normal 1.48002380441233e-016 3.30880501195185e-016 1.0
outer loop
vertex 223.666459335959 76.1905542130853 2.99999999999992
vertex 222.065978388797 70.5655542130853 2.99999999999992
vertex 222.140903705675 70.3846684969122 2.99999999999992
endloop
endfacet
facet normal 1.48002380441233e-016 3.30880501195185e-016 1.0
outer loop
vertex 223.666459335959 76.1905542130853 2.99999999999992
vertex 222.140903705675 70.3846684969122 2.99999999999992
vertex 222.166459335959 70.1905542130853 2.99999999999992
endloop
endfacet
facet normal 1.48002380441233e-016 3.30880501195185e-016 1.0
outer loop
vertex 223.666459335959 76.1905542130853 2.99999999999992
vertex 222.166459335959 70.1905542130853 2.99999999999992
vertex 223.666459335959 64.1905542130854 2.99999999999992
endloop
endfacet
facet normal 1.48002380441233e-016 3.30880501195185e-016 1.0
outer loop
vertex 252.666459335959 79.1905542130853 2.99999999999991
vertex 223.666459335959 76.1905542130853 2.99999999999992
vertex 246.666459335959 76.1905542130853 2.99999999999991
endloop
endfacet
facet normal 1.48002380441233e-016 3.30880501195185e-016 1.0
outer loop
vertex 252.666459335959 79.1905542130853 2.99999999999991
vertex 246.666459335959 76.1905542130853 2.99999999999991
vertex 248.26694028312 70.5655542130853 2.99999999999992
endloop
endfacet
facet normal 1.48002380441233e-016 3.30880501195185e-016 1.0
outer loop
vertex 248.26694028312 70.5655542130853 2.99999999999992
vertex 246.666459335959 76.1905542130853 2.99999999999991
vertex 248.192014966242 70.3846684969122 2.99999999999992
endloop
endfacet
facet normal 1.48002380441233e-016 3.30880501195185e-016 1.0
outer loop
vertex 248.192014966242 70.3846684969122 2.99999999999992
vertex 246.666459335959 76.1905542130853 2.99999999999991
vertex 248.166459335959 70.1905542130853 2.99999999999992
endloop
endfacet
facet normal 1.48002380441233e-016 3.30880501195185e-016 1.0
outer loop
vertex 252.666459335959 79.1905542130853 2.99999999999991
vertex 248.26694028312 70.5655542130853 2.99999999999992
vertex 248.386129250069 70.7208842989752 2.99999999999992
endloop
endfacet
facet normal 1.48002380441233e-016 3.30880501195185e-016 1.0
outer loop
vertex 252.666459335959 79.1905542130853 2.99999999999991
vertex 248.386129250069 70.7208842989752 2.99999999999992
vertex 248.541459335959 70.8400732659236 2.99999999999992
endloop
endfacet
facet normal 1.48002380441233e-016 3.30880501195185e-016 1.0
outer loop
vertex 252.666459335959 79.1905542130853 2.99999999999991
vertex 248.541459335959 70.8400732659236 2.99999999999992
vertex 248.722345052132 70.9149985828021 2.99999999999992
endloop
endfacet
facet normal 1.48002380441233e-016 3.30880501195185e-016 1.0
outer loop
vertex 252.666459335959 79.1905542130853 2.99999999999991
vertex 248.722345052132 70.9149985828021 2.99999999999992
vertex 248.916459335959 70.9405542130853 2.99999999999992
endloop
endfacet
facet normal 1.48002380441233e-016 3.30880501195185e-016 1.0
outer loop
vertex 252.666459335959 79.1905542130853 2.99999999999991
vertex 248.916459335959 70.9405542130853 2.99999999999992
vertex 249.110573619785 70.9149985828021 2.99999999999992
endloop
endfacet
facet normal 1.48002380441233e-016 3.30880501195185e-016 1.0
outer loop
vertex 252.666459335959 79.1905542130853 2.99999999999991
vertex 249.110573619785 70.9149985828021 2.99999999999992
vertex 249.291459335959 70.8400732659236 2.99999999999992
endloop
endfacet
facet normal 1.48002380441233e-016 3.30880501195185e-016 1.0
outer loop
vertex 252.666459335959 79.1905542130853 2.99999999999991
vertex 249.291459335959 70.8400732659236 2.99999999999992
vertex 249.446789421848 70.7208842989752 2.99999999999992
endloop
endfacet
facet normal 1.48002380441233e-016 3.30880501195185e-016 1.0
outer loop
vertex 252.666459335959 79.1905542130853 2.99999999999991
vertex 249.446789421848 70.7208842989752 2.99999999999992
vertex 249.565978388797 70.5655542130853 2.99999999999992
endloop
endfacet
facet normal 1.48002380441233e-016 3.30880501195185e-016 1.0
outer loop
vertex 252.666459335959 79.1905542130853 2.99999999999991
vertex 249.565978388797 70.5655542130853 2.99999999999992
vertex 249.640903705675 70.3846684969122 2.99999999999992
endloop
endfacet
facet normal 1.48002380441233e-016 3.30880501195185e-016 1.0
outer loop
vertex 252.666459335959 79.1905542130853 2.99999999999991
vertex 249.640903705675 70.3846684969122 2.99999999999992
vertex 249.666459335959 70.1905542130853 2.99999999999992
endloop
endfacet
facet normal 1.48002380441233e-016 3.30880501195185e-016 1.0
outer loop
vertex 252.666459335959 79.1905542130853 2.99999999999991
vertex 249.666459335959 70.1905542130853 2.99999999999992
vertex 252.666459335959 61.1905542130854 2.99999999999992
endloop
endfacet
facet normal 1.48002380441233e-016 3.30880501195185e-016 1.0
outer loop
vertex 215.166459335959 65.1905542130853 2.99999999999992
vertex 215.216459335959 70.1905542130853 2.99999999999993
vertex 215.166459335959 75.1905542130853 2.99999999999992
endloop
endfacet
facet normal 1.48002380441233e-016 3.30880501195185e-016 1.0
outer loop
vertex 215.216459335959 70.1905542130853 2.99999999999993
vertex 215.166459335959 65.1905542130853 2.99999999999992
vertex 215.265866887839 69.8152665976866 2.99999999999993
endloop
endfacet
facet normal 1.48002380441233e-016 3.30880501195185e-016 1.0
outer loop
vertex 215.265866887839 69.8152665976866 2.99999999999993
vertex 215.166459335959 65.1905542130853 2.99999999999992
vertex 215.410722500471 69.4655542130853 2.99999999999993
endloop
endfacet
facet normal 1.48002380441233e-016 3.30880501195185e-016 1.0
outer loop
vertex 215.410722500471 69.4655542130853 2.99999999999993
vertex 215.166459335959 65.1905542130853 2.99999999999992
vertex 218.166459335959 65.1905542130853 2.99999999999992
endloop
endfacet
facet normal 1.48002380441233e-016 3.30880501195185e-016 1.0
outer loop
vertex 215.410722500471 69.4655542130853 2.99999999999993
vertex 218.166459335959 65.1905542130853 2.99999999999992
vertex 215.641154503238 69.1652493803648 2.99999999999993
endloop
endfacet
facet normal 1.48002380441233e-016 3.30880501195185e-016 1.0
outer loop
vertex 215.641154503238 69.1652493803648 2.99999999999993
vertex 218.166459335959 65.1905542130853 2.99999999999992
vertex 215.941459335959 68.9348173775978 2.99999999999993
endloop
endfacet
facet normal 1.48002380441233e-016 3.30880501195185e-016 1.0
outer loop
vertex 215.941459335959 68.9348173775978 2.99999999999993
vertex 218.166459335959 65.1905542130853 2.99999999999992
vertex 216.29117172056 68.7899617649662 2.99999999999993
endloop
endfacet
facet normal 1.48002380441233e-016 3.30880501195185e-016 1.0
outer loop
vertex 216.29117172056 68.7899617649662 2.99999999999993
vertex 218.166459335959 65.1905542130853 2.99999999999992
vertex 216.666459335959 68.7405542130853 2.99999999999993
endloop
endfacet
facet normal 1.48002380441233e-016 3.30880501195185e-016 1.0
outer loop
vertex 216.666459335959 68.7405542130853 2.99999999999993
vertex 218.166459335959 65.1905542130853 2.99999999999992
vertex 217.041746951357 68.7899617649662 2.99999999999993
endloop
endfacet
facet normal 1.48002380441233e-016 3.30880501195185e-016 1.0
outer loop
vertex 217.041746951357 68.7899617649662 2.99999999999993
vertex 218.166459335959 65.1905542130853 2.99999999999992
vertex 217.391459335959 68.9348173775978 2.99999999999993
endloop
endfacet
facet normal 1.48002380441233e-016 3.30880501195185e-016 1.0
outer loop
vertex 217.391459335959 68.9348173775978 2.99999999999993
vertex 218.166459335959 65.1905542130853 2.99999999999992
vertex 217.691764168679 69.1652493803648 2.99999999999993
endloop
endfacet
facet normal 1.48002380441233e-016 3.30880501195185e-016 1.0
outer loop
vertex 217.691764168679 69.1652493803648 2.99999999999993
vertex 218.166459335959 65.1905542130853 2.99999999999992
vertex 217.922196171446 69.4655542130853 2.99999999999993
endloop
endfacet
facet normal 1.48002380441233e-016 3.30880501195185e-016 1.0
outer loop
vertex 217.922196171446 69.4655542130853 2.99999999999993
vertex 218.166459335959 65.1905542130853 2.99999999999992
vertex 218.067051784078 69.8152665976866 2.99999999999993
endloop
endfacet
facet normal 1.48002380441233e-016 3.30880501195185e-016 1.0
outer loop
vertex 218.067051784078 69.8152665976866 2.99999999999993
vertex 218.166459335959 65.1905542130853 2.99999999999992
vertex 218.116459335959 70.1905542130853 2.99999999999993
endloop
endfacet
facet normal 1.48002380441233e-016 3.30880501195185e-016 1.0
outer loop
vertex 215.166459335959 75.1905542130853 2.99999999999992
vertex 215.410722500471 70.9155542130853 2.99999999999993
vertex 218.166459335959 75.1905542130853 2.99999999999992
endloop
endfacet
facet normal 1.48002380441233e-016 3.30880501195185e-016 1.0
outer loop
vertex 215.410722500471 70.9155542130853 2.99999999999993
vertex 215.166459335959 75.1905542130853 2.99999999999992
vertex 215.265866887839 70.5658418284839 2.99999999999993
endloop
endfacet
facet normal 1.48002380441233e-016 3.30880501195185e-016 1.0
outer loop
vertex 215.265866887839 70.5658418284839 2.99999999999993
vertex 215.166459335959 75.1905542130853 2.99999999999992
vertex 215.216459335959 70.1905542130853 2.99999999999993
endloop
endfacet
facet normal 1.48002380441233e-016 3.30880501195185e-016 1.0
outer loop
vertex 218.166459335959 75.1905542130853 2.99999999999992
vertex 215.410722500471 70.9155542130853 2.99999999999993
vertex 215.641154503238 71.2158590458058 2.99999999999993
endloop
endfacet
facet normal 1.48002380441233e-016 3.30880501195185e-016 1.0
outer loop
vertex 218.166459335959 75.1905542130853 2.99999999999992
vertex 215.641154503238 71.2158590458058 2.99999999999993
vertex 215.941459335959 71.4462910485727 2.99999999999993
endloop
endfacet
facet normal 1.48002380441233e-016 3.30880501195185e-016 1.0
outer loop
vertex 218.166459335959 75.1905542130853 2.99999999999992
vertex 215.941459335959 71.4462910485727 2.99999999999993
vertex 216.29117172056 71.5911466612044 2.99999999999993
endloop
endfacet
facet normal 1.48002380441233e-016 3.30880501195185e-016 1.0
outer loop
vertex 218.166459335959 75.1905542130853 2.99999999999992
vertex 216.29117172056 71.5911466612044 2.99999999999993
vertex 216.666459335959 71.6405542130853 2.99999999999993
endloop
endfacet
facet normal 1.48002380441233e-016 3.30880501195185e-016 1.0
outer loop
vertex 218.166459335959 75.1905542130853 2.99999999999992
vertex 216.666459335959 71.6405542130853 2.99999999999993
vertex 217.041746951357 71.5911466612044 2.99999999999993
endloop
endfacet
facet normal 1.48002380441233e-016 3.30880501195185e-016 1.0
outer loop
vertex 218.166459335959 75.1905542130853 2.99999999999992
vertex 217.041746951357 71.5911466612044 2.99999999999993
vertex 217.391459335959 71.4462910485727 2.99999999999993
endloop
endfacet
facet normal 1.48002380441233e-016 3.30880501195185e-016 1.0
outer loop
vertex 218.166459335959 75.1905542130853 2.99999999999992
vertex 217.391459335959 71.4462910485727 2.99999999999993
vertex 217.691764168679 71.2158590458058 2.99999999999993
endloop
endfacet
facet normal 1.48002380441233e-016 3.30880501195185e-016 1.0
outer loop
vertex 218.166459335959 75.1905542130853 2.99999999999992
vertex 217.691764168679 71.2158590458058 2.99999999999993
vertex 217.922196171446 70.9155542130852 2.99999999999993
endloop
endfacet
facet normal 1.48002380441233e-016 3.30880501195185e-016 1.0
outer loop
vertex 218.166459335959 75.1905542130853 2.99999999999992
vertex 217.922196171446 70.9155542130852 2.99999999999993
vertex 218.067051784078 70.5658418284839 2.99999999999993
endloop
endfacet
facet normal 1.48002380441233e-016 3.30880501195185e-016 1.0
outer loop
vertex 218.166459335959 75.1905542130853 2.99999999999992
vertex 218.067051784078 70.5658418284839 2.99999999999993
vertex 218.116459335959 70.1905542130853 2.99999999999993
endloop
endfacet
facet normal 1.48002380441233e-016 3.30880501195185e-016 1.0
outer loop
vertex 218.166459335959 75.1905542130853 2.99999999999992
vertex 218.116459335959 70.1905542130853 2.99999999999993
vertex 218.166459335959 65.1905542130853 2.99999999999992
endloop
endfacet
facet normal -1.14943642700611e-031 1.0 -3.30880501195185e-016
outer loop
vertex 218.166459335959 79.1905542130853 -7.82669955846915e-014
vertex 252.666459335959 79.1905542130853 2.99999999999991
vertex 252.666459335959 79.1905542130853 -9.02518531355201e-014
endloop
endfacet
facet normal -1.14943642700611e-031 1.0 -3.30880501195185e-016
outer loop
vertex 252.666459335959 79.1905542130853 2.99999999999991
vertex 218.166459335959 79.1905542130853 -7.82669955846915e-014
vertex 218.166459335959 79.1905542130853 2.99999999999992
endloop
endfacet
facet normal -1.0 0.0 1.48002380441233e-016
outer loop
vertex 218.166459335959 79.1905542130853 2.99999999999992
vertex 218.166459335959 75.1905542130853 -7.82669955846915e-014
vertex 218.166459335959 75.1905542130853 2.99999999999992
endloop
endfacet
facet normal -1.0 0.0 1.48002380441233e-016
outer loop
vertex 218.166459335959 75.1905542130853 -7.82669955846915e-014
vertex 218.166459335959 79.1905542130853 2.99999999999992
vertex 218.166459335959 79.1905542130853 -7.82669955846915e-014
endloop
endfacet
facet normal 0.0 1.0 -3.30880501195185e-016
outer loop
vertex 215.166459335959 75.1905542130853 2.99999999999992
vertex 218.166459335959 75.1905542130853 -7.82669955846915e-014
vertex 215.166459335959 75.1905542130853 -7.82669955846915e-014
endloop
endfacet
facet normal 0.0 1.0 -3.30880501195185e-016
outer loop
vertex 218.166459335959 75.1905542130853 -7.82669955846915e-014
vertex 215.166459335959 75.1905542130853 2.99999999999992
vertex 218.166459335959 75.1905542130853 2.99999999999992
endloop
endfacet
facet normal -1.0 1.04340438045396e-032 1.48002380441233e-016
outer loop
vertex 215.166459335959 75.1905542130853 2.99999999999992
vertex 215.166459335959 65.1905542130853 -7.75620039640545e-014
vertex 215.166459335959 65.1905542130853 2.99999999999992
endloop
endfacet
facet normal -1.0 1.04340438045396e-032 1.48002380441233e-016
outer loop
vertex 215.166459335959 65.1905542130853 -7.75620039640545e-014
vertex 215.166459335959 75.1905542130853 2.99999999999992
vertex 215.166459335959 75.1905542130853 -7.82669955846915e-014
endloop
endfacet
facet normal 0.0 -1.0 3.30880501195185e-016
outer loop
vertex 218.166459335959 65.1905542130853 2.99999999999992
vertex 215.166459335959 65.1905542130853 -7.75620039640545e-014
vertex 218.166459335959 65.1905542130853 -7.75620039640545e-014
endloop
endfacet
facet normal 0.0 -1.0 3.30880501195185e-016
outer loop
vertex 215.166459335959 65.1905542130853 -7.75620039640545e-014
vertex 218.166459335959 65.1905542130853 2.99999999999992
vertex 215.166459335959 65.1905542130853 2.99999999999992
endloop
endfacet
facet normal -1.0 0.0 1.48002380441233e-016
outer loop
vertex 218.166459335959 65.1905542130853 2.99999999999992
vertex 218.166459335959 61.1905542130854 -7.75620039640545e-014
vertex 218.166459335959 61.1905542130854 2.99999999999992
endloop
endfacet
facet normal -1.0 0.0 1.48002380441233e-016
outer loop
vertex 218.166459335959 61.1905542130854 -7.75620039640545e-014
vertex 218.166459335959 65.1905542130853 2.99999999999992
vertex 218.166459335959 65.1905542130853 -7.75620039640545e-014
endloop
endfacet
facet normal -1.35227814941895e-032 -1.0 3.30880501195185e-016
outer loop
vertex 252.666459335959 61.1905542130854 -7.61520207227806e-014
vertex 218.166459335959 61.1905542130854 2.99999999999992
vertex 218.166459335959 61.1905542130854 -7.75620039640545e-014
endloop
endfacet
facet normal -1.35227814941895e-032 -1.0 3.30880501195185e-016
outer loop
vertex 218.166459335959 61.1905542130854 2.99999999999992
vertex 252.666459335959 61.1905542130854 -7.61520207227806e-014
vertex 252.666459335959 61.1905542130854 2.99999999999992
endloop
endfacet
facet normal 1.0 -1.1593382005044e-031 -1.48002380441233e-016
outer loop
vertex 252.666459335959 79.1905542130853 -9.02518531355201e-014
vertex 252.666459335959 61.1905542130854 2.99999999999992
vertex 252.666459335959 61.1905542130854 -7.61520207227806e-014
endloop
endfacet
facet normal 1.0 -1.1593382005044e-031 -1.48002380441233e-016
outer loop
vertex 252.666459335959 61.1905542130854 2.99999999999992
vertex 252.666459335959 79.1905542130853 -9.02518531355201e-014
vertex 252.666459335959 79.1905542130853 2.99999999999991
endloop
endfacet
facet normal -1.0 1.04340438045396e-031 1.48002380441233e-016
outer loop
vertex 246.666459335959 76.1905542130853 2.99999999999991
vertex 246.666459335959 64.1905542130854 -7.82669955846915e-014
vertex 246.666459335959 64.1905542130854 2.99999999999992
endloop
endfacet
facet normal -1.0 1.04340438045396e-031 1.48002380441233e-016
outer loop
vertex 246.666459335959 64.1905542130854 -7.82669955846915e-014
vertex 246.666459335959 76.1905542130853 2.99999999999991
vertex 246.666459335959 76.1905542130853 -8.67268950323352e-014
endloop
endfacet
facet normal 0.0 1.0 -3.30880501195185e-016
outer loop
vertex 223.666459335959 64.1905542130854 2.99999999999992
vertex 246.666459335959 64.1905542130854 -7.82669955846915e-014
vertex 223.666459335959 64.1905542130854 -7.82669955846915e-014
endloop
endfacet
facet normal 0.0 1.0 -3.30880501195185e-016
outer loop
vertex 246.666459335959 64.1905542130854 -7.82669955846915e-014
vertex 223.666459335959 64.1905542130854 2.99999999999992
vertex 246.666459335959 64.1905542130854 2.99999999999992
endloop
endfacet
facet normal 1.0 0.0 -1.48002380441233e-016
outer loop
vertex 223.666459335959 76.1905542130853 -7.82669955846915e-014
vertex 223.666459335959 64.1905542130854 2.99999999999992
vertex 223.666459335959 64.1905542130854 -7.82669955846915e-014
endloop
endfacet
facet normal 1.0 0.0 -1.48002380441233e-016
outer loop
vertex 223.666459335959 64.1905542130854 2.99999999999992
vertex 223.666459335959 76.1905542130853 -7.82669955846915e-014
vertex 223.666459335959 76.1905542130853 2.99999999999992
endloop
endfacet
facet normal 1.21705033447706e-031 -1.0 3.30880501195185e-016
outer loop
vertex 246.666459335959 76.1905542130853 2.99999999999991
vertex 223.666459335959 76.1905542130853 -7.82669955846915e-014
vertex 246.666459335959 76.1905542130853 -8.67268950323352e-014
endloop
endfacet
facet normal 1.21705033447706e-031 -1.0 3.30880501195185e-016
outer loop
vertex 223.666459335959 76.1905542130853 -7.82669955846915e-014
vertex 246.666459335959 76.1905542130853 2.99999999999991
vertex 223.666459335959 76.1905542130853 2.99999999999992
endloop
endfacet
facet normal -0.965925826289067 -0.258819045102524 2.2859749698283e-016
outer loop
vertex 218.067051784078 70.5658418284839 2.99999999999993
vertex 218.116459335959 70.1905542130853 -7.12170793783218e-014
vertex 218.116459335959 70.1905542130853 2.99999999999993
endloop
endfacet
facet normal -1.0 -1.55498867679039e-014 1.48002380441238e-016
outer loop
vertex 218.116459335959 70.1905542130853 -7.12170793783218e-014
vertex 218.067051784078 70.5658418284839 2.99999999999993
vertex 218.067051784078 70.5658418284839 -7.12170793783218e-014
endloop
endfacet
facet normal -1.0 -1.55498867679039e-014 1.48002380441238e-016
outer loop
vertex 218.116459335959 70.1905542130853 2.99999999999993
vertex 218.067051784078 69.8152665976866 -7.12170793783218e-014
vertex 218.067051784078 69.8152665976866 2.99999999999993
endloop
endfacet
facet normal -0.965925826289071 0.258819045102509 5.73211462580703e-017
outer loop
vertex 218.067051784078 69.8152665976866 -7.12170793783218e-014
vertex 218.116459335959 70.1905542130853 2.99999999999993
vertex 218.116459335959 70.1905542130853 -7.12170793783218e-014
endloop
endfacet
facet normal -0.965925826289071 0.258819045102509 5.73211462580703e-017
outer loop
vertex 218.067051784078 69.8152665976866 2.99999999999993
vertex 217.922196171446 69.4655542130853 -7.12170793783218e-014
vertex 217.922196171446 69.4655542130853 2.99999999999993
endloop
endfacet
facet normal -0.866025403784453 0.499999999999975 -3.72664293149049e-017
outer loop
vertex 217.922196171446 69.4655542130853 -7.12170793783218e-014
vertex 218.067051784078 69.8152665976866 2.99999999999993
vertex 218.067051784078 69.8152665976866 -7.12170793783218e-014
endloop
endfacet
facet normal -0.866025403784453 0.499999999999975 -3.72664293149049e-017
outer loop
vertex 217.922196171446 69.4655542130853 2.99999999999993
vertex 217.691764168679 69.1652493803648 -7.12170793783218e-014
vertex 217.691764168679 69.1652493803648 2.99999999999993
endloop
endfacet
facet normal -0.707106781186547 0.707106781186547 -1.29314359315772e-016
outer loop
vertex 217.691764168679 69.1652493803648 -7.12170793783218e-014
vertex 217.922196171446 69.4655542130853 2.99999999999993
vertex 217.922196171446 69.4655542130853 -7.12170793783218e-014
endloop
endfacet
facet normal -0.499999999999935 0.866025403784476 -2.12549729431363e-016
outer loop
vertex 217.391459335959 68.9348173775978 2.99999999999993
vertex 217.691764168679 69.1652493803648 -7.12170793783218e-014
vertex 217.391459335959 68.9348173775978 -7.12170793783218e-014
endloop
endfacet
facet normal -0.707106781186547 0.707106781186547 -1.29314359315772e-016
outer loop
vertex 217.691764168679 69.1652493803648 -7.12170793783218e-014
vertex 217.391459335959 68.9348173775978 2.99999999999993
vertex 217.691764168679 69.1652493803648 2.99999999999993
endloop
endfacet
facet normal -0.25881904510248 0.965925826289079 -2.8130018674121e-016
outer loop
vertex 217.041746951357 68.7899617649662 2.99999999999993
vertex 217.391459335959 68.9348173775978 -7.12170793783218e-014
vertex 217.041746951357 68.7899617649662 -7.12170793783218e-014
endloop
endfacet
facet normal -0.499999999999935 0.866025403784476 -2.12549729431363e-016
outer loop
vertex 217.391459335959 68.9348173775978 -7.12170793783218e-014
vertex 217.041746951357 68.7899617649662 2.99999999999993
vertex 217.391459335959 68.9348173775978 2.99999999999993
endloop
endfacet
facet normal 0.0 1.0 -3.30880501195185e-016
outer loop
vertex 216.666459335959 68.7405542130853 2.99999999999993
vertex 217.041746951357 68.7899617649662 -7.12170793783218e-014
vertex 216.666459335959 68.7405542130853 -7.12170793783218e-014
endloop
endfacet
facet normal -0.25881904510248 0.965925826289079 -2.8130018674121e-016
outer loop
vertex 217.041746951357 68.7899617649662 -7.12170793783218e-014
vertex 216.666459335959 68.7405542130853 2.99999999999993
vertex 217.041746951357 68.7899617649662 2.99999999999993
endloop
endfacet
facet normal 0.25881904510248 0.965925826289079 -3.57911856298598e-016
outer loop
vertex 216.29117172056 68.7899617649662 2.99999999999993
vertex 216.666459335959 68.7405542130853 -7.12170793783218e-014
vertex 216.29117172056 68.7899617649662 -7.12170793783218e-014
endloop
endfacet
facet normal 0.0 1.0 -3.30880501195185e-016
outer loop
vertex 216.666459335959 68.7405542130853 -7.12170793783218e-014
vertex 216.29117172056 68.7899617649662 2.99999999999993
vertex 216.666459335959 68.7405542130853 2.99999999999993
endloop
endfacet
facet normal 0.499999999999935 0.866025403784476 -3.60552109872577e-016
outer loop
vertex 215.941459335959 68.9348173775978 2.99999999999993
vertex 216.29117172056 68.7899617649662 -7.12170793783218e-014
vertex 215.941459335959 68.9348173775978 -7.12170793783218e-014
endloop
endfacet
facet normal 0.25881904510248 0.965925826289079 -3.57911856298598e-016
outer loop
vertex 216.29117172056 68.7899617649662 -7.12170793783218e-014
vertex 215.941459335959 68.9348173775978 2.99999999999993
vertex 216.29117172056 68.7899617649662 2.99999999999993
endloop
endfacet
facet normal 0.707106781186547 0.707106781186547 -3.38621332999266e-016
outer loop
vertex 215.641154503238 69.1652493803648 2.99999999999993
vertex 215.941459335959 68.9348173775978 -7.12170793783218e-014
vertex 215.641154503238 69.1652493803648 -7.12170793783218e-014
endloop
endfacet
facet normal 0.499999999999935 0.866025403784476 -3.60552109872577e-016
outer loop
vertex 215.941459335959 68.9348173775978 -7.12170793783218e-014
vertex 215.641154503238 69.1652493803648 2.99999999999993
vertex 215.941459335959 68.9348173775978 2.99999999999993
endloop
endfacet
facet normal 0.866025403784453 0.499999999999975 -2.93614071880264e-016
outer loop
vertex 215.410722500471 69.4655542130853 -7.12170793783218e-014
vertex 215.641154503238 69.1652493803648 2.99999999999993
vertex 215.641154503238 69.1652493803648 -7.12170793783218e-014
endloop
endfacet
facet normal 0.707106781186547 0.707106781186547 -3.38621332999266e-016
outer loop
vertex 215.641154503238 69.1652493803648 2.99999999999993
vertex 215.410722500471 69.4655542130853 -7.12170793783218e-014
vertex 215.410722500471 69.4655542130853 2.99999999999993
endloop
endfacet
facet normal 0.965925826289071 0.258819045102509 -2.28597496982825e-016
outer loop
vertex 215.265866887839 69.8152665976866 -7.12170793783218e-014
vertex 215.410722500471 69.4655542130853 2.99999999999993
vertex 215.410722500471 69.4655542130853 -7.12170793783218e-014
endloop
endfacet
facet normal 0.866025403784453 0.499999999999975 -2.93614071880264e-016
outer loop
vertex 215.410722500471 69.4655542130853 2.99999999999993
vertex 215.265866887839 69.8152665976866 -7.12170793783218e-014
vertex 215.265866887839 69.8152665976866 2.99999999999993
endloop
endfacet
facet normal 1.0 -1.55498867679039e-014 -1.48002380441228e-016
outer loop
vertex 215.216459335959 70.1905542130853 -7.12170793783218e-014
vertex 215.265866887839 69.8152665976866 2.99999999999993
vertex 215.265866887839 69.8152665976866 -7.12170793783218e-014
endloop
endfacet
facet normal 0.965925826289071 0.258819045102509 -2.28597496982825e-016
outer loop
vertex 215.265866887839 69.8152665976866 2.99999999999993
vertex 215.216459335959 70.1905542130853 -7.12170793783218e-014
vertex 215.216459335959 70.1905542130853 2.99999999999993
endloop
endfacet
facet normal 0.965925826289079 -0.25881904510248 -5.73211462580811e-017
outer loop
vertex 215.265866887839 70.5658418284839 -7.12170793783218e-014
vertex 215.216459335959 70.1905542130853 2.99999999999993
vertex 215.216459335959 70.1905542130853 -7.12170793783218e-014
endloop
endfacet
facet normal 1.0 -1.55498867679039e-014 -1.48002380441228e-016
outer loop
vertex 215.216459335959 70.1905542130853 2.99999999999993
vertex 215.265866887839 70.5658418284839 -7.12170793783218e-014
vertex 215.265866887839 70.5658418284839 2.99999999999993
endloop
endfacet
facet normal 0.86602540378444 -0.499999999999998 3.72664293149146e-017
outer loop
vertex 215.410722500471 70.9155542130853 -7.12170793783218e-014
vertex 215.265866887839 70.5658418284839 2.99999999999993
vertex 215.265866887839 70.5658418284839 -7.12170793783218e-014
endloop
endfacet
facet normal 0.965925826289079 -0.25881904510248 -5.73211462580811e-017
outer loop
vertex 215.265866887839 70.5658418284839 2.99999999999993
vertex 215.410722500471 70.9155542130853 -7.12170793783218e-014
vertex 215.410722500471 70.9155542130853 2.99999999999993
endloop
endfacet
facet normal 0.707106781186496 -0.707106781186599 1.29314359315796e-016
outer loop
vertex 215.641154503238 71.2158590458058 -7.12170793783218e-014
vertex 215.410722500471 70.9155542130853 2.99999999999993
vertex 215.410722500471 70.9155542130853 -7.12170793783218e-014
endloop
endfacet
facet normal 0.86602540378444 -0.499999999999998 3.72664293149146e-017
outer loop
vertex 215.410722500471 70.9155542130853 2.99999999999993
vertex 215.641154503238 71.2158590458058 -7.12170793783218e-014
vertex 215.641154503238 71.2158590458058 2.99999999999993
endloop
endfacet
facet normal 0.499999999999935 -0.866025403784476 2.12549729431363e-016
outer loop
vertex 215.941459335959 71.4462910485727 2.99999999999993
vertex 215.641154503238 71.2158590458058 -7.12170793783218e-014
vertex 215.941459335959 71.4462910485727 -7.12170793783218e-014
endloop
endfacet
facet normal 0.707106781186496 -0.707106781186599 1.29314359315796e-016
outer loop
vertex 215.641154503238 71.2158590458058 -7.12170793783218e-014
vertex 215.941459335959 71.4462910485727 2.99999999999993
vertex 215.641154503238 71.2158590458058 2.99999999999993
endloop
endfacet
facet normal 0.25881904510248 -0.965925826289079 2.8130018674121e-016
outer loop
vertex 216.29117172056 71.5911466612044 2.99999999999993
vertex 215.941459335959 71.4462910485727 -7.12170793783218e-014
vertex 216.29117172056 71.5911466612044 -7.12170793783218e-014
endloop
endfacet
facet normal 0.499999999999935 -0.866025403784476 2.12549729431363e-016
outer loop
vertex 215.941459335959 71.4462910485727 -7.12170793783218e-014
vertex 216.29117172056 71.5911466612044 2.99999999999993
vertex 215.941459335959 71.4462910485727 2.99999999999993
endloop
endfacet
facet normal 0.0 -1.0 3.30880501195185e-016
outer loop
vertex 216.666459335959 71.6405542130853 2.99999999999993
vertex 216.29117172056 71.5911466612044 -7.12170793783218e-014
vertex 216.666459335959 71.6405542130853 -7.12170793783218e-014
endloop
endfacet
facet normal 0.25881904510248 -0.965925826289079 2.8130018674121e-016
outer loop
vertex 216.29117172056 71.5911466612044 -7.12170793783218e-014
vertex 216.666459335959 71.6405542130853 2.99999999999993
vertex 216.29117172056 71.5911466612044 2.99999999999993
endloop
endfacet
facet normal -0.25881904510248 -0.965925826289079 3.57911856298598e-016
outer loop
vertex 217.041746951357 71.5911466612044 2.99999999999993
vertex 216.666459335959 71.6405542130853 -7.12170793783218e-014
vertex 217.041746951357 71.5911466612044 -7.12170793783218e-014
endloop
endfacet
facet normal 0.0 -1.0 3.30880501195185e-016
outer loop
vertex 216.666459335959 71.6405542130853 -7.12170793783218e-014
vertex 217.041746951357 71.5911466612044 2.99999999999993
vertex 216.666459335959 71.6405542130853 2.99999999999993
endloop
endfacet
facet normal -0.499999999999935 -0.866025403784476 3.60552109872577e-016
outer loop
vertex 217.391459335959 71.4462910485727 2.99999999999993
vertex 217.041746951357 71.5911466612044 -7.12170793783218e-014
vertex 217.391459335959 71.4462910485727 -7.12170793783218e-014
endloop
endfacet
facet normal -0.25881904510248 -0.965925826289079 3.57911856298598e-016
outer loop
vertex 217.041746951357 71.5911466612044 -7.12170793783218e-014
vertex 217.391459335959 71.4462910485727 2.99999999999993
vertex 217.041746951357 71.5911466612044 2.99999999999993
endloop
endfacet
facet normal -0.707106781186547 -0.707106781186547 3.38621332999266e-016
outer loop
vertex 217.691764168679 71.2158590458058 2.99999999999993
vertex 217.391459335959 71.4462910485727 -7.12170793783218e-014
vertex 217.691764168679 71.2158590458058 -7.12170793783218e-014
endloop
endfacet
facet normal -0.499999999999935 -0.866025403784476 3.60552109872577e-016
outer loop
vertex 217.391459335959 71.4462910485727 -7.12170793783218e-014
vertex 217.691764168679 71.2158590458058 2.99999999999993
vertex 217.391459335959 71.4462910485727 2.99999999999993
endloop
endfacet
facet normal -0.707106781186547 -0.707106781186547 3.38621332999266e-016
outer loop
vertex 217.691764168679 71.2158590458058 2.99999999999993
vertex 217.922196171446 70.9155542130852 -7.12170793783218e-014
vertex 217.922196171446 70.9155542130852 2.99999999999993
endloop
endfacet
facet normal -0.866025403784453 -0.499999999999975 2.93614071880264e-016
outer loop
vertex 217.922196171446 70.9155542130852 -7.12170793783218e-014
vertex 217.691764168679 71.2158590458058 2.99999999999993
vertex 217.691764168679 71.2158590458058 -7.12170793783218e-014
endloop
endfacet
facet normal -0.866025403784453 -0.499999999999975 2.93614071880264e-016
outer loop
vertex 217.922196171446 70.9155542130852 2.99999999999993
vertex 218.067051784078 70.5658418284839 -7.12170793783218e-014
vertex 218.067051784078 70.5658418284839 2.99999999999993
endloop
endfacet
facet normal -0.965925826289067 -0.258819045102524 2.2859749698283e-016
outer loop
vertex 218.067051784078 70.5658418284839 -7.12170793783218e-014
vertex 217.922196171446 70.9155542130852 2.99999999999993
vertex 217.922196171446 70.9155542130852 -7.12170793783218e-014
endloop
endfacet
facet normal -0.965925826289044 -0.258819045102612 2.28597496982855e-016
outer loop
vertex 222.140903705675 70.3846684969122 2.99999999999992
vertex 222.166459335959 70.1905542130853 -7.82669955846915e-014
vertex 222.166459335959 70.1905542130853 2.99999999999992
endloop
endfacet
facet normal -1.0 -3.00928181176007e-014 1.48002380441243e-016
outer loop
vertex 222.166459335959 70.1905542130853 -7.82669955846915e-014
vertex 222.140903705675 70.3846684969122 2.99999999999992
vertex 222.140903705675 70.3846684969122 -7.82669955846915e-014
endloop
endfacet
facet normal -1.0 -3.00928181176007e-014 1.48002380441243e-016
outer loop
vertex 222.166459335959 70.1905542130853 2.99999999999992
vertex 222.140903705675 69.9964399292584 -7.82669955846915e-014
vertex 222.140903705675 69.9964399292584 2.99999999999992
endloop
endfacet
facet normal -0.965925826289029 0.258819045102668 5.73211462580114e-017
outer loop
vertex 222.140903705675 69.9964399292584 -7.82669955846915e-014
vertex 222.166459335959 70.1905542130853 2.99999999999992
vertex 222.166459335959 70.1905542130853 -7.82669955846915e-014
endloop
endfacet
facet normal -0.965925826289029 0.258819045102668 5.73211462580114e-017
outer loop
vertex 222.140903705675 69.9964399292584 2.99999999999992
vertex 222.065978388797 69.8155542130853 -7.82669955846915e-014
vertex 222.065978388797 69.8155542130853 2.99999999999992
endloop
endfacet
facet normal -0.866025403784439 0.499999999999999 -3.72664293149149e-017
outer loop
vertex 222.065978388797 69.8155542130853 -7.82669955846915e-014
vertex 222.140903705675 69.9964399292584 2.99999999999992
vertex 222.140903705675 69.9964399292584 -7.82669955846915e-014
endloop
endfacet
facet normal -0.866025403784439 0.499999999999999 -3.72664293149149e-017
outer loop
vertex 222.065978388797 69.8155542130853 2.99999999999992
vertex 221.946789421849 69.6602241271954 -7.82669955846915e-014
vertex 221.946789421849 69.6602241271954 2.99999999999992
endloop
endfacet
facet normal -0.707106781186578 0.707106781186517 -1.29314359315757e-016
outer loop
vertex 221.946789421849 69.6602241271954 -7.82669955846915e-014
vertex 222.065978388797 69.8155542130853 2.99999999999992
vertex 222.065978388797 69.8155542130853 -7.82669955846915e-014
endloop
endfacet
facet normal -0.500000000000036 0.866025403784418 -2.12549729431329e-016
outer loop
vertex 221.791459335959 69.5410351602469 -7.75620039640545e-014
vertex 221.946789421849 69.6602241271954 2.99999999999992
vertex 221.946789421849 69.6602241271954 -7.82669955846915e-014
endloop
endfacet
facet normal -0.707106781186577 0.707106781186517 -1.29314359315757e-016
outer loop
vertex 221.946789421849 69.6602241271954 2.99999999999992
vertex 221.791459335959 69.5410351602469 -7.75620039640545e-014
vertex 221.791459335959 69.5410351602469 2.99999999999992
endloop
endfacet
facet normal -0.258819045102476 0.96592582628908 -2.81300186741211e-016
outer loop
vertex 221.610573619785 69.4661098433685 2.99999999999992
vertex 221.791459335959 69.5410351602469 -7.75620039640545e-014
vertex 221.610573619785 69.4661098433685 -7.75620039640545e-014
endloop
endfacet
facet normal -0.500000000000036 0.866025403784418 -2.12549729431329e-016
outer loop
vertex 221.791459335959 69.5410351602469 -7.75620039640545e-014
vertex 221.610573619785 69.4661098433685 2.99999999999992
vertex 221.791459335959 69.5410351602469 2.99999999999992
endloop
endfacet
facet normal -3.00749958978076e-014 1.0 -3.30880501195181e-016
outer loop
vertex 221.416459335959 69.4405542130853 2.99999999999992
vertex 221.610573619785 69.4661098433685 -7.75620039640545e-014
vertex 221.416459335959 69.4405542130853 -7.75620039640545e-014
endloop
endfacet
facet normal -0.258819045102476 0.96592582628908 -2.81300186741211e-016
outer loop
vertex 221.610573619785 69.4661098433685 -7.75620039640545e-014
vertex 221.416459335959 69.4405542130853 2.99999999999992
vertex 221.610573619785 69.4661098433685 2.99999999999992
endloop
endfacet
facet normal 0.258819045102362 0.965925826289111 -3.57911856298591e-016
outer loop
vertex 221.222345052132 69.4661098433685 2.99999999999992
vertex 221.416459335959 69.4405542130853 -7.75620039640545e-014
vertex 221.222345052132 69.4661098433685 -7.75620039640545e-014
endloop
endfacet
facet normal -3.00749958978076e-014 1.0 -3.30880501195181e-016
outer loop
vertex 221.416459335959 69.4405542130853 -7.75620039640545e-014
vertex 221.222345052132 69.4661098433685 2.99999999999992
vertex 221.416459335959 69.4405542130853 2.99999999999992
endloop
endfacet
facet normal 0.500000000000202 0.866025403784322 -3.60552109872566e-016
outer loop
vertex 221.041459335959 69.5410351602469 2.99999999999992
vertex 221.222345052132 69.4661098433685 -7.75620039640545e-014
vertex 221.041459335959 69.5410351602469 -7.75620039640545e-014
endloop
endfacet
facet normal 0.258819045102362 0.965925826289111 -3.57911856298591e-016
outer loop
vertex 221.222345052132 69.4661098433685 -7.75620039640545e-014
vertex 221.041459335959 69.5410351602469 2.99999999999992
vertex 221.222345052132 69.4661098433685 2.99999999999992
endloop
endfacet
facet normal 0.707106781186647 0.707106781186448 -3.38621332999248e-016
outer loop
vertex 220.886129250069 69.6602241271954 2.99999999999992
vertex 221.041459335959 69.5410351602469 -7.75620039640545e-014
vertex 220.886129250069 69.6602241271954 -7.75620039640545e-014
endloop
endfacet
facet normal 0.500000000000202 0.866025403784322 -3.60552109872566e-016
outer loop
vertex 221.041459335959 69.5410351602469 -7.75620039640545e-014
vertex 220.886129250069 69.6602241271954 2.99999999999992
vertex 221.041459335959 69.5410351602469 2.99999999999992
endloop
endfacet
facet normal 0.866025403784348 0.500000000000157 -2.93614071880308e-016
outer loop
vertex 220.76694028312 69.8155542130853 -7.75620039640545e-014
vertex 220.886129250069 69.6602241271954 2.99999999999992
vertex 220.886129250069 69.6602241271954 -7.75620039640545e-014
endloop
endfacet
facet normal 0.707106781186647 0.707106781186448 -3.38621332999248e-016
outer loop
vertex 220.886129250069 69.6602241271954 2.99999999999992
vertex 220.76694028312 69.8155542130853 -7.75620039640545e-014
vertex 220.76694028312 69.8155542130853 2.99999999999992
endloop
endfacet
facet normal 0.965925826289088 0.258819045102447 -2.28597496982807e-016
outer loop
vertex 220.692014966242 69.9964399292584 -7.75620039640545e-014
vertex 220.76694028312 69.8155542130853 2.99999999999992
vertex 220.76694028312 69.8155542130853 -7.75620039640545e-014
endloop
endfacet
facet normal 0.866025403784348 0.500000000000157 -2.93614071880308e-016
outer loop
vertex 220.76694028312 69.8155542130853 2.99999999999992
vertex 220.692014966242 69.9964399292584 -7.75620039640545e-014
vertex 220.692014966242 69.9964399292584 2.99999999999992
endloop
endfacet
facet normal 1.0 -3.02264847660336e-014 -1.48002380441223e-016
outer loop
vertex 220.666459335959 70.1905542130853 -7.82669955846915e-014
vertex 220.692014966242 69.9964399292584 2.99999999999992
vertex 220.692014966242 69.9964399292584 -7.75620039640545e-014
endloop
endfacet
facet normal 0.965925826289088 0.258819045102447 -2.28597496982807e-016
outer loop
vertex 220.692014966242 69.9964399292584 2.99999999999992
vertex 220.666459335959 70.1905542130853 -7.82669955846915e-014
vertex 220.666459335959 70.1905542130853 2.99999999999992
endloop
endfacet
facet normal 0.965925826289103 -0.258819045102391 -5.7321146258114e-017
outer loop
vertex 220.692014966242 70.3846684969122 -7.82669955846915e-014
vertex 220.666459335959 70.1905542130853 2.99999999999992
vertex 220.666459335959 70.1905542130853 -7.82669955846915e-014
endloop
endfacet
facet normal 1.0 -2.99324181394772e-014 -1.48002380441223e-016
outer loop
vertex 220.666459335959 70.1905542130853 2.99999999999992
vertex 220.692014966242 70.3846684969122 -7.82669955846915e-014
vertex 220.692014966242 70.3846684969122 2.99999999999992
endloop
endfacet
facet normal 0.866025403784392 -0.500000000000081 3.72664293149491e-017
outer loop
vertex 220.76694028312 70.5655542130853 -7.82669955846915e-014
vertex 220.692014966242 70.3846684969122 2.99999999999992
vertex 220.692014966242 70.3846684969122 -7.82669955846915e-014
endloop
endfacet
facet normal 0.965925826289103 -0.258819045102391 -5.7321146258114e-017
outer loop
vertex 220.692014966242 70.3846684969122 2.99999999999992
vertex 220.76694028312 70.5655542130853 -7.82669955846915e-014
vertex 220.76694028312 70.5655542130853 2.99999999999992
endloop
endfacet
facet normal 0.707106781186517 -0.707106781186578 1.29314359315786e-016
outer loop
vertex 220.886129250069 70.7208842989752 -7.82669955846915e-014
vertex 220.76694028312 70.5655542130853 2.99999999999992
vertex 220.76694028312 70.5655542130853 -7.82669955846915e-014
endloop
endfacet
facet normal 0.866025403784392 -0.500000000000081 3.72664293149491e-017
outer loop
vertex 220.76694028312 70.5655542130853 2.99999999999992
vertex 220.886129250069 70.7208842989752 -7.82669955846915e-014
vertex 220.886129250069 70.7208842989752 2.99999999999992
endloop
endfacet
facet normal 0.500000000000044 -0.866025403784413 2.12549729431326e-016
outer loop
vertex 221.041459335959 70.8400732659236 2.99999999999992
vertex 220.886129250069 70.7208842989752 -7.82669955846915e-014
vertex 221.041459335959 70.8400732659236 -7.82669955846915e-014
endloop
endfacet
facet normal 0.707106781186517 -0.707106781186578 1.29314359315786e-016
outer loop
vertex 220.886129250069 70.7208842989752 -7.82669955846915e-014
vertex 221.041459335959 70.8400732659236 2.99999999999992
vertex 220.886129250069 70.7208842989752 2.99999999999992
endloop
endfacet
facet normal 0.258819045102583 -0.965925826289052 2.81300186741186e-016
outer loop
vertex 221.222345052132 70.9149985828021 2.99999999999992
vertex 221.041459335959 70.8400732659236 -7.82669955846915e-014
vertex 221.222345052132 70.9149985828021 -7.82669955846915e-014
endloop
endfacet
facet normal 0.500000000000044 -0.866025403784413 2.12549729431326e-016
outer loop
vertex 221.041459335959 70.8400732659236 -7.82669955846915e-014
vertex 221.222345052132 70.9149985828021 2.99999999999992
vertex 221.041459335959 70.8400732659236 2.99999999999992
endloop
endfacet
facet normal -3.00928181176007e-014 -1.0 3.3088050119519e-016
outer loop
vertex 221.416459335959 70.9405542130853 2.99999999999992
vertex 221.222345052132 70.9149985828021 -7.82669955846915e-014
vertex 221.416459335959 70.9405542130853 -7.82669955846915e-014
endloop
endfacet
facet normal 0.258819045102583 -0.965925826289052 2.81300186741186e-016
outer loop
vertex 221.222345052132 70.9149985828021 -7.82669955846915e-014
vertex 221.416459335959 70.9405542130853 2.99999999999992
vertex 221.222345052132 70.9149985828021 2.99999999999992
endloop
endfacet
facet normal -0.258819045102697 -0.965925826289021 3.57911856298611e-016
outer loop
vertex 221.610573619785 70.9149985828021 2.99999999999992
vertex 221.416459335959 70.9405542130853 -7.82669955846915e-014
vertex 221.610573619785 70.9149985828021 -7.82669955846915e-014
endloop
endfacet
facet normal -3.00928181176007e-014 -1.0 3.3088050119519e-016
outer loop
vertex 221.416459335959 70.9405542130853 -7.82669955846915e-014
vertex 221.610573619785 70.9149985828021 2.99999999999992
vertex 221.416459335959 70.9405542130853 2.99999999999992
endloop
endfacet
facet normal -0.499999999999877 -0.86602540378451 3.6055210987258e-016
outer loop
vertex 221.791459335959 70.8400732659236 2.99999999999992
vertex 221.610573619785 70.9149985828021 -7.82669955846915e-014
vertex 221.791459335959 70.8400732659236 -7.82669955846915e-014
endloop
endfacet
facet normal -0.258819045102697 -0.965925826289021 3.57911856298611e-016
outer loop
vertex 221.610573619785 70.9149985828021 -7.82669955846915e-014
vertex 221.791459335959 70.8400732659236 2.99999999999992
vertex 221.610573619785 70.9149985828021 2.99999999999992
endloop
endfacet
facet normal -0.707106781186448 -0.707106781186647 3.38621332999285e-016
outer loop
vertex 221.946789421849 70.7208842989752 2.99999999999992
vertex 221.791459335959 70.8400732659236 -7.82669955846915e-014
vertex 221.946789421849 70.7208842989752 -7.82669955846915e-014
endloop
endfacet
facet normal -0.499999999999877 -0.86602540378451 3.6055210987258e-016
outer loop
vertex 221.791459335959 70.8400732659236 -7.82669955846915e-014
vertex 221.946789421849 70.7208842989752 2.99999999999992
vertex 221.791459335959 70.8400732659236 2.99999999999992
endloop
endfacet
facet normal -0.707106781186448 -0.707106781186647 3.38621332999285e-016
outer loop
vertex 221.946789421849 70.7208842989752 2.99999999999992
vertex 222.065978388797 70.5655542130853 -7.82669955846915e-014
vertex 222.065978388797 70.5655542130853 2.99999999999992
endloop
endfacet
facet normal -0.866025403784483 -0.499999999999922 2.93614071880251e-016
outer loop
vertex 222.065978388797 70.5655542130853 -7.82669955846915e-014
vertex 221.946789421849 70.7208842989752 2.99999999999992
vertex 221.946789421849 70.7208842989752 -7.82669955846915e-014
endloop
endfacet
facet normal -0.866025403784483 -0.499999999999922 2.93614071880251e-016
outer loop
vertex 222.065978388797 70.5655542130853 2.99999999999992
vertex 222.140903705675 70.3846684969122 -7.82669955846915e-014
vertex 222.140903705675 70.3846684969122 2.99999999999992
endloop
endfacet
facet normal -0.965925826289044 -0.258819045102612 2.28597496982855e-016
outer loop
vertex 222.140903705675 70.3846684969122 -7.82669955846915e-014
vertex 222.065978388797 70.5655542130853 2.99999999999992
vertex 222.065978388797 70.5655542130853 -7.82669955846915e-014
endloop
endfacet
facet normal -0.866025403784439 0.499999999999999 -3.72664293149149e-017
outer loop
vertex 249.565978388797 69.8155542130853 2.99999999999992
vertex 249.446789421848 69.6602241271954 -7.82669955846915e-014
vertex 249.446789421848 69.6602241271954 2.99999999999992
endloop
endfacet
facet normal -0.707106781186677 0.707106781186418 -1.2931435931571e-016
outer loop
vertex 249.446789421848 69.6602241271954 -7.82669955846915e-014
vertex 249.565978388797 69.8155542130853 2.99999999999992
vertex 249.565978388797 69.8155542130853 -7.82669955846915e-014
endloop
endfacet
facet normal -0.500000000000081 0.866025403784392 -2.12549729431314e-016
outer loop
vertex 249.291459335959 69.5410351602469 -7.75620039640545e-014
vertex 249.446789421848 69.6602241271954 2.99999999999992
vertex 249.446789421848 69.6602241271954 -7.82669955846915e-014
endloop
endfacet
facet normal -0.707106781186677 0.707106781186418 -1.2931435931571e-016
outer loop
vertex 249.446789421848 69.6602241271954 2.99999999999992
vertex 249.291459335959 69.5410351602469 -7.75620039640545e-014
vertex 249.291459335959 69.5410351602469 2.99999999999992
endloop
endfacet
facet normal -0.258819045102391 0.965925826289103 -2.81300186741231e-016
outer loop
vertex 249.110573619785 69.4661098433685 2.99999999999992
vertex 249.291459335959 69.5410351602469 -7.75620039640545e-014
vertex 249.110573619785 69.4661098433685 -7.75620039640545e-014
endloop
endfacet
facet normal -0.500000000000081 0.866025403784392 -2.12549729431314e-016
outer loop
vertex 249.291459335959 69.5410351602469 -7.75620039640545e-014
vertex 249.110573619785 69.4661098433685 2.99999999999992
vertex 249.291459335959 69.5410351602469 2.99999999999992
endloop
endfacet
facet normal 0.0 1.0 -3.30880501195185e-016
outer loop
vertex 248.916459335959 69.4405542130853 2.99999999999992
vertex 249.110573619785 69.4661098433685 -7.75620039640545e-014
vertex 248.916459335959 69.4405542130853 -7.75620039640545e-014
endloop
endfacet
facet normal -0.258819045102391 0.965925826289103 -2.81300186741231e-016
outer loop
vertex 249.110573619785 69.4661098433685 -7.75620039640545e-014
vertex 248.916459335959 69.4405542130853 2.99999999999992
vertex 249.110573619785 69.4661098433685 2.99999999999992
endloop
endfacet
facet normal 0.258819045102391 0.965925826289103 -3.57911856298593e-016
outer loop
vertex 248.722345052132 69.4661098433685 2.99999999999992
vertex 248.916459335959 69.4405542130853 -7.75620039640545e-014
vertex 248.722345052132 69.4661098433685 -7.75620039640545e-014
endloop
endfacet
facet normal 0.0 1.0 -3.30880501195185e-016
outer loop
vertex 248.916459335959 69.4405542130853 -7.75620039640545e-014
vertex 248.722345052132 69.4661098433685 2.99999999999992
vertex 248.916459335959 69.4405542130853 2.99999999999992
endloop
endfacet
facet normal 0.500000000000081 0.866025403784392 -3.60552109872571e-016
outer loop
vertex 248.541459335959 69.5410351602469 2.99999999999992
vertex 248.722345052132 69.4661098433685 -7.75620039640545e-014
vertex 248.541459335959 69.5410351602469 -7.75620039640545e-014
endloop
endfacet
facet normal 0.258819045102391 0.965925826289103 -3.57911856298593e-016
outer loop
vertex 248.722345052132 69.4661098433685 -7.75620039640545e-014
vertex 248.541459335959 69.5410351602469 2.99999999999992
vertex 248.722345052132 69.4661098433685 2.99999999999992
endloop
endfacet
facet normal 0.707106781186677 0.707106781186418 -3.38621332999243e-016
outer loop
vertex 248.386129250069 69.6602241271954 2.99999999999992
vertex 248.541459335959 69.5410351602469 -7.75620039640545e-014
vertex 248.386129250069 69.6602241271954 -7.75620039640545e-014
endloop
endfacet
facet normal 0.500000000000081 0.866025403784392 -3.60552109872571e-016
outer loop
vertex 248.541459335959 69.5410351602469 -7.75620039640545e-014
vertex 248.386129250069 69.6602241271954 2.99999999999992
vertex 248.541459335959 69.5410351602469 2.99999999999992
endloop
endfacet
facet normal 0.866025403784439 0.499999999999999 -2.93614071880269e-016
outer loop
vertex 248.26694028312 69.8155542130853 -7.75620039640545e-014
vertex 248.386129250069 69.6602241271954 2.99999999999992
vertex 248.386129250069 69.6602241271954 -7.75620039640545e-014
endloop
endfacet
facet normal 0.707106781186677 0.707106781186418 -3.38621332999243e-016
outer loop
vertex 248.386129250069 69.6602241271954 2.99999999999992
vertex 248.26694028312 69.8155542130853 -7.75620039640545e-014
vertex 248.26694028312 69.8155542130853 2.99999999999992
endloop
endfacet
facet normal 0.965925826289029 0.258819045102668 -2.28597496982871e-016
outer loop
vertex 248.192014966242 69.9964399292584 -7.75620039640545e-014
vertex 248.26694028312 69.8155542130853 2.99999999999992
vertex 248.26694028312 69.8155542130853 -7.75620039640545e-014
endloop
endfacet
facet normal 0.866025403784439 0.499999999999999 -2.93614071880269e-016
outer loop
vertex 248.26694028312 69.8155542130853 2.99999999999992
vertex 248.192014966242 69.9964399292584 -7.75620039640545e-014
vertex 248.192014966242 69.9964399292584 2.99999999999992
endloop
endfacet
facet normal 1.0 -3.02353958759311e-014 -1.48002380441223e-016
outer loop
vertex 248.166459335959 70.1905542130853 -7.82669955846915e-014
vertex 248.192014966242 69.9964399292584 2.99999999999992
vertex 248.192014966242 69.9964399292584 -7.75620039640545e-014
endloop
endfacet
facet normal 0.965925826289029 0.258819045102668 -2.28597496982872e-016
outer loop
vertex 248.192014966242 69.9964399292584 2.99999999999992
vertex 248.166459335959 70.1905542130853 -7.82669955846915e-014
vertex 248.166459335959 70.1905542130853 2.99999999999992
endloop
endfacet
facet normal 0.965925826289044 -0.258819045102612 -5.73211462580322e-017
outer loop
vertex 248.192014966242 70.3846684969122 -7.82669955846915e-014
vertex 248.166459335959 70.1905542130853 2.99999999999992
vertex 248.166459335959 70.1905542130853 -7.82669955846915e-014
endloop
endfacet
facet normal 1.0 -2.99413292493746e-014 -1.48002380441223e-016
outer loop
vertex 248.166459335959 70.1905542130853 2.99999999999992
vertex 248.192014966242 70.3846684969122 -7.82669955846915e-014
vertex 248.192014966242 70.3846684969122 2.99999999999992
endloop
endfacet
facet normal 0.866025403784483 -0.499999999999922 3.72664293148831e-017
outer loop
vertex 248.26694028312 70.5655542130853 -7.82669955846915e-014
vertex 248.192014966242 70.3846684969122 2.99999999999992
vertex 248.192014966242 70.3846684969122 -7.82669955846915e-014
endloop
endfacet
facet normal 0.965925826289044 -0.258819045102612 -5.73211462580322e-017
outer loop
vertex 248.192014966242 70.3846684969122 2.99999999999992
vertex 248.26694028312 70.5655542130853 -7.82669955846915e-014
vertex 248.26694028312 70.5655542130853 2.99999999999992
endloop
endfacet
facet normal 0.707106781186548 -0.707106781186548 1.29314359315772e-016
outer loop
vertex 248.386129250069 70.7208842989752 -7.82669955846915e-014
vertex 248.26694028312 70.5655542130853 2.99999999999992
vertex 248.26694028312 70.5655542130853 -7.82669955846915e-014
endloop
endfacet
facet normal 0.866025403784483 -0.499999999999922 3.72664293148831e-017
outer loop
vertex 248.26694028312 70.5655542130853 2.99999999999992
vertex 248.386129250069 70.7208842989752 -7.82669955846915e-014
vertex 248.386129250069 70.7208842989752 2.99999999999992
endloop
endfacet
facet normal 0.499999999999922 -0.866025403784483 2.12549729431367e-016
outer loop
vertex 248.541459335959 70.8400732659236 2.99999999999992
vertex 248.386129250069 70.7208842989752 -7.82669955846915e-014
vertex 248.541459335959 70.8400732659236 -7.82669955846915e-014
endloop
endfacet
facet normal 0.707106781186548 -0.707106781186548 1.29314359315772e-016
outer loop
vertex 248.386129250069 70.7208842989752 -7.82669955846915e-014
vertex 248.541459335959 70.8400732659236 2.99999999999992
vertex 248.386129250069 70.7208842989752 2.99999999999992
endloop
endfacet
facet normal 0.258819045102612 -0.965925826289044 2.81300186741179e-016
outer loop
vertex 248.722345052132 70.9149985828021 2.99999999999992
vertex 248.541459335959 70.8400732659236 -7.82669955846915e-014
vertex 248.722345052132 70.9149985828021 -7.82669955846915e-014
endloop
endfacet
facet normal 0.499999999999922 -0.866025403784483 2.12549729431367e-016
outer loop
vertex 248.541459335959 70.8400732659236 -7.82669955846915e-014
vertex 248.722345052132 70.9149985828021 2.99999999999992
vertex 248.541459335959 70.8400732659236 2.99999999999992
endloop
endfacet
facet normal 0.0 -1.0 3.30880501195185e-016
outer loop
vertex 248.916459335959 70.9405542130853 2.99999999999992
vertex 248.722345052132 70.9149985828021 -7.82669955846915e-014
vertex 248.916459335959 70.9405542130853 -7.82669955846915e-014
endloop
endfacet
facet normal 0.258819045102612 -0.965925826289044 2.81300186741179e-016
outer loop
vertex 248.722345052132 70.9149985828021 -7.82669955846915e-014
vertex 248.916459335959 70.9405542130853 2.99999999999992
vertex 248.722345052132 70.9149985828021 2.99999999999992
endloop
endfacet
facet normal -0.258819045102612 -0.965925826289044 3.57911856298606e-016
outer loop
vertex 249.110573619785 70.9149985828021 2.99999999999992
vertex 248.916459335959 70.9405542130853 -7.82669955846915e-014
vertex 249.110573619785 70.9149985828021 -7.82669955846915e-014
endloop
endfacet
facet normal 0.0 -1.0 3.30880501195185e-016
outer loop
vertex 248.916459335959 70.9405542130853 -7.82669955846915e-014
vertex 249.110573619785 70.9149985828021 2.99999999999992
vertex 248.916459335959 70.9405542130853 2.99999999999992
endloop
endfacet
facet normal -0.499999999999922 -0.866025403784483 3.60552109872578e-016
outer loop
vertex 249.291459335959 70.8400732659236 2.99999999999992
vertex 249.110573619785 70.9149985828021 -7.82669955846915e-014
vertex 249.291459335959 70.8400732659236 -7.82669955846915e-014
endloop
endfacet
facet normal -0.258819045102612 -0.965925826289044 3.57911856298606e-016
outer loop
vertex 249.110573619785 70.9149985828021 -7.82669955846915e-014
vertex 249.291459335959 70.8400732659236 2.99999999999992
vertex 249.110573619785 70.9149985828021 2.99999999999992
endloop
endfacet
facet normal -0.707106781186548 -0.707106781186548 3.38621332999266e-016
outer loop
vertex 249.446789421848 70.7208842989752 2.99999999999992
vertex 249.291459335959 70.8400732659236 -7.82669955846915e-014
vertex 249.446789421848 70.7208842989752 -7.82669955846915e-014
endloop
endfacet
facet normal -0.499999999999922 -0.866025403784483 3.60552109872578e-016
outer loop
vertex 249.291459335959 70.8400732659236 -7.82669955846915e-014
vertex 249.446789421848 70.7208842989752 2.99999999999992
vertex 249.291459335959 70.8400732659236 2.99999999999992
endloop
endfacet
facet normal -0.707106781186548 -0.707106781186548 3.38621332999266e-016
outer loop
vertex 249.446789421848 70.7208842989752 2.99999999999992
vertex 249.565978388797 70.5655542130853 -7.82669955846915e-014
vertex 249.565978388797 70.5655542130853 2.99999999999992
endloop
endfacet
facet normal -0.866025403784483 -0.499999999999922 2.93614071880251e-016
outer loop
vertex 249.565978388797 70.5655542130853 -7.82669955846915e-014
vertex 249.446789421848 70.7208842989752 2.99999999999992
vertex 249.446789421848 70.7208842989752 -7.82669955846915e-014
endloop
endfacet
facet normal -0.866025403784483 -0.499999999999922 2.93614071880251e-016
outer loop
vertex 249.565978388797 70.5655542130853 2.99999999999992
vertex 249.640903705675 70.3846684969122 -7.82669955846915e-014
vertex 249.640903705675 70.3846684969122 2.99999999999992
endloop
endfacet
facet normal -0.965925826289044 -0.258819045102612 2.28597496982855e-016
outer loop
vertex 249.640903705675 70.3846684969122 -7.82669955846915e-014
vertex 249.565978388797 70.5655542130853 2.99999999999992
vertex 249.565978388797 70.5655542130853 -7.82669955846915e-014
endloop
endfacet
facet normal -0.965925826289044 -0.258819045102612 2.28597496982855e-016
outer loop
vertex 249.640903705675 70.3846684969122 2.99999999999992
vertex 249.666459335959 70.1905542130853 -7.82669955846915e-014
vertex 249.666459335959 70.1905542130853 2.99999999999992
endloop
endfacet
facet normal -1.0 -3.00928181176007e-014 1.48002380441243e-016
outer loop
vertex 249.666459335959 70.1905542130853 -7.82669955846915e-014
vertex 249.640903705675 70.3846684969122 2.99999999999992
vertex 249.640903705675 70.3846684969122 -7.82669955846915e-014
endloop
endfacet
facet normal -1.0 -3.00928181176007e-014 1.48002380441243e-016
outer loop
vertex 249.666459335959 70.1905542130853 2.99999999999992
vertex 249.640903705675 69.9964399292584 -7.82669955846915e-014
vertex 249.640903705675 69.9964399292584 2.99999999999992
endloop
endfacet
facet normal -0.965925826289029 0.258819045102668 5.73211462580114e-017
outer loop
vertex 249.640903705675 69.9964399292584 -7.82669955846915e-014
vertex 249.666459335959 70.1905542130853 2.99999999999992
vertex 249.666459335959 70.1905542130853 -7.82669955846915e-014
endloop
endfacet
facet normal -0.965925826289029 0.258819045102668 5.73211462580114e-017
outer loop
vertex 249.640903705675 69.9964399292584 2.99999999999992
vertex 249.565978388797 69.8155542130853 -7.82669955846915e-014
vertex 249.565978388797 69.8155542130853 2.99999999999992
endloop
endfacet
facet normal -0.866025403784439 0.499999999999999 -3.72664293149149e-017
outer loop
vertex 249.565978388797 69.8155542130853 -7.82669955846915e-014
vertex 249.640903705675 69.9964399292584 2.99999999999992
vertex 249.640903705675 69.9964399292584 -7.82669955846915e-014
endloop
endfacet
endsolid uploads-c5-af-25-85-c2-plotclock_SUP7
