solid uploads-c5-af-25-85-c2-plotclock_SUP7
facet normal -3.02562525357303e-017 -4.15498919614897e-018 -1.0
outer loop
vertex 368.480251278334 20.0300526578743 2.99999999999991
vertex 369.033165548948 14.2344977001404 2.99999999999991
vertex 368.546108989819 -20.7655022998599 2.99999999999991
endloop
endfacet
facet normal -3.02562525357303e-017 -4.15498919614897e-018 -1.0
outer loop
vertex 369.033165548948 14.2344977001404 2.99999999999991
vertex 368.480251278334 20.0300526578743 2.99999999999991
vertex 369.06723972266 14.4933167452427 2.99999999999991
endloop
endfacet
facet normal -3.02562525357303e-017 -4.15498919614897e-018 -1.0
outer loop
vertex 369.06723972266 14.4933167452427 2.99999999999991
vertex 368.480251278334 20.0300526578743 2.99999999999991
vertex 370.033165548949 20.2344977001403 2.99999999999991
endloop
endfacet
facet normal -3.02562525357303e-017 -4.15498919614897e-018 -1.0
outer loop
vertex 368.546108989819 -20.7655022998599 2.99999999999991
vertex 369.033165548948 14.2344977001404 2.99999999999991
vertex 368.596779213333 -20.3806237412125 2.99999999999991
endloop
endfacet
facet normal -3.02562525357303e-017 -4.15498919614897e-018 -1.0
outer loop
vertex 368.596779213333 -20.3806237412125 2.99999999999991
vertex 369.033165548948 14.2344977001404 2.99999999999991
vertex 368.745336791879 -20.0219740202953 2.99999999999991
endloop
endfacet
facet normal -3.02562525357303e-017 -4.15498919614897e-018 -1.0
outer loop
vertex 368.745336791879 -20.0219740202953 2.99999999999991
vertex 369.033165548948 14.2344977001404 2.99999999999991
vertex 368.98165777198 -19.7139945228912 2.99999999999991
endloop
endfacet
facet normal -3.02562525357303e-017 -4.15498919614897e-018 -1.0
outer loop
vertex 369.06723972266 14.4933167452427 2.99999999999991
vertex 370.033165548949 20.2344977001403 2.99999999999991
vertex 369.167140145164 14.7344977001402 2.99999999999991
endloop
endfacet
facet normal -3.02562525357303e-017 -4.15498919614897e-018 -1.0
outer loop
vertex 369.167140145164 14.7344977001402 2.99999999999991
vertex 370.033165548949 20.2344977001403 2.99999999999991
vertex 369.326058767762 14.9416044813266 2.99999999999991
endloop
endfacet
facet normal -3.02562525357303e-017 -4.15498919614897e-018 -1.0
outer loop
vertex 369.326058767762 14.9416044813266 2.99999999999991
vertex 370.033165548949 20.2344977001403 2.99999999999991
vertex 369.533165548949 15.1005231039244 2.99999999999991
endloop
endfacet
facet normal -3.02562525357303e-017 -4.15498919614897e-018 -1.0
outer loop
vertex 369.533165548949 15.1005231039244 2.99999999999991
vertex 370.033165548949 20.2344977001403 2.99999999999991
vertex 369.774346503846 15.2004235264294 2.99999999999991
endloop
endfacet
facet normal -3.02562525357303e-017 -4.15498919614897e-018 -1.0
outer loop
vertex 369.774346503846 15.2004235264294 2.99999999999991
vertex 370.033165548949 20.2344977001403 2.99999999999991
vertex 370.033165548949 15.23449770014 2.99999999999991
endloop
endfacet
facet normal -3.02562525357303e-017 -4.15498919614897e-018 -1.0
outer loop
vertex 370.033165548949 15.23449770014 2.99999999999991
vertex 370.033165548949 20.2344977001403 2.99999999999991
vertex 370.291984594051 15.2004235264294 2.99999999999991
endloop
endfacet
facet normal -3.02562525357303e-017 -4.15498919614897e-018 -1.0
outer loop
vertex 370.291984594051 15.2004235264294 2.99999999999991
vertex 370.033165548949 20.2344977001403 2.99999999999991
vertex 371.586079819564 20.0300526578746 2.99999999999991
endloop
endfacet
facet normal -3.02562525357303e-017 -4.15498919614897e-018 -1.0
outer loop
vertex 370.291984594051 15.2004235264294 2.99999999999991
vertex 371.586079819564 20.0300526578746 2.99999999999991
vertex 370.533165548949 15.1005231039245 2.99999999999991
endloop
endfacet
facet normal -3.02562525357303e-017 -4.15498919614897e-018 -1.0
outer loop
vertex 370.533165548949 15.1005231039245 2.99999999999991
vertex 371.586079819564 20.0300526578746 2.99999999999991
vertex 370.740272330135 14.9416044813265 2.99999999999991
endloop
endfacet
facet normal -3.02562525357303e-017 -4.15498919614897e-018 -1.0
outer loop
vertex 370.740272330135 14.9416044813265 2.99999999999991
vertex 371.586079819564 20.0300526578746 2.99999999999991
vertex 370.899190952734 14.7344977001402 2.99999999999991
endloop
endfacet
facet normal -3.02562525357303e-017 -4.15498919614897e-018 -1.0
outer loop
vertex 370.899190952734 14.7344977001402 2.99999999999991
vertex 371.586079819564 20.0300526578746 2.99999999999991
vertex 370.999091375238 14.4933167452428 2.99999999999991
endloop
endfacet
facet normal -3.02562525357303e-017 -4.15498919614897e-018 -1.0
outer loop
vertex 370.999091375238 14.4933167452428 2.99999999999991
vertex 371.586079819564 20.0300526578746 2.99999999999991
vertex 371.033165548949 14.2344977001402 2.99999999999991
endloop
endfacet
facet normal -3.02562525357303e-017 -4.15498919614897e-018 -1.0
outer loop
vertex 371.033165548949 14.2344977001402 2.99999999999991
vertex 371.586079819564 20.0300526578746 2.99999999999991
vertex 371.084673325918 -19.7139945228919 2.99999999999991
endloop
endfacet
facet normal -3.02562525357303e-017 -4.15498919614897e-018 -1.0
outer loop
vertex 371.084673325918 -19.7139945228919 2.99999999999991
vertex 371.586079819564 20.0300526578746 2.99999999999991
vertex 371.320994306019 -20.0219740202949 2.99999999999991
endloop
endfacet
facet normal -3.02562525357303e-017 -4.15498919614897e-018 -1.0
outer loop
vertex 371.320994306019 -20.0219740202949 2.99999999999991
vertex 371.586079819564 20.0300526578746 2.99999999999991
vertex 371.469551884565 -20.3806237412126 2.99999999999991
endloop
endfacet
facet normal -3.02562525357303e-017 -4.15498919614897e-018 -1.0
outer loop
vertex 371.469551884565 -20.3806237412126 2.99999999999991
vertex 371.586079819564 20.0300526578746 2.99999999999991
vertex 371.520222108078 -20.7655022998597 2.99999999999991
endloop
endfacet
facet normal -3.02562525357303e-017 -4.15498919614897e-018 -1.0
outer loop
vertex 374.275806236068 18.4771383872594 2.99999999999991
vertex 374.275806236068 9.99185701302063 2.99999999999991
vertex 374.275806236068 -16.5228616127408 2.99999999999991
endloop
endfacet
facet normal -3.02562525357303e-017 -4.15498919614897e-018 -1.0
outer loop
vertex 374.275806236068 9.99185701302063 2.99999999999991
vertex 374.275806236068 18.4771383872594 2.99999999999991
vertex 375.229317971656 17.2344977001401 2.99999999999991
endloop
endfacet
facet normal -3.02562525357303e-017 -4.15498919614897e-018 -1.0
outer loop
vertex 374.275806236068 9.99185701302063 2.99999999999991
vertex 375.229317971656 17.2344977001401 2.99999999999991
vertex 375.229317971655 11.2344977001402 2.99999999999991
endloop
endfacet
facet normal -3.02562525357303e-017 -4.15498919614897e-018 -1.0
outer loop
vertex 375.229317971655 11.2344977001402 2.99999999999991
vertex 375.229317971656 17.2344977001401 2.99999999999991
vertex 375.828720506684 12.681583429525 2.99999999999991
endloop
endfacet
facet normal -3.02562525357303e-017 -4.15498919614897e-018 -1.0
outer loop
vertex 375.828720506684 12.681583429525 2.99999999999991
vertex 375.229317971656 17.2344977001401 2.99999999999991
vertex 375.828720506683 15.787411970755 2.99999999999991
endloop
endfacet
facet normal -3.02562525357303e-017 -4.15498919614897e-018 -1.0
outer loop
vertex 375.828720506684 12.681583429525 2.99999999999991
vertex 375.828720506683 15.787411970755 2.99999999999991
vertex 376.033165548948 14.2344977001402 2.99999999999991
endloop
endfacet
facet normal -3.02562525357303e-017 -4.15498919614897e-018 -1.0
outer loop
vertex 364.237610591214 15.7874119707555 2.99999999999991
vertex 364.237610591214 12.681583429525 2.99999999999991
vertex 364.033165548949 14.2344977001402 2.99999999999991
endloop
endfacet
facet normal -3.02562525357303e-017 -4.15498919614897e-018 -1.0
outer loop
vertex 364.237610591214 12.681583429525 2.99999999999991
vertex 364.237610591214 15.7874119707555 2.99999999999991
vertex 364.837013126242 11.2344977001402 2.99999999999991
endloop
endfacet
facet normal -3.02562525357303e-017 -4.15498919614897e-018 -1.0
outer loop
vertex 364.837013126242 11.2344977001402 2.99999999999991
vertex 364.237610591214 15.7874119707555 2.99999999999991
vertex 364.837013126242 17.2344977001402 2.99999999999991
endloop
endfacet
facet normal -3.02562525357303e-017 -4.15498919614897e-018 -1.0
outer loop
vertex 364.837013126242 11.2344977001402 2.99999999999991
vertex 364.837013126242 17.2344977001402 2.99999999999991
vertex 365.790524861829 9.99185701302041 2.99999999999991
endloop
endfacet
facet normal -3.02562525357303e-017 -4.15498919614897e-018 -1.0
outer loop
vertex 365.790524861829 9.99185701302041 2.99999999999991
vertex 364.837013126242 17.2344977001402 2.99999999999991
vertex 365.790524861829 18.4771383872597 2.99999999999991
endloop
endfacet
facet normal -3.02562525357303e-017 -4.15498919614897e-018 -1.0
outer loop
vertex 365.790524861829 9.99185701302041 2.99999999999991
vertex 365.790524861829 18.4771383872597 2.99999999999991
vertex 365.790524861829 -16.5228616127406 2.99999999999991
endloop
endfacet
facet normal -3.02562525357303e-017 -4.15498919614897e-018 -1.0
outer loop
vertex 365.790524861829 -16.5228616127406 2.99999999999991
vertex 365.790524861829 18.4771383872597 2.99999999999991
vertex 367.033165548949 19.4306501228466 2.99999999999991
endloop
endfacet
facet normal -3.02562525357303e-017 -4.15498919614897e-018 -1.0
outer loop
vertex 365.790524861829 -16.5228616127406 2.99999999999991
vertex 367.033165548949 19.4306501228466 2.99999999999991
vertex 365.79052486183 -25.0081429869791 2.99999999999991
endloop
endfacet
facet normal -3.02562525357303e-017 -4.15498919614897e-018 -1.0
outer loop
vertex 365.79052486183 -25.0081429869791 2.99999999999991
vertex 367.033165548949 19.4306501228466 2.99999999999991
vertex 367.033165548949 -25.9616547225664 2.99999999999991
endloop
endfacet
facet normal -3.02562525357303e-017 -4.15498919614897e-018 -1.0
outer loop
vertex 367.033165548949 -25.9616547225664 2.99999999999991
vertex 367.033165548949 19.4306501228466 2.99999999999991
vertex 368.480251278333 -26.5610572575943 2.99999999999991
endloop
endfacet
facet normal -3.02562525357303e-017 -4.15498919614897e-018 -1.0
outer loop
vertex 368.480251278333 -26.5610572575943 2.99999999999991
vertex 367.033165548949 19.4306501228466 2.99999999999991
vertex 368.480251278334 20.0300526578743 2.99999999999991
endloop
endfacet
facet normal -3.02562525357303e-017 -4.15498919614897e-018 -1.0
outer loop
vertex 368.480251278333 -26.5610572575943 2.99999999999991
vertex 368.480251278334 20.0300526578743 2.99999999999991
vertex 368.546108989819 -20.7655022998599 2.99999999999991
endloop
endfacet
facet normal -3.02562525357303e-017 -4.15498919614897e-018 -1.0
outer loop
vertex 368.480251278333 -26.5610572575943 2.99999999999991
vertex 368.546108989819 -20.7655022998599 2.99999999999991
vertex 368.596779213333 -21.150380858507 2.99999999999991
endloop
endfacet
facet normal -3.02562525357303e-017 -4.15498919614897e-018 -1.0
outer loop
vertex 368.480251278333 -26.5610572575943 2.99999999999991
vertex 368.596779213333 -21.150380858507 2.99999999999991
vertex 370.033165548949 -26.7655022998599 2.99999999999991
endloop
endfacet
facet normal -3.02562525357303e-017 -4.15498919614897e-018 -1.0
outer loop
vertex 370.033165548949 -26.7655022998599 2.99999999999991
vertex 368.596779213333 -21.150380858507 2.99999999999991
vertex 368.745336791878 -21.5090305794246 2.99999999999991
endloop
endfacet
facet normal -3.02562525357303e-017 -4.15498919614897e-018 -1.0
outer loop
vertex 370.033165548949 -26.7655022998599 2.99999999999991
vertex 368.745336791878 -21.5090305794246 2.99999999999991
vertex 368.98165777198 -21.8170100768287 2.99999999999991
endloop
endfacet
facet normal -3.02562525357303e-017 -4.15498919614897e-018 -1.0
outer loop
vertex 370.033165548949 -26.7655022998599 2.99999999999991
vertex 368.98165777198 -21.8170100768287 2.99999999999991
vertex 369.289637269384 -22.0533310569305 2.99999999999991
endloop
endfacet
facet normal -3.02562525357303e-017 -4.15498919614897e-018 -1.0
outer loop
vertex 370.033165548949 -26.7655022998599 2.99999999999991
vertex 369.289637269384 -22.0533310569305 2.99999999999991
vertex 369.648286990301 -22.201888635476 2.99999999999991
endloop
endfacet
facet normal -3.02562525357303e-017 -4.15498919614897e-018 -1.0
outer loop
vertex 370.033165548949 -26.7655022998599 2.99999999999991
vertex 369.648286990301 -22.201888635476 2.99999999999991
vertex 370.033165548949 -22.2525588589898 2.99999999999991
endloop
endfacet
facet normal -3.02562525357303e-017 -4.15498919614897e-018 -1.0
outer loop
vertex 370.033165548949 -26.7655022998599 2.99999999999991
vertex 370.033165548949 -22.2525588589898 2.99999999999991
vertex 370.418044107596 -22.2018886354759 2.99999999999991
endloop
endfacet
facet normal -3.02562525357303e-017 -4.15498919614897e-018 -1.0
outer loop
vertex 370.033165548949 -26.7655022998599 2.99999999999991
vertex 370.418044107596 -22.2018886354759 2.99999999999991
vertex 371.586079819564 -26.5610572575944 2.99999999999991
endloop
endfacet
facet normal -3.02562525357303e-017 -4.15498919614897e-018 -1.0
outer loop
vertex 371.586079819564 -26.5610572575944 2.99999999999991
vertex 370.418044107596 -22.2018886354759 2.99999999999991
vertex 370.776693828514 -22.0533310569305 2.99999999999991
endloop
endfacet
facet normal -3.02562525357303e-017 -4.15498919614897e-018 -1.0
outer loop
vertex 371.586079819564 -26.5610572575944 2.99999999999991
vertex 370.776693828514 -22.0533310569305 2.99999999999991
vertex 371.084673325917 -21.8170100768285 2.99999999999991
endloop
endfacet
facet normal -3.02562525357303e-017 -4.15498919614897e-018 -1.0
outer loop
vertex 371.586079819564 -26.5610572575944 2.99999999999991
vertex 371.084673325917 -21.8170100768285 2.99999999999991
vertex 371.320994306019 -21.5090305794249 2.99999999999991
endloop
endfacet
facet normal -3.02562525357303e-017 -4.15498919614897e-018 -1.0
outer loop
vertex 371.586079819564 -26.5610572575944 2.99999999999991
vertex 371.320994306019 -21.5090305794249 2.99999999999991
vertex 371.469551884565 -21.1503808585068 2.99999999999991
endloop
endfacet
facet normal -3.02562525357303e-017 -4.15498919614897e-018 -1.0
outer loop
vertex 371.586079819564 -26.5610572575944 2.99999999999991
vertex 371.469551884565 -21.1503808585068 2.99999999999991
vertex 371.520222108078 -20.7655022998597 2.99999999999991
endloop
endfacet
facet normal -3.02562525357303e-017 -4.15498919614897e-018 -1.0
outer loop
vertex 371.586079819564 -26.5610572575944 2.99999999999991
vertex 371.520222108078 -20.7655022998597 2.99999999999991
vertex 371.586079819564 20.0300526578746 2.99999999999991
endloop
endfacet
facet normal -3.02562525357303e-017 -4.15498919614897e-018 -1.0
outer loop
vertex 371.586079819564 -26.5610572575944 2.99999999999991
vertex 371.586079819564 20.0300526578746 2.99999999999991
vertex 373.033165548949 19.4306501228466 2.99999999999991
endloop
endfacet
facet normal -3.02562525357303e-017 -4.15498919614897e-018 -1.0
outer loop
vertex 371.586079819564 -26.5610572575944 2.99999999999991
vertex 373.033165548949 19.4306501228466 2.99999999999991
vertex 373.033165548949 -25.9616547225664 2.99999999999991
endloop
endfacet
facet normal -3.02562525357303e-017 -4.15498919614897e-018 -1.0
outer loop
vertex 373.033165548949 -25.9616547225664 2.99999999999991
vertex 373.033165548949 19.4306501228466 2.99999999999991
vertex 374.275806236068 -25.0081429869793 2.99999999999991
endloop
endfacet
facet normal -3.02562525357303e-017 -4.15498919614897e-018 -1.0
outer loop
vertex 374.275806236068 -25.0081429869793 2.99999999999991
vertex 373.033165548949 19.4306501228466 2.99999999999991
vertex 374.275806236068 -16.5228616127408 2.99999999999991
endloop
endfacet
facet normal -3.02562525357303e-017 -4.15498919614897e-018 -1.0
outer loop
vertex 374.275806236068 -16.5228616127408 2.99999999999991
vertex 373.033165548949 19.4306501228466 2.99999999999991
vertex 374.275806236068 18.4771383872594 2.99999999999991
endloop
endfacet
facet normal -3.02562525357303e-017 -4.15498919614897e-018 -1.0
outer loop
vertex 374.275806236068 -25.0081429869793 2.99999999999991
vertex 374.275806236068 -16.5228616127408 2.99999999999991
vertex 375.229317971655 -17.7655022998598 2.99999999999991
endloop
endfacet
facet normal -3.02562525357303e-017 -4.15498919614897e-018 -1.0
outer loop
vertex 374.275806236068 -25.0081429869793 2.99999999999991
vertex 375.229317971655 -17.7655022998598 2.99999999999991
vertex 375.229317971655 -23.7655022998601 2.99999999999991
endloop
endfacet
facet normal -3.02562525357303e-017 -4.15498919614897e-018 -1.0
outer loop
vertex 375.229317971655 -23.7655022998601 2.99999999999991
vertex 375.229317971655 -17.7655022998598 2.99999999999991
vertex 375.828720506683 -19.2125880292449 2.99999999999991
endloop
endfacet
facet normal -3.02562525357303e-017 -4.15498919614897e-018 -1.0
outer loop
vertex 375.229317971655 -23.7655022998601 2.99999999999991
vertex 375.828720506683 -19.2125880292449 2.99999999999991
vertex 375.828720506684 -22.3184165704751 2.99999999999991
endloop
endfacet
facet normal -3.02562525357303e-017 -4.15498919614897e-018 -1.0
outer loop
vertex 375.828720506684 -22.3184165704751 2.99999999999991
vertex 375.828720506683 -19.2125880292449 2.99999999999991
vertex 376.033165548949 -20.76550229986 2.99999999999991
endloop
endfacet
facet normal -3.02562525357303e-017 -4.15498919614897e-018 -1.0
outer loop
vertex 369.033165548948 14.2344977001404 2.99999999999991
vertex 369.289637269384 -19.4776735427896 2.99999999999991
vertex 368.98165777198 -19.7139945228912 2.99999999999991
endloop
endfacet
facet normal -3.02562525357303e-017 -4.15498919614897e-018 -1.0
outer loop
vertex 369.289637269384 -19.4776735427896 2.99999999999991
vertex 369.033165548948 14.2344977001404 2.99999999999991
vertex 369.067239722659 13.9756786550375 2.99999999999991
endloop
endfacet
facet normal -3.02562525357303e-017 -4.15498919614897e-018 -1.0
outer loop
vertex 369.289637269384 -19.4776735427896 2.99999999999991
vertex 369.067239722659 13.9756786550375 2.99999999999991
vertex 369.167140145164 13.7344977001401 2.99999999999991
endloop
endfacet
facet normal -3.02562525357303e-017 -4.15498919614897e-018 -1.0
outer loop
vertex 369.289637269384 -19.4776735427896 2.99999999999991
vertex 369.167140145164 13.7344977001401 2.99999999999991
vertex 369.326058767762 13.5273909189534 2.99999999999991
endloop
endfacet
facet normal -3.02562525357303e-017 -4.15498919614897e-018 -1.0
outer loop
vertex 369.289637269384 -19.4776735427896 2.99999999999991
vertex 369.326058767762 13.5273909189534 2.99999999999991
vertex 369.648286990302 -19.3291159642442 2.99999999999991
endloop
endfacet
facet normal -3.02562525357303e-017 -4.15498919614897e-018 -1.0
outer loop
vertex 369.648286990302 -19.3291159642442 2.99999999999991
vertex 369.326058767762 13.5273909189534 2.99999999999991
vertex 369.533165548949 13.3684722963556 2.99999999999991
endloop
endfacet
facet normal -3.02562525357303e-017 -4.15498919614897e-018 -1.0
outer loop
vertex 369.648286990302 -19.3291159642442 2.99999999999991
vertex 369.533165548949 13.3684722963556 2.99999999999991
vertex 369.774346503846 13.268571873851 2.99999999999991
endloop
endfacet
facet normal -3.02562525357303e-017 -4.15498919614897e-018 -1.0
outer loop
vertex 369.648286990302 -19.3291159642442 2.99999999999991
vertex 369.774346503846 13.268571873851 2.99999999999991
vertex 370.033165548949 -19.2784457407302 2.99999999999991
endloop
endfacet
facet normal -3.02562525357303e-017 -4.15498919614897e-018 -1.0
outer loop
vertex 370.033165548949 -19.2784457407302 2.99999999999991
vertex 369.774346503846 13.268571873851 2.99999999999991
vertex 370.033165548948 13.2344977001402 2.99999999999991
endloop
endfacet
facet normal -3.02562525357303e-017 -4.15498919614897e-018 -1.0
outer loop
vertex 370.033165548949 -19.2784457407302 2.99999999999991
vertex 370.033165548948 13.2344977001402 2.99999999999991
vertex 370.291984594052 13.2685718738511 2.99999999999991
endloop
endfacet
facet normal -3.02562525357303e-017 -4.15498919614897e-018 -1.0
outer loop
vertex 370.033165548949 -19.2784457407302 2.99999999999991
vertex 370.291984594052 13.2685718738511 2.99999999999991
vertex 370.418044107597 -19.3291159642441 2.99999999999991
endloop
endfacet
facet normal -3.02562525357303e-017 -4.15498919614897e-018 -1.0
outer loop
vertex 370.418044107597 -19.3291159642441 2.99999999999991
vertex 370.291984594052 13.2685718738511 2.99999999999991
vertex 370.533165548949 13.3684722963554 2.99999999999991
endloop
endfacet
facet normal -3.02562525357303e-017 -4.15498919614897e-018 -1.0
outer loop
vertex 370.418044107597 -19.3291159642441 2.99999999999991
vertex 370.533165548949 13.3684722963554 2.99999999999991
vertex 370.776693828513 -19.477673542789 2.99999999999991
endloop
endfacet
facet normal -3.02562525357303e-017 -4.15498919614897e-018 -1.0
outer loop
vertex 370.776693828513 -19.477673542789 2.99999999999991
vertex 370.533165548949 13.3684722963554 2.99999999999991
vertex 370.740272330136 13.5273909189533 2.99999999999991
endloop
endfacet
facet normal -3.02562525357303e-017 -4.15498919614897e-018 -1.0
outer loop
vertex 370.776693828513 -19.477673542789 2.99999999999991
vertex 370.740272330136 13.5273909189533 2.99999999999991
vertex 370.899190952734 13.7344977001401 2.99999999999991
endloop
endfacet
facet normal -3.02562525357303e-017 -4.15498919614897e-018 -1.0
outer loop
vertex 370.776693828513 -19.477673542789 2.99999999999991
vertex 370.899190952734 13.7344977001401 2.99999999999991
vertex 371.084673325918 -19.7139945228919 2.99999999999991
endloop
endfacet
facet normal -3.02562525357303e-017 -4.15498919614897e-018 -1.0
outer loop
vertex 371.084673325918 -19.7139945228919 2.99999999999991
vertex 370.899190952734 13.7344977001401 2.99999999999991
vertex 370.999091375238 13.9756786550371 2.99999999999991
endloop
endfacet
facet normal -3.02562525357303e-017 -4.15498919614897e-018 -1.0
outer loop
vertex 371.084673325918 -19.7139945228919 2.99999999999991
vertex 370.999091375238 13.9756786550371 2.99999999999991
vertex 371.033165548949 14.2344977001402 2.99999999999991
endloop
endfacet
facet normal -3.02562525357303e-017 -4.15498919614897e-018 -1.0
outer loop
vertex 364.237610591214 -19.212588029245 2.99999999999991
vertex 364.237610591214 -22.3184165704748 2.99999999999991
vertex 364.033165548949 -20.76550229986 2.99999999999991
endloop
endfacet
facet normal -3.02562525357303e-017 -4.15498919614897e-018 -1.0
outer loop
vertex 364.237610591214 -22.3184165704748 2.99999999999991
vertex 364.237610591214 -19.212588029245 2.99999999999991
vertex 364.837013126242 -17.76550229986 2.99999999999991
endloop
endfacet
facet normal -3.02562525357303e-017 -4.15498919614897e-018 -1.0
outer loop
vertex 364.237610591214 -22.3184165704748 2.99999999999991
vertex 364.837013126242 -17.76550229986 2.99999999999991
vertex 364.837013126242 -23.7655022998601 2.99999999999991
endloop
endfacet
facet normal -3.02562525357303e-017 -4.15498919614897e-018 -1.0
outer loop
vertex 364.837013126242 -23.7655022998601 2.99999999999991
vertex 364.837013126242 -17.76550229986 2.99999999999991
vertex 365.790524861829 -16.5228616127406 2.99999999999991
endloop
endfacet
facet normal -3.02562525357303e-017 -4.15498919614897e-018 -1.0
outer loop
vertex 364.837013126242 -23.7655022998601 2.99999999999991
vertex 365.790524861829 -16.5228616127406 2.99999999999991
vertex 365.79052486183 -25.0081429869791 2.99999999999991
endloop
endfacet
facet normal 3.02562525357303e-017 4.15498919614897e-018 1.0
outer loop
vertex 369.289637269384 -19.4776735427896 5.99999999999991
vertex 369.033165548948 14.2344977001404 5.99999999999991
vertex 368.98165777198 -19.7139945228912 5.99999999999991
endloop
endfacet
facet normal 3.02562525357303e-017 4.15498919614897e-018 1.0
outer loop
vertex 369.033165548948 14.2344977001404 5.99999999999991
vertex 369.289637269384 -19.4776735427896 5.99999999999991
vertex 369.067239722659 13.9756786550375 5.99999999999991
endloop
endfacet
facet normal 3.02562525357303e-017 4.15498919614897e-018 1.0
outer loop
vertex 369.067239722659 13.9756786550375 5.99999999999991
vertex 369.289637269384 -19.4776735427896 5.99999999999991
vertex 369.167140145164 13.7344977001401 5.99999999999991
endloop
endfacet
facet normal 3.02562525357303e-017 4.15498919614897e-018 1.0
outer loop
vertex 369.167140145164 13.7344977001401 5.99999999999991
vertex 369.289637269384 -19.4776735427896 5.99999999999991
vertex 369.326058767762 13.5273909189534 5.99999999999991
endloop
endfacet
facet normal 3.02562525357303e-017 4.15498919614897e-018 1.0
outer loop
vertex 369.326058767762 13.5273909189534 5.99999999999991
vertex 369.289637269384 -19.4776735427896 5.99999999999991
vertex 369.648286990302 -19.3291159642442 5.99999999999991
endloop
endfacet
facet normal 3.02562525357303e-017 4.15498919614897e-018 1.0
outer loop
vertex 369.326058767762 13.5273909189534 5.99999999999991
vertex 369.648286990302 -19.3291159642442 5.99999999999991
vertex 369.533165548949 13.3684722963556 5.99999999999991
endloop
endfacet
facet normal 3.02562525357303e-017 4.15498919614897e-018 1.0
outer loop
vertex 369.533165548949 13.3684722963556 5.99999999999991
vertex 369.648286990302 -19.3291159642442 5.99999999999991
vertex 369.774346503846 13.268571873851 5.99999999999991
endloop
endfacet
facet normal 3.02562525357303e-017 4.15498919614897e-018 1.0
outer loop
vertex 369.774346503846 13.268571873851 5.99999999999991
vertex 369.648286990302 -19.3291159642442 5.99999999999991
vertex 370.033165548949 -19.2784457407302 5.99999999999991
endloop
endfacet
facet normal 3.02562525357303e-017 4.15498919614897e-018 1.0
outer loop
vertex 369.774346503846 13.268571873851 5.99999999999991
vertex 370.033165548949 -19.2784457407302 5.99999999999991
vertex 370.033165548948 13.2344977001402 5.99999999999991
endloop
endfacet
facet normal 3.02562525357303e-017 4.15498919614897e-018 1.0
outer loop
vertex 370.033165548948 13.2344977001402 5.99999999999991
vertex 370.033165548949 -19.2784457407302 5.99999999999991
vertex 370.291984594052 13.2685718738511 5.99999999999991
endloop
endfacet
facet normal 3.02562525357303e-017 4.15498919614897e-018 1.0
outer loop
vertex 370.291984594052 13.2685718738511 5.99999999999991
vertex 370.033165548949 -19.2784457407302 5.99999999999991
vertex 370.418044107597 -19.3291159642441 5.99999999999991
endloop
endfacet
facet normal 3.02562525357303e-017 4.15498919614897e-018 1.0
outer loop
vertex 370.291984594052 13.2685718738511 5.99999999999991
vertex 370.418044107597 -19.3291159642441 5.99999999999991
vertex 370.533165548949 13.3684722963554 5.99999999999991
endloop
endfacet
facet normal 3.02562525357303e-017 4.15498919614897e-018 1.0
outer loop
vertex 370.533165548949 13.3684722963554 5.99999999999991
vertex 370.418044107597 -19.3291159642441 5.99999999999991
vertex 370.776693828513 -19.477673542789 5.99999999999991
endloop
endfacet
facet normal 3.02562525357303e-017 4.15498919614897e-018 1.0
outer loop
vertex 370.533165548949 13.3684722963554 5.99999999999991
vertex 370.776693828513 -19.477673542789 5.99999999999991
vertex 370.740272330136 13.5273909189533 5.99999999999991
endloop
endfacet
facet normal 3.02562525357303e-017 4.15498919614897e-018 1.0
outer loop
vertex 370.740272330136 13.5273909189533 5.99999999999991
vertex 370.776693828513 -19.477673542789 5.99999999999991
vertex 370.899190952734 13.7344977001401 5.99999999999991
endloop
endfacet
facet normal 3.02562525357303e-017 4.15498919614897e-018 1.0
outer loop
vertex 370.899190952734 13.7344977001401 5.99999999999991
vertex 370.776693828513 -19.477673542789 5.99999999999991
vertex 371.084673325918 -19.7139945228919 5.99999999999991
endloop
endfacet
facet normal 3.02562525357303e-017 4.15498919614897e-018 1.0
outer loop
vertex 370.899190952734 13.7344977001401 5.99999999999991
vertex 371.084673325918 -19.7139945228919 5.99999999999991
vertex 370.999091375238 13.9756786550371 5.99999999999991
endloop
endfacet
facet normal 3.02562525357303e-017 4.15498919614897e-018 1.0
outer loop
vertex 370.999091375238 13.9756786550371 5.99999999999991
vertex 371.084673325918 -19.7139945228919 5.99999999999991
vertex 371.033165548949 14.2344977001402 5.99999999999991
endloop
endfacet
facet normal 3.02562525357303e-017 4.15498919614897e-018 1.0
outer loop
vertex 368.480251278334 20.0300526578743 5.99999999999991
vertex 369.06723972266 14.4933167452427 5.99999999999991
vertex 370.033165548949 20.2344977001403 5.99999999999991
endloop
endfacet
facet normal 3.02562525357303e-017 4.15498919614897e-018 1.0
outer loop
vertex 369.06723972266 14.4933167452427 5.99999999999991
vertex 368.480251278334 20.0300526578743 5.99999999999991
vertex 369.033165548948 14.2344977001404 5.99999999999991
endloop
endfacet
facet normal 3.02562525357303e-017 4.15498919614897e-018 1.0
outer loop
vertex 369.033165548948 14.2344977001404 5.99999999999991
vertex 368.480251278334 20.0300526578743 5.99999999999991
vertex 368.546108989819 -20.7655022998599 5.99999999999991
endloop
endfacet
facet normal 3.02562525357303e-017 4.15498919614897e-018 1.0
outer loop
vertex 369.033165548948 14.2344977001404 5.99999999999991
vertex 368.546108989819 -20.7655022998599 5.99999999999991
vertex 368.596779213333 -20.3806237412125 5.99999999999991
endloop
endfacet
facet normal 3.02562525357303e-017 4.15498919614897e-018 1.0
outer loop
vertex 369.033165548948 14.2344977001404 5.99999999999991
vertex 368.596779213333 -20.3806237412125 5.99999999999991
vertex 368.745336791879 -20.0219740202953 5.99999999999991
endloop
endfacet
facet normal 3.02562525357303e-017 4.15498919614897e-018 1.0
outer loop
vertex 369.033165548948 14.2344977001404 5.99999999999991
vertex 368.745336791879 -20.0219740202953 5.99999999999991
vertex 368.98165777198 -19.7139945228912 5.99999999999991
endloop
endfacet
facet normal 3.02562525357303e-017 4.15498919614897e-018 1.0
outer loop
vertex 370.033165548949 20.2344977001403 5.99999999999991
vertex 369.06723972266 14.4933167452427 5.99999999999991
vertex 369.167140145164 14.7344977001402 5.99999999999991
endloop
endfacet
facet normal 3.02562525357303e-017 4.15498919614897e-018 1.0
outer loop
vertex 370.033165548949 20.2344977001403 5.99999999999991
vertex 369.167140145164 14.7344977001402 5.99999999999991
vertex 369.326058767762 14.9416044813266 5.99999999999991
endloop
endfacet
facet normal 3.02562525357303e-017 4.15498919614897e-018 1.0
outer loop
vertex 370.033165548949 20.2344977001403 5.99999999999991
vertex 369.326058767762 14.9416044813266 5.99999999999991
vertex 369.533165548949 15.1005231039244 5.99999999999991
endloop
endfacet
facet normal 3.02562525357303e-017 4.15498919614897e-018 1.0
outer loop
vertex 370.033165548949 20.2344977001403 5.99999999999991
vertex 369.533165548949 15.1005231039244 5.99999999999991
vertex 369.774346503846 15.2004235264294 5.99999999999991
endloop
endfacet
facet normal 3.02562525357303e-017 4.15498919614897e-018 1.0
outer loop
vertex 370.033165548949 20.2344977001403 5.99999999999991
vertex 369.774346503846 15.2004235264294 5.99999999999991
vertex 370.033165548949 15.23449770014 5.99999999999991
endloop
endfacet
facet normal 3.02562525357303e-017 4.15498919614897e-018 1.0
outer loop
vertex 370.033165548949 20.2344977001403 5.99999999999991
vertex 370.033165548949 15.23449770014 5.99999999999991
vertex 370.291984594051 15.2004235264294 5.99999999999991
endloop
endfacet
facet normal 3.02562525357303e-017 4.15498919614897e-018 1.0
outer loop
vertex 370.033165548949 20.2344977001403 5.99999999999991
vertex 370.291984594051 15.2004235264294 5.99999999999991
vertex 371.586079819564 20.0300526578746 5.99999999999991
endloop
endfacet
facet normal 3.02562525357303e-017 4.15498919614897e-018 1.0
outer loop
vertex 371.586079819564 20.0300526578746 5.99999999999991
vertex 370.291984594051 15.2004235264294 5.99999999999991
vertex 370.533165548949 15.1005231039245 5.99999999999991
endloop
endfacet
facet normal 3.02562525357303e-017 4.15498919614897e-018 1.0
outer loop
vertex 371.586079819564 20.0300526578746 5.99999999999991
vertex 370.533165548949 15.1005231039245 5.99999999999991
vertex 370.740272330135 14.9416044813265 5.99999999999991
endloop
endfacet
facet normal 3.02562525357303e-017 4.15498919614897e-018 1.0
outer loop
vertex 371.586079819564 20.0300526578746 5.99999999999991
vertex 370.740272330135 14.9416044813265 5.99999999999991
vertex 370.899190952734 14.7344977001402 5.99999999999991
endloop
endfacet
facet normal 3.02562525357303e-017 4.15498919614897e-018 1.0
outer loop
vertex 371.586079819564 20.0300526578746 5.99999999999991
vertex 370.899190952734 14.7344977001402 5.99999999999991
vertex 370.999091375238 14.4933167452428 5.99999999999991
endloop
endfacet
facet normal 3.02562525357303e-017 4.15498919614897e-018 1.0
outer loop
vertex 371.586079819564 20.0300526578746 5.99999999999991
vertex 370.999091375238 14.4933167452428 5.99999999999991
vertex 371.033165548949 14.2344977001402 5.99999999999991
endloop
endfacet
facet normal 3.02562525357303e-017 4.15498919614897e-018 1.0
outer loop
vertex 371.586079819564 20.0300526578746 5.99999999999991
vertex 371.033165548949 14.2344977001402 5.99999999999991
vertex 371.084673325918 -19.7139945228919 5.99999999999991
endloop
endfacet
facet normal 3.02562525357303e-017 4.15498919614897e-018 1.0
outer loop
vertex 371.586079819564 20.0300526578746 5.99999999999991
vertex 371.084673325918 -19.7139945228919 5.99999999999991
vertex 371.320994306019 -20.0219740202949 5.99999999999991
endloop
endfacet
facet normal 3.02562525357303e-017 4.15498919614897e-018 1.0
outer loop
vertex 371.586079819564 20.0300526578746 5.99999999999991
vertex 371.320994306019 -20.0219740202949 5.99999999999991
vertex 371.469551884565 -20.3806237412126 5.99999999999991
endloop
endfacet
facet normal 3.02562525357303e-017 4.15498919614897e-018 1.0
outer loop
vertex 371.586079819564 20.0300526578746 5.99999999999991
vertex 371.469551884565 -20.3806237412126 5.99999999999991
vertex 371.520222108078 -20.7655022998597 5.99999999999991
endloop
endfacet
facet normal 3.02562525357303e-017 4.15498919614897e-018 1.0
outer loop
vertex 364.237610591214 -22.3184165704748 5.99999999999991
vertex 364.237610591214 -19.212588029245 5.99999999999991
vertex 364.033165548949 -20.76550229986 5.99999999999991
endloop
endfacet
facet normal 3.02562525357303e-017 4.15498919614897e-018 1.0
outer loop
vertex 364.237610591214 -19.212588029245 5.99999999999991
vertex 364.237610591214 -22.3184165704748 5.99999999999991
vertex 364.837013126242 -23.7655022998601 5.99999999999991
endloop
endfacet
facet normal 3.02562525357303e-017 4.15498919614897e-018 1.0
outer loop
vertex 364.237610591214 -19.212588029245 5.99999999999991
vertex 364.837013126242 -23.7655022998601 5.99999999999991
vertex 364.837013126242 -17.76550229986 5.99999999999991
endloop
endfacet
facet normal 3.02562525357303e-017 4.15498919614897e-018 1.0
outer loop
vertex 364.837013126242 -17.76550229986 5.99999999999991
vertex 364.837013126242 -23.7655022998601 5.99999999999991
vertex 365.790524861829 -16.5228616127406 5.99999999999991
endloop
endfacet
facet normal 3.02562525357303e-017 4.15498919614897e-018 1.0
outer loop
vertex 365.790524861829 -16.5228616127406 5.99999999999991
vertex 364.837013126242 -23.7655022998601 5.99999999999991
vertex 365.79052486183 -25.0081429869791 5.99999999999991
endloop
endfacet
facet normal 3.02562525357303e-017 4.15498919614897e-018 1.0
outer loop
vertex 364.237610591214 12.681583429525 5.99999999999991
vertex 364.237610591214 15.7874119707555 5.99999999999991
vertex 364.033165548949 14.2344977001402 5.99999999999991
endloop
endfacet
facet normal 3.02562525357303e-017 4.15498919614897e-018 1.0
outer loop
vertex 364.237610591214 15.7874119707555 5.99999999999991
vertex 364.237610591214 12.681583429525 5.99999999999991
vertex 364.837013126242 11.2344977001402 5.99999999999991
endloop
endfacet
facet normal 3.02562525357303e-017 4.15498919614897e-018 1.0
outer loop
vertex 364.237610591214 15.7874119707555 5.99999999999991
vertex 364.837013126242 11.2344977001402 5.99999999999991
vertex 364.837013126242 17.2344977001402 5.99999999999991
endloop
endfacet
facet normal 3.02562525357303e-017 4.15498919614897e-018 1.0
outer loop
vertex 364.837013126242 17.2344977001402 5.99999999999991
vertex 364.837013126242 11.2344977001402 5.99999999999991
vertex 365.790524861829 9.99185701302041 5.99999999999991
endloop
endfacet
facet normal 3.02562525357303e-017 4.15498919614897e-018 1.0
outer loop
vertex 364.837013126242 17.2344977001402 5.99999999999991
vertex 365.790524861829 9.99185701302041 5.99999999999991
vertex 365.790524861829 18.4771383872597 5.99999999999991
endloop
endfacet
facet normal 3.02562525357303e-017 4.15498919614897e-018 1.0
outer loop
vertex 365.790524861829 18.4771383872597 5.99999999999991
vertex 365.790524861829 9.99185701302041 5.99999999999991
vertex 365.790524861829 -16.5228616127406 5.99999999999991
endloop
endfacet
facet normal 3.02562525357303e-017 4.15498919614897e-018 1.0
outer loop
vertex 365.790524861829 18.4771383872597 5.99999999999991
vertex 365.790524861829 -16.5228616127406 5.99999999999991
vertex 367.033165548949 19.4306501228466 5.99999999999991
endloop
endfacet
facet normal 3.02562525357303e-017 4.15498919614897e-018 1.0
outer loop
vertex 367.033165548949 19.4306501228466 5.99999999999991
vertex 365.790524861829 -16.5228616127406 5.99999999999991
vertex 365.79052486183 -25.0081429869791 5.99999999999991
endloop
endfacet
facet normal 3.02562525357303e-017 4.15498919614897e-018 1.0
outer loop
vertex 367.033165548949 19.4306501228466 5.99999999999991
vertex 365.79052486183 -25.0081429869791 5.99999999999991
vertex 367.033165548949 -25.9616547225664 5.99999999999991
endloop
endfacet
facet normal 3.02562525357303e-017 4.15498919614897e-018 1.0
outer loop
vertex 367.033165548949 19.4306501228466 5.99999999999991
vertex 367.033165548949 -25.9616547225664 5.99999999999991
vertex 368.480251278333 -26.5610572575943 5.99999999999991
endloop
endfacet
facet normal 3.02562525357303e-017 4.15498919614897e-018 1.0
outer loop
vertex 367.033165548949 19.4306501228466 5.99999999999991
vertex 368.480251278333 -26.5610572575943 5.99999999999991
vertex 368.480251278334 20.0300526578743 5.99999999999991
endloop
endfacet
facet normal 3.02562525357303e-017 4.15498919614897e-018 1.0
outer loop
vertex 368.480251278334 20.0300526578743 5.99999999999991
vertex 368.480251278333 -26.5610572575943 5.99999999999991
vertex 368.546108989819 -20.7655022998599 5.99999999999991
endloop
endfacet
facet normal 3.02562525357303e-017 4.15498919614897e-018 1.0
outer loop
vertex 368.546108989819 -20.7655022998599 5.99999999999991
vertex 368.480251278333 -26.5610572575943 5.99999999999991
vertex 368.596779213333 -21.150380858507 5.99999999999991
endloop
endfacet
facet normal 3.02562525357303e-017 4.15498919614897e-018 1.0
outer loop
vertex 368.596779213333 -21.150380858507 5.99999999999991
vertex 368.480251278333 -26.5610572575943 5.99999999999991
vertex 370.033165548949 -26.7655022998599 5.99999999999991
endloop
endfacet
facet normal 3.02562525357303e-017 4.15498919614897e-018 1.0
outer loop
vertex 368.596779213333 -21.150380858507 5.99999999999991
vertex 370.033165548949 -26.7655022998599 5.99999999999991
vertex 368.745336791878 -21.5090305794246 5.99999999999991
endloop
endfacet
facet normal 3.02562525357303e-017 4.15498919614897e-018 1.0
outer loop
vertex 368.745336791878 -21.5090305794246 5.99999999999991
vertex 370.033165548949 -26.7655022998599 5.99999999999991
vertex 368.98165777198 -21.8170100768287 5.99999999999991
endloop
endfacet
facet normal 3.02562525357303e-017 4.15498919614897e-018 1.0
outer loop
vertex 368.98165777198 -21.8170100768287 5.99999999999991
vertex 370.033165548949 -26.7655022998599 5.99999999999991
vertex 369.289637269384 -22.0533310569305 5.99999999999991
endloop
endfacet
facet normal 3.02562525357303e-017 4.15498919614897e-018 1.0
outer loop
vertex 369.289637269384 -22.0533310569305 5.99999999999991
vertex 370.033165548949 -26.7655022998599 5.99999999999991
vertex 369.648286990301 -22.201888635476 5.99999999999991
endloop
endfacet
facet normal 3.02562525357303e-017 4.15498919614897e-018 1.0
outer loop
vertex 369.648286990301 -22.201888635476 5.99999999999991
vertex 370.033165548949 -26.7655022998599 5.99999999999991
vertex 370.033165548949 -22.2525588589898 5.99999999999991
endloop
endfacet
facet normal 3.02562525357303e-017 4.15498919614897e-018 1.0
outer loop
vertex 370.033165548949 -22.2525588589898 5.99999999999991
vertex 370.033165548949 -26.7655022998599 5.99999999999991
vertex 370.418044107596 -22.2018886354759 5.99999999999991
endloop
endfacet
facet normal 3.02562525357303e-017 4.15498919614897e-018 1.0
outer loop
vertex 370.418044107596 -22.2018886354759 5.99999999999991
vertex 370.033165548949 -26.7655022998599 5.99999999999991
vertex 371.586079819564 -26.5610572575944 5.99999999999991
endloop
endfacet
facet normal 3.02562525357303e-017 4.15498919614897e-018 1.0
outer loop
vertex 370.418044107596 -22.2018886354759 5.99999999999991
vertex 371.586079819564 -26.5610572575944 5.99999999999991
vertex 370.776693828514 -22.0533310569305 5.99999999999991
endloop
endfacet
facet normal 3.02562525357303e-017 4.15498919614897e-018 1.0
outer loop
vertex 370.776693828514 -22.0533310569305 5.99999999999991
vertex 371.586079819564 -26.5610572575944 5.99999999999991
vertex 371.084673325917 -21.8170100768285 5.99999999999991
endloop
endfacet
facet normal 3.02562525357303e-017 4.15498919614897e-018 1.0
outer loop
vertex 371.084673325917 -21.8170100768285 5.99999999999991
vertex 371.586079819564 -26.5610572575944 5.99999999999991
vertex 371.320994306019 -21.5090305794249 5.99999999999991
endloop
endfacet
facet normal 3.02562525357303e-017 4.15498919614897e-018 1.0
outer loop
vertex 371.320994306019 -21.5090305794249 5.99999999999991
vertex 371.586079819564 -26.5610572575944 5.99999999999991
vertex 371.469551884565 -21.1503808585068 5.99999999999991
endloop
endfacet
facet normal 3.02562525357303e-017 4.15498919614897e-018 1.0
outer loop
vertex 371.469551884565 -21.1503808585068 5.99999999999991
vertex 371.586079819564 -26.5610572575944 5.99999999999991
vertex 371.520222108078 -20.7655022998597 5.99999999999991
endloop
endfacet
facet normal 3.02562525357303e-017 4.15498919614897e-018 1.0
outer loop
vertex 371.520222108078 -20.7655022998597 5.99999999999991
vertex 371.586079819564 -26.5610572575944 5.99999999999991
vertex 371.586079819564 20.0300526578746 5.99999999999991
endloop
endfacet
facet normal 3.02562525357303e-017 4.15498919614897e-018 1.0
outer loop
vertex 371.586079819564 20.0300526578746 5.99999999999991
vertex 371.586079819564 -26.5610572575944 5.99999999999991
vertex 373.033165548949 19.4306501228466 5.99999999999991
endloop
endfacet
facet normal 3.02562525357303e-017 4.15498919614897e-018 1.0
outer loop
vertex 373.033165548949 19.4306501228466 5.99999999999991
vertex 371.586079819564 -26.5610572575944 5.99999999999991
vertex 373.033165548949 -25.9616547225664 5.99999999999991
endloop
endfacet
facet normal 3.02562525357303e-017 4.15498919614897e-018 1.0
outer loop
vertex 373.033165548949 19.4306501228466 5.99999999999991
vertex 373.033165548949 -25.9616547225664 5.99999999999991
vertex 374.275806236068 -25.0081429869793 5.99999999999991
endloop
endfacet
facet normal 3.02562525357303e-017 4.15498919614897e-018 1.0
outer loop
vertex 373.033165548949 19.4306501228466 5.99999999999991
vertex 374.275806236068 -25.0081429869793 5.99999999999991
vertex 374.275806236068 -16.5228616127408 5.99999999999991
endloop
endfacet
facet normal 3.02562525357303e-017 4.15498919614897e-018 1.0
outer loop
vertex 373.033165548949 19.4306501228466 5.99999999999991
vertex 374.275806236068 -16.5228616127408 5.99999999999991
vertex 374.275806236068 18.4771383872594 5.99999999999991
endloop
endfacet
facet normal 3.02562525357303e-017 4.15498919614897e-018 1.0
outer loop
vertex 374.275806236068 -16.5228616127408 5.99999999999991
vertex 374.275806236068 -25.0081429869793 5.99999999999991
vertex 375.229317971655 -17.7655022998598 5.99999999999991
endloop
endfacet
facet normal 3.02562525357303e-017 4.15498919614897e-018 1.0
outer loop
vertex 375.229317971655 -17.7655022998598 5.99999999999991
vertex 374.275806236068 -25.0081429869793 5.99999999999991
vertex 375.229317971655 -23.7655022998601 5.99999999999991
endloop
endfacet
facet normal 3.02562525357303e-017 4.15498919614897e-018 1.0
outer loop
vertex 375.229317971655 -17.7655022998598 5.99999999999991
vertex 375.229317971655 -23.7655022998601 5.99999999999991
vertex 375.828720506683 -19.2125880292449 5.99999999999991
endloop
endfacet
facet normal 3.02562525357303e-017 4.15498919614897e-018 1.0
outer loop
vertex 375.828720506683 -19.2125880292449 5.99999999999991
vertex 375.229317971655 -23.7655022998601 5.99999999999991
vertex 375.828720506684 -22.3184165704751 5.99999999999991
endloop
endfacet
facet normal 3.02562525357303e-017 4.15498919614897e-018 1.0
outer loop
vertex 375.828720506683 -19.2125880292449 5.99999999999991
vertex 375.828720506684 -22.3184165704751 5.99999999999991
vertex 376.033165548949 -20.76550229986 5.99999999999991
endloop
endfacet
facet normal 3.02562525357303e-017 4.15498919614897e-018 1.0
outer loop
vertex 374.275806236068 18.4771383872594 5.99999999999991
vertex 374.275806236068 9.99185701302063 5.99999999999991
vertex 375.229317971656 17.2344977001401 5.99999999999991
endloop
endfacet
facet normal 3.02562525357303e-017 4.15498919614897e-018 1.0
outer loop
vertex 374.275806236068 9.99185701302063 5.99999999999991
vertex 374.275806236068 18.4771383872594 5.99999999999991
vertex 374.275806236068 -16.5228616127408 5.99999999999991
endloop
endfacet
facet normal 3.02562525357303e-017 4.15498919614897e-018 1.0
outer loop
vertex 375.229317971656 17.2344977001401 5.99999999999991
vertex 374.275806236068 9.99185701302063 5.99999999999991
vertex 375.229317971655 11.2344977001402 5.99999999999991
endloop
endfacet
facet normal 3.02562525357303e-017 4.15498919614897e-018 1.0
outer loop
vertex 375.229317971656 17.2344977001401 5.99999999999991
vertex 375.229317971655 11.2344977001402 5.99999999999991
vertex 375.828720506684 12.681583429525 5.99999999999991
endloop
endfacet
facet normal 3.02562525357303e-017 4.15498919614897e-018 1.0
outer loop
vertex 375.229317971656 17.2344977001401 5.99999999999991
vertex 375.828720506684 12.681583429525 5.99999999999991
vertex 375.828720506683 15.787411970755 5.99999999999991
endloop
endfacet
facet normal 3.02562525357303e-017 4.15498919614897e-018 1.0
outer loop
vertex 375.828720506683 15.787411970755 5.99999999999991
vertex 375.828720506684 12.681583429525 5.99999999999991
vertex 376.033165548948 14.2344977001402 5.99999999999991
endloop
endfacet
facet normal 0.866025403784422 -0.500000000000029 -2.41251887211847e-017
outer loop
vertex 375.229317971655 11.2344977001402 2.99999999999991
vertex 374.275806236068 9.99185701302063 5.99999999999991
vertex 374.275806236068 9.99185701302063 2.99999999999991
endloop
endfacet
facet normal 0.793353340291444 -0.608761429008448 -2.14745018533608e-017
outer loop
vertex 374.275806236068 9.99185701302063 5.99999999999991
vertex 375.229317971655 11.2344977001402 2.99999999999991
vertex 375.229317971655 11.2344977001402 5.99999999999991
endloop
endfacet
facet normal 0.965925826289069 -0.258819045102516 -2.81499053948275e-017
outer loop
vertex 375.828720506684 12.681583429525 2.99999999999991
vertex 375.229317971655 11.2344977001402 5.99999999999991
vertex 375.229317971655 11.2344977001402 2.99999999999991
endloop
endfacet
facet normal 0.866025403784422 -0.50000000000003 -2.41251887211847e-017
outer loop
vertex 375.229317971655 11.2344977001402 5.99999999999991
vertex 375.828720506684 12.681583429525 2.99999999999991
vertex 375.828720506684 12.681583429525 5.99999999999991
endloop
endfacet
facet normal 1.0 1.06345185494646e-013 -3.02562525357308e-017
outer loop
vertex 376.033165548948 14.2344977001402 2.99999999999991
vertex 375.828720506684 12.681583429525 5.99999999999991
vertex 375.828720506684 12.681583429525 2.99999999999991
endloop
endfacet
facet normal 0.965925826289069 -0.258819045102516 -2.81499053948275e-017
outer loop
vertex 375.828720506684 12.681583429525 5.99999999999991
vertex 376.033165548948 14.2344977001402 2.99999999999991
vertex 376.033165548948 14.2344977001402 5.99999999999991
endloop
endfacet
facet normal 0.965925826289118 0.258819045102335 -3.03006860671453e-017
outer loop
vertex 375.828720506683 15.787411970755 2.99999999999991
vertex 376.033165548948 14.2344977001402 5.99999999999991
vertex 376.033165548948 14.2344977001402 2.99999999999991
endloop
endfacet
facet normal 1.0 1.0639865215402e-013 -3.02562525357308e-017
outer loop
vertex 376.033165548948 14.2344977001402 5.99999999999991
vertex 375.828720506683 15.787411970755 2.99999999999991
vertex 375.828720506683 15.787411970755 5.99999999999991
endloop
endfacet
facet normal 0.866025403784421 0.500000000000031 -2.82801779173339e-017
outer loop
vertex 375.229317971656 17.2344977001401 2.99999999999991
vertex 375.828720506683 15.787411970755 5.99999999999991
vertex 375.828720506683 15.787411970755 2.99999999999991
endloop
endfacet
facet normal 0.965925826289118 0.258819045102335 -3.03006860671453e-017
outer loop
vertex 375.828720506683 15.787411970755 5.99999999999991
vertex 375.229317971656 17.2344977001401 2.99999999999991
vertex 375.229317971656 17.2344977001401 5.99999999999991
endloop
endfacet
facet normal 0.707106781186523 0.707106781186572 -2.43324223776607e-017
outer loop
vertex 374.275806236068 18.4771383872594 2.99999999999991
vertex 375.229317971656 17.2344977001401 5.99999999999991
vertex 375.229317971656 17.2344977001401 2.99999999999991
endloop
endfacet
facet normal 0.866025403784421 0.500000000000031 -2.82801779173339e-017
outer loop
vertex 375.229317971656 17.2344977001401 5.99999999999991
vertex 374.275806236068 18.4771383872594 2.99999999999991
vertex 374.275806236068 18.4771383872594 5.99999999999991
endloop
endfacet
facet normal 0.500000000000057 0.866025403784406 -1.87264524641816e-017
outer loop
vertex 373.033165548949 19.4306501228466 5.99999999999991
vertex 374.275806236068 18.4771383872594 2.99999999999991
vertex 373.033165548949 19.4306501228466 2.99999999999991
endloop
endfacet
facet normal 0.707106781186523 0.707106781186572 -2.43324223776607e-017
outer loop
vertex 374.275806236068 18.4771383872594 2.99999999999991
vertex 373.033165548949 19.4306501228466 5.99999999999991
vertex 374.275806236068 18.4771383872594 5.99999999999991
endloop
endfacet
facet normal 0.258819045102555 0.965925826289059 -1.18443057621918e-017
outer loop
vertex 371.586079819564 20.0300526578746 2.99999999999991
vertex 373.033165548949 19.4306501228466 5.99999999999991
vertex 373.033165548949 19.4306501228466 2.99999999999991
endloop
endfacet
facet normal 0.500000000000057 0.866025403784406 -1.87264524641816e-017
outer loop
vertex 373.033165548949 19.4306501228466 5.99999999999991
vertex 371.586079819564 20.0300526578746 2.99999999999991
vertex 371.586079819564 20.0300526578746 5.99999999999991
endloop
endfacet
facet normal -8.12069444790323e-014 1.0 -4.15498919614651e-018
outer loop
vertex 370.033165548949 20.2344977001403 5.99999999999991
vertex 371.586079819564 20.0300526578746 2.99999999999991
vertex 370.033165548949 20.2344977001403 2.99999999999991
endloop
endfacet
facet normal 0.258819045102555 0.965925826289059 -1.18443057621918e-017
outer loop
vertex 371.586079819564 20.0300526578746 2.99999999999991
vertex 370.033165548949 20.2344977001403 5.99999999999991
vertex 371.586079819564 20.0300526578746 5.99999999999991
endloop
endfacet
facet normal -0.258819045102631 0.965925826289039 3.81748301716955e-018
outer loop
vertex 368.480251278334 20.0300526578743 2.99999999999991
vertex 370.033165548949 20.2344977001403 5.99999999999991
vertex 370.033165548949 20.2344977001403 2.99999999999991
endloop
endfacet
facet normal -8.12069444790323e-014 1.0 -4.15498919614651e-018
outer loop
vertex 370.033165548949 20.2344977001403 5.99999999999991
vertex 368.480251278334 20.0300526578743 2.99999999999991
vertex 368.480251278334 20.0300526578743 5.99999999999991
endloop
endfacet
facet normal -0.499999999999808 0.866025403784549 1.1529800071544e-017
outer loop
vertex 367.033165548949 19.4306501228466 5.99999999999991
vertex 368.480251278334 20.0300526578743 2.99999999999991
vertex 367.033165548949 19.4306501228466 2.99999999999991
endloop
endfacet
facet normal -0.258819045102631 0.965925826289039 3.81748301716955e-018
outer loop
vertex 368.480251278334 20.0300526578743 2.99999999999991
vertex 367.033165548949 19.4306501228466 5.99999999999991
vertex 368.480251278334 20.0300526578743 5.99999999999991
endloop
endfacet
facet normal -0.707106781186438 0.707106781186658 1.845638030495e-017
outer loop
vertex 365.790524861829 18.4771383872597 2.99999999999991
vertex 367.033165548949 19.4306501228466 5.99999999999991
vertex 367.033165548949 19.4306501228466 2.99999999999991
endloop
endfacet
facet normal -0.499999999999808 0.866025403784549 1.1529800071544e-017
outer loop
vertex 367.033165548949 19.4306501228466 5.99999999999991
vertex 365.790524861829 18.4771383872597 2.99999999999991
vertex 365.790524861829 18.4771383872597 5.99999999999991
endloop
endfacet
facet normal -0.707106781186438 0.707106781186657 1.845638030495e-017
outer loop
vertex 365.790524861829 18.4771383872597 5.99999999999991
vertex 364.837013126242 17.2344977001402 2.99999999999991
vertex 364.837013126242 17.2344977001402 5.99999999999991
endloop
endfacet
facet normal -0.866025403784435 0.500000000000005 2.41251887211852e-017
outer loop
vertex 364.837013126242 17.2344977001402 2.99999999999991
vertex 365.790524861829 18.4771383872597 5.99999999999991
vertex 365.790524861829 18.4771383872597 2.99999999999991
endloop
endfacet
facet normal -0.866025403784436 0.500000000000005 2.41251887211852e-017
outer loop
vertex 364.837013126242 17.2344977001402 5.99999999999991
vertex 364.237610591214 15.7874119707555 2.99999999999991
vertex 364.237610591214 15.7874119707555 5.99999999999991
endloop
endfacet
facet normal -0.965925826289059 0.258819045102557 2.8149905394827e-017
outer loop
vertex 364.237610591214 15.7874119707555 2.99999999999991
vertex 364.837013126242 17.2344977001402 5.99999999999991
vertex 364.837013126242 17.2344977001402 2.99999999999991
endloop
endfacet
facet normal -0.965925826289059 0.258819045102557 2.8149905394827e-017
outer loop
vertex 364.237610591214 15.7874119707555 5.99999999999991
vertex 364.033165548949 14.2344977001402 2.99999999999991
vertex 364.033165548949 14.2344977001402 5.99999999999991
endloop
endfacet
facet normal -1.0 2.65729297088189e-014 3.02562525357302e-017
outer loop
vertex 364.033165548949 14.2344977001402 2.99999999999991
vertex 364.237610591214 15.7874119707555 5.99999999999991
vertex 364.237610591214 15.7874119707555 2.99999999999991
endloop
endfacet
facet normal -1.0 2.67867963463144e-014 3.02562525357302e-017
outer loop
vertex 364.033165548949 14.2344977001402 5.99999999999991
vertex 364.237610591214 12.681583429525 2.99999999999991
vertex 364.237610591214 12.681583429525 5.99999999999991
endloop
endfacet
facet normal -0.965925826289081 -0.258819045102474 3.03006860671448e-017
outer loop
vertex 364.237610591214 12.681583429525 2.99999999999991
vertex 364.033165548949 14.2344977001402 5.99999999999991
vertex 364.033165548949 14.2344977001402 2.99999999999991
endloop
endfacet
facet normal -0.965925826289081 -0.258819045102474 3.03006860671448e-017
outer loop
vertex 364.237610591214 12.681583429525 5.99999999999991
vertex 364.837013126242 11.2344977001402 2.99999999999991
vertex 364.837013126242 11.2344977001402 5.99999999999991
endloop
endfacet
facet normal -0.866025403784473 -0.499999999999941 2.82801779173351e-017
outer loop
vertex 364.837013126242 11.2344977001402 2.99999999999991
vertex 364.237610591214 12.681583429525 5.99999999999991
vertex 364.237610591214 12.681583429525 2.99999999999991
endloop
endfacet
facet normal -0.866025403784473 -0.499999999999941 2.82801779173351e-017
outer loop
vertex 364.837013126242 11.2344977001402 5.99999999999991
vertex 365.790524861829 9.99185701302041 2.99999999999991
vertex 365.790524861829 9.99185701302041 5.99999999999991
endloop
endfacet
facet normal -0.793353340291303 -0.608761429008633 2.65332961744819e-017
outer loop
vertex 365.790524861829 9.99185701302041 2.99999999999991
vertex 364.837013126242 11.2344977001402 5.99999999999991
vertex 364.837013126242 11.2344977001402 2.99999999999991
endloop
endfacet
facet normal -1.0 -6.80670451119621e-015 3.02562525357303e-017
outer loop
vertex 365.790524861829 9.99185701302041 5.99999999999991
vertex 365.790524861829 -16.5228616127406 2.99999999999991
vertex 365.790524861829 -16.5228616127406 5.99999999999991
endloop
endfacet
facet normal -1.0 -6.80670451119621e-015 3.02562525357303e-017
outer loop
vertex 365.790524861829 -16.5228616127406 2.99999999999991
vertex 365.790524861829 9.99185701302041 5.99999999999991
vertex 365.790524861829 9.99185701302041 2.99999999999991
endloop
endfacet
facet normal -0.793353340291145 0.608761429008839 2.14745018533501e-017
outer loop
vertex 365.790524861829 -16.5228616127406 5.99999999999991
vertex 364.837013126242 -17.76550229986 2.99999999999991
vertex 364.837013126242 -17.76550229986 5.99999999999991
endloop
endfacet
facet normal -0.866025403784472 0.499999999999942 2.41251887211866e-017
outer loop
vertex 364.837013126242 -17.76550229986 2.99999999999991
vertex 365.790524861829 -16.5228616127406 5.99999999999991
vertex 365.790524861829 -16.5228616127406 2.99999999999991
endloop
endfacet
facet normal -0.866025403784472 0.499999999999942 2.41251887211866e-017
outer loop
vertex 364.837013126242 -17.76550229986 5.99999999999991
vertex 364.237610591214 -19.212588029245 2.99999999999991
vertex 364.237610591214 -19.212588029245 5.99999999999991
endloop
endfacet
facet normal -0.965925826289126 0.258819045102306 2.81499053948301e-017
outer loop
vertex 364.237610591214 -19.212588029245 2.99999999999991
vertex 364.837013126242 -17.76550229986 5.99999999999991
vertex 364.837013126242 -17.76550229986 2.99999999999991
endloop
endfacet
facet normal -0.965925826289126 0.258819045102306 2.81499053948301e-017
outer loop
vertex 364.237610591214 -19.212588029245 5.99999999999991
vertex 364.033165548949 -20.76550229986 2.99999999999991
vertex 364.033165548949 -20.76550229986 5.99999999999991
endloop
endfacet
facet normal -1.0 -5.54271035509226e-015 3.02562525357303e-017
outer loop
vertex 364.033165548949 -20.76550229986 2.99999999999991
vertex 364.237610591214 -19.212588029245 5.99999999999991
vertex 364.237610591214 -19.212588029245 2.99999999999991
endloop
endfacet
facet normal -1.0 -5.72984366290084e-015 3.02562525357303e-017
outer loop
vertex 364.033165548949 -20.76550229986 5.99999999999991
vertex 364.237610591214 -22.3184165704748 2.99999999999991
vertex 364.237610591214 -22.3184165704748 5.99999999999991
endloop
endfacet
facet normal -0.965925826289121 -0.258819045102324 3.03006860671454e-017
outer loop
vertex 364.237610591214 -22.3184165704748 2.99999999999991
vertex 364.033165548949 -20.76550229986 5.99999999999991
vertex 364.033165548949 -20.76550229986 2.99999999999991
endloop
endfacet
facet normal -0.965925826289121 -0.258819045102324 3.03006860671454e-017
outer loop
vertex 364.237610591214 -22.3184165704748 5.99999999999991
vertex 364.837013126242 -23.7655022998601 2.99999999999991
vertex 364.837013126242 -23.7655022998601 5.99999999999991
endloop
endfacet
facet normal -0.866025403784392 -0.500000000000081 2.82801779173332e-017
outer loop
vertex 364.837013126242 -23.7655022998601 2.99999999999991
vertex 364.237610591214 -22.3184165704748 5.99999999999991
vertex 364.237610591214 -22.3184165704748 2.99999999999991
endloop
endfacet
facet normal -0.866025403784392 -0.500000000000081 2.82801779173332e-017
outer loop
vertex 364.837013126242 -23.7655022998601 5.99999999999991
vertex 365.79052486183 -25.0081429869791 2.99999999999991
vertex 365.79052486183 -25.0081429869791 5.99999999999991
endloop
endfacet
facet normal -0.707106781186454 -0.707106781186642 2.43324223776589e-017
outer loop
vertex 365.79052486183 -25.0081429869791 2.99999999999991
vertex 364.837013126242 -23.7655022998601 5.99999999999991
vertex 364.837013126242 -23.7655022998601 2.99999999999991
endloop
endfacet
facet normal -0.500000000000113 -0.866025403784373 1.87264524641832e-017
outer loop
vertex 367.033165548949 -25.9616547225664 5.99999999999991
vertex 365.79052486183 -25.0081429869791 2.99999999999991
vertex 367.033165548949 -25.9616547225664 2.99999999999991
endloop
endfacet
facet normal -0.707106781186454 -0.707106781186642 2.43324223776589e-017
outer loop
vertex 365.79052486183 -25.0081429869791 2.99999999999991
vertex 367.033165548949 -25.9616547225664 5.99999999999991
vertex 365.79052486183 -25.0081429869791 5.99999999999991
endloop
endfacet
facet normal -0.258819045102557 -0.965925826289059 1.18443057621919e-017
outer loop
vertex 368.480251278333 -26.5610572575943 2.99999999999991
vertex 367.033165548949 -25.9616547225664 5.99999999999991
vertex 367.033165548949 -25.9616547225664 2.99999999999991
endloop
endfacet
facet normal -0.500000000000113 -0.866025403784373 1.87264524641832e-017
outer loop
vertex 367.033165548949 -25.9616547225664 5.99999999999991
vertex 368.480251278333 -26.5610572575943 2.99999999999991
vertex 368.480251278333 -26.5610572575943 5.99999999999991
endloop
endfacet
facet normal -4.29069941475395e-014 -1.0 4.15498919615027e-018
outer loop
vertex 370.033165548949 -26.7655022998599 5.99999999999991
vertex 368.480251278333 -26.5610572575943 2.99999999999991
vertex 370.033165548949 -26.7655022998599 2.99999999999991
endloop
endfacet
facet normal -0.258819045102557 -0.965925826289059 1.18443057621919e-017
outer loop
vertex 368.480251278333 -26.5610572575943 2.99999999999991
vertex 370.033165548949 -26.7655022998599 5.99999999999991
vertex 368.480251278333 -26.5610572575943 5.99999999999991
endloop
endfacet
facet normal 0.258819045102599 -0.965925826289047 -3.81748301716857e-018
outer loop
vertex 371.586079819564 -26.5610572575944 5.99999999999991
vertex 370.033165548949 -26.7655022998599 2.99999999999991
vertex 371.586079819564 -26.5610572575944 2.99999999999991
endloop
endfacet
facet normal -4.27555052793136e-014 -1.0 4.15498919615026e-018
outer loop
vertex 370.033165548949 -26.7655022998599 2.99999999999991
vertex 371.586079819564 -26.5610572575944 5.99999999999991
vertex 370.033165548949 -26.7655022998599 5.99999999999991
endloop
endfacet
facet normal 0.499999999999986 -0.866025403784446 -1.15298000715498e-017
outer loop
vertex 373.033165548949 -25.9616547225664 2.99999999999991
vertex 371.586079819564 -26.5610572575944 5.99999999999991
vertex 371.586079819564 -26.5610572575944 2.99999999999991
endloop
endfacet
facet normal 0.258819045102599 -0.965925826289047 -3.81748301716857e-018
outer loop
vertex 371.586079819564 -26.5610572575944 5.99999999999991
vertex 373.033165548949 -25.9616547225664 2.99999999999991
vertex 373.033165548949 -25.9616547225664 5.99999999999991
endloop
endfacet
facet normal 0.707106781186498 -0.707106781186597 -1.84563803049521e-017
outer loop
vertex 374.275806236068 -25.0081429869793 5.99999999999991
vertex 373.033165548949 -25.9616547225664 2.99999999999991
vertex 374.275806236068 -25.0081429869793 2.99999999999991
endloop
endfacet
facet normal 0.499999999999986 -0.866025403784446 -1.15298000715498e-017
outer loop
vertex 373.033165548949 -25.9616547225664 2.99999999999991
vertex 374.275806236068 -25.0081429869793 5.99999999999991
vertex 373.033165548949 -25.9616547225664 5.99999999999991
endloop
endfacet
facet normal 0.866025403784395 -0.500000000000076 -2.41251887211837e-017
outer loop
vertex 375.229317971655 -23.7655022998601 2.99999999999991
vertex 374.275806236068 -25.0081429869793 5.99999999999991
vertex 374.275806236068 -25.0081429869793 2.99999999999991
endloop
endfacet
facet normal 0.707106781186498 -0.707106781186597 -1.84563803049521e-017
outer loop
vertex 374.275806236068 -25.0081429869793 5.99999999999991
vertex 375.229317971655 -23.7655022998601 2.99999999999991
vertex 375.229317971655 -23.7655022998601 5.99999999999991
endloop
endfacet
facet normal 0.965925826289087 -0.258819045102451 -2.81499053948283e-017
outer loop
vertex 375.828720506684 -22.3184165704751 2.99999999999991
vertex 375.229317971655 -23.7655022998601 5.99999999999991
vertex 375.229317971655 -23.7655022998601 2.99999999999991
endloop
endfacet
facet normal 0.866025403784395 -0.500000000000076 -2.41251887211837e-017
outer loop
vertex 375.229317971655 -23.7655022998601 5.99999999999991
vertex 375.828720506684 -22.3184165704751 2.99999999999991
vertex 375.828720506684 -22.3184165704751 5.99999999999991
endloop
endfacet
facet normal 1.0 2.3413050139822e-013 -3.02562525357313e-017
outer loop
vertex 376.033165548949 -20.76550229986 2.99999999999991
vertex 375.828720506684 -22.3184165704751 5.99999999999991
vertex 375.828720506684 -22.3184165704751 2.99999999999991
endloop
endfacet
facet normal 0.965925826289087 -0.258819045102451 -2.81499053948283e-017
outer loop
vertex 375.828720506684 -22.3184165704751 5.99999999999991
vertex 376.033165548949 -20.76550229986 2.99999999999991
vertex 376.033165548949 -20.76550229986 5.99999999999991
endloop
endfacet
facet normal 0.965925826289066 0.258819045102529 -3.03006860671446e-017
outer loop
vertex 375.828720506683 -19.2125880292449 2.99999999999991
vertex 376.033165548949 -20.76550229986 5.99999999999991
vertex 376.033165548949 -20.76550229986 2.99999999999991
endloop
endfacet
facet normal 1.0 2.3413050139822e-013 -3.02562525357313e-017
outer loop
vertex 376.033165548949 -20.76550229986 5.99999999999991
vertex 375.828720506683 -19.2125880292449 2.99999999999991
vertex 375.828720506683 -19.2125880292449 5.99999999999991
endloop
endfacet
facet normal 0.866025403784431 0.500000000000013 -2.82801779173341e-017
outer loop
vertex 375.229317971655 -17.7655022998598 2.99999999999991
vertex 375.828720506683 -19.2125880292449 5.99999999999991
vertex 375.828720506683 -19.2125880292449 2.99999999999991
endloop
endfacet
facet normal 0.965925826289066 0.258819045102529 -3.03006860671446e-017
outer loop
vertex 375.828720506683 -19.2125880292449 5.99999999999991
vertex 375.229317971655 -17.7655022998598 2.99999999999991
vertex 375.229317971655 -17.7655022998598 5.99999999999991
endloop
endfacet
facet normal 0.793353340291226 0.608761429008732 -2.653329617448e-017
outer loop
vertex 374.275806236068 -16.5228616127408 2.99999999999991
vertex 375.229317971655 -17.7655022998598 5.99999999999991
vertex 375.229317971655 -17.7655022998598 2.99999999999991
endloop
endfacet
facet normal 0.866025403784431 0.500000000000013 -2.82801779173341e-017
outer loop
vertex 375.229317971655 -17.7655022998598 5.99999999999991
vertex 374.275806236068 -16.5228616127408 2.99999999999991
vertex 374.275806236068 -16.5228616127408 5.99999999999991
endloop
endfacet
facet normal 1.0 -1.02100567667942e-014 -3.02562525357303e-017
outer loop
vertex 374.275806236068 9.99185701302063 2.99999999999991
vertex 374.275806236068 -16.5228616127408 5.99999999999991
vertex 374.275806236068 -16.5228616127408 2.99999999999991
endloop
endfacet
facet normal 1.0 -1.02100567667942e-014 -3.02562525357303e-017
outer loop
vertex 374.275806236068 -16.5228616127408 5.99999999999991
vertex 374.275806236068 9.99185701302063 2.99999999999991
vertex 374.275806236068 9.99185701302063 5.99999999999991
endloop
endfacet
facet normal 0.707106781186867 -0.707106781186228 -1.84563803049648e-017
outer loop
vertex 368.98165777198 -19.7139945228912 2.99999999999991
vertex 368.745336791879 -20.0219740202953 5.99999999999991
vertex 368.745336791879 -20.0219740202953 2.99999999999991
endloop
endfacet
facet normal 0.866025403784273 -0.500000000000288 -2.41251887211791e-017
outer loop
vertex 368.745336791879 -20.0219740202953 5.99999999999991
vertex 368.98165777198 -19.7139945228912 2.99999999999991
vertex 368.98165777198 -19.7139945228912 5.99999999999991
endloop
endfacet
facet normal 0.499999999999585 -0.866025403784678 -1.15298000715367e-017
outer loop
vertex 369.289637269384 -19.4776735427896 5.99999999999991
vertex 368.98165777198 -19.7139945228912 2.99999999999991
vertex 369.289637269384 -19.4776735427896 2.99999999999991
endloop
endfacet
facet normal 0.707106781186867 -0.707106781186228 -1.84563803049648e-017
outer loop
vertex 368.98165777198 -19.7139945228912 2.99999999999991
vertex 369.289637269384 -19.4776735427896 5.99999999999991
vertex 368.98165777198 -19.7139945228912 5.99999999999991
endloop
endfacet
facet normal 0.258819045102499 -0.965925826289074 -3.81748301716543e-018
outer loop
vertex 369.648286990302 -19.3291159642442 5.99999999999991
vertex 369.289637269384 -19.4776735427896 2.99999999999991
vertex 369.648286990302 -19.3291159642442 2.99999999999991
endloop
endfacet
facet normal 0.499999999999585 -0.866025403784678 -1.15298000715367e-017
outer loop
vertex 369.289637269384 -19.4776735427896 2.99999999999991
vertex 369.648286990302 -19.3291159642442 5.99999999999991
vertex 369.289637269384 -19.4776735427896 5.99999999999991
endloop
endfacet
facet normal 2.63866875120013e-013 -1.0 4.15498919614098e-018
outer loop
vertex 370.033165548949 -19.2784457407302 5.99999999999991
vertex 369.648286990302 -19.3291159642442 2.99999999999991
vertex 370.033165548949 -19.2784457407302 2.99999999999991
endloop
endfacet
facet normal 0.258819045102499 -0.965925826289074 -3.81748301716542e-018
outer loop
vertex 369.648286990302 -19.3291159642442 2.99999999999991
vertex 370.033165548949 -19.2784457407302 5.99999999999991
vertex 369.648286990302 -19.3291159642442 5.99999999999991
endloop
endfacet
facet normal -0.258819045102637 -0.965925826289037 1.18443057621942e-017
outer loop
vertex 370.418044107597 -19.3291159642441 5.99999999999991
vertex 370.033165548949 -19.2784457407302 2.99999999999991
vertex 370.418044107597 -19.3291159642441 2.99999999999991
endloop
endfacet
facet normal 2.63866875120013e-013 -1.0 4.15498919614098e-018
outer loop
vertex 370.033165548949 -19.2784457407302 2.99999999999991
vertex 370.418044107597 -19.3291159642441 5.99999999999991
vertex 370.033165548949 -19.2784457407302 5.99999999999991
endloop
endfacet
facet normal -0.500000000000136 -0.86602540378436 1.87264524641838e-017
outer loop
vertex 370.776693828513 -19.477673542789 2.99999999999991
vertex 370.418044107597 -19.3291159642441 5.99999999999991
vertex 370.418044107597 -19.3291159642441 2.99999999999991
endloop
endfacet
facet normal -0.258819045102637 -0.965925826289037 1.18443057621942e-017
outer loop
vertex 370.418044107597 -19.3291159642441 5.99999999999991
vertex 370.776693828513 -19.477673542789 2.99999999999991
vertex 370.776693828513 -19.477673542789 5.99999999999991
endloop
endfacet
facet normal -0.707106781186901 -0.707106781186194 2.43324223776706e-017
outer loop
vertex 371.084673325918 -19.7139945228919 5.99999999999991
vertex 370.776693828513 -19.477673542789 2.99999999999991
vertex 371.084673325918 -19.7139945228919 2.99999999999991
endloop
endfacet
facet normal -0.500000000000136 -0.86602540378436 1.87264524641838e-017
outer loop
vertex 370.776693828513 -19.477673542789 2.99999999999991
vertex 371.084673325918 -19.7139945228919 5.99999999999991
vertex 370.776693828513 -19.477673542789 5.99999999999991
endloop
endfacet
facet normal -0.707106781186901 -0.707106781186194 2.43324223776706e-017
outer loop
vertex 371.084673325918 -19.7139945228919 5.99999999999991
vertex 371.320994306019 -20.0219740202949 2.99999999999991
vertex 371.320994306019 -20.0219740202949 5.99999999999991
endloop
endfacet
facet normal -0.866025403784476 -0.499999999999935 2.82801779173351e-017
outer loop
vertex 371.320994306019 -20.0219740202949 2.99999999999991
vertex 371.084673325918 -19.7139945228919 5.99999999999991
vertex 371.084673325918 -19.7139945228919 2.99999999999991
endloop
endfacet
facet normal -0.866025403784476 -0.499999999999935 2.82801779173351e-017
outer loop
vertex 371.320994306019 -20.0219740202949 5.99999999999991
vertex 371.469551884565 -20.3806237412126 2.99999999999991
vertex 371.469551884565 -20.3806237412126 5.99999999999991
endloop
endfacet
facet normal -0.965925826289073 -0.258819045102505 3.03006860671446e-017
outer loop
vertex 371.469551884565 -20.3806237412126 2.99999999999991
vertex 371.320994306019 -20.0219740202949 5.99999999999991
vertex 371.320994306019 -20.0219740202949 2.99999999999991
endloop
endfacet
facet normal -0.965925826289073 -0.258819045102505 3.03006860671446e-017
outer loop
vertex 371.469551884565 -20.3806237412126 5.99999999999991
vertex 371.520222108078 -20.7655022998597 2.99999999999991
vertex 371.520222108078 -20.7655022998597 5.99999999999991
endloop
endfacet
facet normal -1.0 -7.12888791651687e-017 3.02562525357303e-017
outer loop
vertex 371.520222108078 -20.7655022998597 2.99999999999991
vertex 371.469551884565 -20.3806237412126 5.99999999999991
vertex 371.469551884565 -20.3806237412126 2.99999999999991
endloop
endfacet
facet normal -1.0 8.01999890608145e-017 3.02562525357303e-017
outer loop
vertex 371.520222108078 -20.7655022998597 5.99999999999991
vertex 371.469551884565 -21.1503808585068 2.99999999999991
vertex 371.469551884565 -21.1503808585068 5.99999999999991
endloop
endfacet
facet normal -0.965925826289174 0.258819045102125 2.81499053948323e-017
outer loop
vertex 371.469551884565 -21.1503808585068 2.99999999999991
vertex 371.520222108078 -20.7655022998597 5.99999999999991
vertex 371.520222108078 -20.7655022998597 2.99999999999991
endloop
endfacet
facet normal -0.965925826289174 0.258819045102126 2.81499053948323e-017
outer loop
vertex 371.469551884565 -21.1503808585068 5.99999999999991
vertex 371.320994306019 -21.5090305794249 2.99999999999991
vertex 371.320994306019 -21.5090305794249 5.99999999999991
endloop
endfacet
facet normal -0.866025403784413 0.500000000000044 2.41251887211844e-017
outer loop
vertex 371.320994306019 -21.5090305794249 2.99999999999991
vertex 371.469551884565 -21.1503808585068 5.99999999999991
vertex 371.469551884565 -21.1503808585068 2.99999999999991
endloop
endfacet
facet normal -0.866025403784413 0.500000000000044 2.41251887211843e-017
outer loop
vertex 371.320994306019 -21.5090305794249 5.99999999999991
vertex 371.084673325917 -21.8170100768285 2.99999999999991
vertex 371.084673325917 -21.8170100768285 5.99999999999991
endloop
endfacet
facet normal -0.707106781186798 0.707106781186297 1.84563803049624e-017
outer loop
vertex 371.084673325917 -21.8170100768285 2.99999999999991
vertex 371.320994306019 -21.5090305794249 5.99999999999991
vertex 371.320994306019 -21.5090305794249 2.99999999999991
endloop
endfacet
facet normal -0.500000000000107 0.866025403784377 1.15298000715538e-017
outer loop
vertex 370.776693828514 -22.0533310569305 2.99999999999991
vertex 371.084673325917 -21.8170100768285 5.99999999999991
vertex 371.084673325917 -21.8170100768285 2.99999999999991
endloop
endfacet
facet normal -0.707106781186798 0.707106781186297 1.84563803049624e-017
outer loop
vertex 371.084673325917 -21.8170100768285 5.99999999999991
vertex 370.776693828514 -22.0533310569305 2.99999999999991
vertex 370.776693828514 -22.0533310569305 5.99999999999991
endloop
endfacet
facet normal -0.258819045102318 0.965925826289123 3.81748301715974e-018
outer loop
vertex 370.418044107596 -22.2018886354759 5.99999999999991
vertex 370.776693828514 -22.0533310569305 2.99999999999991
vertex 370.418044107596 -22.2018886354759 2.99999999999991
endloop
endfacet
facet normal -0.500000000000107 0.866025403784377 1.15298000715538e-017
outer loop
vertex 370.776693828514 -22.0533310569305 2.99999999999991
vertex 370.418044107596 -22.2018886354759 5.99999999999991
vertex 370.776693828514 -22.0533310569305 5.99999999999991
endloop
endfacet
facet normal -7.29196122760804e-014 1.0 -4.15498919614676e-018
outer loop
vertex 370.033165548949 -22.2525588589898 5.99999999999991
vertex 370.418044107596 -22.2018886354759 2.99999999999991
vertex 370.033165548949 -22.2525588589898 2.99999999999991
endloop
endfacet
facet normal -0.258819045102317 0.965925826289123 3.81748301715972e-018
outer loop
vertex 370.418044107596 -22.2018886354759 2.99999999999991
vertex 370.033165548949 -22.2525588589898 5.99999999999991
vertex 370.418044107596 -22.2018886354759 5.99999999999991
endloop
endfacet
facet normal 0.258819045102695 0.965925826289022 -1.18443057621959e-017
outer loop
vertex 369.648286990301 -22.201888635476 5.99999999999991
vertex 370.033165548949 -22.2525588589898 2.99999999999991
vertex 369.648286990301 -22.201888635476 2.99999999999991
endloop
endfacet
facet normal -7.26166345396282e-014 1.0 -4.15498919614677e-018
outer loop
vertex 370.033165548949 -22.2525588589898 2.99999999999991
vertex 369.648286990301 -22.201888635476 5.99999999999991
vertex 370.033165548949 -22.2525588589898 5.99999999999991
endloop
endfacet
facet normal 0.500000000000146 0.866025403784355 -1.87264524641841e-017
outer loop
vertex 369.289637269384 -22.0533310569305 2.99999999999991
vertex 369.648286990301 -22.201888635476 5.99999999999991
vertex 369.648286990301 -22.201888635476 2.99999999999991
endloop
endfacet
facet normal 0.258819045102695 0.965925826289022 -1.18443057621959e-017
outer loop
vertex 369.648286990301 -22.201888635476 5.99999999999991
vertex 369.289637269384 -22.0533310569305 2.99999999999991
vertex 369.289637269384 -22.0533310569305 5.99999999999991
endloop
endfacet
facet normal 0.707106781186607 0.707106781186489 -2.43324223776629e-017
outer loop
vertex 368.98165777198 -21.8170100768287 2.99999999999991
vertex 369.289637269384 -22.0533310569305 5.99999999999991
vertex 369.289637269384 -22.0533310569305 2.99999999999991
endloop
endfacet
facet normal 0.500000000000146 0.866025403784354 -1.87264524641841e-017
outer loop
vertex 369.289637269384 -22.0533310569305 5.99999999999991
vertex 368.98165777198 -21.8170100768287 2.99999999999991
vertex 368.98165777198 -21.8170100768287 5.99999999999991
endloop
endfacet
facet normal 0.866025403784622 0.499999999999682 -2.82801779173385e-017
outer loop
vertex 368.745336791878 -21.5090305794246 2.99999999999991
vertex 368.98165777198 -21.8170100768287 5.99999999999991
vertex 368.98165777198 -21.8170100768287 2.99999999999991
endloop
endfacet
facet normal 0.707106781186607 0.707106781186488 -2.43324223776629e-017
outer loop
vertex 368.98165777198 -21.8170100768287 5.99999999999991
vertex 368.745336791878 -21.5090305794246 2.99999999999991
vertex 368.745336791878 -21.5090305794246 5.99999999999991
endloop
endfacet
facet normal 0.965925826289186 0.25881904510208 -3.03006860671463e-017
outer loop
vertex 368.596779213333 -21.150380858507 2.99999999999991
vertex 368.745336791878 -21.5090305794246 5.99999999999991
vertex 368.745336791878 -21.5090305794246 2.99999999999991
endloop
endfacet
facet normal 0.866025403784622 0.499999999999683 -2.82801779173385e-017
outer loop
vertex 368.745336791878 -21.5090305794246 5.99999999999991
vertex 368.596779213333 -21.150380858507 2.99999999999991
vertex 368.596779213333 -21.150380858507 5.99999999999991
endloop
endfacet
facet normal 1.0 3.83543081018505e-013 -3.02562525357319e-017
outer loop
vertex 368.546108989819 -20.7655022998599 2.99999999999991
vertex 368.596779213333 -21.150380858507 5.99999999999991
vertex 368.596779213333 -21.150380858507 2.99999999999991
endloop
endfacet
facet normal 0.965925826289186 0.25881904510208 -3.03006860671463e-017
outer loop
vertex 368.596779213333 -21.150380858507 5.99999999999991
vertex 368.546108989819 -20.7655022998599 2.99999999999991
vertex 368.546108989819 -20.7655022998599 5.99999999999991
endloop
endfacet
facet normal 0.965925826288962 -0.258819045102918 -2.81499053948226e-017
outer loop
vertex 368.596779213333 -20.3806237412125 2.99999999999991
vertex 368.546108989819 -20.7655022998599 5.99999999999991
vertex 368.546108989819 -20.7655022998599 2.99999999999991
endloop
endfacet
facet normal 1.0 3.83685658776836e-013 -3.02562525357319e-017
outer loop
vertex 368.546108989819 -20.7655022998599 5.99999999999991
vertex 368.596779213333 -20.3806237412125 2.99999999999991
vertex 368.596779213333 -20.3806237412125 5.99999999999991
endloop
endfacet
facet normal 0.866025403784273 -0.500000000000287 -2.41251887211791e-017
outer loop
vertex 368.745336791879 -20.0219740202953 2.99999999999991
vertex 368.596779213333 -20.3806237412125 5.99999999999991
vertex 368.596779213333 -20.3806237412125 2.99999999999991
endloop
endfacet
facet normal 0.965925826288962 -0.258819045102918 -2.81499053948226e-017
outer loop
vertex 368.596779213333 -20.3806237412125 5.99999999999991
vertex 368.745336791879 -20.0219740202953 2.99999999999991
vertex 368.745336791879 -20.0219740202953 5.99999999999991
endloop
endfacet
facet normal -1.0 -8.3207488650589e-013 3.02562525357338e-017
outer loop
vertex 371.033165548949 14.2344977001402 5.99999999999991
vertex 370.999091375238 13.9756786550371 2.99999999999991
vertex 370.999091375238 13.9756786550371 5.99999999999991
endloop
endfacet
facet normal -0.965925826289327 0.258819045101557 2.81499053948393e-017
outer loop
vertex 370.999091375238 13.9756786550371 2.99999999999991
vertex 371.033165548949 14.2344977001402 5.99999999999991
vertex 371.033165548949 14.2344977001402 2.99999999999991
endloop
endfacet
facet normal -0.965925826289327 0.258819045101557 2.81499053948393e-017
outer loop
vertex 370.999091375238 13.9756786550371 5.99999999999991
vertex 370.899190952734 13.7344977001401 2.99999999999991
vertex 370.899190952734 13.7344977001401 5.99999999999991
endloop
endfacet
facet normal -0.866025403784338 0.500000000000175 2.41251887211815e-017
outer loop
vertex 370.899190952734 13.7344977001401 2.99999999999991
vertex 370.999091375238 13.9756786550371 5.99999999999991
vertex 370.999091375238 13.9756786550371 2.99999999999991
endloop
endfacet
facet normal -0.866025403784338 0.500000000000175 2.41251887211815e-017
outer loop
vertex 370.899190952734 13.7344977001401 5.99999999999991
vertex 370.740272330136 13.5273909189533 2.99999999999991
vertex 370.740272330136 13.5273909189533 5.99999999999991
endloop
endfacet
facet normal -0.707106781186391 0.707106781186704 1.84563803049484e-017
outer loop
vertex 370.740272330136 13.5273909189533 2.99999999999991
vertex 370.899190952734 13.7344977001401 5.99999999999991
vertex 370.899190952734 13.7344977001401 2.99999999999991
endloop
endfacet
facet normal -0.499999999999494 0.866025403784731 1.15298000715337e-017
outer loop
vertex 370.533165548949 13.3684722963554 5.99999999999991
vertex 370.740272330136 13.5273909189533 2.99999999999991
vertex 370.533165548949 13.3684722963554 2.99999999999991
endloop
endfacet
facet normal -0.707106781186391 0.707106781186704 1.84563803049484e-017
outer loop
vertex 370.740272330136 13.5273909189533 2.99999999999991
vertex 370.533165548949 13.3684722963554 5.99999999999991
vertex 370.740272330136 13.5273909189533 5.99999999999991
endloop
endfacet
facet normal -0.258819045101802 0.965925826289261 3.81748301714356e-018
outer loop
vertex 370.291984594052 13.2685718738511 2.99999999999991
vertex 370.533165548949 13.3684722963554 5.99999999999991
vertex 370.533165548949 13.3684722963554 2.99999999999991
endloop
endfacet
facet normal -0.499999999999494 0.866025403784731 1.15298000715337e-017
outer loop
vertex 370.533165548949 13.3684722963554 5.99999999999991
vertex 370.291984594052 13.2685718738511 2.99999999999991
vertex 370.291984594052 13.2685718738511 5.99999999999991
endloop
endfacet
facet normal 2.34709723541437e-013 1.0 -4.15498919615607e-018
outer loop
vertex 370.033165548948 13.2344977001402 5.99999999999991
vertex 370.291984594052 13.2685718738511 2.99999999999991
vertex 370.033165548948 13.2344977001402 2.99999999999991
endloop
endfacet
facet normal -0.258819045101802 0.965925826289261 3.81748301714356e-018
outer loop
vertex 370.291984594052 13.2685718738511 2.99999999999991
vertex 370.033165548948 13.2344977001402 5.99999999999991
vertex 370.291984594052 13.2685718738511 5.99999999999991
endloop
endfacet
facet normal 0.258819045102441 0.96592582628909 -1.18443057621885e-017
outer loop
vertex 369.774346503846 13.268571873851 5.99999999999991
vertex 370.033165548948 13.2344977001402 2.99999999999991
vertex 369.774346503846 13.268571873851 2.99999999999991
endloop
endfacet
facet normal 2.34709723541437e-013 1.0 -4.15498919615607e-018
outer loop
vertex 370.033165548948 13.2344977001402 2.99999999999991
vertex 369.774346503846 13.268571873851 5.99999999999991
vertex 370.033165548948 13.2344977001402 5.99999999999991
endloop
endfacet
facet normal 0.499999999999899 0.866025403784497 -1.87264524641772e-017
outer loop
vertex 369.533165548949 13.3684722963556 5.99999999999991
vertex 369.774346503846 13.268571873851 2.99999999999991
vertex 369.533165548949 13.3684722963556 2.99999999999991
endloop
endfacet
facet normal 0.258819045102441 0.96592582628909 -1.18443057621885e-017
outer loop
vertex 369.774346503846 13.268571873851 2.99999999999991
vertex 369.533165548949 13.3684722963556 5.99999999999991
vertex 369.774346503846 13.268571873851 5.99999999999991
endloop
endfacet
facet normal 0.707106781186286 0.707106781186809 -2.43324223776545e-017
outer loop
vertex 369.326058767762 13.5273909189534 5.99999999999991
vertex 369.533165548949 13.3684722963556 2.99999999999991
vertex 369.326058767762 13.5273909189534 2.99999999999991
endloop
endfacet
facet normal 0.499999999999899 0.866025403784497 -1.87264524641772e-017
outer loop
vertex 369.533165548949 13.3684722963556 2.99999999999991
vertex 369.326058767762 13.5273909189534 5.99999999999991
vertex 369.533165548949 13.3684722963556 5.99999999999991
endloop
endfacet
facet normal 0.866025403783816 0.500000000001078 -2.82801779173199e-017
outer loop
vertex 369.167140145164 13.7344977001401 2.99999999999991
vertex 369.326058767762 13.5273909189534 5.99999999999991
vertex 369.326058767762 13.5273909189534 2.99999999999991
endloop
endfacet
facet normal 0.707106781186286 0.707106781186809 -2.43324223776545e-017
outer loop
vertex 369.326058767762 13.5273909189534 5.99999999999991
vertex 369.167140145164 13.7344977001401 2.99999999999991
vertex 369.167140145164 13.7344977001401 5.99999999999991
endloop
endfacet
facet normal 0.965925826289002 0.258819045102767 -3.03006860671436e-017
outer loop
vertex 369.067239722659 13.9756786550375 2.99999999999991
vertex 369.167140145164 13.7344977001401 5.99999999999991
vertex 369.167140145164 13.7344977001401 2.99999999999991
endloop
endfacet
facet normal 0.866025403783816 0.500000000001078 -2.82801779173199e-017
outer loop
vertex 369.167140145164 13.7344977001401 5.99999999999991
vertex 369.067239722659 13.9756786550375 2.99999999999991
vertex 369.067239722659 13.9756786550375 5.99999999999991
endloop
endfacet
facet normal 1.0 -1.84882361448959e-012 -3.02562525357226e-017
outer loop
vertex 369.033165548948 14.2344977001404 2.99999999999991
vertex 369.067239722659 13.9756786550375 5.99999999999991
vertex 369.067239722659 13.9756786550375 2.99999999999991
endloop
endfacet
facet normal 0.965925826289002 0.258819045102766 -3.03006860671436e-017
outer loop
vertex 369.067239722659 13.9756786550375 5.99999999999991
vertex 369.033165548948 14.2344977001404 2.99999999999991
vertex 369.033165548948 14.2344977001404 5.99999999999991
endloop
endfacet
facet normal 0.965925826288946 -0.258819045102978 -2.81499053948219e-017
outer loop
vertex 369.06723972266 14.4933167452427 2.99999999999991
vertex 369.033165548948 14.2344977001404 5.99999999999991
vertex 369.033165548948 14.2344977001404 2.99999999999991
endloop
endfacet
facet normal 1.0 -1.84893054780833e-012 -3.02562525357226e-017
outer loop
vertex 369.033165548948 14.2344977001404 5.99999999999991
vertex 369.06723972266 14.4933167452427 2.99999999999991
vertex 369.06723972266 14.4933167452427 5.99999999999991
endloop
endfacet
facet normal 0.866025403784858 -0.499999999999273 -2.4125188721201e-017
outer loop
vertex 369.167140145164 14.7344977001402 2.99999999999991
vertex 369.06723972266 14.4933167452427 5.99999999999991
vertex 369.06723972266 14.4933167452427 2.99999999999991
endloop
endfacet
facet normal 0.965925826288946 -0.258819045102978 -2.81499053948218e-017
outer loop
vertex 369.06723972266 14.4933167452427 5.99999999999991
vertex 369.167140145164 14.7344977001402 2.99999999999991
vertex 369.167140145164 14.7344977001402 5.99999999999991
endloop
endfacet
facet normal 0.707106781186061 -0.707106781187035 -1.8456380304937e-017
outer loop
vertex 369.326058767762 14.9416044813266 2.99999999999991
vertex 369.167140145164 14.7344977001402 5.99999999999991
vertex 369.167140145164 14.7344977001402 2.99999999999991
endloop
endfacet
facet normal 0.866025403784858 -0.499999999999273 -2.4125188721201e-017
outer loop
vertex 369.167140145164 14.7344977001402 5.99999999999991
vertex 369.326058767762 14.9416044813266 2.99999999999991
vertex 369.326058767762 14.9416044813266 5.99999999999991
endloop
endfacet
facet normal 0.499999999999795 -0.866025403784557 -1.15298000715436e-017
outer loop
vertex 369.533165548949 15.1005231039244 5.99999999999991
vertex 369.326058767762 14.9416044813266 2.99999999999991
vertex 369.533165548949 15.1005231039244 2.99999999999991
endloop
endfacet
facet normal 0.707106781186061 -0.707106781187035 -1.8456380304937e-017
outer loop
vertex 369.326058767762 14.9416044813266 2.99999999999991
vertex 369.533165548949 15.1005231039244 5.99999999999991
vertex 369.326058767762 14.9416044813266 5.99999999999991
endloop
endfacet
facet normal 0.258819045102505 -0.965925826289073 -3.8174830171656e-018
outer loop
vertex 369.774346503846 15.2004235264294 5.99999999999991
vertex 369.533165548949 15.1005231039244 2.99999999999991
vertex 369.774346503846 15.2004235264294 2.99999999999991
endloop
endfacet
facet normal 0.499999999999795 -0.866025403784557 -1.15298000715436e-017
outer loop
vertex 369.533165548949 15.1005231039244 2.99999999999991
vertex 369.774346503846 15.2004235264294 5.99999999999991
vertex 369.533165548949 15.1005231039244 5.99999999999991
endloop
endfacet
facet normal -2.71075963025539e-014 -1.0 4.15498919614979e-018
outer loop
vertex 370.033165548949 15.23449770014 5.99999999999991
vertex 369.774346503846 15.2004235264294 2.99999999999991
vertex 370.033165548949 15.23449770014 2.99999999999991
endloop
endfacet
facet normal 0.258819045102505 -0.965925826289073 -3.8174830171656e-018
outer loop
vertex 369.774346503846 15.2004235264294 2.99999999999991
vertex 370.033165548949 15.23449770014 5.99999999999991
vertex 369.774346503846 15.2004235264294 5.99999999999991
endloop
endfacet
facet normal -0.258819045102403 -0.9659258262891 1.18443057621874e-017
outer loop
vertex 370.291984594051 15.2004235264294 5.99999999999991
vertex 370.033165548949 15.23449770014 2.99999999999991
vertex 370.291984594051 15.2004235264294 2.99999999999991
endloop
endfacet
facet normal -2.71075963025539e-014 -1.0 4.15498919614979e-018
outer loop
vertex 370.033165548949 15.23449770014 2.99999999999991
vertex 370.291984594051 15.2004235264294 5.99999999999991
vertex 370.033165548949 15.23449770014 5.99999999999991
endloop
endfacet
facet normal -0.500000000000678 -0.866025403784047 1.87264524641989e-017
outer loop
vertex 370.533165548949 15.1005231039245 5.99999999999991
vertex 370.291984594051 15.2004235264294 2.99999999999991
vertex 370.533165548949 15.1005231039245 2.99999999999991
endloop
endfacet
facet normal -0.258819045102403 -0.9659258262891 1.18443057621874e-017
outer loop
vertex 370.291984594051 15.2004235264294 2.99999999999991
vertex 370.533165548949 15.1005231039245 5.99999999999991
vertex 370.291984594051 15.2004235264294 5.99999999999991
endloop
endfacet
facet normal -0.707106781186122 -0.707106781186973 2.43324223776503e-017
outer loop
vertex 370.740272330135 14.9416044813265 5.99999999999991
vertex 370.533165548949 15.1005231039245 2.99999999999991
vertex 370.740272330135 14.9416044813265 2.99999999999991
endloop
endfacet
facet normal -0.500000000000678 -0.866025403784047 1.87264524641989e-017
outer loop
vertex 370.533165548949 15.1005231039245 2.99999999999991
vertex 370.740272330135 14.9416044813265 5.99999999999991
vertex 370.533165548949 15.1005231039245 5.99999999999991
endloop
endfacet
facet normal -0.707106781186122 -0.707106781186973 2.43324223776503e-017
outer loop
vertex 370.740272330135 14.9416044813265 5.99999999999991
vertex 370.899190952734 14.7344977001402 2.99999999999991
vertex 370.899190952734 14.7344977001402 5.99999999999991
endloop
endfacet
facet normal -0.866025403784149 -0.5000000000005 2.82801779173276e-017
outer loop
vertex 370.899190952734 14.7344977001402 2.99999999999991
vertex 370.740272330135 14.9416044813265 5.99999999999991
vertex 370.740272330135 14.9416044813265 2.99999999999991
endloop
endfacet
facet normal -0.866025403784149 -0.5000000000005 2.82801779173276e-017
outer loop
vertex 370.899190952734 14.7344977001402 5.99999999999991
vertex 370.999091375238 14.4933167452428 2.99999999999991
vertex 370.999091375238 14.4933167452428 5.99999999999991
endloop
endfacet
facet normal -0.965925826289221 -0.258819045101951 3.03006860671468e-017
outer loop
vertex 370.999091375238 14.4933167452428 2.99999999999991
vertex 370.899190952734 14.7344977001402 5.99999999999991
vertex 370.899190952734 14.7344977001402 2.99999999999991
endloop
endfacet
facet normal -0.965925826289221 -0.258819045101951 3.03006860671468e-017
outer loop
vertex 370.999091375238 14.4933167452428 5.99999999999991
vertex 371.033165548949 14.2344977001402 2.99999999999991
vertex 371.033165548949 14.2344977001402 5.99999999999991
endloop
endfacet
facet normal -1.0 -8.32065975395999e-013 3.02562525357338e-017
outer loop
vertex 371.033165548949 14.2344977001402 2.99999999999991
vertex 370.999091375238 14.4933167452428 5.99999999999991
vertex 370.999091375238 14.4933167452428 2.99999999999991
endloop
endfacet
endsolid uploads-c5-af-25-85-c2-plotclock_SUP7
