solid uploads-c5-af-25-85-c2-plotclock_SUP7
facet normal 4.99272751833373e-018 3.209182781071e-018 -1.0
outer loop
vertex 369.639804597587 74.0542281247165 2.99999999999995
vertex 369.597726423677 29.3738435872538 2.99999999999995
vertex 369.597726423676 74.3738435872541 2.99999999999995
endloop
endfacet
facet normal 4.99272751833373e-018 3.209182781071e-018 -1.0
outer loop
vertex 369.597726423677 29.3738435872538 2.99999999999995
vertex 369.639804597587 74.0542281247165 2.99999999999995
vertex 369.639804597587 29.6934590497916 2.99999999999995
endloop
endfacet
facet normal 4.99272751833373e-018 3.209182781071e-018 -1.0
outer loop
vertex 369.639804597587 29.6934590497916 2.99999999999995
vertex 369.639804597587 74.0542281247165 2.99999999999995
vertex 369.763171561304 73.7563939277612 2.99999999999995
endloop
endfacet
facet normal 4.99272751833373e-018 3.209182781071e-018 -1.0
outer loop
vertex 369.639804597587 29.6934590497916 2.99999999999995
vertex 369.763171561304 73.7563939277612 2.99999999999995
vertex 369.763171561304 29.9912932467463 2.99999999999995
endloop
endfacet
facet normal 4.99272751833373e-018 3.209182781071e-018 -1.0
outer loop
vertex 369.763171561304 29.9912932467463 2.99999999999995
vertex 369.763171561304 73.7563939277612 2.99999999999995
vertex 369.959420060125 30.2470492697907 2.99999999999995
endloop
endfacet
facet normal 4.99272751833373e-018 3.209182781071e-018 -1.0
outer loop
vertex 369.959420060125 30.2470492697907 2.99999999999995
vertex 369.763171561304 73.7563939277612 2.99999999999995
vertex 369.959420060125 73.5006379047165 2.99999999999995
endloop
endfacet
facet normal 4.99272751833373e-018 3.209182781071e-018 -1.0
outer loop
vertex 369.959420060125 30.2470492697907 2.99999999999995
vertex 369.959420060125 73.5006379047165 2.99999999999995
vertex 370.215176083169 73.304389405897 2.99999999999995
endloop
endfacet
facet normal 4.99272751833373e-018 3.209182781071e-018 -1.0
outer loop
vertex 369.959420060125 30.2470492697907 2.99999999999995
vertex 370.215176083169 73.304389405897 2.99999999999995
vertex 370.215176083169 30.4432977686108 2.99999999999995
endloop
endfacet
facet normal 4.99272751833373e-018 3.209182781071e-018 -1.0
outer loop
vertex 370.215176083169 30.4432977686108 2.99999999999995
vertex 370.215176083169 73.304389405897 2.99999999999995
vertex 370.513010280124 73.1810224421799 2.99999999999995
endloop
endfacet
facet normal 4.99272751833373e-018 3.209182781071e-018 -1.0
outer loop
vertex 370.215176083169 30.4432977686108 2.99999999999995
vertex 370.513010280124 73.1810224421799 2.99999999999995
vertex 370.513010280124 30.5666647323287 2.99999999999995
endloop
endfacet
facet normal 4.99272751833373e-018 3.209182781071e-018 -1.0
outer loop
vertex 370.513010280124 30.5666647323287 2.99999999999995
vertex 370.513010280124 73.1810224421799 2.99999999999995
vertex 370.832625742662 30.6087429062389 2.99999999999995
endloop
endfacet
facet normal 4.99272751833373e-018 3.209182781071e-018 -1.0
outer loop
vertex 370.832625742662 30.6087429062389 2.99999999999995
vertex 370.513010280124 73.1810224421799 2.99999999999995
vertex 370.832625742661 73.1389442682689 2.99999999999995
endloop
endfacet
facet normal 4.99272751833373e-018 3.209182781071e-018 -1.0
outer loop
vertex 370.832625742662 30.6087429062389 2.99999999999995
vertex 370.832625742661 73.1389442682689 2.99999999999995
vertex 371.152241205198 73.1810224421799 2.99999999999995
endloop
endfacet
facet normal 4.99272751833373e-018 3.209182781071e-018 -1.0
outer loop
vertex 370.832625742662 30.6087429062389 2.99999999999995
vertex 371.152241205198 73.1810224421799 2.99999999999995
vertex 371.152241205199 30.566664732328 2.99999999999995
endloop
endfacet
facet normal 4.99272751833373e-018 3.209182781071e-018 -1.0
outer loop
vertex 371.152241205199 30.566664732328 2.99999999999995
vertex 371.152241205198 73.1810224421799 2.99999999999995
vertex 371.450075402154 73.3043894058971 2.99999999999995
endloop
endfacet
facet normal 4.99272751833373e-018 3.209182781071e-018 -1.0
outer loop
vertex 371.152241205199 30.566664732328 2.99999999999995
vertex 371.450075402154 73.3043894058971 2.99999999999995
vertex 371.450075402154 30.443297768611 2.99999999999995
endloop
endfacet
facet normal 4.99272751833373e-018 3.209182781071e-018 -1.0
outer loop
vertex 371.450075402154 30.443297768611 2.99999999999995
vertex 371.450075402154 73.3043894058971 2.99999999999995
vertex 371.705831425198 30.2470492697911 2.99999999999995
endloop
endfacet
facet normal 4.99272751833373e-018 3.209182781071e-018 -1.0
outer loop
vertex 371.705831425198 30.2470492697911 2.99999999999995
vertex 371.450075402154 73.3043894058971 2.99999999999995
vertex 371.705831425198 73.5006379047174 2.99999999999995
endloop
endfacet
facet normal 4.99272751833373e-018 3.209182781071e-018 -1.0
outer loop
vertex 371.705831425198 30.2470492697911 2.99999999999995
vertex 371.705831425198 73.5006379047174 2.99999999999995
vertex 371.902079924018 73.7563939277613 2.99999999999995
endloop
endfacet
facet normal 4.99272751833373e-018 3.209182781071e-018 -1.0
outer loop
vertex 371.705831425198 30.2470492697911 2.99999999999995
vertex 371.902079924018 73.7563939277613 2.99999999999995
vertex 371.902079924017 29.9912932467467 2.99999999999995
endloop
endfacet
facet normal 4.99272751833373e-018 3.209182781071e-018 -1.0
outer loop
vertex 371.902079924017 29.9912932467467 2.99999999999995
vertex 371.902079924018 73.7563939277613 2.99999999999995
vertex 372.025446887735 29.6934590497915 2.99999999999995
endloop
endfacet
facet normal 4.99272751833373e-018 3.209182781071e-018 -1.0
outer loop
vertex 372.025446887735 29.6934590497915 2.99999999999995
vertex 371.902079924018 73.7563939277613 2.99999999999995
vertex 372.025446887736 74.0542281247166 2.99999999999995
endloop
endfacet
facet normal 4.99272751833373e-018 3.209182781071e-018 -1.0
outer loop
vertex 372.025446887735 29.6934590497915 2.99999999999995
vertex 372.025446887736 74.0542281247166 2.99999999999995
vertex 372.067525061646 29.3738435872541 2.99999999999995
endloop
endfacet
facet normal 4.99272751833373e-018 3.209182781071e-018 -1.0
outer loop
vertex 372.067525061646 29.3738435872541 2.99999999999995
vertex 372.025446887736 74.0542281247166 2.99999999999995
vertex 372.067525061646 74.3738435872539 2.99999999999995
endloop
endfacet
facet normal 4.99272751833373e-018 3.209182781071e-018 -1.0
outer loop
vertex 375.07526642978 78.6164842743731 2.99999999999995
vertex 375.075266429781 70.1312029001345 2.99999999999995
vertex 375.075266429781 33.6164842743737 2.99999999999995
endloop
endfacet
facet normal 4.99272751833373e-018 3.209182781071e-018 -1.0
outer loop
vertex 375.075266429781 70.1312029001345 2.99999999999995
vertex 375.07526642978 78.6164842743731 2.99999999999995
vertex 376.028778165368 77.3738435872541 2.99999999999995
endloop
endfacet
facet normal 4.99272751833373e-018 3.209182781071e-018 -1.0
outer loop
vertex 375.075266429781 70.1312029001345 2.99999999999995
vertex 376.028778165368 77.3738435872541 2.99999999999995
vertex 376.028778165368 71.3738435872536 2.99999999999995
endloop
endfacet
facet normal 4.99272751833373e-018 3.209182781071e-018 -1.0
outer loop
vertex 376.028778165368 71.3738435872536 2.99999999999995
vertex 376.028778165368 77.3738435872541 2.99999999999995
vertex 376.628180700396 72.820929316639 2.99999999999995
endloop
endfacet
facet normal 4.99272751833373e-018 3.209182781071e-018 -1.0
outer loop
vertex 376.628180700396 72.820929316639 2.99999999999995
vertex 376.028778165368 77.3738435872541 2.99999999999995
vertex 376.628180700395 75.9267578578692 2.99999999999995
endloop
endfacet
facet normal 4.99272751833373e-018 3.209182781071e-018 -1.0
outer loop
vertex 376.628180700396 72.820929316639 2.99999999999995
vertex 376.628180700395 75.9267578578692 2.99999999999995
vertex 376.832625742661 74.3738435872541 2.99999999999995
endloop
endfacet
facet normal 4.99272751833373e-018 3.209182781071e-018 -1.0
outer loop
vertex 369.279711472046 80.1693985449883 2.99999999999995
vertex 369.639804597587 74.6934590497914 2.99999999999995
vertex 369.597726423676 74.3738435872541 2.99999999999995
endloop
endfacet
facet normal 4.99272751833373e-018 3.209182781071e-018 -1.0
outer loop
vertex 369.639804597587 74.6934590497914 2.99999999999995
vertex 369.279711472046 80.1693985449883 2.99999999999995
vertex 370.832625742662 80.3738435872539 2.99999999999995
endloop
endfacet
facet normal 4.99272751833373e-018 3.209182781071e-018 -1.0
outer loop
vertex 369.639804597587 74.6934590497914 2.99999999999995
vertex 370.832625742662 80.3738435872539 2.99999999999995
vertex 369.763171561305 74.9912932467462 2.99999999999995
endloop
endfacet
facet normal 4.99272751833373e-018 3.209182781071e-018 -1.0
outer loop
vertex 369.763171561305 74.9912932467462 2.99999999999995
vertex 370.832625742662 80.3738435872539 2.99999999999995
vertex 369.959420060125 75.2470492697904 2.99999999999995
endloop
endfacet
facet normal 4.99272751833373e-018 3.209182781071e-018 -1.0
outer loop
vertex 369.959420060125 75.2470492697904 2.99999999999995
vertex 370.832625742662 80.3738435872539 2.99999999999995
vertex 370.215176083169 75.4432977686108 2.99999999999995
endloop
endfacet
facet normal 4.99272751833373e-018 3.209182781071e-018 -1.0
outer loop
vertex 370.215176083169 75.4432977686108 2.99999999999995
vertex 370.832625742662 80.3738435872539 2.99999999999995
vertex 370.513010280124 75.5666647323283 2.99999999999995
endloop
endfacet
facet normal 4.99272751833373e-018 3.209182781071e-018 -1.0
outer loop
vertex 370.513010280124 75.5666647323283 2.99999999999995
vertex 370.832625742662 80.3738435872539 2.99999999999995
vertex 370.832625742661 75.6087429062388 2.99999999999995
endloop
endfacet
facet normal 4.99272751833373e-018 3.209182781071e-018 -1.0
outer loop
vertex 370.832625742661 75.6087429062388 2.99999999999995
vertex 370.832625742662 80.3738435872539 2.99999999999995
vertex 371.152241205199 75.566664732328 2.99999999999995
endloop
endfacet
facet normal 4.99272751833373e-018 3.209182781071e-018 -1.0
outer loop
vertex 371.152241205199 75.566664732328 2.99999999999995
vertex 370.832625742662 80.3738435872539 2.99999999999995
vertex 372.385540013277 80.1693985449883 2.99999999999995
endloop
endfacet
facet normal 4.99272751833373e-018 3.209182781071e-018 -1.0
outer loop
vertex 371.152241205199 75.566664732328 2.99999999999995
vertex 372.385540013277 80.1693985449883 2.99999999999995
vertex 371.450075402154 75.443297768611 2.99999999999995
endloop
endfacet
facet normal 4.99272751833373e-018 3.209182781071e-018 -1.0
outer loop
vertex 371.450075402154 75.443297768611 2.99999999999995
vertex 372.385540013277 80.1693985449883 2.99999999999995
vertex 371.705831425198 75.2470492697909 2.99999999999995
endloop
endfacet
facet normal 4.99272751833373e-018 3.209182781071e-018 -1.0
outer loop
vertex 371.705831425198 75.2470492697909 2.99999999999995
vertex 372.385540013277 80.1693985449883 2.99999999999995
vertex 371.902079924018 74.9912932467464 2.99999999999995
endloop
endfacet
facet normal 4.99272751833373e-018 3.209182781071e-018 -1.0
outer loop
vertex 371.902079924018 74.9912932467464 2.99999999999995
vertex 372.385540013277 80.1693985449883 2.99999999999995
vertex 372.025446887736 74.6934590497907 2.99999999999995
endloop
endfacet
facet normal 4.99272751833373e-018 3.209182781071e-018 -1.0
outer loop
vertex 372.025446887736 74.6934590497907 2.99999999999995
vertex 372.385540013277 80.1693985449883 2.99999999999995
vertex 372.067525061646 74.3738435872539 2.99999999999995
endloop
endfacet
facet normal 4.99272751833373e-018 3.209182781071e-018 -1.0
outer loop
vertex 372.067525061646 74.3738435872539 2.99999999999995
vertex 372.385540013277 80.1693985449883 2.99999999999995
vertex 372.385540013277 23.5782886295196 2.99999999999995
endloop
endfacet
facet normal 4.99272751833373e-018 3.209182781071e-018 -1.0
outer loop
vertex 372.385540013277 23.5782886295196 2.99999999999995
vertex 372.385540013277 80.1693985449883 2.99999999999995
vertex 373.832625742661 24.1776911645472 2.99999999999995
endloop
endfacet
facet normal 4.99272751833373e-018 3.209182781071e-018 -1.0
outer loop
vertex 373.832625742661 24.1776911645472 2.99999999999995
vertex 372.385540013277 80.1693985449883 2.99999999999995
vertex 373.832625742661 79.5699960099606 2.99999999999995
endloop
endfacet
facet normal 4.99272751833373e-018 3.209182781071e-018 -1.0
outer loop
vertex 373.832625742661 24.1776911645472 2.99999999999995
vertex 373.832625742661 79.5699960099606 2.99999999999995
vertex 375.07526642978 78.6164842743731 2.99999999999995
endloop
endfacet
facet normal 4.99272751833373e-018 3.209182781071e-018 -1.0
outer loop
vertex 373.832625742661 24.1776911645472 2.99999999999995
vertex 375.07526642978 78.6164842743731 2.99999999999995
vertex 375.075266429781 25.1312029001347 2.99999999999995
endloop
endfacet
facet normal 4.99272751833373e-018 3.209182781071e-018 -1.0
outer loop
vertex 375.075266429781 25.1312029001347 2.99999999999995
vertex 375.07526642978 78.6164842743731 2.99999999999995
vertex 375.075266429781 33.6164842743737 2.99999999999995
endloop
endfacet
facet normal 4.99272751833373e-018 3.209182781071e-018 -1.0
outer loop
vertex 375.075266429781 25.1312029001347 2.99999999999995
vertex 375.075266429781 33.6164842743737 2.99999999999995
vertex 376.028778165368 32.3738435872543 2.99999999999995
endloop
endfacet
facet normal 4.99272751833373e-018 3.209182781071e-018 -1.0
outer loop
vertex 375.075266429781 25.1312029001347 2.99999999999995
vertex 376.028778165368 32.3738435872543 2.99999999999995
vertex 376.028778165368 26.3738435872539 2.99999999999995
endloop
endfacet
facet normal 4.99272751833373e-018 3.209182781071e-018 -1.0
outer loop
vertex 376.028778165368 26.3738435872539 2.99999999999995
vertex 376.028778165368 32.3738435872543 2.99999999999995
vertex 376.628180700396 30.9267578578694 2.99999999999995
endloop
endfacet
facet normal 4.99272751833373e-018 3.209182781071e-018 -1.0
outer loop
vertex 376.028778165368 26.3738435872539 2.99999999999995
vertex 376.628180700396 30.9267578578694 2.99999999999995
vertex 376.628180700396 27.8209293166387 2.99999999999995
endloop
endfacet
facet normal 4.99272751833373e-018 3.209182781071e-018 -1.0
outer loop
vertex 376.628180700396 27.8209293166387 2.99999999999995
vertex 376.628180700396 30.9267578578694 2.99999999999995
vertex 376.832625742662 29.3738435872538 2.99999999999995
endloop
endfacet
facet normal 4.99272751833373e-018 3.209182781071e-018 -1.0
outer loop
vertex 365.037070784927 75.926757857869 2.99999999999995
vertex 365.037070784927 72.8209293166385 2.99999999999995
vertex 364.832625742661 74.373843587254 2.99999999999995
endloop
endfacet
facet normal 4.99272751833373e-018 3.209182781071e-018 -1.0
outer loop
vertex 365.037070784927 72.8209293166385 2.99999999999995
vertex 365.037070784927 75.926757857869 2.99999999999995
vertex 365.636473319955 71.373843587254 2.99999999999995
endloop
endfacet
facet normal 4.99272751833373e-018 3.209182781071e-018 -1.0
outer loop
vertex 365.636473319955 71.373843587254 2.99999999999995
vertex 365.037070784927 75.926757857869 2.99999999999995
vertex 365.636473319954 77.3738435872541 2.99999999999995
endloop
endfacet
facet normal 4.99272751833373e-018 3.209182781071e-018 -1.0
outer loop
vertex 365.636473319955 71.373843587254 2.99999999999995
vertex 365.636473319954 77.3738435872541 2.99999999999995
vertex 366.589985055542 78.6164842743733 2.99999999999995
endloop
endfacet
facet normal 4.99272751833373e-018 3.209182781071e-018 -1.0
outer loop
vertex 365.636473319955 71.373843587254 2.99999999999995
vertex 366.589985055542 78.6164842743733 2.99999999999995
vertex 366.589985055542 70.1312029001347 2.99999999999995
endloop
endfacet
facet normal 4.99272751833373e-018 3.209182781071e-018 -1.0
outer loop
vertex 366.589985055542 70.1312029001347 2.99999999999995
vertex 366.589985055542 78.6164842743733 2.99999999999995
vertex 367.832625742662 79.5699960099603 2.99999999999995
endloop
endfacet
facet normal 4.99272751833373e-018 3.209182781071e-018 -1.0
outer loop
vertex 366.589985055542 70.1312029001347 2.99999999999995
vertex 367.832625742662 79.5699960099603 2.99999999999995
vertex 366.589985055543 33.6164842743732 2.99999999999995
endloop
endfacet
facet normal 4.99272751833373e-018 3.209182781071e-018 -1.0
outer loop
vertex 366.589985055543 33.6164842743732 2.99999999999995
vertex 367.832625742662 79.5699960099603 2.99999999999995
vertex 367.832625742661 24.1776911645476 2.99999999999995
endloop
endfacet
facet normal 4.99272751833373e-018 3.209182781071e-018 -1.0
outer loop
vertex 367.832625742661 24.1776911645476 2.99999999999995
vertex 367.832625742662 79.5699960099603 2.99999999999995
vertex 369.279711472046 23.5782886295203 2.99999999999995
endloop
endfacet
facet normal 4.99272751833373e-018 3.209182781071e-018 -1.0
outer loop
vertex 369.279711472046 23.5782886295203 2.99999999999995
vertex 367.832625742662 79.5699960099603 2.99999999999995
vertex 369.279711472046 80.1693985449883 2.99999999999995
endloop
endfacet
facet normal 4.99272751833373e-018 3.209182781071e-018 -1.0
outer loop
vertex 369.279711472046 23.5782886295203 2.99999999999995
vertex 369.279711472046 80.1693985449883 2.99999999999995
vertex 369.597726423677 29.3738435872538 2.99999999999995
endloop
endfacet
facet normal 4.99272751833373e-018 3.209182781071e-018 -1.0
outer loop
vertex 369.279711472046 23.5782886295203 2.99999999999995
vertex 369.597726423677 29.3738435872538 2.99999999999995
vertex 369.639804597587 29.0542281247165 2.99999999999995
endloop
endfacet
facet normal 4.99272751833373e-018 3.209182781071e-018 -1.0
outer loop
vertex 369.279711472046 23.5782886295203 2.99999999999995
vertex 369.639804597587 29.0542281247165 2.99999999999995
vertex 370.832625742661 23.3738435872541 2.99999999999995
endloop
endfacet
facet normal 4.99272751833373e-018 3.209182781071e-018 -1.0
outer loop
vertex 369.597726423677 29.3738435872538 2.99999999999995
vertex 369.279711472046 80.1693985449883 2.99999999999995
vertex 369.597726423676 74.3738435872541 2.99999999999995
endloop
endfacet
facet normal 4.99272751833373e-018 3.209182781071e-018 -1.0
outer loop
vertex 370.832625742661 23.3738435872541 2.99999999999995
vertex 369.639804597587 29.0542281247165 2.99999999999995
vertex 369.763171561304 28.7563939277616 2.99999999999995
endloop
endfacet
facet normal 4.99272751833373e-018 3.209182781071e-018 -1.0
outer loop
vertex 370.832625742661 23.3738435872541 2.99999999999995
vertex 369.763171561304 28.7563939277616 2.99999999999995
vertex 369.959420060124 28.5006379047173 2.99999999999995
endloop
endfacet
facet normal 4.99272751833373e-018 3.209182781071e-018 -1.0
outer loop
vertex 370.832625742661 23.3738435872541 2.99999999999995
vertex 369.959420060124 28.5006379047173 2.99999999999995
vertex 370.215176083169 28.3043894058971 2.99999999999995
endloop
endfacet
facet normal 4.99272751833373e-018 3.209182781071e-018 -1.0
outer loop
vertex 370.832625742661 23.3738435872541 2.99999999999995
vertex 370.215176083169 28.3043894058971 2.99999999999995
vertex 370.513010280124 28.1810224421803 2.99999999999995
endloop
endfacet
facet normal 4.99272751833373e-018 3.209182781071e-018 -1.0
outer loop
vertex 370.832625742661 23.3738435872541 2.99999999999995
vertex 370.513010280124 28.1810224421803 2.99999999999995
vertex 370.832625742661 28.1389442682694 2.99999999999995
endloop
endfacet
facet normal 4.99272751833373e-018 3.209182781071e-018 -1.0
outer loop
vertex 370.832625742661 23.3738435872541 2.99999999999995
vertex 370.832625742661 28.1389442682694 2.99999999999995
vertex 371.152241205199 28.1810224421802 2.99999999999995
endloop
endfacet
facet normal 4.99272751833373e-018 3.209182781071e-018 -1.0
outer loop
vertex 370.832625742661 23.3738435872541 2.99999999999995
vertex 371.152241205199 28.1810224421802 2.99999999999995
vertex 372.385540013277 23.5782886295196 2.99999999999995
endloop
endfacet
facet normal 4.99272751833373e-018 3.209182781071e-018 -1.0
outer loop
vertex 372.385540013277 23.5782886295196 2.99999999999995
vertex 371.152241205199 28.1810224421802 2.99999999999995
vertex 371.450075402153 28.3043894058971 2.99999999999995
endloop
endfacet
facet normal 4.99272751833373e-018 3.209182781071e-018 -1.0
outer loop
vertex 372.385540013277 23.5782886295196 2.99999999999995
vertex 371.450075402153 28.3043894058971 2.99999999999995
vertex 371.705831425198 28.5006379047173 2.99999999999995
endloop
endfacet
facet normal 4.99272751833373e-018 3.209182781071e-018 -1.0
outer loop
vertex 372.385540013277 23.5782886295196 2.99999999999995
vertex 371.705831425198 28.5006379047173 2.99999999999995
vertex 371.902079924018 28.7563939277616 2.99999999999995
endloop
endfacet
facet normal 4.99272751833373e-018 3.209182781071e-018 -1.0
outer loop
vertex 372.385540013277 23.5782886295196 2.99999999999995
vertex 371.902079924018 28.7563939277616 2.99999999999995
vertex 372.025446887735 29.0542281247168 2.99999999999995
endloop
endfacet
facet normal 4.99272751833373e-018 3.209182781071e-018 -1.0
outer loop
vertex 372.385540013277 23.5782886295196 2.99999999999995
vertex 372.025446887735 29.0542281247168 2.99999999999995
vertex 372.067525061646 29.3738435872541 2.99999999999995
endloop
endfacet
facet normal 4.99272751833373e-018 3.209182781071e-018 -1.0
outer loop
vertex 372.385540013277 23.5782886295196 2.99999999999995
vertex 372.067525061646 29.3738435872541 2.99999999999995
vertex 372.067525061646 74.3738435872539 2.99999999999995
endloop
endfacet
facet normal 4.99272751833373e-018 3.209182781071e-018 -1.0
outer loop
vertex 365.037070784927 30.9267578578691 2.99999999999995
vertex 365.037070784927 27.820929316639 2.99999999999995
vertex 364.832625742662 29.3738435872541 2.99999999999995
endloop
endfacet
facet normal 4.99272751833373e-018 3.209182781071e-018 -1.0
outer loop
vertex 365.037070784927 27.820929316639 2.99999999999995
vertex 365.037070784927 30.9267578578691 2.99999999999995
vertex 365.636473319955 32.3738435872543 2.99999999999995
endloop
endfacet
facet normal 4.99272751833373e-018 3.209182781071e-018 -1.0
outer loop
vertex 365.037070784927 27.820929316639 2.99999999999995
vertex 365.636473319955 32.3738435872543 2.99999999999995
vertex 365.636473319955 26.373843587254 2.99999999999995
endloop
endfacet
facet normal 4.99272751833373e-018 3.209182781071e-018 -1.0
outer loop
vertex 365.636473319955 26.373843587254 2.99999999999995
vertex 365.636473319955 32.3738435872543 2.99999999999995
vertex 366.589985055542 25.1312029001348 2.99999999999995
endloop
endfacet
facet normal 4.99272751833373e-018 3.209182781071e-018 -1.0
outer loop
vertex 366.589985055542 25.1312029001348 2.99999999999995
vertex 365.636473319955 32.3738435872543 2.99999999999995
vertex 366.589985055543 33.6164842743732 2.99999999999995
endloop
endfacet
facet normal 4.99272751833373e-018 3.209182781071e-018 -1.0
outer loop
vertex 366.589985055542 25.1312029001348 2.99999999999995
vertex 366.589985055543 33.6164842743732 2.99999999999995
vertex 367.832625742661 24.1776911645476 2.99999999999995
endloop
endfacet
facet normal -4.99272751833373e-018 -3.209182781071e-018 1.0
outer loop
vertex 365.037070784927 72.8209293166385 5.99999999999995
vertex 365.037070784927 75.926757857869 5.99999999999995
vertex 364.832625742661 74.373843587254 5.99999999999995
endloop
endfacet
facet normal -4.99272751833373e-018 -3.209182781071e-018 1.0
outer loop
vertex 365.037070784927 75.926757857869 5.99999999999995
vertex 365.037070784927 72.8209293166385 5.99999999999995
vertex 365.636473319955 71.373843587254 5.99999999999995
endloop
endfacet
facet normal -4.99272751833373e-018 -3.209182781071e-018 1.0
outer loop
vertex 365.037070784927 75.926757857869 5.99999999999995
vertex 365.636473319955 71.373843587254 5.99999999999995
vertex 365.636473319954 77.3738435872541 5.99999999999995
endloop
endfacet
facet normal -4.99272751833373e-018 -3.209182781071e-018 1.0
outer loop
vertex 365.636473319954 77.3738435872541 5.99999999999995
vertex 365.636473319955 71.373843587254 5.99999999999995
vertex 366.589985055542 78.6164842743733 5.99999999999995
endloop
endfacet
facet normal -4.99272751833373e-018 -3.209182781071e-018 1.0
outer loop
vertex 366.589985055542 78.6164842743733 5.99999999999995
vertex 365.636473319955 71.373843587254 5.99999999999995
vertex 366.589985055542 70.1312029001347 5.99999999999995
endloop
endfacet
facet normal -4.99272751833373e-018 -3.209182781071e-018 1.0
outer loop
vertex 366.589985055542 78.6164842743733 5.99999999999995
vertex 366.589985055542 70.1312029001347 5.99999999999995
vertex 367.832625742662 79.5699960099603 5.99999999999995
endloop
endfacet
facet normal -4.99272751833373e-018 -3.209182781071e-018 1.0
outer loop
vertex 367.832625742662 79.5699960099603 5.99999999999995
vertex 366.589985055542 70.1312029001347 5.99999999999995
vertex 366.589985055543 33.6164842743732 5.99999999999995
endloop
endfacet
facet normal -4.99272751833373e-018 -3.209182781071e-018 1.0
outer loop
vertex 367.832625742662 79.5699960099603 5.99999999999995
vertex 366.589985055543 33.6164842743732 5.99999999999995
vertex 367.832625742661 24.1776911645476 5.99999999999995
endloop
endfacet
facet normal -4.99272751833373e-018 -3.209182781071e-018 1.0
outer loop
vertex 367.832625742662 79.5699960099603 5.99999999999995
vertex 367.832625742661 24.1776911645476 5.99999999999995
vertex 369.279711472046 23.5782886295203 5.99999999999995
endloop
endfacet
facet normal -4.99272751833373e-018 -3.209182781071e-018 1.0
outer loop
vertex 367.832625742662 79.5699960099603 5.99999999999995
vertex 369.279711472046 23.5782886295203 5.99999999999995
vertex 369.279711472046 80.1693985449883 5.99999999999995
endloop
endfacet
facet normal -4.99272751833373e-018 -3.209182781071e-018 1.0
outer loop
vertex 369.279711472046 80.1693985449883 5.99999999999995
vertex 369.279711472046 23.5782886295203 5.99999999999995
vertex 369.597726423677 29.3738435872538 5.99999999999995
endloop
endfacet
facet normal -4.99272751833373e-018 -3.209182781071e-018 1.0
outer loop
vertex 369.597726423677 29.3738435872538 5.99999999999995
vertex 369.279711472046 23.5782886295203 5.99999999999995
vertex 369.639804597587 29.0542281247165 5.99999999999995
endloop
endfacet
facet normal -4.99272751833373e-018 -3.209182781071e-018 1.0
outer loop
vertex 369.639804597587 29.0542281247165 5.99999999999995
vertex 369.279711472046 23.5782886295203 5.99999999999995
vertex 370.832625742661 23.3738435872541 5.99999999999995
endloop
endfacet
facet normal -4.99272751833373e-018 -3.209182781071e-018 1.0
outer loop
vertex 369.279711472046 80.1693985449883 5.99999999999995
vertex 369.597726423677 29.3738435872538 5.99999999999995
vertex 369.597726423676 74.3738435872541 5.99999999999995
endloop
endfacet
facet normal -4.99272751833373e-018 -3.209182781071e-018 1.0
outer loop
vertex 369.639804597587 29.0542281247165 5.99999999999995
vertex 370.832625742661 23.3738435872541 5.99999999999995
vertex 369.763171561304 28.7563939277616 5.99999999999995
endloop
endfacet
facet normal -4.99272751833373e-018 -3.209182781071e-018 1.0
outer loop
vertex 369.763171561304 28.7563939277616 5.99999999999995
vertex 370.832625742661 23.3738435872541 5.99999999999995
vertex 369.959420060124 28.5006379047173 5.99999999999995
endloop
endfacet
facet normal -4.99272751833373e-018 -3.209182781071e-018 1.0
outer loop
vertex 369.959420060124 28.5006379047173 5.99999999999995
vertex 370.832625742661 23.3738435872541 5.99999999999995
vertex 370.215176083169 28.3043894058971 5.99999999999995
endloop
endfacet
facet normal -4.99272751833373e-018 -3.209182781071e-018 1.0
outer loop
vertex 370.215176083169 28.3043894058971 5.99999999999995
vertex 370.832625742661 23.3738435872541 5.99999999999995
vertex 370.513010280124 28.1810224421803 5.99999999999995
endloop
endfacet
facet normal -4.99272751833373e-018 -3.209182781071e-018 1.0
outer loop
vertex 370.513010280124 28.1810224421803 5.99999999999995
vertex 370.832625742661 23.3738435872541 5.99999999999995
vertex 370.832625742661 28.1389442682694 5.99999999999995
endloop
endfacet
facet normal -4.99272751833373e-018 -3.209182781071e-018 1.0
outer loop
vertex 370.832625742661 28.1389442682694 5.99999999999995
vertex 370.832625742661 23.3738435872541 5.99999999999995
vertex 371.152241205199 28.1810224421802 5.99999999999995
endloop
endfacet
facet normal -4.99272751833373e-018 -3.209182781071e-018 1.0
outer loop
vertex 371.152241205199 28.1810224421802 5.99999999999995
vertex 370.832625742661 23.3738435872541 5.99999999999995
vertex 372.385540013277 23.5782886295196 5.99999999999995
endloop
endfacet
facet normal -4.99272751833373e-018 -3.209182781071e-018 1.0
outer loop
vertex 371.152241205199 28.1810224421802 5.99999999999995
vertex 372.385540013277 23.5782886295196 5.99999999999995
vertex 371.450075402153 28.3043894058971 5.99999999999995
endloop
endfacet
facet normal -4.99272751833373e-018 -3.209182781071e-018 1.0
outer loop
vertex 371.450075402153 28.3043894058971 5.99999999999995
vertex 372.385540013277 23.5782886295196 5.99999999999995
vertex 371.705831425198 28.5006379047173 5.99999999999995
endloop
endfacet
facet normal -4.99272751833373e-018 -3.209182781071e-018 1.0
outer loop
vertex 371.705831425198 28.5006379047173 5.99999999999995
vertex 372.385540013277 23.5782886295196 5.99999999999995
vertex 371.902079924018 28.7563939277616 5.99999999999995
endloop
endfacet
facet normal -4.99272751833373e-018 -3.209182781071e-018 1.0
outer loop
vertex 371.902079924018 28.7563939277616 5.99999999999995
vertex 372.385540013277 23.5782886295196 5.99999999999995
vertex 372.025446887735 29.0542281247168 5.99999999999995
endloop
endfacet
facet normal -4.99272751833373e-018 -3.209182781071e-018 1.0
outer loop
vertex 372.025446887735 29.0542281247168 5.99999999999995
vertex 372.385540013277 23.5782886295196 5.99999999999995
vertex 372.067525061646 29.3738435872541 5.99999999999995
endloop
endfacet
facet normal -4.99272751833373e-018 -3.209182781071e-018 1.0
outer loop
vertex 372.067525061646 29.3738435872541 5.99999999999995
vertex 372.385540013277 23.5782886295196 5.99999999999995
vertex 372.067525061646 74.3738435872539 5.99999999999995
endloop
endfacet
facet normal -4.99272751833373e-018 -3.209182781071e-018 1.0
outer loop
vertex 369.597726423677 29.3738435872538 5.99999999999995
vertex 369.639804597587 74.0542281247165 5.99999999999995
vertex 369.597726423676 74.3738435872541 5.99999999999995
endloop
endfacet
facet normal -4.99272751833373e-018 -3.209182781071e-018 1.0
outer loop
vertex 369.639804597587 74.0542281247165 5.99999999999995
vertex 369.597726423677 29.3738435872538 5.99999999999995
vertex 369.639804597587 29.6934590497916 5.99999999999995
endloop
endfacet
facet normal -4.99272751833373e-018 -3.209182781071e-018 1.0
outer loop
vertex 369.639804597587 74.0542281247165 5.99999999999995
vertex 369.639804597587 29.6934590497916 5.99999999999995
vertex 369.763171561304 73.7563939277612 5.99999999999995
endloop
endfacet
facet normal -4.99272751833373e-018 -3.209182781071e-018 1.0
outer loop
vertex 369.763171561304 73.7563939277612 5.99999999999995
vertex 369.639804597587 29.6934590497916 5.99999999999995
vertex 369.763171561304 29.9912932467463 5.99999999999995
endloop
endfacet
facet normal -4.99272751833373e-018 -3.209182781071e-018 1.0
outer loop
vertex 369.763171561304 73.7563939277612 5.99999999999995
vertex 369.763171561304 29.9912932467463 5.99999999999995
vertex 369.959420060125 30.2470492697907 5.99999999999995
endloop
endfacet
facet normal -4.99272751833373e-018 -3.209182781071e-018 1.0
outer loop
vertex 369.763171561304 73.7563939277612 5.99999999999995
vertex 369.959420060125 30.2470492697907 5.99999999999995
vertex 369.959420060125 73.5006379047165 5.99999999999995
endloop
endfacet
facet normal -4.99272751833373e-018 -3.209182781071e-018 1.0
outer loop
vertex 369.959420060125 73.5006379047165 5.99999999999995
vertex 369.959420060125 30.2470492697907 5.99999999999995
vertex 370.215176083169 30.4432977686108 5.99999999999995
endloop
endfacet
facet normal -4.99272751833373e-018 -3.209182781071e-018 1.0
outer loop
vertex 369.959420060125 73.5006379047165 5.99999999999995
vertex 370.215176083169 30.4432977686108 5.99999999999995
vertex 370.215176083169 73.304389405897 5.99999999999995
endloop
endfacet
facet normal -4.99272751833373e-018 -3.209182781071e-018 1.0
outer loop
vertex 370.215176083169 73.304389405897 5.99999999999995
vertex 370.215176083169 30.4432977686108 5.99999999999995
vertex 370.513010280124 73.1810224421799 5.99999999999995
endloop
endfacet
facet normal -4.99272751833373e-018 -3.209182781071e-018 1.0
outer loop
vertex 370.513010280124 73.1810224421799 5.99999999999995
vertex 370.215176083169 30.4432977686108 5.99999999999995
vertex 370.513010280124 30.5666647323287 5.99999999999995
endloop
endfacet
facet normal -4.99272751833373e-018 -3.209182781071e-018 1.0
outer loop
vertex 370.513010280124 73.1810224421799 5.99999999999995
vertex 370.513010280124 30.5666647323287 5.99999999999995
vertex 370.832625742662 30.6087429062389 5.99999999999995
endloop
endfacet
facet normal -4.99272751833373e-018 -3.209182781071e-018 1.0
outer loop
vertex 370.513010280124 73.1810224421799 5.99999999999995
vertex 370.832625742662 30.6087429062389 5.99999999999995
vertex 370.832625742661 73.1389442682689 5.99999999999995
endloop
endfacet
facet normal -4.99272751833373e-018 -3.209182781071e-018 1.0
outer loop
vertex 370.832625742661 73.1389442682689 5.99999999999995
vertex 370.832625742662 30.6087429062389 5.99999999999995
vertex 371.152241205198 73.1810224421799 5.99999999999995
endloop
endfacet
facet normal -4.99272751833373e-018 -3.209182781071e-018 1.0
outer loop
vertex 371.152241205198 73.1810224421799 5.99999999999995
vertex 370.832625742662 30.6087429062389 5.99999999999995
vertex 371.152241205199 30.566664732328 5.99999999999995
endloop
endfacet
facet normal -4.99272751833373e-018 -3.209182781071e-018 1.0
outer loop
vertex 371.152241205198 73.1810224421799 5.99999999999995
vertex 371.152241205199 30.566664732328 5.99999999999995
vertex 371.450075402154 73.3043894058971 5.99999999999995
endloop
endfacet
facet normal -4.99272751833373e-018 -3.209182781071e-018 1.0
outer loop
vertex 371.450075402154 73.3043894058971 5.99999999999995
vertex 371.152241205199 30.566664732328 5.99999999999995
vertex 371.450075402154 30.443297768611 5.99999999999995
endloop
endfacet
facet normal -4.99272751833373e-018 -3.209182781071e-018 1.0
outer loop
vertex 371.450075402154 73.3043894058971 5.99999999999995
vertex 371.450075402154 30.443297768611 5.99999999999995
vertex 371.705831425198 30.2470492697911 5.99999999999995
endloop
endfacet
facet normal -4.99272751833373e-018 -3.209182781071e-018 1.0
outer loop
vertex 371.450075402154 73.3043894058971 5.99999999999995
vertex 371.705831425198 30.2470492697911 5.99999999999995
vertex 371.705831425198 73.5006379047174 5.99999999999995
endloop
endfacet
facet normal -4.99272751833373e-018 -3.209182781071e-018 1.0
outer loop
vertex 371.705831425198 73.5006379047174 5.99999999999995
vertex 371.705831425198 30.2470492697911 5.99999999999995
vertex 371.902079924018 73.7563939277613 5.99999999999995
endloop
endfacet
facet normal -4.99272751833373e-018 -3.209182781071e-018 1.0
outer loop
vertex 371.902079924018 73.7563939277613 5.99999999999995
vertex 371.705831425198 30.2470492697911 5.99999999999995
vertex 371.902079924017 29.9912932467467 5.99999999999995
endloop
endfacet
facet normal -4.99272751833373e-018 -3.209182781071e-018 1.0
outer loop
vertex 371.902079924018 73.7563939277613 5.99999999999995
vertex 371.902079924017 29.9912932467467 5.99999999999995
vertex 372.025446887735 29.6934590497915 5.99999999999995
endloop
endfacet
facet normal -4.99272751833373e-018 -3.209182781071e-018 1.0
outer loop
vertex 371.902079924018 73.7563939277613 5.99999999999995
vertex 372.025446887735 29.6934590497915 5.99999999999995
vertex 372.025446887736 74.0542281247166 5.99999999999995
endloop
endfacet
facet normal -4.99272751833373e-018 -3.209182781071e-018 1.0
outer loop
vertex 372.025446887736 74.0542281247166 5.99999999999995
vertex 372.025446887735 29.6934590497915 5.99999999999995
vertex 372.067525061646 29.3738435872541 5.99999999999995
endloop
endfacet
facet normal -4.99272751833373e-018 -3.209182781071e-018 1.0
outer loop
vertex 372.025446887736 74.0542281247166 5.99999999999995
vertex 372.067525061646 29.3738435872541 5.99999999999995
vertex 372.067525061646 74.3738435872539 5.99999999999995
endloop
endfacet
facet normal -4.99272751833373e-018 -3.209182781071e-018 1.0
outer loop
vertex 365.037070784927 27.820929316639 5.99999999999995
vertex 365.037070784927 30.9267578578691 5.99999999999995
vertex 364.832625742662 29.3738435872541 5.99999999999995
endloop
endfacet
facet normal -4.99272751833373e-018 -3.209182781071e-018 1.0
outer loop
vertex 365.037070784927 30.9267578578691 5.99999999999995
vertex 365.037070784927 27.820929316639 5.99999999999995
vertex 365.636473319955 26.373843587254 5.99999999999995
endloop
endfacet
facet normal -4.99272751833373e-018 -3.209182781071e-018 1.0
outer loop
vertex 365.037070784927 30.9267578578691 5.99999999999995
vertex 365.636473319955 26.373843587254 5.99999999999995
vertex 365.636473319955 32.3738435872543 5.99999999999995
endloop
endfacet
facet normal -4.99272751833373e-018 -3.209182781071e-018 1.0
outer loop
vertex 365.636473319955 32.3738435872543 5.99999999999995
vertex 365.636473319955 26.373843587254 5.99999999999995
vertex 366.589985055542 25.1312029001348 5.99999999999995
endloop
endfacet
facet normal -4.99272751833373e-018 -3.209182781071e-018 1.0
outer loop
vertex 365.636473319955 32.3738435872543 5.99999999999995
vertex 366.589985055542 25.1312029001348 5.99999999999995
vertex 366.589985055543 33.6164842743732 5.99999999999995
endloop
endfacet
facet normal -4.99272751833373e-018 -3.209182781071e-018 1.0
outer loop
vertex 366.589985055543 33.6164842743732 5.99999999999995
vertex 366.589985055542 25.1312029001348 5.99999999999995
vertex 367.832625742661 24.1776911645476 5.99999999999995
endloop
endfacet
facet normal -4.99272751833373e-018 -3.209182781071e-018 1.0
outer loop
vertex 369.279711472046 80.1693985449883 5.99999999999995
vertex 369.639804597587 74.6934590497914 5.99999999999995
vertex 370.832625742662 80.3738435872539 5.99999999999995
endloop
endfacet
facet normal -4.99272751833373e-018 -3.209182781071e-018 1.0
outer loop
vertex 369.639804597587 74.6934590497914 5.99999999999995
vertex 369.279711472046 80.1693985449883 5.99999999999995
vertex 369.597726423676 74.3738435872541 5.99999999999995
endloop
endfacet
facet normal -4.99272751833373e-018 -3.209182781071e-018 1.0
outer loop
vertex 370.832625742662 80.3738435872539 5.99999999999995
vertex 369.639804597587 74.6934590497914 5.99999999999995
vertex 369.763171561305 74.9912932467462 5.99999999999995
endloop
endfacet
facet normal -4.99272751833373e-018 -3.209182781071e-018 1.0
outer loop
vertex 370.832625742662 80.3738435872539 5.99999999999995
vertex 369.763171561305 74.9912932467462 5.99999999999995
vertex 369.959420060125 75.2470492697904 5.99999999999995
endloop
endfacet
facet normal -4.99272751833373e-018 -3.209182781071e-018 1.0
outer loop
vertex 370.832625742662 80.3738435872539 5.99999999999995
vertex 369.959420060125 75.2470492697904 5.99999999999995
vertex 370.215176083169 75.4432977686108 5.99999999999995
endloop
endfacet
facet normal -4.99272751833373e-018 -3.209182781071e-018 1.0
outer loop
vertex 370.832625742662 80.3738435872539 5.99999999999995
vertex 370.215176083169 75.4432977686108 5.99999999999995
vertex 370.513010280124 75.5666647323283 5.99999999999995
endloop
endfacet
facet normal -4.99272751833373e-018 -3.209182781071e-018 1.0
outer loop
vertex 370.832625742662 80.3738435872539 5.99999999999995
vertex 370.513010280124 75.5666647323283 5.99999999999995
vertex 370.832625742661 75.6087429062388 5.99999999999995
endloop
endfacet
facet normal -4.99272751833373e-018 -3.209182781071e-018 1.0
outer loop
vertex 370.832625742662 80.3738435872539 5.99999999999995
vertex 370.832625742661 75.6087429062388 5.99999999999995
vertex 371.152241205199 75.566664732328 5.99999999999995
endloop
endfacet
facet normal -4.99272751833373e-018 -3.209182781071e-018 1.0
outer loop
vertex 370.832625742662 80.3738435872539 5.99999999999995
vertex 371.152241205199 75.566664732328 5.99999999999995
vertex 372.385540013277 80.1693985449883 5.99999999999995
endloop
endfacet
facet normal -4.99272751833373e-018 -3.209182781071e-018 1.0
outer loop
vertex 372.385540013277 80.1693985449883 5.99999999999995
vertex 371.152241205199 75.566664732328 5.99999999999995
vertex 371.450075402154 75.443297768611 5.99999999999995
endloop
endfacet
facet normal -4.99272751833373e-018 -3.209182781071e-018 1.0
outer loop
vertex 372.385540013277 80.1693985449883 5.99999999999995
vertex 371.450075402154 75.443297768611 5.99999999999995
vertex 371.705831425198 75.2470492697909 5.99999999999995
endloop
endfacet
facet normal -4.99272751833373e-018 -3.209182781071e-018 1.0
outer loop
vertex 372.385540013277 80.1693985449883 5.99999999999995
vertex 371.705831425198 75.2470492697909 5.99999999999995
vertex 371.902079924018 74.9912932467464 5.99999999999995
endloop
endfacet
facet normal -4.99272751833373e-018 -3.209182781071e-018 1.0
outer loop
vertex 372.385540013277 80.1693985449883 5.99999999999995
vertex 371.902079924018 74.9912932467464 5.99999999999995
vertex 372.025446887736 74.6934590497907 5.99999999999995
endloop
endfacet
facet normal -4.99272751833373e-018 -3.209182781071e-018 1.0
outer loop
vertex 372.385540013277 80.1693985449883 5.99999999999995
vertex 372.025446887736 74.6934590497907 5.99999999999995
vertex 372.067525061646 74.3738435872539 5.99999999999995
endloop
endfacet
facet normal -4.99272751833373e-018 -3.209182781071e-018 1.0
outer loop
vertex 372.385540013277 80.1693985449883 5.99999999999995
vertex 372.067525061646 74.3738435872539 5.99999999999995
vertex 372.385540013277 23.5782886295196 5.99999999999995
endloop
endfacet
facet normal -4.99272751833373e-018 -3.209182781071e-018 1.0
outer loop
vertex 372.385540013277 80.1693985449883 5.99999999999995
vertex 372.385540013277 23.5782886295196 5.99999999999995
vertex 373.832625742661 24.1776911645472 5.99999999999995
endloop
endfacet
facet normal -4.99272751833373e-018 -3.209182781071e-018 1.0
outer loop
vertex 372.385540013277 80.1693985449883 5.99999999999995
vertex 373.832625742661 24.1776911645472 5.99999999999995
vertex 373.832625742661 79.5699960099606 5.99999999999995
endloop
endfacet
facet normal -4.99272751833373e-018 -3.209182781071e-018 1.0
outer loop
vertex 373.832625742661 79.5699960099606 5.99999999999995
vertex 373.832625742661 24.1776911645472 5.99999999999995
vertex 375.07526642978 78.6164842743731 5.99999999999995
endloop
endfacet
facet normal -4.99272751833373e-018 -3.209182781071e-018 1.0
outer loop
vertex 375.07526642978 78.6164842743731 5.99999999999995
vertex 373.832625742661 24.1776911645472 5.99999999999995
vertex 375.075266429781 25.1312029001347 5.99999999999995
endloop
endfacet
facet normal -4.99272751833373e-018 -3.209182781071e-018 1.0
outer loop
vertex 375.07526642978 78.6164842743731 5.99999999999995
vertex 375.075266429781 25.1312029001347 5.99999999999995
vertex 375.075266429781 33.6164842743737 5.99999999999995
endloop
endfacet
facet normal -4.99272751833373e-018 -3.209182781071e-018 1.0
outer loop
vertex 375.075266429781 33.6164842743737 5.99999999999995
vertex 375.075266429781 25.1312029001347 5.99999999999995
vertex 376.028778165368 32.3738435872543 5.99999999999995
endloop
endfacet
facet normal -4.99272751833373e-018 -3.209182781071e-018 1.0
outer loop
vertex 376.028778165368 32.3738435872543 5.99999999999995
vertex 375.075266429781 25.1312029001347 5.99999999999995
vertex 376.028778165368 26.3738435872539 5.99999999999995
endloop
endfacet
facet normal -4.99272751833373e-018 -3.209182781071e-018 1.0
outer loop
vertex 376.028778165368 32.3738435872543 5.99999999999995
vertex 376.028778165368 26.3738435872539 5.99999999999995
vertex 376.628180700396 30.9267578578694 5.99999999999995
endloop
endfacet
facet normal -4.99272751833373e-018 -3.209182781071e-018 1.0
outer loop
vertex 376.628180700396 30.9267578578694 5.99999999999995
vertex 376.028778165368 26.3738435872539 5.99999999999995
vertex 376.628180700396 27.8209293166387 5.99999999999995
endloop
endfacet
facet normal -4.99272751833373e-018 -3.209182781071e-018 1.0
outer loop
vertex 376.628180700396 30.9267578578694 5.99999999999995
vertex 376.628180700396 27.8209293166387 5.99999999999995
vertex 376.832625742662 29.3738435872538 5.99999999999995
endloop
endfacet
facet normal -4.99272751833373e-018 -3.209182781071e-018 1.0
outer loop
vertex 375.07526642978 78.6164842743731 5.99999999999995
vertex 375.075266429781 70.1312029001345 5.99999999999995
vertex 376.028778165368 77.3738435872541 5.99999999999995
endloop
endfacet
facet normal -4.99272751833373e-018 -3.209182781071e-018 1.0
outer loop
vertex 375.075266429781 70.1312029001345 5.99999999999995
vertex 375.07526642978 78.6164842743731 5.99999999999995
vertex 375.075266429781 33.6164842743737 5.99999999999995
endloop
endfacet
facet normal -4.99272751833373e-018 -3.209182781071e-018 1.0
outer loop
vertex 376.028778165368 77.3738435872541 5.99999999999995
vertex 375.075266429781 70.1312029001345 5.99999999999995
vertex 376.028778165368 71.3738435872536 5.99999999999995
endloop
endfacet
facet normal -4.99272751833373e-018 -3.209182781071e-018 1.0
outer loop
vertex 376.028778165368 77.3738435872541 5.99999999999995
vertex 376.028778165368 71.3738435872536 5.99999999999995
vertex 376.628180700396 72.820929316639 5.99999999999995
endloop
endfacet
facet normal -4.99272751833373e-018 -3.209182781071e-018 1.0
outer loop
vertex 376.028778165368 77.3738435872541 5.99999999999995
vertex 376.628180700396 72.820929316639 5.99999999999995
vertex 376.628180700395 75.9267578578692 5.99999999999995
endloop
endfacet
facet normal -4.99272751833373e-018 -3.209182781071e-018 1.0
outer loop
vertex 376.628180700395 75.9267578578692 5.99999999999995
vertex 376.628180700396 72.820929316639 5.99999999999995
vertex 376.832625742661 74.3738435872541 5.99999999999995
endloop
endfacet
facet normal 0.866025403784484 -0.499999999999922 2.71923747451563e-018
outer loop
vertex 376.028778165368 71.3738435872536 2.99999999999995
vertex 375.075266429781 70.1312029001345 5.99999999999995
vertex 375.075266429781 70.1312029001345 2.99999999999995
endloop
endfacet
facet normal 0.793353340291365 -0.608761429008551 2.00737035808027e-018
outer loop
vertex 375.075266429781 70.1312029001345 5.99999999999995
vertex 376.028778165368 71.3738435872536 2.99999999999995
vertex 376.028778165368 71.3738435872536 5.99999999999995
endloop
endfacet
facet normal 0.965925826289094 -0.258819045102424 3.99200683062687e-018
outer loop
vertex 376.628180700396 72.820929316639 2.99999999999995
vertex 376.028778165368 71.3738435872536 5.99999999999995
vertex 376.028778165368 71.3738435872536 2.99999999999995
endloop
endfacet
facet normal 0.866025403784484 -0.499999999999922 2.71923747451563e-018
outer loop
vertex 376.028778165368 71.3738435872536 5.99999999999995
vertex 376.628180700396 72.820929316639 2.99999999999995
vertex 376.628180700396 72.820929316639 5.99999999999995
endloop
endfacet
facet normal 1.0 1.99929661618733e-013 4.99272751833438e-018
outer loop
vertex 376.832625742661 74.3738435872541 2.99999999999995
vertex 376.628180700396 72.820929316639 5.99999999999995
vertex 376.628180700396 72.820929316639 2.99999999999995
endloop
endfacet
facet normal 0.965925826289094 -0.258819045102424 3.99200683062687e-018
outer loop
vertex 376.628180700396 72.820929316639 5.99999999999995
vertex 376.832625742661 74.3738435872541 2.99999999999995
vertex 376.832625742661 74.3738435872541 5.99999999999995
endloop
endfacet
facet normal 0.965925826289085 0.25881904510246 5.65320207653881e-018
outer loop
vertex 376.628180700395 75.9267578578692 2.99999999999995
vertex 376.832625742661 74.3738435872541 5.99999999999995
vertex 376.832625742661 74.3738435872541 2.99999999999995
endloop
endfacet
facet normal 1.0 1.99929661618733e-013 4.99272751833438e-018
outer loop
vertex 376.832625742661 74.3738435872541 5.99999999999995
vertex 376.628180700395 75.9267578578692 2.99999999999995
vertex 376.628180700395 75.9267578578692 5.99999999999995
endloop
endfacet
facet normal 0.866025403784442 0.499999999999994 5.92842025558615e-018
outer loop
vertex 376.028778165368 77.3738435872541 2.99999999999995
vertex 376.628180700395 75.9267578578692 5.99999999999995
vertex 376.628180700395 75.9267578578692 2.99999999999995
endloop
endfacet
facet normal 0.965925826289085 0.25881904510246 5.65320207653881e-018
outer loop
vertex 376.628180700395 75.9267578578692 5.99999999999995
vertex 376.028778165368 77.3738435872541 2.99999999999995
vertex 376.028778165368 77.3738435872541 5.99999999999995
endloop
endfacet
facet normal 0.707106781186544 0.707106781186551 5.79962639139287e-018
outer loop
vertex 375.07526642978 78.6164842743731 2.99999999999995
vertex 376.028778165368 77.3738435872541 5.99999999999995
vertex 376.028778165368 77.3738435872541 2.99999999999995
endloop
endfacet
facet normal 0.866025403784442 0.499999999999994 5.92842025558615e-018
outer loop
vertex 376.028778165368 77.3738435872541 5.99999999999995
vertex 375.07526642978 78.6164842743731 2.99999999999995
vertex 375.07526642978 78.6164842743731 5.99999999999995
endloop
endfacet
facet normal 0.50000000000013 0.866025403784364 5.27559757296235e-018
outer loop
vertex 373.832625742661 79.5699960099606 5.99999999999995
vertex 375.07526642978 78.6164842743731 2.99999999999995
vertex 373.832625742661 79.5699960099606 2.99999999999995
endloop
endfacet
facet normal 0.707106781186544 0.707106781186551 5.79962639139287e-018
outer loop
vertex 375.07526642978 78.6164842743731 2.99999999999995
vertex 373.832625742661 79.5699960099606 5.99999999999995
vertex 375.07526642978 78.6164842743731 5.99999999999995
endloop
endfacet
facet normal 0.25881904510253 0.965925826289066 4.39204549827091e-018
outer loop
vertex 372.385540013277 80.1693985449883 5.99999999999995
vertex 373.832625742661 79.5699960099606 2.99999999999995
vertex 372.385540013277 80.1693985449883 2.99999999999995
endloop
endfacet
facet normal 0.50000000000013 0.866025403784364 5.27559757296235e-018
outer loop
vertex 373.832625742661 79.5699960099606 2.99999999999995
vertex 372.385540013277 80.1693985449883 5.99999999999995
vertex 373.832625742661 79.5699960099606 5.99999999999995
endloop
endfacet
facet normal 1.12903762377846e-014 1.0 3.20918278107105e-018
outer loop
vertex 370.832625742662 80.3738435872539 5.99999999999995
vertex 372.385540013277 80.1693985449883 2.99999999999995
vertex 370.832625742662 80.3738435872539 2.99999999999995
endloop
endfacet
facet normal 0.25881904510253 0.965925826289066 4.39204549827091e-018
outer loop
vertex 372.385540013277 80.1693985449883 2.99999999999995
vertex 370.832625742662 80.3738435872539 5.99999999999995
vertex 372.385540013277 80.1693985449883 5.99999999999995
endloop
endfacet
facet normal -0.2588190451026 0.965925826289047 1.80761956076598e-018
outer loop
vertex 369.279711472046 80.1693985449883 5.99999999999995
vertex 370.832625742662 80.3738435872539 2.99999999999995
vertex 369.279711472046 80.1693985449883 2.99999999999995
endloop
endfacet
facet normal 1.12903762377846e-014 1.0 3.20918278107105e-018
outer loop
vertex 370.832625742662 80.3738435872539 2.99999999999995
vertex 369.279711472046 80.1693985449883 5.99999999999995
vertex 370.832625742662 80.3738435872539 5.99999999999995
endloop
endfacet
facet normal -0.499999999999867 0.866025403784516 2.82870054629125e-019
outer loop
vertex 367.832625742662 79.5699960099603 5.99999999999995
vertex 369.279711472046 80.1693985449883 2.99999999999995
vertex 367.832625742662 79.5699960099603 2.99999999999995
endloop
endfacet
facet normal -0.2588190451026 0.965925826289047 1.80761956076598e-018
outer loop
vertex 369.279711472046 80.1693985449883 2.99999999999995
vertex 367.832625742662 79.5699960099603 5.99999999999995
vertex 369.279711472046 80.1693985449883 5.99999999999995
endloop
endfacet
facet normal -0.707106781186371 0.707106781186724 -1.26115657826661e-018
outer loop
vertex 366.589985055542 78.6164842743733 2.99999999999995
vertex 367.832625742662 79.5699960099603 5.99999999999995
vertex 367.832625742662 79.5699960099603 2.99999999999995
endloop
endfacet
facet normal -0.499999999999867 0.866025403784516 2.82870054629125e-019
outer loop
vertex 367.832625742662 79.5699960099603 5.99999999999995
vertex 366.589985055542 78.6164842743733 2.99999999999995
vertex 366.589985055542 78.6164842743733 5.99999999999995
endloop
endfacet
facet normal -0.707106781186371 0.707106781186724 -1.26115657826661e-018
outer loop
vertex 366.589985055542 78.6164842743733 5.99999999999995
vertex 365.636473319954 77.3738435872541 2.99999999999995
vertex 365.636473319954 77.3738435872541 5.99999999999995
endloop
endfacet
facet normal -0.866025403784544 0.499999999999818 -2.71923747451626e-018
outer loop
vertex 365.636473319954 77.3738435872541 2.99999999999995
vertex 366.589985055542 78.6164842743733 5.99999999999995
vertex 366.589985055542 78.6164842743733 2.99999999999995
endloop
endfacet
facet normal -0.866025403784544 0.499999999999818 -2.71923747451626e-018
outer loop
vertex 365.636473319954 77.3738435872541 5.99999999999995
vertex 365.037070784927 75.926757857869 2.99999999999995
vertex 365.037070784927 75.926757857869 5.99999999999995
endloop
endfacet
facet normal -0.965925826289083 0.258819045102465 -3.99200683062669e-018
outer loop
vertex 365.037070784927 75.926757857869 2.99999999999995
vertex 365.636473319954 77.3738435872541 5.99999999999995
vertex 365.636473319954 77.3738435872541 2.99999999999995
endloop
endfacet
facet normal -0.965925826289083 0.258819045102465 -3.99200683062669e-018
outer loop
vertex 365.037070784927 75.926757857869 5.99999999999995
vertex 364.832625742661 74.373843587254 2.99999999999995
vertex 364.832625742661 74.373843587254 5.99999999999995
endloop
endfacet
facet normal -1.0 1.11994829168493e-013 -4.99272751833337e-018
outer loop
vertex 364.832625742661 74.373843587254 2.99999999999995
vertex 365.037070784927 75.926757857869 5.99999999999995
vertex 365.037070784927 75.926757857869 2.99999999999995
endloop
endfacet
facet normal -1.0 1.11994829168493e-013 -4.99272751833337e-018
outer loop
vertex 364.832625742661 74.373843587254 5.99999999999995
vertex 365.037070784927 72.8209293166385 2.99999999999995
vertex 365.037070784927 72.8209293166385 5.99999999999995
endloop
endfacet
facet normal -0.965925826289037 -0.258819045102637 -5.65320207653915e-018
outer loop
vertex 365.037070784927 72.8209293166385 2.99999999999995
vertex 364.832625742661 74.373843587254 5.99999999999995
vertex 364.832625742661 74.373843587254 2.99999999999995
endloop
endfacet
facet normal -0.965925826289037 -0.258819045102637 -5.65320207653915e-018
outer loop
vertex 365.037070784927 72.8209293166385 5.99999999999995
vertex 365.636473319955 71.373843587254 2.99999999999995
vertex 365.636473319955 71.373843587254 5.99999999999995
endloop
endfacet
facet normal -0.866025403784385 -0.500000000000094 -5.92842025558618e-018
outer loop
vertex 365.636473319955 71.373843587254 2.99999999999995
vertex 365.037070784927 72.8209293166385 5.99999999999995
vertex 365.037070784927 72.8209293166385 2.99999999999995
endloop
endfacet
facet normal -0.866025403784385 -0.500000000000094 -5.92842025558618e-018
outer loop
vertex 365.636473319955 71.373843587254 5.99999999999995
vertex 366.589985055542 70.1312029001347 2.99999999999995
vertex 366.589985055542 70.1312029001347 5.99999999999995
endloop
endfacet
facet normal -0.793353340291207 -0.608761429008758 -5.91462374958897e-018
outer loop
vertex 366.589985055542 70.1312029001347 2.99999999999995
vertex 365.636473319955 71.373843587254 5.99999999999995
vertex 365.636473319955 71.373843587254 2.99999999999995
endloop
endfacet
facet normal -1.0 -1.23565141452122e-014 -4.99272751833377e-018
outer loop
vertex 366.589985055542 70.1312029001347 5.99999999999995
vertex 366.589985055543 33.6164842743732 2.99999999999995
vertex 366.589985055543 33.6164842743732 5.99999999999995
endloop
endfacet
facet normal -1.0 -1.23565141452122e-014 -4.99272751833377e-018
outer loop
vertex 366.589985055543 33.6164842743732 2.99999999999995
vertex 366.589985055542 70.1312029001347 5.99999999999995
vertex 366.589985055542 70.1312029001347 2.99999999999995
endloop
endfacet
facet normal -0.793353340291055 0.608761429008955 -2.00737035807742e-018
outer loop
vertex 366.589985055543 33.6164842743732 5.99999999999995
vertex 365.636473319955 32.3738435872543 2.99999999999995
vertex 365.636473319955 32.3738435872543 5.99999999999995
endloop
endfacet
facet normal -0.866025403784337 0.500000000000176 -2.71923747451408e-018
outer loop
vertex 365.636473319955 32.3738435872543 2.99999999999995
vertex 366.589985055543 33.6164842743732 5.99999999999995
vertex 366.589985055543 33.6164842743732 2.99999999999995
endloop
endfacet
facet normal -0.866025403784337 0.500000000000176 -2.71923747451408e-018
outer loop
vertex 365.636473319955 32.3738435872543 5.99999999999995
vertex 365.037070784927 30.9267578578691 2.99999999999995
vertex 365.037070784927 30.9267578578691 5.99999999999995
endloop
endfacet
facet normal -0.96592582628909 0.258819045102439 -3.99200683062681e-018
outer loop
vertex 365.037070784927 30.9267578578691 2.99999999999995
vertex 365.636473319955 32.3738435872543 5.99999999999995
vertex 365.636473319955 32.3738435872543 2.99999999999995
endloop
endfacet
facet normal -0.96592582628909 0.258819045102439 -3.99200683062681e-018
outer loop
vertex 365.037070784927 30.9267578578691 5.99999999999995
vertex 364.832625742662 29.3738435872541 2.99999999999995
vertex 364.832625742662 29.3738435872541 5.99999999999995
endloop
endfacet
facet normal -1.0 7.52988786182135e-015 -4.99272751833371e-018
outer loop
vertex 364.832625742662 29.3738435872541 2.99999999999995
vertex 365.037070784927 30.9267578578691 5.99999999999995
vertex 365.037070784927 30.9267578578691 2.99999999999995
endloop
endfacet
facet normal -1.0 7.52988786182135e-015 -4.99272751833371e-018
outer loop
vertex 364.832625742662 29.3738435872541 5.99999999999995
vertex 365.037070784927 27.820929316639 2.99999999999995
vertex 365.037070784927 27.820929316639 5.99999999999995
endloop
endfacet
facet normal -0.965925826289119 -0.25881904510233 -5.65320207653857e-018
outer loop
vertex 365.037070784927 27.820929316639 2.99999999999995
vertex 364.832625742662 29.3738435872541 5.99999999999995
vertex 364.832625742662 29.3738435872541 2.99999999999995
endloop
endfacet
facet normal -0.96592582628912 -0.25881904510233 -5.65320207653857e-018
outer loop
vertex 365.037070784927 27.820929316639 5.99999999999995
vertex 365.636473319955 26.373843587254 2.99999999999995
vertex 365.636473319955 26.373843587254 5.99999999999995
endloop
endfacet
facet normal -0.866025403784455 -0.499999999999972 -5.92842025558614e-018
outer loop
vertex 365.636473319955 26.373843587254 2.99999999999995
vertex 365.037070784927 27.820929316639 5.99999999999995
vertex 365.037070784927 27.820929316639 2.99999999999995
endloop
endfacet
facet normal -0.866025403784455 -0.499999999999972 -5.92842025558614e-018
outer loop
vertex 365.636473319955 26.373843587254 5.99999999999995
vertex 366.589985055542 25.1312029001348 2.99999999999995
vertex 366.589985055542 25.1312029001348 5.99999999999995
endloop
endfacet
facet normal -0.70710678118652 -0.707106781186576 -5.79962639139282e-018
outer loop
vertex 366.589985055542 25.1312029001348 2.99999999999995
vertex 365.636473319955 26.373843587254 5.99999999999995
vertex 365.636473319955 26.373843587254 2.99999999999995
endloop
endfacet
facet normal -0.499999999999859 -0.86602540378452 -5.2755975729615e-018
outer loop
vertex 367.832625742661 24.1776911645476 5.99999999999995
vertex 366.589985055542 25.1312029001348 2.99999999999995
vertex 367.832625742661 24.1776911645476 2.99999999999995
endloop
endfacet
facet normal -0.70710678118652 -0.707106781186576 -5.79962639139282e-018
outer loop
vertex 366.589985055542 25.1312029001348 2.99999999999995
vertex 367.832625742661 24.1776911645476 5.99999999999995
vertex 366.589985055542 25.1312029001348 5.99999999999995
endloop
endfacet
facet normal -0.258819045102564 -0.965925826289057 -4.39204549827105e-018
outer loop
vertex 369.279711472046 23.5782886295203 5.99999999999995
vertex 367.832625742661 24.1776911645476 2.99999999999995
vertex 369.279711472046 23.5782886295203 2.99999999999995
endloop
endfacet
facet normal -0.499999999999859 -0.86602540378452 -5.2755975729615e-018
outer loop
vertex 367.832625742661 24.1776911645476 2.99999999999995
vertex 369.279711472046 23.5782886295203 5.99999999999995
vertex 367.832625742661 24.1776911645476 5.99999999999995
endloop
endfacet
facet normal -2.3300770155138e-013 -1.0 -3.20918278107216e-018
outer loop
vertex 370.832625742661 23.3738435872541 5.99999999999995
vertex 369.279711472046 23.5782886295203 2.99999999999995
vertex 370.832625742661 23.3738435872541 2.99999999999995
endloop
endfacet
facet normal -0.258819045102564 -0.965925826289057 -4.39204549827105e-018
outer loop
vertex 369.279711472046 23.5782886295203 2.99999999999995
vertex 370.832625742661 23.3738435872541 5.99999999999995
vertex 369.279711472046 23.5782886295203 5.99999999999995
endloop
endfacet
facet normal 0.258819045102425 -0.965925826289094 -1.807619560767e-018
outer loop
vertex 372.385540013277 23.5782886295196 5.99999999999995
vertex 370.832625742661 23.3738435872541 2.99999999999995
vertex 372.385540013277 23.5782886295196 2.99999999999995
endloop
endfacet
facet normal -2.3300770155138e-013 -1.0 -3.20918278107216e-018
outer loop
vertex 370.832625742661 23.3738435872541 2.99999999999995
vertex 372.385540013277 23.5782886295196 5.99999999999995
vertex 370.832625742661 23.3738435872541 5.99999999999995
endloop
endfacet
facet normal 0.499999999999975 -0.866025403784453 -2.82870054628386e-019
outer loop
vertex 373.832625742661 24.1776911645472 5.99999999999995
vertex 372.385540013277 23.5782886295196 2.99999999999995
vertex 373.832625742661 24.1776911645472 2.99999999999995
endloop
endfacet
facet normal 0.258819045102425 -0.965925826289094 -1.807619560767e-018
outer loop
vertex 372.385540013277 23.5782886295196 2.99999999999995
vertex 373.832625742661 24.1776911645472 5.99999999999995
vertex 372.385540013277 23.5782886295196 5.99999999999995
endloop
endfacet
facet normal 0.707106781186519 -0.707106781186576 1.26115657826782e-018
outer loop
vertex 375.075266429781 25.1312029001347 2.99999999999995
vertex 373.832625742661 24.1776911645472 5.99999999999995
vertex 373.832625742661 24.1776911645472 2.99999999999995
endloop
endfacet
facet normal 0.499999999999975 -0.866025403784453 -2.82870054628386e-019
outer loop
vertex 373.832625742661 24.1776911645472 5.99999999999995
vertex 375.075266429781 25.1312029001347 2.99999999999995
vertex 375.075266429781 25.1312029001347 5.99999999999995
endloop
endfacet
facet normal 0.8660254037844 -0.500000000000067 2.71923747451474e-018
outer loop
vertex 376.028778165368 26.3738435872539 2.99999999999995
vertex 375.075266429781 25.1312029001347 5.99999999999995
vertex 375.075266429781 25.1312029001347 2.99999999999995
endloop
endfacet
facet normal 0.707106781186519 -0.707106781186576 1.26115657826782e-018
outer loop
vertex 375.075266429781 25.1312029001347 5.99999999999995
vertex 376.028778165368 26.3738435872539 2.99999999999995
vertex 376.028778165368 26.3738435872539 5.99999999999995
endloop
endfacet
facet normal 0.965925826289065 -0.258819045102533 3.99200683062638e-018
outer loop
vertex 376.628180700396 27.8209293166387 2.99999999999995
vertex 376.028778165368 26.3738435872539 5.99999999999995
vertex 376.028778165368 26.3738435872539 2.99999999999995
endloop
endfacet
facet normal 0.8660254037844 -0.500000000000067 2.71923747451474e-018
outer loop
vertex 376.028778165368 26.3738435872539 5.99999999999995
vertex 376.628180700396 27.8209293166387 2.99999999999995
vertex 376.628180700396 27.8209293166387 5.99999999999995
endloop
endfacet
facet normal 1.0 9.35399205746067e-014 4.99272751833404e-018
outer loop
vertex 376.832625742662 29.3738435872538 2.99999999999995
vertex 376.628180700396 27.8209293166387 5.99999999999995
vertex 376.628180700396 27.8209293166387 2.99999999999995
endloop
endfacet
facet normal 0.965925826289065 -0.258819045102533 3.99200683062638e-018
outer loop
vertex 376.628180700396 27.8209293166387 5.99999999999995
vertex 376.832625742662 29.3738435872538 2.99999999999995
vertex 376.832625742662 29.3738435872538 5.99999999999995
endloop
endfacet
facet normal 0.965925826289008 0.258819045102747 5.65320207653935e-018
outer loop
vertex 376.628180700396 30.9267578578694 2.99999999999995
vertex 376.832625742662 29.3738435872538 5.99999999999995
vertex 376.832625742662 29.3738435872538 2.99999999999995
endloop
endfacet
facet normal 1.0 9.35755650141893e-014 4.99272751833403e-018
outer loop
vertex 376.832625742662 29.3738435872538 5.99999999999995
vertex 376.628180700396 30.9267578578694 2.99999999999995
vertex 376.628180700396 30.9267578578694 5.99999999999995
endloop
endfacet
facet normal 0.866025403784441 0.499999999999997 5.92842025558615e-018
outer loop
vertex 376.028778165368 32.3738435872543 2.99999999999995
vertex 376.628180700396 30.9267578578694 5.99999999999995
vertex 376.628180700396 30.9267578578694 2.99999999999995
endloop
endfacet
facet normal 0.965925826289008 0.258819045102747 5.65320207653935e-018
outer loop
vertex 376.628180700396 30.9267578578694 5.99999999999995
vertex 376.028778165368 32.3738435872543 2.99999999999995
vertex 376.028778165368 32.3738435872543 5.99999999999995
endloop
endfacet
facet normal 0.793353340291412 0.60876142900849 5.91462374958914e-018
outer loop
vertex 375.075266429781 33.6164842743737 2.99999999999995
vertex 376.028778165368 32.3738435872543 5.99999999999995
vertex 376.028778165368 32.3738435872543 2.99999999999995
endloop
endfacet
facet normal 0.866025403784441 0.499999999999997 5.92842025558615e-018
outer loop
vertex 376.028778165368 32.3738435872543 5.99999999999995
vertex 375.075266429781 33.6164842743737 2.99999999999995
vertex 375.075266429781 33.6164842743737 5.99999999999995
endloop
endfacet
facet normal 1.0 -4.94260565808495e-015 4.99272751833372e-018
outer loop
vertex 375.075266429781 70.1312029001345 2.99999999999995
vertex 375.075266429781 33.6164842743737 5.99999999999995
vertex 375.075266429781 33.6164842743737 2.99999999999995
endloop
endfacet
facet normal 1.0 -4.94260565808495e-015 4.99272751833372e-018
outer loop
vertex 375.075266429781 33.6164842743737 5.99999999999995
vertex 375.075266429781 70.1312029001345 2.99999999999995
vertex 375.075266429781 70.1312029001345 5.99999999999995
endloop
endfacet
facet normal 0.500000000000736 -0.866025403784014 -2.82870054623177e-019
outer loop
vertex 370.215176083169 30.4432977686108 5.99999999999995
vertex 369.959420060125 30.2470492697907 2.99999999999995
vertex 370.215176083169 30.4432977686108 2.99999999999995
endloop
endfacet
facet normal 0.70710678118614 -0.707106781186955 1.26115657826472e-018
outer loop
vertex 369.959420060125 30.2470492697907 2.99999999999995
vertex 370.215176083169 30.4432977686108 5.99999999999995
vertex 369.959420060125 30.2470492697907 5.99999999999995
endloop
endfacet
facet normal 0.25881904510292 -0.965925826288962 -1.80761956076411e-018
outer loop
vertex 370.513010280124 30.5666647323287 2.99999999999995
vertex 370.215176083169 30.4432977686108 5.99999999999995
vertex 370.215176083169 30.4432977686108 2.99999999999995
endloop
endfacet
facet normal 0.500000000000736 -0.866025403784014 -2.82870054623177e-019
outer loop
vertex 370.215176083169 30.4432977686108 5.99999999999995
vertex 370.513010280124 30.5666647323287 2.99999999999995
vertex 370.513010280124 30.5666647323287 5.99999999999995
endloop
endfacet
facet normal -1.09914976118845e-012 -1.0 -3.20918278107649e-018
outer loop
vertex 370.832625742662 30.6087429062389 5.99999999999995
vertex 370.513010280124 30.5666647323287 2.99999999999995
vertex 370.832625742662 30.6087429062389 2.99999999999995
endloop
endfacet
facet normal 0.25881904510292 -0.965925826288962 -1.80761956076411e-018
outer loop
vertex 370.513010280124 30.5666647323287 2.99999999999995
vertex 370.832625742662 30.6087429062389 5.99999999999995
vertex 370.513010280124 30.5666647323287 5.99999999999995
endloop
endfacet
facet normal -0.258819045102868 -0.965925826288975 -4.3920454982723e-018
outer loop
vertex 371.152241205199 30.566664732328 5.99999999999995
vertex 370.832625742662 30.6087429062389 2.99999999999995
vertex 371.152241205199 30.566664732328 2.99999999999995
endloop
endfacet
facet normal -1.09933689449626e-012 -1.0 -3.20918278107649e-018
outer loop
vertex 370.832625742662 30.6087429062389 2.99999999999995
vertex 371.152241205199 30.566664732328 5.99999999999995
vertex 370.832625742662 30.6087429062389 5.99999999999995
endloop
endfacet
facet normal -0.499999999999744 -0.866025403784586 -5.27559757296114e-018
outer loop
vertex 371.450075402154 30.443297768611 5.99999999999995
vertex 371.152241205199 30.566664732328 2.99999999999995
vertex 371.450075402154 30.443297768611 2.99999999999995
endloop
endfacet
facet normal -0.258819045102868 -0.965925826288975 -4.3920454982723e-018
outer loop
vertex 371.152241205199 30.566664732328 2.99999999999995
vertex 371.450075402154 30.443297768611 5.99999999999995
vertex 371.152241205199 30.566664732328 5.99999999999995
endloop
endfacet
facet normal -0.707106781186852 -0.707106781186243 -5.79962639139342e-018
outer loop
vertex 371.705831425198 30.2470492697911 5.99999999999995
vertex 371.450075402154 30.443297768611 2.99999999999995
vertex 371.705831425198 30.2470492697911 2.99999999999995
endloop
endfacet
facet normal -0.499999999999744 -0.866025403784586 -5.27559757296114e-018
outer loop
vertex 371.450075402154 30.443297768611 2.99999999999995
vertex 371.705831425198 30.2470492697911 5.99999999999995
vertex 371.450075402154 30.443297768611 5.99999999999995
endloop
endfacet
facet normal -0.707106781186852 -0.707106781186243 -5.79962639139342e-018
outer loop
vertex 371.705831425198 30.2470492697911 5.99999999999995
vertex 371.902079924017 29.9912932467467 2.99999999999995
vertex 371.902079924017 29.9912932467467 5.99999999999995
endloop
endfacet
facet normal -0.866025403784335 -0.50000000000018 -5.92842025558621e-018
outer loop
vertex 371.902079924017 29.9912932467467 2.99999999999995
vertex 371.705831425198 30.2470492697911 5.99999999999995
vertex 371.705831425198 30.2470492697911 2.99999999999995
endloop
endfacet
facet normal -0.866025403784335 -0.50000000000018 -5.92842025558621e-018
outer loop
vertex 371.902079924017 29.9912932467467 5.99999999999995
vertex 372.025446887735 29.6934590497915 2.99999999999995
vertex 372.025446887735 29.6934590497915 5.99999999999995
endloop
endfacet
facet normal -0.965925826288855 -0.258819045103315 -5.65320207654041e-018
outer loop
vertex 372.025446887735 29.6934590497915 2.99999999999995
vertex 371.902079924017 29.9912932467467 5.99999999999995
vertex 371.902079924017 29.9912932467467 2.99999999999995
endloop
endfacet
facet normal -0.965925826288855 -0.258819045103315 -5.65320207654041e-018
outer loop
vertex 372.025446887735 29.6934590497915 5.99999999999995
vertex 372.067525061646 29.3738435872541 2.99999999999995
vertex 372.067525061646 29.3738435872541 5.99999999999995
endloop
endfacet
facet normal -1.0 -1.20602961327685e-013 -4.99272751833412e-018
outer loop
vertex 372.067525061646 29.3738435872541 2.99999999999995
vertex 372.025446887735 29.6934590497915 5.99999999999995
vertex 372.025446887735 29.6934590497915 2.99999999999995
endloop
endfacet
facet normal -1.0 -1.20415828019876e-013 -4.99272751833412e-018
outer loop
vertex 372.067525061646 29.3738435872541 5.99999999999995
vertex 372.025446887735 29.0542281247168 2.99999999999995
vertex 372.025446887735 29.0542281247168 5.99999999999995
endloop
endfacet
facet normal -0.965925826288973 0.258819045102875 -3.99200683062482e-018
outer loop
vertex 372.025446887735 29.0542281247168 2.99999999999995
vertex 372.067525061646 29.3738435872541 5.99999999999995
vertex 372.067525061646 29.3738435872541 2.99999999999995
endloop
endfacet
facet normal -0.965925826288973 0.258819045102876 -3.99200683062482e-018
outer loop
vertex 372.025446887735 29.0542281247168 5.99999999999995
vertex 371.902079924018 28.7563939277616 2.99999999999995
vertex 371.902079924018 28.7563939277616 5.99999999999995
endloop
endfacet
facet normal -0.866025403784468 0.499999999999949 -2.71923747451546e-018
outer loop
vertex 371.902079924018 28.7563939277616 2.99999999999995
vertex 372.025446887735 29.0542281247168 5.99999999999995
vertex 372.025446887735 29.0542281247168 2.99999999999995
endloop
endfacet
facet normal -0.866025403784468 0.499999999999949 -2.71923747451546e-018
outer loop
vertex 371.902079924018 28.7563939277616 5.99999999999995
vertex 371.705831425198 28.5006379047173 2.99999999999995
vertex 371.705831425198 28.5006379047173 5.99999999999995
endloop
endfacet
facet normal -0.7071067811866 0.707106781186495 -1.26115657826849e-018
outer loop
vertex 371.705831425198 28.5006379047173 2.99999999999995
vertex 371.902079924018 28.7563939277616 5.99999999999995
vertex 371.902079924018 28.7563939277616 2.99999999999995
endloop
endfacet
facet normal -0.499999999999372 0.866025403784801 2.8287005463251e-019
outer loop
vertex 371.450075402153 28.3043894058971 5.99999999999995
vertex 371.705831425198 28.5006379047173 2.99999999999995
vertex 371.450075402153 28.3043894058971 2.99999999999995
endloop
endfacet
facet normal -0.7071067811866 0.707106781186495 -1.26115657826849e-018
outer loop
vertex 371.705831425198 28.5006379047173 2.99999999999995
vertex 371.450075402153 28.3043894058971 5.99999999999995
vertex 371.705831425198 28.5006379047173 5.99999999999995
endloop
endfacet
facet normal -0.25881904510251 0.965925826289071 1.8076195607665e-018
outer loop
vertex 371.152241205199 28.1810224421802 5.99999999999995
vertex 371.450075402153 28.3043894058971 2.99999999999995
vertex 371.152241205199 28.1810224421802 2.99999999999995
endloop
endfacet
facet normal -0.499999999999372 0.866025403784801 2.8287005463251e-019
outer loop
vertex 371.450075402153 28.3043894058971 2.99999999999995
vertex 371.152241205199 28.1810224421802 5.99999999999995
vertex 371.450075402153 28.3043894058971 5.99999999999995
endloop
endfacet
facet normal 1.24185227505746e-013 1.0 3.20918278107162e-018
outer loop
vertex 370.832625742661 28.1389442682694 5.99999999999995
vertex 371.152241205199 28.1810224421802 2.99999999999995
vertex 370.832625742661 28.1389442682694 2.99999999999995
endloop
endfacet
facet normal -0.25881904510251 0.965925826289071 1.8076195607665e-018
outer loop
vertex 371.152241205199 28.1810224421802 2.99999999999995
vertex 370.832625742661 28.1389442682694 5.99999999999995
vertex 371.152241205199 28.1810224421802 5.99999999999995
endloop
endfacet
facet normal 0.25881904510235 0.965925826289114 4.39204549827016e-018
outer loop
vertex 370.513010280124 28.1810224421803 5.99999999999995
vertex 370.832625742661 28.1389442682694 2.99999999999995
vertex 370.513010280124 28.1810224421803 2.99999999999995
endloop
endfacet
facet normal 1.24185227505746e-013 1.0 3.20918278107162e-018
outer loop
vertex 370.832625742661 28.1389442682694 2.99999999999995
vertex 370.513010280124 28.1810224421803 5.99999999999995
vertex 370.832625742661 28.1389442682694 5.99999999999995
endloop
endfacet
facet normal 0.499999999999391 0.86602540378479 5.27559757296003e-018
outer loop
vertex 370.215176083169 28.3043894058971 5.99999999999995
vertex 370.513010280124 28.1810224421803 2.99999999999995
vertex 370.215176083169 28.3043894058971 2.99999999999995
endloop
endfacet
facet normal 0.25881904510235 0.965925826289114 4.39204549827016e-018
outer loop
vertex 370.513010280124 28.1810224421803 2.99999999999995
vertex 370.215176083169 28.3043894058971 5.99999999999995
vertex 370.513010280124 28.1810224421803 5.99999999999995
endloop
endfacet
facet normal 0.707106781186506 0.70710678118659 5.7996263913928e-018
outer loop
vertex 369.959420060124 28.5006379047173 5.99999999999995
vertex 370.215176083169 28.3043894058971 2.99999999999995
vertex 369.959420060124 28.5006379047173 2.99999999999995
endloop
endfacet
facet normal 0.499999999999391 0.86602540378479 5.27559757296003e-018
outer loop
vertex 370.215176083169 28.3043894058971 2.99999999999995
vertex 369.959420060124 28.5006379047173 5.99999999999995
vertex 370.215176083169 28.3043894058971 5.99999999999995
endloop
endfacet
facet normal 0.866025403784696 0.499999999999554 5.928420255586e-018
outer loop
vertex 369.763171561304 28.7563939277616 2.99999999999995
vertex 369.959420060124 28.5006379047173 5.99999999999995
vertex 369.959420060124 28.5006379047173 2.99999999999995
endloop
endfacet
facet normal 0.707106781186506 0.70710678118659 5.7996263913928e-018
outer loop
vertex 369.959420060124 28.5006379047173 5.99999999999995
vertex 369.763171561304 28.7563939277616 2.99999999999995
vertex 369.763171561304 28.7563939277616 5.99999999999995
endloop
endfacet
facet normal 0.96592582628924 0.25881904510188 5.65320207653773e-018
outer loop
vertex 369.639804597587 29.0542281247165 2.99999999999995
vertex 369.763171561304 28.7563939277616 5.99999999999995
vertex 369.763171561304 28.7563939277616 2.99999999999995
endloop
endfacet
facet normal 0.866025403784696 0.499999999999554 5.928420255586e-018
outer loop
vertex 369.763171561304 28.7563939277616 5.99999999999995
vertex 369.639804597587 29.0542281247165 2.99999999999995
vertex 369.639804597587 29.0542281247165 5.99999999999995
endloop
endfacet
facet normal 1.0 5.07621375205464e-013 4.99272751833536e-018
outer loop
vertex 369.597726423677 29.3738435872538 2.99999999999995
vertex 369.639804597587 29.0542281247165 5.99999999999995
vertex 369.639804597587 29.0542281247165 2.99999999999995
endloop
endfacet
facet normal 0.96592582628924 0.25881904510188 5.65320207653773e-018
outer loop
vertex 369.639804597587 29.0542281247165 5.99999999999995
vertex 369.597726423677 29.3738435872538 2.99999999999995
vertex 369.597726423677 29.3738435872538 5.99999999999995
endloop
endfacet
facet normal 0.96592582628925 -0.258819045101842 3.99200683062952e-018
outer loop
vertex 369.639804597587 29.6934590497916 2.99999999999995
vertex 369.597726423677 29.3738435872538 5.99999999999995
vertex 369.597726423677 29.3738435872538 2.99999999999995
endloop
endfacet
facet normal 1.0 5.07621375205464e-013 4.99272751833536e-018
outer loop
vertex 369.597726423677 29.3738435872538 5.99999999999995
vertex 369.639804597587 29.6934590497916 2.99999999999995
vertex 369.639804597587 29.6934590497916 5.99999999999995
endloop
endfacet
facet normal 0.866025403784219 -0.500000000000381 2.71923747451283e-018
outer loop
vertex 369.763171561304 29.9912932467463 2.99999999999995
vertex 369.639804597587 29.6934590497916 5.99999999999995
vertex 369.639804597587 29.6934590497916 2.99999999999995
endloop
endfacet
facet normal 0.96592582628925 -0.258819045101842 3.99200683062952e-018
outer loop
vertex 369.639804597587 29.6934590497916 5.99999999999995
vertex 369.763171561304 29.9912932467463 2.99999999999995
vertex 369.763171561304 29.9912932467463 5.99999999999995
endloop
endfacet
facet normal 0.70710678118614 -0.707106781186955 1.26115657826472e-018
outer loop
vertex 369.959420060125 30.2470492697907 2.99999999999995
vertex 369.763171561304 29.9912932467463 5.99999999999995
vertex 369.763171561304 29.9912932467463 2.99999999999995
endloop
endfacet
facet normal 0.866025403784219 -0.500000000000381 2.71923747451283e-018
outer loop
vertex 369.763171561304 29.9912932467463 5.99999999999995
vertex 369.959420060125 30.2470492697907 2.99999999999995
vertex 369.959420060125 30.2470492697907 5.99999999999995
endloop
endfacet
facet normal 0.707106781186281 0.707106781186814 5.7996263913924e-018
outer loop
vertex 369.959420060125 73.5006379047165 5.99999999999995
vertex 370.215176083169 73.304389405897 2.99999999999995
vertex 369.959420060125 73.5006379047165 2.99999999999995
endloop
endfacet
facet normal 0.499999999999144 0.866025403784933 5.27559757295926e-018
outer loop
vertex 370.215176083169 73.304389405897 2.99999999999995
vertex 369.959420060125 73.5006379047165 5.99999999999995
vertex 370.215176083169 73.304389405897 5.99999999999995
endloop
endfacet
facet normal 0.866025403784459 0.499999999999965 5.92842025558614e-018
outer loop
vertex 369.763171561304 73.7563939277612 2.99999999999995
vertex 369.959420060125 73.5006379047165 5.99999999999995
vertex 369.959420060125 73.5006379047165 2.99999999999995
endloop
endfacet
facet normal 0.707106781186281 0.707106781186814 5.7996263913924e-018
outer loop
vertex 369.959420060125 73.5006379047165 5.99999999999995
vertex 369.763171561304 73.7563939277612 2.99999999999995
vertex 369.763171561304 73.7563939277612 5.99999999999995
endloop
endfacet
facet normal 0.965925826289089 0.258819045102443 5.65320207653878e-018
outer loop
vertex 369.639804597587 74.0542281247165 2.99999999999995
vertex 369.763171561304 73.7563939277612 5.99999999999995
vertex 369.763171561304 73.7563939277612 2.99999999999995
endloop
endfacet
facet normal 0.866025403784459 0.499999999999965 5.92842025558614e-018
outer loop
vertex 369.763171561304 73.7563939277612 5.99999999999995
vertex 369.639804597587 74.0542281247165 2.99999999999995
vertex 369.639804597587 74.0542281247165 5.99999999999995
endloop
endfacet
facet normal 1.0 -4.89264488820508e-013 4.99272751833216e-018
outer loop
vertex 369.597726423676 74.3738435872541 2.99999999999995
vertex 369.639804597587 74.0542281247165 5.99999999999995
vertex 369.639804597587 74.0542281247165 2.99999999999995
endloop
endfacet
facet normal 0.965925826289089 0.258819045102443 5.65320207653878e-018
outer loop
vertex 369.639804597587 74.0542281247165 5.99999999999995
vertex 369.597726423676 74.3738435872541 2.99999999999995
vertex 369.597726423676 74.3738435872541 5.99999999999995
endloop
endfacet
facet normal 0.965925826288846 -0.258819045103351 3.99200683062266e-018
outer loop
vertex 369.639804597587 74.6934590497914 2.99999999999995
vertex 369.597726423676 74.3738435872541 5.99999999999995
vertex 369.597726423676 74.3738435872541 2.99999999999995
endloop
endfacet
facet normal 1.0 -4.89451622128316e-013 4.99272751833216e-018
outer loop
vertex 369.597726423676 74.3738435872541 5.99999999999995
vertex 369.639804597587 74.6934590497914 2.99999999999995
vertex 369.639804597587 74.6934590497914 5.99999999999995
endloop
endfacet
facet normal 0.866025403784243 -0.50000000000034 2.71923747451308e-018
outer loop
vertex 369.763171561305 74.9912932467462 2.99999999999995
vertex 369.639804597587 74.6934590497914 5.99999999999995
vertex 369.639804597587 74.6934590497914 2.99999999999995
endloop
endfacet
facet normal 0.965925826288846 -0.258819045103351 3.99200683062266e-018
outer loop
vertex 369.639804597587 74.6934590497914 5.99999999999995
vertex 369.763171561305 74.9912932467462 2.99999999999995
vertex 369.763171561305 74.9912932467462 5.99999999999995
endloop
endfacet
facet normal 0.707106781186958 -0.707106781186137 1.26115657827143e-018
outer loop
vertex 369.959420060125 75.2470492697904 2.99999999999995
vertex 369.763171561305 74.9912932467462 5.99999999999995
vertex 369.763171561305 74.9912932467462 2.99999999999995
endloop
endfacet
facet normal 0.866025403784243 -0.500000000000339 2.71923747451308e-018
outer loop
vertex 369.763171561305 74.9912932467462 5.99999999999995
vertex 369.959420060125 75.2470492697904 2.99999999999995
vertex 369.959420060125 75.2470492697904 5.99999999999995
endloop
endfacet
facet normal 0.500000000000731 -0.866025403784017 -2.82870054623211e-019
outer loop
vertex 370.215176083169 75.4432977686108 5.99999999999995
vertex 369.959420060125 75.2470492697904 2.99999999999995
vertex 370.215176083169 75.4432977686108 2.99999999999995
endloop
endfacet
facet normal 0.707106781186958 -0.707106781186137 1.26115657827143e-018
outer loop
vertex 369.959420060125 75.2470492697904 2.99999999999995
vertex 370.215176083169 75.4432977686108 5.99999999999995
vertex 369.959420060125 75.2470492697904 5.99999999999995
endloop
endfacet
facet normal 0.258819045102736 -0.965925826289011 -1.80761956076518e-018
outer loop
vertex 370.513010280124 75.5666647323283 5.99999999999995
vertex 370.215176083169 75.4432977686108 2.99999999999995
vertex 370.513010280124 75.5666647323283 2.99999999999995
endloop
endfacet
facet normal 0.500000000000731 -0.866025403784017 -2.82870054623211e-019
outer loop
vertex 370.215176083169 75.4432977686108 2.99999999999995
vertex 370.513010280124 75.5666647323283 5.99999999999995
vertex 370.215176083169 75.4432977686108 5.99999999999995
endloop
endfacet
facet normal -5.07621375205539e-013 -1.0 -3.20918278107353e-018
outer loop
vertex 370.832625742661 75.6087429062388 5.99999999999995
vertex 370.513010280124 75.5666647323283 2.99999999999995
vertex 370.832625742661 75.6087429062388 2.99999999999995
endloop
endfacet
facet normal 0.258819045102736 -0.965925826289011 -1.80761956076518e-018
outer loop
vertex 370.513010280124 75.5666647323283 2.99999999999995
vertex 370.832625742661 75.6087429062388 5.99999999999995
vertex 370.513010280124 75.5666647323283 5.99999999999995
endloop
endfacet
facet normal -0.258819045102498 -0.965925826289074 -4.39204549827078e-018
outer loop
vertex 371.152241205199 75.566664732328 5.99999999999995
vertex 370.832625742661 75.6087429062388 2.99999999999995
vertex 371.152241205199 75.566664732328 2.99999999999995
endloop
endfacet
facet normal -5.07621375205539e-013 -1.0 -3.20918278107353e-018
outer loop
vertex 370.832625742661 75.6087429062388 2.99999999999995
vertex 371.152241205199 75.566664732328 5.99999999999995
vertex 370.832625742661 75.6087429062388 5.99999999999995
endloop
endfacet
facet normal -0.499999999999988 -0.866025403784445 -5.27559757296191e-018
outer loop
vertex 371.450075402154 75.443297768611 5.99999999999995
vertex 371.152241205199 75.566664732328 2.99999999999995
vertex 371.450075402154 75.443297768611 2.99999999999995
endloop
endfacet
facet normal -0.258819045102498 -0.965925826289074 -4.39204549827078e-018
outer loop
vertex 371.152241205199 75.566664732328 2.99999999999995
vertex 371.450075402154 75.443297768611 5.99999999999995
vertex 371.152241205199 75.566664732328 5.99999999999995
endloop
endfacet
facet normal -0.70710678118642 -0.707106781186675 -5.79962639139265e-018
outer loop
vertex 371.705831425198 75.2470492697909 5.99999999999995
vertex 371.450075402154 75.443297768611 2.99999999999995
vertex 371.705831425198 75.2470492697909 2.99999999999995
endloop
endfacet
facet normal -0.499999999999988 -0.866025403784445 -5.27559757296191e-018
outer loop
vertex 371.450075402154 75.443297768611 2.99999999999995
vertex 371.705831425198 75.2470492697909 5.99999999999995
vertex 371.450075402154 75.443297768611 5.99999999999995
endloop
endfacet
facet normal -0.70710678118642 -0.707106781186675 -5.79962639139265e-018
outer loop
vertex 371.705831425198 75.2470492697909 5.99999999999995
vertex 371.902079924018 74.9912932467464 2.99999999999995
vertex 371.902079924018 74.9912932467464 5.99999999999995
endloop
endfacet
facet normal -0.866025403784284 -0.500000000000268 -5.92842025558624e-018
outer loop
vertex 371.902079924018 74.9912932467464 2.99999999999995
vertex 371.705831425198 75.2470492697909 5.99999999999995
vertex 371.705831425198 75.2470492697909 2.99999999999995
endloop
endfacet
facet normal -0.866025403784284 -0.500000000000268 -5.92842025558624e-018
outer loop
vertex 371.902079924018 74.9912932467464 5.99999999999995
vertex 372.025446887736 74.6934590497907 2.99999999999995
vertex 372.025446887736 74.6934590497907 5.99999999999995
endloop
endfacet
facet normal -0.96592582628909 -0.258819045102439 -5.65320207653878e-018
outer loop
vertex 372.025446887736 74.6934590497907 2.99999999999995
vertex 371.902079924018 74.9912932467464 5.99999999999995
vertex 371.902079924018 74.9912932467464 2.99999999999995
endloop
endfacet
facet normal -0.96592582628909 -0.258819045102439 -5.65320207653878e-018
outer loop
vertex 372.025446887736 74.6934590497907 5.99999999999995
vertex 372.067525061646 74.3738435872539 2.99999999999995
vertex 372.067525061646 74.3738435872539 5.99999999999995
endloop
endfacet
facet normal -1.0 6.56927021507121e-014 -4.99272751833352e-018
outer loop
vertex 372.067525061646 74.3738435872539 2.99999999999995
vertex 372.025446887736 74.6934590497907 5.99999999999995
vertex 372.025446887736 74.6934590497907 2.99999999999995
endloop
endfacet
facet normal -1.0 6.56927021507121e-014 -4.99272751833352e-018
outer loop
vertex 372.067525061646 74.3738435872539 5.99999999999995
vertex 372.025446887736 74.0542281247166 2.99999999999995
vertex 372.025446887736 74.0542281247166 5.99999999999995
endloop
endfacet
facet normal -0.965925826288998 0.258819045102782 -3.99200683062524e-018
outer loop
vertex 372.025446887736 74.0542281247166 2.99999999999995
vertex 372.067525061646 74.3738435872539 5.99999999999995
vertex 372.067525061646 74.3738435872539 2.99999999999995
endloop
endfacet
facet normal -0.965925826288998 0.258819045102782 -3.99200683062524e-018
outer loop
vertex 372.025446887736 74.0542281247166 5.99999999999995
vertex 371.902079924018 73.7563939277613 2.99999999999995
vertex 371.902079924018 73.7563939277613 5.99999999999995
endloop
endfacet
facet normal -0.866025403784063 0.500000000000651 -2.71923747451118e-018
outer loop
vertex 371.902079924018 73.7563939277613 2.99999999999995
vertex 372.025446887736 74.0542281247166 5.99999999999995
vertex 372.025446887736 74.0542281247166 2.99999999999995
endloop
endfacet
facet normal -0.866025403784063 0.500000000000651 -2.71923747451118e-018
outer loop
vertex 371.902079924018 73.7563939277613 5.99999999999995
vertex 371.705831425198 73.5006379047174 2.99999999999995
vertex 371.705831425198 73.5006379047174 5.99999999999995
endloop
endfacet
facet normal -0.707106781186409 0.707106781186686 -1.26115657826692e-018
outer loop
vertex 371.705831425198 73.5006379047174 2.99999999999995
vertex 371.902079924018 73.7563939277613 5.99999999999995
vertex 371.902079924018 73.7563939277613 2.99999999999995
endloop
endfacet
facet normal -0.500000000000099 0.866025403784381 2.82870054627536e-019
outer loop
vertex 371.450075402154 73.3043894058971 5.99999999999995
vertex 371.705831425198 73.5006379047174 2.99999999999995
vertex 371.450075402154 73.3043894058971 2.99999999999995
endloop
endfacet
facet normal -0.707106781186409 0.707106781186686 -1.26115657826692e-018
outer loop
vertex 371.705831425198 73.5006379047174 2.99999999999995
vertex 371.450075402154 73.3043894058971 5.99999999999995
vertex 371.705831425198 73.5006379047174 5.99999999999995
endloop
endfacet
facet normal -0.258819045102758 0.965925826289005 1.80761956076505e-018
outer loop
vertex 371.152241205198 73.1810224421799 2.99999999999995
vertex 371.450075402154 73.3043894058971 5.99999999999995
vertex 371.450075402154 73.3043894058971 2.99999999999995
endloop
endfacet
facet normal -0.500000000000099 0.866025403784381 2.82870054627536e-019
outer loop
vertex 371.450075402154 73.3043894058971 5.99999999999995
vertex 371.152241205198 73.1810224421799 2.99999999999995
vertex 371.152241205198 73.1810224421799 5.99999999999995
endloop
endfacet
facet normal 7.29909011552567e-014 1.0 3.20918278107136e-018
outer loop
vertex 370.832625742661 73.1389442682689 5.99999999999995
vertex 371.152241205198 73.1810224421799 2.99999999999995
vertex 370.832625742661 73.1389442682689 2.99999999999995
endloop
endfacet
facet normal -0.258819045102758 0.965925826289005 1.80761956076505e-018
outer loop
vertex 371.152241205198 73.1810224421799 2.99999999999995
vertex 370.832625742661 73.1389442682689 5.99999999999995
vertex 371.152241205198 73.1810224421799 5.99999999999995
endloop
endfacet
facet normal 0.258819045102703 0.965925826289019 4.39204549827162e-018
outer loop
vertex 370.513010280124 73.1810224421799 5.99999999999995
vertex 370.832625742661 73.1389442682689 2.99999999999995
vertex 370.513010280124 73.1810224421799 2.99999999999995
endloop
endfacet
facet normal 7.31780344630652e-014 1.0 3.20918278107136e-018
outer loop
vertex 370.832625742661 73.1389442682689 2.99999999999995
vertex 370.513010280124 73.1810224421799 5.99999999999995
vertex 370.832625742661 73.1389442682689 5.99999999999995
endloop
endfacet
facet normal 0.499999999999144 0.866025403784933 5.27559757295926e-018
outer loop
vertex 370.215176083169 73.304389405897 5.99999999999995
vertex 370.513010280124 73.1810224421799 2.99999999999995
vertex 370.215176083169 73.304389405897 2.99999999999995
endloop
endfacet
facet normal 0.258819045102704 0.965925826289019 4.39204549827163e-018
outer loop
vertex 370.513010280124 73.1810224421799 2.99999999999995
vertex 370.215176083169 73.304389405897 5.99999999999995
vertex 370.513010280124 73.1810224421799 5.99999999999995
endloop
endfacet
endsolid uploads-c5-af-25-85-c2-plotclock_SUP7
