solid uploads-c5-af-25-85-c2-plotclock_SUP7
facet normal -1.49897355422941e-012 6.12521957592714e-007 -0.999999999999813
outer loop
vertex 305.472616942428 27.5358239064595 -5.83010706441081
vertex 305.43002422529 -0.140652287157254 -5.83012401686014
vertex 305.43002422529 27.8593477128376 -5.83010686624532
endloop
endfacet
facet normal -1.49897355422941e-012 6.12521957592714e-007 -0.999999999999813
outer loop
vertex 305.43002422529 -0.140652287157254 -5.83012401686014
vertex 305.472616942428 27.5358239064595 -5.83010706441081
vertex 305.472616942428 0.182871519220824 -5.83012381869478
endloop
endfacet
facet normal -1.49897355422941e-012 6.12521957592714e-007 -0.999999999999813
outer loop
vertex 305.472616942428 0.182871519220824 -5.83012381869478
vertex 305.472616942428 27.5358239064595 -5.83010706441081
vertex 305.597492470559 0.484347712842649 -5.83012363403417
endloop
endfacet
facet normal -1.49897355422941e-012 6.12521957592714e-007 -0.999999999999813
outer loop
vertex 305.597492470559 0.484347712842649 -5.83012363403417
vertex 305.472616942428 27.5358239064595 -5.83010706441081
vertex 305.597492470559 27.2343477128378 -5.83010724907178
endloop
endfacet
facet normal -1.49897355422941e-012 6.12521957592714e-007 -0.999999999999813
outer loop
vertex 305.597492470559 0.484347712842649 -5.83012363403417
vertex 305.597492470559 27.2343477128378 -5.83010724907178
vertex 305.796140748806 26.9754642363546 -5.83010740764391
endloop
endfacet
facet normal -1.49897355422941e-012 6.12521957592714e-007 -0.999999999999813
outer loop
vertex 305.597492470559 0.484347712842649 -5.83012363403417
vertex 305.796140748806 26.9754642363546 -5.83010740764391
vertex 305.796140748806 0.743231189325809 -5.83012347546267
endloop
endfacet
facet normal -1.49897355422941e-012 6.12521957592714e-007 -0.999999999999813
outer loop
vertex 305.796140748806 0.743231189325809 -5.83012347546267
vertex 305.796140748806 26.9754642363546 -5.83010740764391
vertex 306.05502422529 26.7768159581073 -5.83010752932073
endloop
endfacet
facet normal -1.49897355422941e-012 6.12521957592714e-007 -0.999999999999813
outer loop
vertex 305.796140748806 0.743231189325809 -5.83012347546267
vertex 306.05502422529 26.7768159581073 -5.83010752932073
vertex 306.05502422529 0.941879467573096 -5.83012335378662
endloop
endfacet
facet normal -1.49897355422941e-012 6.12521957592714e-007 -0.999999999999813
outer loop
vertex 306.05502422529 0.941879467573096 -5.83012335378662
vertex 306.05502422529 26.7768159581073 -5.83010752932073
vertex 306.356500418911 1.06675499570384 -5.83012327729807
endloop
endfacet
facet normal -1.49897355422941e-012 6.12521957592714e-007 -0.999999999999813
outer loop
vertex 306.356500418911 1.06675499570384 -5.83012327729807
vertex 306.05502422529 26.7768159581073 -5.83010752932073
vertex 306.356500418912 26.6519404299766 -5.83010760581018
endloop
endfacet
facet normal -1.49897355422941e-012 6.12521957592714e-007 -0.999999999999813
outer loop
vertex 306.356500418911 1.06675499570384 -5.83012327729807
vertex 306.356500418912 26.6519404299766 -5.83010760581018
vertex 306.68002422529 1.10934771284246 -5.83012325120959
endloop
endfacet
facet normal -1.49897355422941e-012 6.12521957592714e-007 -0.999999999999813
outer loop
vertex 306.68002422529 1.10934771284246 -5.83012325120959
vertex 306.356500418912 26.6519404299766 -5.83010760581018
vertex 306.68002422529 26.609347712838 -5.83010763189965
endloop
endfacet
facet normal -1.49897355422941e-012 6.12521957592714e-007 -0.999999999999813
outer loop
vertex 306.68002422529 1.10934771284246 -5.83012325120959
vertex 306.68002422529 26.609347712838 -5.83010763189965
vertex 307.003548031668 1.0667549957038 -5.83012327729907
endloop
endfacet
facet normal -1.49897355422941e-012 6.12521957592714e-007 -0.999999999999813
outer loop
vertex 307.003548031668 1.0667549957038 -5.83012327729907
vertex 306.68002422529 26.609347712838 -5.83010763189965
vertex 307.003548031668 26.6519404299767 -5.83010760581117
endloop
endfacet
facet normal -1.49897355422941e-012 6.12521957592714e-007 -0.999999999999813
outer loop
vertex 307.003548031668 1.0667549957038 -5.83012327729907
vertex 307.003548031668 26.6519404299767 -5.83010760581117
vertex 307.30502422529 0.941879467573051 -5.83012335378847
endloop
endfacet
facet normal -1.49897355422941e-012 6.12521957592714e-007 -0.999999999999813
outer loop
vertex 307.30502422529 0.941879467573051 -5.83012335378847
vertex 307.003548031668 26.6519404299767 -5.83010760581117
vertex 307.30502422529 26.7768159581074 -5.83010752932262
endloop
endfacet
facet normal -1.49897355422941e-012 6.12521957592714e-007 -0.999999999999813
outer loop
vertex 307.30502422529 0.941879467573051 -5.83012335378847
vertex 307.30502422529 26.7768159581074 -5.83010752932262
vertex 307.563907701773 0.743231189325764 -5.83012347546533
endloop
endfacet
facet normal -1.49897355422941e-012 6.12521957592714e-007 -0.999999999999813
outer loop
vertex 307.563907701773 0.743231189325764 -5.83012347546533
vertex 307.30502422529 26.7768159581074 -5.83010752932262
vertex 307.563907701773 26.9754642363546 -5.83010740764657
endloop
endfacet
facet normal -1.49897355422941e-012 6.12521957592714e-007 -0.999999999999813
outer loop
vertex 307.563907701773 0.743231189325764 -5.83012347546533
vertex 307.563907701773 26.9754642363546 -5.83010740764657
vertex 307.76255598002 27.2343477128378 -5.83010724907503
endloop
endfacet
facet normal -1.49897355422941e-012 6.12521957592714e-007 -0.999999999999813
outer loop
vertex 307.563907701773 0.743231189325764 -5.83012347546533
vertex 307.76255598002 27.2343477128378 -5.83010724907503
vertex 307.76255598002 0.484347712842604 -5.83012363403741
endloop
endfacet
facet normal -1.49897355422941e-012 6.12521957592714e-007 -0.999999999999813
outer loop
vertex 307.76255598002 0.484347712842604 -5.83012363403741
vertex 307.76255598002 27.2343477128378 -5.83010724907503
vertex 307.887431508151 0.182871519220778 -5.83012381869843
endloop
endfacet
facet normal -1.49897355422941e-012 6.12521957592714e-007 -0.999999999999813
outer loop
vertex 307.887431508151 0.182871519220778 -5.83012381869843
vertex 307.76255598002 27.2343477128378 -5.83010724907503
vertex 307.887431508151 27.5358239064596 -5.83010706441447
endloop
endfacet
facet normal -1.49897355422941e-012 6.12521957592714e-007 -0.999999999999813
outer loop
vertex 307.887431508151 0.182871519220778 -5.83012381869843
vertex 307.887431508151 27.5358239064596 -5.83010706441447
vertex 307.93002422529 -0.140652287157299 -5.83012401686393
endloop
endfacet
facet normal -1.49897355422941e-012 6.12521957592714e-007 -0.999999999999813
outer loop
vertex 307.93002422529 -0.140652287157299 -5.83012401686393
vertex 307.887431508151 27.5358239064596 -5.83010706441447
vertex 307.93002422529 27.8593477128376 -5.83010686624911
endloop
endfacet
facet normal -1.49897355422941e-012 6.12521957592714e-007 -0.999999999999813
outer loop
vertex 305.834395650031 31.0152765200332 -5.83010493317025
vertex 305.43002422529 27.8593477128376 -5.83010686624532
vertex 305.04639526471 30.6888760732778 -5.83010513309653
endloop
endfacet
facet normal -1.49897355422941e-012 6.12521957592714e-007 -0.999999999999813
outer loop
vertex 305.43002422529 27.8593477128376 -5.83010686624532
vertex 305.834395650031 31.0152765200332 -5.83010493317025
vertex 305.472616942428 28.1828715192158 -5.83010666807995
endloop
endfacet
facet normal -1.49897355422941e-012 6.12521957592714e-007 -0.999999999999813
outer loop
vertex 305.472616942428 28.1828715192158 -5.83010666807995
vertex 305.834395650031 31.0152765200332 -5.83010493317025
vertex 305.597492470559 28.4843477128375 -5.83010648341939
endloop
endfacet
facet normal -1.49897355422941e-012 6.12521957592714e-007 -0.999999999999813
outer loop
vertex 305.597492470559 28.4843477128375 -5.83010648341939
vertex 305.834395650031 31.0152765200332 -5.83010493317025
vertex 305.796140748806 28.7432311893207 -5.83010632484785
endloop
endfacet
facet normal -1.49897355422941e-012 6.12521957592714e-007 -0.999999999999813
outer loop
vertex 305.796140748806 28.7432311893207 -5.83010632484785
vertex 305.834395650031 31.0152765200332 -5.83010493317025
vertex 306.05502422529 28.941879467568 -5.8301062031718
endloop
endfacet
facet normal -1.49897355422941e-012 6.12521957592714e-007 -0.999999999999813
outer loop
vertex 306.05502422529 28.941879467568 -5.8301062031718
vertex 305.834395650031 31.0152765200332 -5.83010493317025
vertex 306.68002422529 31.1266056339974 -5.83010486497998
endloop
endfacet
facet normal -1.49897355422941e-012 6.12521957592714e-007 -0.999999999999813
outer loop
vertex 306.05502422529 28.941879467568 -5.8301062031718
vertex 306.68002422529 31.1266056339974 -5.83010486497998
vertex 306.356500418912 29.0667549956988 -5.83010612668325
endloop
endfacet
facet normal -1.49897355422941e-012 6.12521957592714e-007 -0.999999999999813
outer loop
vertex 306.356500418912 29.0667549956988 -5.83010612668325
vertex 306.68002422529 31.1266056339974 -5.83010486497998
vertex 306.68002422529 29.1093477128374 -5.83010610059477
endloop
endfacet
facet normal -1.49897355422941e-012 6.12521957592714e-007 -0.999999999999813
outer loop
vertex 306.68002422529 29.1093477128374 -5.83010610059477
vertex 306.68002422529 31.1266056339974 -5.83010486497998
vertex 307.003548031668 29.0667549956988 -5.83010612668424
endloop
endfacet
facet normal -1.49897355422941e-012 6.12521957592714e-007 -0.999999999999813
outer loop
vertex 307.003548031668 29.0667549956988 -5.83010612668424
vertex 306.68002422529 31.1266056339974 -5.83010486497998
vertex 307.525652800548 31.0152765200333 -5.83010493317278
endloop
endfacet
facet normal -1.49897355422941e-012 6.12521957592714e-007 -0.999999999999813
outer loop
vertex 307.003548031668 29.0667549956988 -5.83010612668424
vertex 307.525652800548 31.0152765200333 -5.83010493317278
vertex 307.30502422529 28.9418794675681 -5.83010620317369
endloop
endfacet
facet normal -1.49897355422941e-012 6.12521957592714e-007 -0.999999999999813
outer loop
vertex 307.30502422529 28.9418794675681 -5.83010620317369
vertex 307.525652800548 31.0152765200333 -5.83010493317278
vertex 307.563907701773 28.7432311893207 -5.83010632485051
endloop
endfacet
facet normal -1.49897355422941e-012 6.12521957592714e-007 -0.999999999999813
outer loop
vertex 307.563907701773 28.7432311893207 -5.83010632485051
vertex 307.525652800548 31.0152765200333 -5.83010493317278
vertex 308.31365318587 30.6888760732778 -5.83010513310141
endloop
endfacet
facet normal -1.49897355422941e-012 6.12521957592714e-007 -0.999999999999813
outer loop
vertex 307.563907701773 28.7432311893207 -5.83010632485051
vertex 308.31365318587 30.6888760732778 -5.83010513310141
vertex 307.76255598002 28.4843477128375 -5.83010648342264
endloop
endfacet
facet normal -1.49897355422941e-012 6.12521957592714e-007 -0.999999999999813
outer loop
vertex 307.76255598002 28.4843477128375 -5.83010648342264
vertex 308.31365318587 30.6888760732778 -5.83010513310141
vertex 307.887431508151 28.1828715192158 -5.83010666808361
endloop
endfacet
facet normal -1.49897355422941e-012 6.12521957592714e-007 -0.999999999999813
outer loop
vertex 307.887431508151 28.1828715192158 -5.83010666808361
vertex 308.31365318587 30.6888760732778 -5.83010513310141
vertex 307.93002422529 27.8593477128376 -5.83010686624911
endloop
endfacet
facet normal -1.49897355422941e-012 6.12521957592714e-007 -0.999999999999813
outer loop
vertex 307.93002422529 27.8593477128376 -5.83010686624911
vertex 308.31365318587 30.6888760732778 -5.83010513310141
vertex 308.31365318587 -2.9701806475975 -5.83012575001271
endloop
endfacet
facet normal -1.49897355422941e-012 6.12521957592714e-007 -0.999999999999813
outer loop
vertex 308.31365318587 -2.9701806475975 -5.83012575001271
vertex 308.31365318587 30.6888760732778 -5.83010513310141
vertex 308.990324457228 -2.4509525190948 -5.83012543197509
endloop
endfacet
facet normal -1.49897355422941e-012 6.12521957592714e-007 -0.999999999999813
outer loop
vertex 308.990324457228 -2.4509525190948 -5.83012543197509
vertex 308.31365318587 30.6888760732778 -5.83010513310141
vertex 308.990324457228 30.169647944775 -5.83010545114106
endloop
endfacet
facet normal -1.49897355422941e-012 6.12521957592714e-007 -0.999999999999813
outer loop
vertex 308.990324457228 -2.4509525190948 -5.83012543197509
vertex 308.990324457228 30.169647944775 -5.83010545114106
vertex 309.50955258573 29.4929766734173 -5.83010586561784
endloop
endfacet
facet normal -1.49897355422941e-012 6.12521957592714e-007 -0.999999999999813
outer loop
vertex 308.990324457228 -2.4509525190948 -5.83012543197509
vertex 309.50955258573 29.4929766734173 -5.83010586561784
vertex 309.50955258573 -1.77428124773708 -5.83012501749989
endloop
endfacet
facet normal -1.49897355422941e-012 6.12521957592714e-007 -0.999999999999813
outer loop
vertex 309.50955258573 -1.77428124773708 -5.83012501749989
vertex 309.50955258573 29.4929766734173 -5.83010586561784
vertex 309.835953032486 -0.98628086241539 -5.83012453483284
endloop
endfacet
facet normal -1.49897355422941e-012 6.12521957592714e-007 -0.999999999999813
outer loop
vertex 309.835953032486 -0.98628086241539 -5.83012453483284
vertex 309.50955258573 29.4929766734173 -5.83010586561784
vertex 309.835953032486 28.7049762880958 -5.83010634828587
endloop
endfacet
facet normal -1.49897355422941e-012 6.12521957592714e-007 -0.999999999999813
outer loop
vertex 309.835953032486 -0.98628086241539 -5.83012453483284
vertex 309.835953032486 28.7049762880958 -5.83010634828587
vertex 309.94728214645 -0.140652287157254 -5.8301240168669
endloop
endfacet
facet normal -1.49897355422941e-012 6.12521957592714e-007 -0.999999999999813
outer loop
vertex 309.94728214645 -0.140652287157254 -5.8301240168669
vertex 309.835953032486 28.7049762880958 -5.83010634828587
vertex 309.94728214645 27.8593477128376 -5.83010686625213
endloop
endfacet
facet normal -1.49897355422941e-012 6.12521957592714e-007 -0.999999999999813
outer loop
vertex 303.412766304129 27.8593477128376 -5.83010686624234
vertex 303.524095418093 -0.986280862415435 -5.83012453482337
vertex 303.412766304129 -0.140652287157254 -5.83012401685711
endloop
endfacet
facet normal -1.49897355422941e-012 6.12521957592714e-007 -0.999999999999813
outer loop
vertex 303.524095418093 -0.986280862415435 -5.83012453482337
vertex 303.412766304129 27.8593477128376 -5.83010686624234
vertex 303.524095418093 28.7049762880959 -5.8301063482764
endloop
endfacet
facet normal -1.49897355422941e-012 6.12521957592714e-007 -0.999999999999813
outer loop
vertex 303.524095418093 -0.986280862415435 -5.83012453482337
vertex 303.524095418093 28.7049762880959 -5.8301063482764
vertex 303.850495864849 29.4929766734174 -5.83010586560936
endloop
endfacet
facet normal -1.49897355422941e-012 6.12521957592714e-007 -0.999999999999813
outer loop
vertex 303.524095418093 -0.986280862415435 -5.83012453482337
vertex 303.850495864849 29.4929766734174 -5.83010586560936
vertex 303.850495864849 -1.77428124773708 -5.8301250174914
endloop
endfacet
facet normal -1.49897355422941e-012 6.12521957592714e-007 -0.999999999999813
outer loop
vertex 303.850495864849 -1.77428124773708 -5.8301250174914
vertex 303.850495864849 29.4929766734174 -5.83010586560936
vertex 304.369723993352 30.169647944775 -5.83010545113411
endloop
endfacet
facet normal -1.49897355422941e-012 6.12521957592714e-007 -0.999999999999813
outer loop
vertex 303.850495864849 -1.77428124773708 -5.8301250174914
vertex 304.369723993352 30.169647944775 -5.83010545113411
vertex 304.369723993352 -2.45095251909475 -5.83012543196818
endloop
endfacet
facet normal -1.49897355422941e-012 6.12521957592714e-007 -0.999999999999813
outer loop
vertex 304.369723993352 -2.45095251909475 -5.83012543196818
vertex 304.369723993352 30.169647944775 -5.83010545113411
vertex 305.04639526471 30.6888760732778 -5.83010513309653
endloop
endfacet
facet normal -1.49897355422941e-012 6.12521957592714e-007 -0.999999999999813
outer loop
vertex 304.369723993352 -2.45095251909475 -5.83012543196818
vertex 305.04639526471 30.6888760732778 -5.83010513309653
vertex 305.04639526471 -2.9701806475975 -5.83012575000784
endloop
endfacet
facet normal -1.49897355422941e-012 6.12521957592714e-007 -0.999999999999813
outer loop
vertex 305.04639526471 -2.9701806475975 -5.83012575000784
vertex 305.04639526471 30.6888760732778 -5.83010513309653
vertex 305.43002422529 -0.140652287157254 -5.83012401686014
endloop
endfacet
facet normal -1.49897355422941e-012 6.12521957592714e-007 -0.999999999999813
outer loop
vertex 305.04639526471 -2.9701806475975 -5.83012575000784
vertex 305.43002422529 -0.140652287157254 -5.83012401686014
vertex 305.834395650031 -3.29658109435293 -5.83012594993642
endloop
endfacet
facet normal -1.49897355422941e-012 6.12521957592714e-007 -0.999999999999813
outer loop
vertex 305.43002422529 -0.140652287157254 -5.83012401686014
vertex 305.04639526471 30.6888760732778 -5.83010513309653
vertex 305.43002422529 27.8593477128376 -5.83010686624532
endloop
endfacet
facet normal -1.49897355422941e-012 6.12521957592714e-007 -0.999999999999813
outer loop
vertex 305.834395650031 -3.29658109435293 -5.83012594993642
vertex 305.43002422529 -0.140652287157254 -5.83012401686014
vertex 305.472616942428 -0.464176093535331 -5.83012421502563
endloop
endfacet
facet normal -1.49897355422941e-012 6.12521957592714e-007 -0.999999999999813
outer loop
vertex 305.834395650031 -3.29658109435293 -5.83012594993642
vertex 305.472616942428 -0.464176093535331 -5.83012421502563
vertex 305.597492470559 -0.765652287157157 -5.8301243996866
endloop
endfacet
facet normal -1.49897355422941e-012 6.12521957592714e-007 -0.999999999999813
outer loop
vertex 305.834395650031 -3.29658109435293 -5.83012594993642
vertex 305.597492470559 -0.765652287157157 -5.8301243996866
vertex 305.796140748806 -1.02453576364027 -5.83012455825873
endloop
endfacet
facet normal -1.49897355422941e-012 6.12521957592714e-007 -0.999999999999813
outer loop
vertex 305.834395650031 -3.29658109435293 -5.83012594993642
vertex 305.796140748806 -1.02453576364027 -5.83012455825873
vertex 306.05502422529 -1.2231840418876 -5.83012467993555
endloop
endfacet
facet normal -1.49897355422941e-012 6.12521957592714e-007 -0.999999999999813
outer loop
vertex 305.834395650031 -3.29658109435293 -5.83012594993642
vertex 306.05502422529 -1.2231840418876 -5.83012467993555
vertex 306.68002422529 -3.40791020831699 -5.83012601812926
endloop
endfacet
facet normal -1.49897355422941e-012 6.12521957592714e-007 -0.999999999999813
outer loop
vertex 306.68002422529 -3.40791020831699 -5.83012601812926
vertex 306.05502422529 -1.2231840418876 -5.83012467993555
vertex 306.356500418911 -1.34805957001839 -5.830124756425
endloop
endfacet
facet normal -1.49897355422941e-012 6.12521957592714e-007 -0.999999999999813
outer loop
vertex 306.68002422529 -3.40791020831699 -5.83012601812926
vertex 306.356500418911 -1.34805957001839 -5.830124756425
vertex 306.68002422529 -1.39065228715701 -5.83012478251447
endloop
endfacet
facet normal -1.49897355422941e-012 6.12521957592714e-007 -0.999999999999813
outer loop
vertex 306.68002422529 -3.40791020831699 -5.83012601812926
vertex 306.68002422529 -1.39065228715701 -5.83012478251447
vertex 307.003548031668 -1.34805957001839 -5.83012475642599
endloop
endfacet
facet normal -1.49897355422941e-012 6.12521957592714e-007 -0.999999999999813
outer loop
vertex 306.68002422529 -3.40791020831699 -5.83012601812926
vertex 307.003548031668 -1.34805957001839 -5.83012475642599
vertex 307.525652800548 -3.29658109435298 -5.83012594993899
endloop
endfacet
facet normal -1.49897355422941e-012 6.12521957592714e-007 -0.999999999999813
outer loop
vertex 307.525652800548 -3.29658109435298 -5.83012594993899
vertex 307.003548031668 -1.34805957001839 -5.83012475642599
vertex 307.30502422529 -1.22318404188765 -5.83012467993744
endloop
endfacet
facet normal -1.49897355422941e-012 6.12521957592714e-007 -0.999999999999813
outer loop
vertex 307.525652800548 -3.29658109435298 -5.83012594993899
vertex 307.30502422529 -1.22318404188765 -5.83012467993744
vertex 307.563907701773 -1.02453576364032 -5.8301245582614
endloop
endfacet
facet normal -1.49897355422941e-012 6.12521957592714e-007 -0.999999999999813
outer loop
vertex 307.525652800548 -3.29658109435298 -5.83012594993899
vertex 307.563907701773 -1.02453576364032 -5.8301245582614
vertex 308.31365318587 -2.9701806475975 -5.83012575001271
endloop
endfacet
facet normal -1.49897355422941e-012 6.12521957592714e-007 -0.999999999999813
outer loop
vertex 308.31365318587 -2.9701806475975 -5.83012575001271
vertex 307.563907701773 -1.02453576364032 -5.8301245582614
vertex 307.76255598002 -0.765652287157157 -5.83012439968985
endloop
endfacet
facet normal -1.49897355422941e-012 6.12521957592714e-007 -0.999999999999813
outer loop
vertex 308.31365318587 -2.9701806475975 -5.83012575001271
vertex 307.76255598002 -0.765652287157157 -5.83012439968985
vertex 307.887431508151 -0.464176093535376 -5.83012421502929
endloop
endfacet
facet normal -1.49897355422941e-012 6.12521957592714e-007 -0.999999999999813
outer loop
vertex 308.31365318587 -2.9701806475975 -5.83012575001271
vertex 307.887431508151 -0.464176093535376 -5.83012421502929
vertex 307.93002422529 -0.140652287157299 -5.83012401686393
endloop
endfacet
facet normal -1.49897355422941e-012 6.12521957592714e-007 -0.999999999999813
outer loop
vertex 308.31365318587 -2.9701806475975 -5.83012575001271
vertex 307.93002422529 -0.140652287157299 -5.83012401686393
vertex 307.93002422529 27.8593477128376 -5.83010686624911
endloop
endfacet
facet normal 1.49897355422941e-012 -6.12521957592714e-007 0.999999999999813
outer loop
vertex 303.524095418098 -0.986282699981307 -2.83012453482393
vertex 303.412766304134 27.8593458752717 -2.8301068662429
vertex 303.412766304134 -0.140654124723127 -2.83012401685768
endloop
endfacet
facet normal 1.49897355422941e-012 -6.12521957592714e-007 0.999999999999813
outer loop
vertex 303.412766304134 27.8593458752717 -2.8301068662429
vertex 303.524095418098 -0.986282699981307 -2.83012453482393
vertex 303.524095418098 28.70497445053 -2.83010634827696
endloop
endfacet
facet normal 1.49897355422941e-012 -6.12521957592714e-007 0.999999999999813
outer loop
vertex 303.524095418098 28.70497445053 -2.83010634827696
vertex 303.524095418098 -0.986282699981307 -2.83012453482393
vertex 303.850495864853 -1.77428308530295 -2.83012501749197
endloop
endfacet
facet normal 1.49897355422941e-012 -6.12521957592714e-007 0.999999999999813
outer loop
vertex 303.524095418098 28.70497445053 -2.83010634827696
vertex 303.850495864853 -1.77428308530295 -2.83012501749197
vertex 303.850495864853 29.4929748358516 -2.83010586560992
endloop
endfacet
facet normal 1.49897355422941e-012 -6.12521957592714e-007 0.999999999999813
outer loop
vertex 303.850495864853 29.4929748358516 -2.83010586560992
vertex 303.850495864853 -1.77428308530295 -2.83012501749197
vertex 304.369723993356 -2.45095435666063 -2.83012543196875
endloop
endfacet
facet normal 1.49897355422941e-012 -6.12521957592714e-007 0.999999999999813
outer loop
vertex 303.850495864853 29.4929748358516 -2.83010586560992
vertex 304.369723993356 -2.45095435666063 -2.83012543196875
vertex 304.369723993356 30.1696461072091 -2.83010545113467
endloop
endfacet
facet normal 1.49897355422941e-012 -6.12521957592714e-007 0.999999999999813
outer loop
vertex 304.369723993356 30.1696461072091 -2.83010545113467
vertex 304.369723993356 -2.45095435666063 -2.83012543196875
vertex 305.046395264714 -2.97018248516337 -2.8301257500084
endloop
endfacet
facet normal 1.49897355422941e-012 -6.12521957592714e-007 0.999999999999813
outer loop
vertex 304.369723993356 30.1696461072091 -2.83010545113467
vertex 305.046395264714 -2.97018248516337 -2.8301257500084
vertex 305.046395264714 30.6888742357119 -2.8301051330971
endloop
endfacet
facet normal 1.49897355422941e-012 -6.12521957592714e-007 0.999999999999813
outer loop
vertex 305.046395264714 30.6888742357119 -2.8301051330971
vertex 305.046395264714 -2.97018248516337 -2.8301257500084
vertex 305.430024225294 -0.140654124723127 -2.8301240168607
endloop
endfacet
facet normal 1.49897355422941e-012 -6.12521957592714e-007 0.999999999999813
outer loop
vertex 305.430024225294 -0.140654124723127 -2.8301240168607
vertex 305.046395264714 -2.97018248516337 -2.8301257500084
vertex 305.834395650036 -3.29658293191881 -2.83012594993698
endloop
endfacet
facet normal 1.49897355422941e-012 -6.12521957592714e-007 0.999999999999813
outer loop
vertex 305.430024225294 -0.140654124723127 -2.8301240168607
vertex 305.834395650036 -3.29658293191881 -2.83012594993698
vertex 305.472616942433 -0.464177931101204 -2.8301242150262
endloop
endfacet
facet normal 1.49897355422941e-012 -6.12521957592714e-007 0.999999999999813
outer loop
vertex 305.472616942433 -0.464177931101204 -2.8301242150262
vertex 305.834395650036 -3.29658293191881 -2.83012594993698
vertex 305.597492470564 -0.76565412472303 -2.83012439968717
endloop
endfacet
facet normal 1.49897355422941e-012 -6.12521957592714e-007 0.999999999999813
outer loop
vertex 305.597492470564 -0.76565412472303 -2.83012439968717
vertex 305.834395650036 -3.29658293191881 -2.83012594993698
vertex 305.796140748811 -1.02453760120614 -2.8301245582593
endloop
endfacet
facet normal 1.49897355422941e-012 -6.12521957592714e-007 0.999999999999813
outer loop
vertex 305.796140748811 -1.02453760120614 -2.8301245582593
vertex 305.834395650036 -3.29658293191881 -2.83012594993698
vertex 306.055024225294 -1.22318587945348 -2.83012467993611
endloop
endfacet
facet normal 1.49897355422941e-012 -6.12521957592714e-007 0.999999999999813
outer loop
vertex 306.055024225294 -1.22318587945348 -2.83012467993611
vertex 305.834395650036 -3.29658293191881 -2.83012594993698
vertex 306.680024225294 -3.40791204588287 -2.83012601812982
endloop
endfacet
facet normal 1.49897355422941e-012 -6.12521957592714e-007 0.999999999999813
outer loop
vertex 306.055024225294 -1.22318587945348 -2.83012467993611
vertex 306.680024225294 -3.40791204588287 -2.83012601812982
vertex 306.356500418916 -1.34806140758427 -2.83012475642556
endloop
endfacet
facet normal 1.49897355422941e-012 -6.12521957592714e-007 0.999999999999813
outer loop
vertex 306.356500418916 -1.34806140758427 -2.83012475642556
vertex 306.680024225294 -3.40791204588287 -2.83012601812982
vertex 306.680024225294 -1.39065412472289 -2.83012478251503
endloop
endfacet
facet normal 1.49897355422941e-012 -6.12521957592714e-007 0.999999999999813
outer loop
vertex 306.680024225294 -1.39065412472289 -2.83012478251503
vertex 306.680024225294 -3.40791204588287 -2.83012601812982
vertex 307.525652800553 -3.29658293191885 -2.83012594993956
endloop
endfacet
facet normal 1.49897355422941e-012 -6.12521957592714e-007 0.999999999999813
outer loop
vertex 306.680024225294 -1.39065412472289 -2.83012478251503
vertex 307.525652800553 -3.29658293191885 -2.83012594993956
vertex 307.003548031672 -1.34806140758427 -2.83012475642655
endloop
endfacet
facet normal 1.49897355422941e-012 -6.12521957592714e-007 0.999999999999813
outer loop
vertex 307.003548031672 -1.34806140758427 -2.83012475642655
vertex 307.525652800553 -3.29658293191885 -2.83012594993956
vertex 307.305024225294 -1.22318587945352 -2.83012467993801
endloop
endfacet
facet normal 1.49897355422941e-012 -6.12521957592714e-007 0.999999999999813
outer loop
vertex 307.305024225294 -1.22318587945352 -2.83012467993801
vertex 307.525652800553 -3.29658293191885 -2.83012594993956
vertex 307.563907701777 -1.02453760120619 -2.83012455826196
endloop
endfacet
facet normal 1.49897355422941e-012 -6.12521957592714e-007 0.999999999999813
outer loop
vertex 307.563907701777 -1.02453760120619 -2.83012455826196
vertex 307.525652800553 -3.29658293191885 -2.83012594993956
vertex 308.313653185874 -2.97018248516337 -2.83012575001327
endloop
endfacet
facet normal 1.49897355422941e-012 -6.12521957592714e-007 0.999999999999813
outer loop
vertex 307.563907701777 -1.02453760120619 -2.83012455826196
vertex 308.313653185874 -2.97018248516337 -2.83012575001327
vertex 307.762555980025 -0.76565412472303 -2.83012439969042
endloop
endfacet
facet normal 1.49897355422941e-012 -6.12521957592714e-007 0.999999999999813
outer loop
vertex 307.762555980025 -0.76565412472303 -2.83012439969042
vertex 308.313653185874 -2.97018248516337 -2.83012575001327
vertex 307.887431508155 -0.464177931101249 -2.83012421502985
endloop
endfacet
facet normal 1.49897355422941e-012 -6.12521957592714e-007 0.999999999999813
outer loop
vertex 307.887431508155 -0.464177931101249 -2.83012421502985
vertex 308.313653185874 -2.97018248516337 -2.83012575001327
vertex 307.930024225294 -0.140654124723172 -2.83012401686449
endloop
endfacet
facet normal 1.49897355422941e-012 -6.12521957592714e-007 0.999999999999813
outer loop
vertex 307.930024225294 -0.140654124723172 -2.83012401686449
vertex 308.313653185874 -2.97018248516337 -2.83012575001327
vertex 307.930024225294 27.8593458752717 -2.83010686624967
endloop
endfacet
facet normal 1.49897355422941e-012 -6.12521957592714e-007 0.999999999999813
outer loop
vertex 305.046395264714 30.6888742357119 -2.8301051330971
vertex 305.430024225294 27.8593458752718 -2.83010686624588
vertex 305.834395650036 31.0152746824674 -2.83010493317081
endloop
endfacet
facet normal 1.49897355422941e-012 -6.12521957592714e-007 0.999999999999813
outer loop
vertex 305.430024225294 27.8593458752718 -2.83010686624588
vertex 305.046395264714 30.6888742357119 -2.8301051330971
vertex 305.430024225294 -0.140654124723127 -2.8301240168607
endloop
endfacet
facet normal 1.49897355422941e-012 -6.12521957592714e-007 0.999999999999813
outer loop
vertex 305.834395650036 31.0152746824674 -2.83010493317081
vertex 305.430024225294 27.8593458752718 -2.83010686624588
vertex 305.472616942433 28.1828696816499 -2.83010666808052
endloop
endfacet
facet normal 1.49897355422941e-012 -6.12521957592714e-007 0.999999999999813
outer loop
vertex 305.834395650036 31.0152746824674 -2.83010493317081
vertex 305.472616942433 28.1828696816499 -2.83010666808052
vertex 305.597492470564 28.4843458752716 -2.83010648341995
endloop
endfacet
facet normal 1.49897355422941e-012 -6.12521957592714e-007 0.999999999999813
outer loop
vertex 305.834395650036 31.0152746824674 -2.83010493317081
vertex 305.597492470564 28.4843458752716 -2.83010648341995
vertex 305.796140748811 28.7432293517548 -2.83010632484841
endloop
endfacet
facet normal 1.49897355422941e-012 -6.12521957592714e-007 0.999999999999813
outer loop
vertex 305.834395650036 31.0152746824674 -2.83010493317081
vertex 305.796140748811 28.7432293517548 -2.83010632484841
vertex 306.055024225294 28.9418776300022 -2.83010620317236
endloop
endfacet
facet normal 1.49897355422941e-012 -6.12521957592714e-007 0.999999999999813
outer loop
vertex 305.834395650036 31.0152746824674 -2.83010493317081
vertex 306.055024225294 28.9418776300022 -2.83010620317236
vertex 306.680024225294 31.1266037964315 -2.83010486498055
endloop
endfacet
facet normal 1.49897355422941e-012 -6.12521957592714e-007 0.999999999999813
outer loop
vertex 306.680024225294 31.1266037964315 -2.83010486498055
vertex 306.055024225294 28.9418776300022 -2.83010620317236
vertex 306.356500418916 29.0667531581329 -2.83010612668381
endloop
endfacet
facet normal 1.49897355422941e-012 -6.12521957592714e-007 0.999999999999813
outer loop
vertex 306.680024225294 31.1266037964315 -2.83010486498055
vertex 306.356500418916 29.0667531581329 -2.83010612668381
vertex 306.680024225294 29.1093458752716 -2.83010610059534
endloop
endfacet
facet normal 1.49897355422941e-012 -6.12521957592714e-007 0.999999999999813
outer loop
vertex 306.680024225294 31.1266037964315 -2.83010486498055
vertex 306.680024225294 29.1093458752716 -2.83010610059534
vertex 307.003548031672 29.0667531581329 -2.83010612668481
endloop
endfacet
facet normal 1.49897355422941e-012 -6.12521957592714e-007 0.999999999999813
outer loop
vertex 306.680024225294 31.1266037964315 -2.83010486498055
vertex 307.003548031672 29.0667531581329 -2.83010612668481
vertex 307.525652800553 31.0152746824675 -2.83010493317334
endloop
endfacet
facet normal 1.49897355422941e-012 -6.12521957592714e-007 0.999999999999813
outer loop
vertex 307.525652800553 31.0152746824675 -2.83010493317334
vertex 307.003548031672 29.0667531581329 -2.83010612668481
vertex 307.305024225294 28.9418776300023 -2.83010620317426
endloop
endfacet
facet normal 1.49897355422941e-012 -6.12521957592714e-007 0.999999999999813
outer loop
vertex 307.525652800553 31.0152746824675 -2.83010493317334
vertex 307.305024225294 28.9418776300023 -2.83010620317426
vertex 307.563907701777 28.7432293517548 -2.83010632485107
endloop
endfacet
facet normal 1.49897355422941e-012 -6.12521957592714e-007 0.999999999999813
outer loop
vertex 307.525652800553 31.0152746824675 -2.83010493317334
vertex 307.563907701777 28.7432293517548 -2.83010632485107
vertex 308.313653185874 30.6888742357119 -2.83010513310197
endloop
endfacet
facet normal 1.49897355422941e-012 -6.12521957592714e-007 0.999999999999813
outer loop
vertex 308.313653185874 30.6888742357119 -2.83010513310197
vertex 307.563907701777 28.7432293517548 -2.83010632485107
vertex 307.762555980025 28.4843458752716 -2.8301064834232
endloop
endfacet
facet normal 1.49897355422941e-012 -6.12521957592714e-007 0.999999999999813
outer loop
vertex 308.313653185874 30.6888742357119 -2.83010513310197
vertex 307.762555980025 28.4843458752716 -2.8301064834232
vertex 307.887431508156 28.1828696816499 -2.83010666808417
endloop
endfacet
facet normal 1.49897355422941e-012 -6.12521957592714e-007 0.999999999999813
outer loop
vertex 308.313653185874 30.6888742357119 -2.83010513310197
vertex 307.887431508156 28.1828696816499 -2.83010666808417
vertex 307.930024225294 27.8593458752717 -2.83010686624967
endloop
endfacet
facet normal 1.49897355422941e-012 -6.12521957592714e-007 0.999999999999813
outer loop
vertex 308.313653185874 30.6888742357119 -2.83010513310197
vertex 307.930024225294 27.8593458752717 -2.83010686624967
vertex 308.313653185874 -2.97018248516337 -2.83012575001327
endloop
endfacet
facet normal 1.49897355422941e-012 -6.12521957592714e-007 0.999999999999813
outer loop
vertex 308.313653185874 30.6888742357119 -2.83010513310197
vertex 308.313653185874 -2.97018248516337 -2.83012575001327
vertex 308.990324457232 -2.45095435666067 -2.83012543197565
endloop
endfacet
facet normal 1.49897355422941e-012 -6.12521957592714e-007 0.999999999999813
outer loop
vertex 308.313653185874 30.6888742357119 -2.83010513310197
vertex 308.990324457232 -2.45095435666067 -2.83012543197565
vertex 308.990324457232 30.1696461072091 -2.83010545114162
endloop
endfacet
facet normal 1.49897355422941e-012 -6.12521957592714e-007 0.999999999999813
outer loop
vertex 308.990324457232 30.1696461072091 -2.83010545114162
vertex 308.990324457232 -2.45095435666067 -2.83012543197565
vertex 309.509552585735 29.4929748358515 -2.8301058656184
endloop
endfacet
facet normal 1.49897355422941e-012 -6.12521957592714e-007 0.999999999999813
outer loop
vertex 309.509552585735 29.4929748358515 -2.8301058656184
vertex 308.990324457232 -2.45095435666067 -2.83012543197565
vertex 309.509552585735 -1.77428308530295 -2.83012501750045
endloop
endfacet
facet normal 1.49897355422941e-012 -6.12521957592714e-007 0.999999999999813
outer loop
vertex 309.509552585735 29.4929748358515 -2.8301058656184
vertex 309.509552585735 -1.77428308530295 -2.83012501750045
vertex 309.835953032491 -0.986282699981262 -2.83012453483341
endloop
endfacet
facet normal 1.49897355422941e-012 -6.12521957592714e-007 0.999999999999813
outer loop
vertex 309.509552585735 29.4929748358515 -2.8301058656184
vertex 309.835953032491 -0.986282699981262 -2.83012453483341
vertex 309.835953032491 28.7049744505299 -2.83010634828644
endloop
endfacet
facet normal 1.49897355422941e-012 -6.12521957592714e-007 0.999999999999813
outer loop
vertex 309.835953032491 28.7049744505299 -2.83010634828644
vertex 309.835953032491 -0.986282699981262 -2.83012453483341
vertex 309.947282146454 -0.140654124723127 -2.83012401686747
endloop
endfacet
facet normal 1.49897355422941e-012 -6.12521957592714e-007 0.999999999999813
outer loop
vertex 309.835953032491 28.7049744505299 -2.83010634828644
vertex 309.947282146454 -0.140654124723127 -2.83012401686747
vertex 309.947282146454 27.8593458752717 -2.83010686625269
endloop
endfacet
facet normal 1.49897355422941e-012 -6.12521957592714e-007 0.999999999999813
outer loop
vertex 305.472616942433 0.182869681654951 -2.83012381869534
vertex 305.430024225294 27.8593458752718 -2.83010686624588
vertex 305.430024225294 -0.140654124723127 -2.8301240168607
endloop
endfacet
facet normal 1.49897355422941e-012 -6.12521957592714e-007 0.999999999999813
outer loop
vertex 305.430024225294 27.8593458752718 -2.83010686624588
vertex 305.472616942433 0.182869681654951 -2.83012381869534
vertex 305.472616942433 27.5358220688936 -2.83010706441138
endloop
endfacet
facet normal 1.49897355422941e-012 -6.12521957592714e-007 0.999999999999813
outer loop
vertex 305.472616942433 27.5358220688936 -2.83010706441138
vertex 305.472616942433 0.182869681654951 -2.83012381869534
vertex 305.597492470564 0.484345875276776 -2.83012363403473
endloop
endfacet
facet normal 1.49897355422941e-012 -6.12521957592714e-007 0.999999999999813
outer loop
vertex 305.472616942433 27.5358220688936 -2.83010706441138
vertex 305.597492470564 0.484345875276776 -2.83012363403473
vertex 305.597492470564 27.2343458752719 -2.83010724907235
endloop
endfacet
facet normal 1.49897355422941e-012 -6.12521957592714e-007 0.999999999999813
outer loop
vertex 305.597492470564 27.2343458752719 -2.83010724907235
vertex 305.597492470564 0.484345875276776 -2.83012363403473
vertex 305.796140748811 0.743229351759936 -2.83012347546323
endloop
endfacet
facet normal 1.49897355422941e-012 -6.12521957592714e-007 0.999999999999813
outer loop
vertex 305.597492470564 27.2343458752719 -2.83010724907235
vertex 305.796140748811 0.743229351759936 -2.83012347546323
vertex 305.796140748811 26.9754623987888 -2.83010740764448
endloop
endfacet
facet normal 1.49897355422941e-012 -6.12521957592714e-007 0.999999999999813
outer loop
vertex 305.796140748811 26.9754623987888 -2.83010740764448
vertex 305.796140748811 0.743229351759936 -2.83012347546323
vertex 306.055024225294 0.941877630007224 -2.83012335378718
endloop
endfacet
facet normal 1.49897355422941e-012 -6.12521957592714e-007 0.999999999999813
outer loop
vertex 305.796140748811 26.9754623987888 -2.83010740764448
vertex 306.055024225294 0.941877630007224 -2.83012335378718
vertex 306.055024225294 26.7768141205415 -2.83010752932129
endloop
endfacet
facet normal 1.49897355422941e-012 -6.12521957592714e-007 0.999999999999813
outer loop
vertex 306.055024225294 26.7768141205415 -2.83010752932129
vertex 306.055024225294 0.941877630007224 -2.83012335378718
vertex 306.356500418916 1.06675315813797 -2.83012327729864
endloop
endfacet
facet normal 1.49897355422941e-012 -6.12521957592714e-007 0.999999999999813
outer loop
vertex 306.055024225294 26.7768141205415 -2.83010752932129
vertex 306.356500418916 1.06675315813797 -2.83012327729864
vertex 306.356500418916 26.6519385924107 -2.83010760581074
endloop
endfacet
facet normal 1.49897355422941e-012 -6.12521957592714e-007 0.999999999999813
outer loop
vertex 306.356500418916 26.6519385924107 -2.83010760581074
vertex 306.356500418916 1.06675315813797 -2.83012327729864
vertex 306.680024225294 1.10934587527659 -2.83012325121016
endloop
endfacet
facet normal 1.49897355422941e-012 -6.12521957592714e-007 0.999999999999813
outer loop
vertex 306.356500418916 26.6519385924107 -2.83010760581074
vertex 306.680024225294 1.10934587527659 -2.83012325121016
vertex 306.680024225294 26.6093458752721 -2.83010763190021
endloop
endfacet
facet normal 1.49897355422941e-012 -6.12521957592714e-007 0.999999999999813
outer loop
vertex 306.680024225294 26.6093458752721 -2.83010763190021
vertex 306.680024225294 1.10934587527659 -2.83012325121016
vertex 307.003548031672 1.06675315813792 -2.83012327729963
endloop
endfacet
facet normal 1.49897355422941e-012 -6.12521957592714e-007 0.999999999999813
outer loop
vertex 306.680024225294 26.6093458752721 -2.83010763190021
vertex 307.003548031672 1.06675315813792 -2.83012327729963
vertex 307.003548031672 26.6519385924108 -2.83010760581173
endloop
endfacet
facet normal 1.49897355422941e-012 -6.12521957592714e-007 0.999999999999813
outer loop
vertex 307.003548031672 26.6519385924108 -2.83010760581173
vertex 307.003548031672 1.06675315813792 -2.83012327729963
vertex 307.305024225294 0.941877630007179 -2.83012335378903
endloop
endfacet
facet normal 1.49897355422941e-012 -6.12521957592714e-007 0.999999999999813
outer loop
vertex 307.003548031672 26.6519385924108 -2.83010760581173
vertex 307.305024225294 0.941877630007179 -2.83012335378903
vertex 307.305024225294 26.7768141205416 -2.83010752932319
endloop
endfacet
facet normal 1.49897355422941e-012 -6.12521957592714e-007 0.999999999999813
outer loop
vertex 307.305024225294 26.7768141205416 -2.83010752932319
vertex 307.305024225294 0.941877630007179 -2.83012335378903
vertex 307.563907701777 0.743229351759891 -2.83012347546589
endloop
endfacet
facet normal 1.49897355422941e-012 -6.12521957592714e-007 0.999999999999813
outer loop
vertex 307.305024225294 26.7768141205416 -2.83010752932319
vertex 307.563907701777 0.743229351759891 -2.83012347546589
vertex 307.563907701777 26.9754623987888 -2.83010740764714
endloop
endfacet
facet normal 1.49897355422941e-012 -6.12521957592714e-007 0.999999999999813
outer loop
vertex 307.563907701777 26.9754623987888 -2.83010740764714
vertex 307.563907701777 0.743229351759891 -2.83012347546589
vertex 307.762555980025 0.484345875276731 -2.83012363403798
endloop
endfacet
facet normal 1.49897355422941e-012 -6.12521957592714e-007 0.999999999999813
outer loop
vertex 307.563907701777 26.9754623987888 -2.83010740764714
vertex 307.762555980025 0.484345875276731 -2.83012363403798
vertex 307.762555980025 27.2343458752719 -2.83010724907559
endloop
endfacet
facet normal 1.49897355422941e-012 -6.12521957592714e-007 0.999999999999813
outer loop
vertex 307.762555980025 27.2343458752719 -2.83010724907559
vertex 307.762555980025 0.484345875276731 -2.83012363403798
vertex 307.887431508155 0.182869681654906 -2.83012381869899
endloop
endfacet
facet normal 1.49897355422941e-012 -6.12521957592714e-007 0.999999999999813
outer loop
vertex 307.762555980025 27.2343458752719 -2.83010724907559
vertex 307.887431508155 0.182869681654906 -2.83012381869899
vertex 307.887431508156 27.5358220688937 -2.83010706441503
endloop
endfacet
facet normal 1.49897355422941e-012 -6.12521957592714e-007 0.999999999999813
outer loop
vertex 307.887431508156 27.5358220688937 -2.83010706441503
vertex 307.887431508155 0.182869681654906 -2.83012381869899
vertex 307.930024225294 -0.140654124723172 -2.83012401686449
endloop
endfacet
facet normal 1.49897355422941e-012 -6.12521957592714e-007 0.999999999999813
outer loop
vertex 307.887431508156 27.5358220688937 -2.83010706441503
vertex 307.930024225294 -0.140654124723172 -2.83012401686449
vertex 307.930024225294 27.8593458752717 -2.83010686624967
endloop
endfacet
facet normal 0.991444861373834 0.130526192219844 7.99486726260088e-008
outer loop
vertex 309.94728214645 27.8593477128376 -5.83010686625213
vertex 309.835953032491 28.7049744505299 -2.83010634828644
vertex 309.947282146454 27.8593458752717 -2.83010686625269
endloop
endfacet
facet normal 0.965925826289072 0.258819045102457 1.58530900271195e-007
outer loop
vertex 309.835953032491 28.7049744505299 -2.83010634828644
vertex 309.94728214645 27.8593477128376 -5.83010686625213
vertex 309.835953032486 28.7049762880958 -5.83010634828587
endloop
endfacet
facet normal 0.965925826289073 0.258819045102455 1.58530900271194e-007
outer loop
vertex 309.835953032486 28.7049762880958 -5.83010634828587
vertex 309.509552585735 29.4929748358515 -2.8301058656184
vertex 309.835953032491 28.7049744505299 -2.83010634828644
endloop
endfacet
facet normal 0.866025403784399 0.499999999999974 3.06259680647221e-007
outer loop
vertex 309.509552585735 29.4929748358515 -2.8301058656184
vertex 309.835953032486 28.7049762880958 -5.83010634828587
vertex 309.50955258573 29.4929766734173 -5.83010586561784
endloop
endfacet
facet normal 0.866025403784399 0.499999999999975 3.06259680647222e-007
outer loop
vertex 309.50955258573 29.4929766734173 -5.83010586561784
vertex 308.990324457232 30.1696461072091 -2.83010545114162
vertex 309.509552585735 29.4929748358515 -2.8301058656184
endloop
endfacet
facet normal 0.707106781186582 0.70710678118638 4.33117369905081e-007
outer loop
vertex 308.990324457232 30.1696461072091 -2.83010545114162
vertex 309.50955258573 29.4929766734173 -5.83010586561784
vertex 308.990324457228 30.169647944775 -5.83010545114106
endloop
endfacet
facet normal 0.500000000000091 0.866025403784223 5.30458826164256e-007
outer loop
vertex 308.31365318587 30.6888760732778 -5.83010513310141
vertex 308.990324457232 30.1696461072091 -2.83010545114162
vertex 308.990324457228 30.169647944775 -5.83010545114106
endloop
endfacet
facet normal 0.707106781186582 0.70710678118638 4.33117369905081e-007
outer loop
vertex 308.990324457232 30.1696461072091 -2.83010545114162
vertex 308.31365318587 30.6888760732778 -5.83010513310141
vertex 308.313653185874 30.6888742357119 -2.83010513310197
endloop
endfacet
facet normal 0.258819045102587 0.965925826288869 5.91650390045025e-007
outer loop
vertex 307.525652800548 31.0152765200333 -5.83010493317278
vertex 308.313653185874 30.6888742357119 -2.83010513310197
vertex 308.31365318587 30.6888760732778 -5.83010513310141
endloop
endfacet
facet normal 0.50000000000009 0.866025403784224 5.30458826164256e-007
outer loop
vertex 308.313653185874 30.6888742357119 -2.83010513310197
vertex 307.525652800548 31.0152765200333 -5.83010493317278
vertex 307.525652800553 31.0152746824675 -2.83010493317334
endloop
endfacet
facet normal -6.70917464043264e-014 0.999999999999812 6.12521957592714e-007
outer loop
vertex 306.68002422529 31.1266056339974 -5.83010486497998
vertex 307.525652800553 31.0152746824675 -2.83010493317334
vertex 307.525652800548 31.0152765200333 -5.83010493317278
endloop
endfacet
facet normal 0.258819045102587 0.965925826288869 5.91650390045025e-007
outer loop
vertex 307.525652800553 31.0152746824675 -2.83010493317334
vertex 306.68002422529 31.1266056339974 -5.83010486497998
vertex 306.680024225294 31.1266037964315 -2.83010486498055
endloop
endfacet
facet normal -0.258819045102622 0.96592582628886 5.91651165970828e-007
outer loop
vertex 305.834395650036 31.0152746824674 -2.83010493317081
vertex 306.68002422529 31.1266056339974 -5.83010486497998
vertex 305.834395650031 31.0152765200332 -5.83010493317025
endloop
endfacet
facet normal -6.70917464043264e-014 0.999999999999812 6.12521957592714e-007
outer loop
vertex 306.68002422529 31.1266056339974 -5.83010486497998
vertex 305.834395650036 31.0152746824674 -2.83010493317081
vertex 306.680024225294 31.1266037964315 -2.83010486498055
endloop
endfacet
facet normal -0.499999999999982 0.866025403784286 5.30460325137849e-007
outer loop
vertex 305.046395264714 30.6888742357119 -2.8301051330971
vertex 305.834395650031 31.0152765200332 -5.83010493317025
vertex 305.04639526471 30.6888760732778 -5.83010513309653
endloop
endfacet
facet normal -0.258819045102625 0.965925826288859 5.91651165970827e-007
outer loop
vertex 305.834395650031 31.0152765200332 -5.83010493317025
vertex 305.046395264714 30.6888742357119 -2.8301051330971
vertex 305.834395650036 31.0152746824674 -2.83010493317081
endloop
endfacet
facet normal -0.707106781186492 0.707106781186471 4.33119489773867e-007
outer loop
vertex 304.369723993356 30.1696461072091 -2.83010545113467
vertex 305.04639526471 30.6888760732778 -5.83010513309653
vertex 304.369723993352 30.169647944775 -5.83010545113411
endloop
endfacet
facet normal -0.499999999999982 0.866025403784287 5.30460325137849e-007
outer loop
vertex 305.04639526471 30.6888760732778 -5.83010513309653
vertex 304.369723993356 30.1696461072091 -2.83010545113467
vertex 305.046395264714 30.6888742357119 -2.8301051330971
endloop
endfacet
facet normal -0.707106781186492 0.707106781186471 4.33119489773867e-007
outer loop
vertex 304.369723993356 30.1696461072091 -2.83010545113467
vertex 303.850495864849 29.4929766734174 -5.83010586560936
vertex 303.850495864853 29.4929748358516 -2.83010586560992
endloop
endfacet
facet normal -0.866025403784432 0.499999999999918 3.06262276945542e-007
outer loop
vertex 303.850495864849 29.4929766734174 -5.83010586560936
vertex 304.369723993356 30.1696461072091 -2.83010545113467
vertex 304.369723993352 30.169647944775 -5.83010545113411
endloop
endfacet
facet normal -0.866025403784432 0.499999999999919 3.06262276945542e-007
outer loop
vertex 303.850495864853 29.4929748358516 -2.83010586560992
vertex 303.524095418093 28.7049762880959 -5.8301063482764
vertex 303.524095418098 28.70497445053 -2.83010634827696
endloop
endfacet
facet normal -0.965925826289073 0.258819045102455 1.58533796065731e-007
outer loop
vertex 303.524095418093 28.7049762880959 -5.8301063482764
vertex 303.850495864853 29.4929748358516 -2.83010586560992
vertex 303.850495864849 29.4929766734174 -5.83010586560936
endloop
endfacet
facet normal -0.965925826289072 0.258819045102458 1.58533796065733e-007
outer loop
vertex 303.524095418098 28.70497445053 -2.83010634827696
vertex 303.412766304129 27.8593477128376 -5.83010686624234
vertex 303.412766304134 27.8593458752717 -2.8301068662429
endloop
endfacet
facet normal -0.991444861373809 0.130526192220038 7.99516449253832e-008
outer loop
vertex 303.412766304129 27.8593477128376 -5.83010686624234
vertex 303.524095418098 28.70497445053 -2.83010634827696
vertex 303.524095418093 28.7049762880959 -5.8301063482764
endloop
endfacet
facet normal -1.0 3.22190068298312e-015 1.49897355620318e-012
outer loop
vertex 303.412766304134 27.8593458752717 -2.8301068662429
vertex 303.412766304129 -0.140652287157254 -5.83012401685711
vertex 303.412766304134 -0.140654124723127 -2.83012401685768
endloop
endfacet
facet normal -1.0 3.22190068298312e-015 1.49897355620318e-012
outer loop
vertex 303.412766304129 -0.140652287157254 -5.83012401685711
vertex 303.412766304134 27.8593458752717 -2.8301068662429
vertex 303.412766304129 27.8593477128376 -5.83010686624234
endloop
endfacet
facet normal -0.991444861373793 -0.130526192220162 -7.99486726262042e-008
outer loop
vertex 303.412766304134 -0.140654124723127 -2.83012401685768
vertex 303.524095418093 -0.986280862415435 -5.83012453482337
vertex 303.524095418098 -0.986282699981307 -2.83012453482393
endloop
endfacet
facet normal -0.965925826289061 -0.258819045102498 -1.5853090027122e-007
outer loop
vertex 303.524095418093 -0.986280862415435 -5.83012453482337
vertex 303.412766304134 -0.140654124723127 -2.83012401685768
vertex 303.412766304129 -0.140652287157254 -5.83012401685711
endloop
endfacet
facet normal -0.965925826289062 -0.258819045102496 -1.58530900271219e-007
outer loop
vertex 303.524095418098 -0.986282699981307 -2.83012453482393
vertex 303.850495864849 -1.77428124773708 -5.8301250174914
vertex 303.850495864853 -1.77428308530295 -2.83012501749197
endloop
endfacet
facet normal -0.866025403784458 -0.499999999999872 -3.06259680647159e-007
outer loop
vertex 303.850495864849 -1.77428124773708 -5.8301250174914
vertex 303.524095418098 -0.986282699981307 -2.83012453482393
vertex 303.524095418093 -0.986280862415435 -5.83012453482337
endloop
endfacet
facet normal -0.866025403784458 -0.499999999999873 -3.06259680647159e-007
outer loop
vertex 303.850495864853 -1.77428308530295 -2.83012501749197
vertex 304.369723993352 -2.45095251909475 -5.83012543196818
vertex 304.369723993356 -2.45095435666063 -2.83012543196875
endloop
endfacet
facet normal -0.707106781186544 -0.707106781186418 -4.33117369905104e-007
outer loop
vertex 304.369723993352 -2.45095251909475 -5.83012543196818
vertex 303.850495864853 -1.77428308530295 -2.83012501749197
vertex 303.850495864849 -1.77428124773708 -5.8301250174914
endloop
endfacet
facet normal -0.499999999999983 -0.866025403784286 -5.30458826164294e-007
outer loop
vertex 305.046395264714 -2.97018248516337 -2.8301257500084
vertex 304.369723993352 -2.45095251909475 -5.83012543196818
vertex 305.04639526471 -2.9701806475975 -5.83012575000784
endloop
endfacet
facet normal -0.707106781186544 -0.707106781186418 -4.33117369905104e-007
outer loop
vertex 304.369723993352 -2.45095251909475 -5.83012543196818
vertex 305.046395264714 -2.97018248516337 -2.8301257500084
vertex 304.369723993356 -2.45095435666063 -2.83012543196875
endloop
endfacet
facet normal -0.258819045102534 -0.965925826288884 -5.91650390045034e-007
outer loop
vertex 305.834395650036 -3.29658293191881 -2.83012594993698
vertex 305.04639526471 -2.9701806475975 -5.83012575000784
vertex 305.834395650031 -3.29658109435293 -5.83012594993642
endloop
endfacet
facet normal -0.499999999999986 -0.866025403784284 -5.30458826164293e-007
outer loop
vertex 305.04639526471 -2.9701806475975 -5.83012575000784
vertex 305.834395650036 -3.29658293191881 -2.83012594993698
vertex 305.046395264714 -2.97018248516337 -2.8301257500084
endloop
endfacet
facet normal -2.76244406765051e-014 -0.999999999999812 -6.12521957592714e-007
outer loop
vertex 306.680024225294 -3.40791204588287 -2.83012601812982
vertex 305.834395650031 -3.29658109435293 -5.83012594993642
vertex 306.68002422529 -3.40791020831699 -5.83012601812926
endloop
endfacet
facet normal -0.258819045102534 -0.965925826288884 -5.91650390045034e-007
outer loop
vertex 305.834395650031 -3.29658109435293 -5.83012594993642
vertex 306.680024225294 -3.40791204588287 -2.83012601812982
vertex 305.834395650036 -3.29658293191881 -2.83012594993698
endloop
endfacet
facet normal 0.25881904510253 -0.965925826288885 -5.91651165970843e-007
outer loop
vertex 307.525652800548 -3.29658109435298 -5.83012594993899
vertex 306.680024225294 -3.40791204588287 -2.83012601812982
vertex 306.68002422529 -3.40791020831699 -5.83012601812926
endloop
endfacet
facet normal -2.76244406765051e-014 -0.999999999999812 -6.12521957592714e-007
outer loop
vertex 306.680024225294 -3.40791204588287 -2.83012601812982
vertex 307.525652800548 -3.29658109435298 -5.83012594993899
vertex 307.525652800553 -3.29658293191885 -2.83012594993956
endloop
endfacet
facet normal 0.499999999999958 -0.8660254037843 -5.30460325137857e-007
outer loop
vertex 308.31365318587 -2.9701806475975 -5.83012575001271
vertex 307.525652800553 -3.29658293191885 -2.83012594993956
vertex 307.525652800548 -3.29658109435298 -5.83012594993899
endloop
endfacet
facet normal 0.258819045102534 -0.965925826288884 -5.91651165970842e-007
outer loop
vertex 307.525652800553 -3.29658293191885 -2.83012594993956
vertex 308.31365318587 -2.9701806475975 -5.83012575001271
vertex 308.313653185874 -2.97018248516337 -2.83012575001327
endloop
endfacet
facet normal 0.707106781186578 -0.707106781186384 -4.33119489773813e-007
outer loop
vertex 308.990324457228 -2.4509525190948 -5.83012543197509
vertex 308.313653185874 -2.97018248516337 -2.83012575001327
vertex 308.31365318587 -2.9701806475975 -5.83012575001271
endloop
endfacet
facet normal 0.499999999999962 -0.866025403784298 -5.30460325137856e-007
outer loop
vertex 308.313653185874 -2.97018248516337 -2.83012575001327
vertex 308.990324457228 -2.4509525190948 -5.83012543197509
vertex 308.990324457232 -2.45095435666067 -2.83012543197565
endloop
endfacet
facet normal 0.707106781186578 -0.707106781186384 -4.33119489773813e-007
outer loop
vertex 308.990324457228 -2.4509525190948 -5.83012543197509
vertex 309.509552585735 -1.77428308530295 -2.83012501750045
vertex 308.990324457232 -2.45095435666067 -2.83012543197565
endloop
endfacet
facet normal 0.866025403784463 -0.499999999999864 -3.06262276945509e-007
outer loop
vertex 309.509552585735 -1.77428308530295 -2.83012501750045
vertex 308.990324457228 -2.4509525190948 -5.83012543197509
vertex 309.50955258573 -1.77428124773708 -5.83012501749989
endloop
endfacet
facet normal 0.866025403784465 -0.49999999999986 -3.06262276945507e-007
outer loop
vertex 309.50955258573 -1.77428124773708 -5.83012501749989
vertex 309.835953032491 -0.986282699981262 -2.83012453483341
vertex 309.509552585735 -1.77428308530295 -2.83012501750045
endloop
endfacet
facet normal 0.965925826289065 -0.258819045102483 -1.58533796065748e-007
outer loop
vertex 309.835953032491 -0.986282699981262 -2.83012453483341
vertex 309.50955258573 -1.77428124773708 -5.83012501749989
vertex 309.835953032486 -0.98628086241539 -5.83012453483284
endloop
endfacet
facet normal 0.965925826289065 -0.258819045102485 -1.5853379606575e-007
outer loop
vertex 309.835953032486 -0.98628086241539 -5.83012453483284
vertex 309.947282146454 -0.140654124723127 -2.83012401686747
vertex 309.835953032491 -0.986282699981262 -2.83012453483341
endloop
endfacet
facet normal 0.991444861373819 -0.130526192219961 -7.99516449253363e-008
outer loop
vertex 309.947282146454 -0.140654124723127 -2.83012401686747
vertex 309.835953032486 -0.98628086241539 -5.83012453483284
vertex 309.94728214645 -0.140652287157254 -5.8301240168669
endloop
endfacet
facet normal 1.0 9.18154213867032e-019 -1.49897355422913e-012
outer loop
vertex 309.94728214645 -0.140652287157254 -5.8301240168669
vertex 309.947282146454 27.8593458752717 -2.83010686625269
vertex 309.947282146454 -0.140654124723127 -2.83012401686747
endloop
endfacet
facet normal 1.0 9.18154213867032e-019 -1.49897355422913e-012
outer loop
vertex 309.947282146454 27.8593458752717 -2.83010686625269
vertex 309.94728214645 -0.140652287157254 -5.8301240168669
vertex 309.94728214645 27.8593477128376 -5.83010686625213
endloop
endfacet
facet normal -1.16539495215268e-013 0.999999999999812 6.12521957592714e-007
outer loop
vertex 306.680024225294 26.6093458752721 -2.83010763190021
vertex 307.003548031668 26.6519404299767 -5.83010760581117
vertex 306.68002422529 26.609347712838 -5.83010763189965
endloop
endfacet
facet normal -0.258819045102511 0.965925826288889 5.91651165970846e-007
outer loop
vertex 307.003548031668 26.6519404299767 -5.83010760581117
vertex 306.680024225294 26.6093458752721 -2.83010763190021
vertex 307.003548031672 26.6519385924108 -2.83010760581173
endloop
endfacet
facet normal 0.258819045102395 0.965925826288921 5.91650390045057e-007
outer loop
vertex 306.356500418912 26.6519404299766 -5.83010760581018
vertex 306.680024225294 26.6093458752721 -2.83010763190021
vertex 306.68002422529 26.609347712838 -5.83010763189965
endloop
endfacet
facet normal -1.16539495215268e-013 0.999999999999812 6.12521957592714e-007
outer loop
vertex 306.680024225294 26.6093458752721 -2.83010763190021
vertex 306.356500418912 26.6519404299766 -5.83010760581018
vertex 306.356500418916 26.6519385924107 -2.83010760581074
endloop
endfacet
facet normal 0.499999999999896 0.866025403784336 5.30458826164325e-007
outer loop
vertex 306.05502422529 26.7768159581073 -5.83010752932073
vertex 306.356500418916 26.6519385924107 -2.83010760581074
vertex 306.356500418912 26.6519404299766 -5.83010760581018
endloop
endfacet
facet normal 0.258819045102395 0.965925826288921 5.91650390045057e-007
outer loop
vertex 306.356500418916 26.6519385924107 -2.83010760581074
vertex 306.05502422529 26.7768159581073 -5.83010752932073
vertex 306.055024225294 26.7768141205415 -2.83010752932129
endloop
endfacet
facet normal 0.707106781186473 0.707106781186489 4.33117369905148e-007
outer loop
vertex 305.796140748806 26.9754642363546 -5.83010740764391
vertex 306.055024225294 26.7768141205415 -2.83010752932129
vertex 306.05502422529 26.7768159581073 -5.83010752932073
endloop
endfacet
facet normal 0.499999999999893 0.866025403784338 5.30458826164326e-007
outer loop
vertex 306.055024225294 26.7768141205415 -2.83010752932129
vertex 305.796140748806 26.9754642363546 -5.83010740764391
vertex 305.796140748811 26.9754623987888 -2.83010740764448
endloop
endfacet
facet normal 0.707106781186473 0.707106781186489 4.33117369905148e-007
outer loop
vertex 305.796140748806 26.9754642363546 -5.83010740764391
vertex 305.597492470564 27.2343458752719 -2.83010724907235
vertex 305.796140748811 26.9754623987888 -2.83010740764448
endloop
endfacet
facet normal 0.866025403784519 0.499999999999767 3.06259680647094e-007
outer loop
vertex 305.597492470564 27.2343458752719 -2.83010724907235
vertex 305.796140748806 26.9754642363546 -5.83010740764391
vertex 305.597492470559 27.2343477128378 -5.83010724907178
endloop
endfacet
facet normal 0.866025403784518 0.499999999999769 3.06259680647096e-007
outer loop
vertex 305.597492470559 27.2343477128378 -5.83010724907178
vertex 305.472616942433 27.5358220688936 -2.83010706441138
vertex 305.597492470564 27.2343458752719 -2.83010724907235
endloop
endfacet
facet normal 0.965925826289074 0.258819045102452 1.58530900271192e-007
outer loop
vertex 305.472616942433 27.5358220688936 -2.83010706441138
vertex 305.597492470559 27.2343477128378 -5.83010724907178
vertex 305.472616942428 27.5358239064595 -5.83010706441081
endloop
endfacet
facet normal 0.965925826289074 0.25881904510245 1.58530900271191e-007
outer loop
vertex 305.472616942428 27.5358239064595 -5.83010706441081
vertex 305.430024225294 27.8593458752718 -2.83010686624588
vertex 305.472616942433 27.5358220688936 -2.83010706441138
endloop
endfacet
facet normal 1.0 1.38585581097104e-013 -1.4989734693395e-012
outer loop
vertex 305.430024225294 27.8593458752718 -2.83010686624588
vertex 305.472616942428 27.5358239064595 -5.83010706441081
vertex 305.43002422529 27.8593477128376 -5.83010686624532
endloop
endfacet
facet normal 1.0 1.35591448172165e-013 -1.49897347117511e-012
outer loop
vertex 305.43002422529 27.8593477128376 -5.83010686624532
vertex 305.472616942433 28.1828696816499 -2.83010666808052
vertex 305.430024225294 27.8593458752718 -2.83010686624588
endloop
endfacet
facet normal 0.965925826289078 -0.258819045102437 -1.5853379606572e-007
outer loop
vertex 305.472616942433 28.1828696816499 -2.83010666808052
vertex 305.43002422529 27.8593477128376 -5.83010686624532
vertex 305.472616942428 28.1828715192158 -5.83010666807995
endloop
endfacet
facet normal 0.965925826289075 -0.258819045102448 -1.58533796065727e-007
outer loop
vertex 305.472616942428 28.1828715192158 -5.83010666807995
vertex 305.597492470564 28.4843458752716 -2.83010648341995
vertex 305.472616942433 28.1828696816499 -2.83010666808052
endloop
endfacet
facet normal 0.866025403784455 -0.499999999999878 -3.06262276945517e-007
outer loop
vertex 305.597492470564 28.4843458752716 -2.83010648341995
vertex 305.472616942428 28.1828715192158 -5.83010666807995
vertex 305.597492470559 28.4843477128375 -5.83010648341939
endloop
endfacet
facet normal 0.866025403784454 -0.499999999999879 -3.06262276945518e-007
outer loop
vertex 305.597492470559 28.4843477128375 -5.83010648341939
vertex 305.796140748811 28.7432293517548 -2.83010632484841
vertex 305.597492470564 28.4843458752716 -2.83010648341995
endloop
endfacet
facet normal 0.707106781186608 -0.707106781186354 -4.33119489773795e-007
outer loop
vertex 305.796140748811 28.7432293517548 -2.83010632484841
vertex 305.597492470559 28.4843477128375 -5.83010648341939
vertex 305.796140748806 28.7432311893207 -5.83010632484785
endloop
endfacet
facet normal 0.500000000000017 -0.866025403784266 -5.30460325137836e-007
outer loop
vertex 306.05502422529 28.941879467568 -5.8301062031718
vertex 305.796140748811 28.7432293517548 -2.83010632484841
vertex 305.796140748806 28.7432311893207 -5.83010632484785
endloop
endfacet
facet normal 0.707106781186608 -0.707106781186354 -4.33119489773795e-007
outer loop
vertex 305.796140748811 28.7432293517548 -2.83010632484841
vertex 306.05502422529 28.941879467568 -5.8301062031718
vertex 306.055024225294 28.9418776300022 -2.83010620317236
endloop
endfacet
facet normal 0.258819045102492 -0.965925826288895 -5.91651165970849e-007
outer loop
vertex 306.356500418912 29.0667549956988 -5.83010612668325
vertex 306.055024225294 28.9418776300022 -2.83010620317236
vertex 306.05502422529 28.941879467568 -5.8301062031718
endloop
endfacet
facet normal 0.500000000000016 -0.866025403784267 -5.30460325137837e-007
outer loop
vertex 306.055024225294 28.9418776300022 -2.83010620317236
vertex 306.356500418912 29.0667549956988 -5.83010612668325
vertex 306.356500418916 29.0667531581329 -2.83010612668381
endloop
endfacet
facet normal 3.35948843065889e-014 -0.999999999999812 -6.12521957592714e-007
outer loop
vertex 306.68002422529 29.1093477128374 -5.83010610059477
vertex 306.356500418916 29.0667531581329 -2.83010612668381
vertex 306.356500418912 29.0667549956988 -5.83010612668325
endloop
endfacet
facet normal 0.258819045102495 -0.965925826288894 -5.91651165970848e-007
outer loop
vertex 306.356500418916 29.0667531581329 -2.83010612668381
vertex 306.68002422529 29.1093477128374 -5.83010610059477
vertex 306.680024225294 29.1093458752716 -2.83010610059534
endloop
endfacet
facet normal -0.258819045102335 -0.965925826288937 -5.91650390045067e-007
outer loop
vertex 307.003548031672 29.0667531581329 -2.83010612668481
vertex 306.68002422529 29.1093477128374 -5.83010610059477
vertex 307.003548031668 29.0667549956988 -5.83010612668424
endloop
endfacet
facet normal 3.35948843065889e-014 -0.999999999999812 -6.12521957592714e-007
outer loop
vertex 306.68002422529 29.1093477128374 -5.83010610059477
vertex 307.003548031672 29.0667531581329 -2.83010612668481
vertex 306.680024225294 29.1093458752716 -2.83010610059534
endloop
endfacet
facet normal -0.500000000000003 -0.866025403784275 -5.30458826164287e-007
outer loop
vertex 307.305024225294 28.9418776300023 -2.83010620317426
vertex 307.003548031668 29.0667549956988 -5.83010612668424
vertex 307.30502422529 28.9418794675681 -5.83010620317369
endloop
endfacet
facet normal -0.258819045102336 -0.965925826288937 -5.91650390045067e-007
outer loop
vertex 307.003548031668 29.0667549956988 -5.83010612668424
vertex 307.305024225294 28.9418776300023 -2.83010620317426
vertex 307.003548031672 29.0667531581329 -2.83010612668481
endloop
endfacet
facet normal -0.707106781186611 -0.707106781186352 -4.33117369905064e-007
outer loop
vertex 307.563907701777 28.7432293517548 -2.83010632485107
vertex 307.30502422529 28.9418794675681 -5.83010620317369
vertex 307.563907701773 28.7432311893207 -5.83010632485051
endloop
endfacet
facet normal -0.5 -0.866025403784277 -5.30458826164288e-007
outer loop
vertex 307.30502422529 28.9418794675681 -5.83010620317369
vertex 307.563907701777 28.7432293517548 -2.83010632485107
vertex 307.305024225294 28.9418776300023 -2.83010620317426
endloop
endfacet
facet normal -0.707106781186611 -0.707106781186352 -4.33117369905064e-007
outer loop
vertex 307.563907701777 28.7432293517548 -2.83010632485107
vertex 307.76255598002 28.4843477128375 -5.83010648342264
vertex 307.762555980025 28.4843458752716 -2.8301064834232
endloop
endfacet
facet normal -0.8660254037844 -0.499999999999972 -3.0625968064722e-007
outer loop
vertex 307.76255598002 28.4843477128375 -5.83010648342264
vertex 307.563907701777 28.7432293517548 -2.83010632485107
vertex 307.563907701773 28.7432311893207 -5.83010632485051
endloop
endfacet
facet normal -0.866025403784399 -0.499999999999975 -3.06259680647222e-007
outer loop
vertex 307.762555980025 28.4843458752716 -2.8301064834232
vertex 307.887431508151 28.1828715192158 -5.83010666808361
vertex 307.887431508156 28.1828696816499 -2.83010666808417
endloop
endfacet
facet normal -0.965925826289081 -0.258819045102426 -1.58530900271176e-007
outer loop
vertex 307.887431508151 28.1828715192158 -5.83010666808361
vertex 307.762555980025 28.4843458752716 -2.8301064834232
vertex 307.76255598002 28.4843477128375 -5.83010648342264
endloop
endfacet
facet normal -0.965925826289081 -0.258819045102424 -1.58530900271175e-007
outer loop
vertex 307.887431508156 28.1828696816499 -2.83010666808417
vertex 307.93002422529 27.8593477128376 -5.83010686624911
vertex 307.930024225294 27.8593458752717 -2.83010686624967
endloop
endfacet
facet normal -1.0 5.26468372634823e-014 1.498973586463e-012
outer loop
vertex 307.93002422529 27.8593477128376 -5.83010686624911
vertex 307.887431508156 28.1828696816499 -2.83010666808417
vertex 307.887431508151 28.1828715192158 -5.83010666808361
endloop
endfacet
facet normal -1.0 5.56409701884189e-014 1.49897358829861e-012
outer loop
vertex 307.930024225294 27.8593458752717 -2.83010686624967
vertex 307.887431508151 27.5358239064596 -5.83010706441447
vertex 307.887431508156 27.5358220688937 -2.83010706441503
endloop
endfacet
facet normal -0.965925826289082 0.25881904510242 1.5853379606571e-007
outer loop
vertex 307.887431508151 27.5358239064596 -5.83010706441447
vertex 307.930024225294 27.8593458752717 -2.83010686624967
vertex 307.93002422529 27.8593477128376 -5.83010686624911
endloop
endfacet
facet normal -0.965925826289079 0.258819045102432 1.58533796065717e-007
outer loop
vertex 307.887431508156 27.5358220688937 -2.83010706441503
vertex 307.76255598002 27.2343477128378 -5.83010724907503
vertex 307.762555980025 27.2343458752719 -2.83010724907559
endloop
endfacet
facet normal -0.866025403784372 0.500000000000022 3.06262276945606e-007
outer loop
vertex 307.76255598002 27.2343477128378 -5.83010724907503
vertex 307.887431508156 27.5358220688937 -2.83010706441503
vertex 307.887431508151 27.5358239064596 -5.83010706441447
endloop
endfacet
facet normal -0.866025403784371 0.500000000000024 3.06262276945607e-007
outer loop
vertex 307.762555980025 27.2343458752719 -2.83010724907559
vertex 307.563907701773 26.9754642363546 -5.83010740764657
vertex 307.563907701777 26.9754623987888 -2.83010740764714
endloop
endfacet
facet normal -0.707106781186358 0.707106781186605 4.33119489773949e-007
outer loop
vertex 307.563907701773 26.9754642363546 -5.83010740764657
vertex 307.762555980025 27.2343458752719 -2.83010724907559
vertex 307.76255598002 27.2343477128378 -5.83010724907503
endloop
endfacet
facet normal -0.499999999999946 0.866025403784308 5.30460325137862e-007
outer loop
vertex 307.305024225294 26.7768141205416 -2.83010752932319
vertex 307.563907701773 26.9754642363546 -5.83010740764657
vertex 307.30502422529 26.7768159581074 -5.83010752932262
endloop
endfacet
facet normal -0.707106781186358 0.707106781186605 4.33119489773949e-007
outer loop
vertex 307.563907701773 26.9754642363546 -5.83010740764657
vertex 307.305024225294 26.7768141205416 -2.83010752932319
vertex 307.563907701777 26.9754623987888 -2.83010740764714
endloop
endfacet
facet normal -0.258819045102508 0.96592582628889 5.91651165970846e-007
outer loop
vertex 307.003548031672 26.6519385924108 -2.83010760581173
vertex 307.30502422529 26.7768159581074 -5.83010752932262
vertex 307.003548031668 26.6519404299767 -5.83010760581117
endloop
endfacet
facet normal -0.499999999999945 0.866025403784308 5.30460325137862e-007
outer loop
vertex 307.30502422529 26.7768159581074 -5.83010752932262
vertex 307.003548031672 26.6519385924108 -2.83010760581173
vertex 307.305024225294 26.7768141205416 -2.83010752932319
endloop
endfacet
facet normal -1.55409756580079e-014 0.999999999999812 6.12521957592714e-007
outer loop
vertex 306.680024225294 -1.39065412472289 -2.83012478251503
vertex 307.003548031668 -1.34805957001839 -5.83012475642599
vertex 306.68002422529 -1.39065228715701 -5.83012478251447
endloop
endfacet
facet normal -0.258819045102411 0.965925826288916 5.91651165970862e-007
outer loop
vertex 307.003548031668 -1.34805957001839 -5.83012475642599
vertex 306.680024225294 -1.39065412472289 -2.83012478251503
vertex 307.003548031672 -1.34806140758427 -2.83012475642655
endloop
endfacet
facet normal 0.258819045102556 0.965925826288878 5.91650390045031e-007
outer loop
vertex 306.356500418911 -1.34805957001839 -5.830124756425
vertex 306.680024225294 -1.39065412472289 -2.83012478251503
vertex 306.68002422529 -1.39065228715701 -5.83012478251447
endloop
endfacet
facet normal -1.55409756580079e-014 0.999999999999812 6.12521957592714e-007
outer loop
vertex 306.680024225294 -1.39065412472289 -2.83012478251503
vertex 306.356500418911 -1.34805957001839 -5.830124756425
vertex 306.356500418916 -1.34806140758427 -2.83012475642556
endloop
endfacet
facet normal 0.500000000000045 0.86602540378425 5.30458826164272e-007
outer loop
vertex 306.05502422529 -1.2231840418876 -5.83012467993555
vertex 306.356500418916 -1.34806140758427 -2.83012475642556
vertex 306.356500418911 -1.34805957001839 -5.830124756425
endloop
endfacet
facet normal 0.258819045102557 0.965925826288877 5.9165039004503e-007
outer loop
vertex 306.356500418916 -1.34806140758427 -2.83012475642556
vertex 306.05502422529 -1.2231840418876 -5.83012467993555
vertex 306.055024225294 -1.22318587945348 -2.83012467993611
endloop
endfacet
facet normal 0.707106781186482 0.70710678118648 4.33117369905142e-007
outer loop
vertex 305.796140748806 -1.02453576364027 -5.83012455825873
vertex 306.055024225294 -1.22318587945348 -2.83012467993611
vertex 306.05502422529 -1.2231840418876 -5.83012467993555
endloop
endfacet
facet normal 0.500000000000042 0.866025403784252 5.30458826164273e-007
outer loop
vertex 306.055024225294 -1.22318587945348 -2.83012467993611
vertex 305.796140748806 -1.02453576364027 -5.83012455825873
vertex 305.796140748811 -1.02453760120614 -2.8301245582593
endloop
endfacet
facet normal 0.707106781186482 0.70710678118648 4.33117369905142e-007
outer loop
vertex 305.796140748806 -1.02453576364027 -5.83012455825873
vertex 305.597492470564 -0.76565412472303 -2.83012439968717
vertex 305.796140748811 -1.02453760120614 -2.8301245582593
endloop
endfacet
facet normal 0.866025403784461 0.499999999999868 3.06259680647156e-007
outer loop
vertex 305.597492470564 -0.76565412472303 -2.83012439968717
vertex 305.796140748806 -1.02453576364027 -5.83012455825873
vertex 305.597492470559 -0.765652287157157 -5.8301243996866
endloop
endfacet
facet normal 0.866025403784459 0.49999999999987 3.06259680647158e-007
outer loop
vertex 305.597492470559 -0.765652287157157 -5.8301243996866
vertex 305.472616942433 -0.464177931101204 -2.8301242150262
vertex 305.597492470564 -0.76565412472303 -2.83012439968717
endloop
endfacet
facet normal 0.965925826289087 0.258819045102401 1.5853090027116e-007
outer loop
vertex 305.472616942433 -0.464177931101204 -2.8301242150262
vertex 305.597492470559 -0.765652287157157 -5.8301243996866
vertex 305.472616942428 -0.464176093535331 -5.83012421502563
endloop
endfacet
facet normal 0.965925826289088 0.258819045102399 1.58530900271159e-007
outer loop
vertex 305.472616942428 -0.464176093535331 -5.83012421502563
vertex 305.430024225294 -0.140654124723127 -2.8301240168607
vertex 305.472616942433 -0.464177931101204 -2.8301242150262
endloop
endfacet
facet normal 1.0 1.55944423173822e-015 -1.49897355326866e-012
outer loop
vertex 305.430024225294 -0.140654124723127 -2.8301240168607
vertex 305.472616942428 -0.464176093535331 -5.83012421502563
vertex 305.43002422529 -0.140652287157254 -5.83012401686014
endloop
endfacet
facet normal 1.0 -1.56835534163385e-015 -1.49897355518925e-012
outer loop
vertex 305.43002422529 -0.140652287157254 -5.83012401686014
vertex 305.472616942433 0.182869681654951 -2.83012381869534
vertex 305.430024225294 -0.140654124723127 -2.8301240168607
endloop
endfacet
facet normal 0.965925826289088 -0.2588190451024 -1.58533796065698e-007
outer loop
vertex 305.472616942433 0.182869681654951 -2.83012381869534
vertex 305.43002422529 -0.140652287157254 -5.83012401686014
vertex 305.472616942428 0.182871519220824 -5.83012381869478
endloop
endfacet
facet normal 0.965925826289088 -0.2588190451024 -1.58533796065698e-007
outer loop
vertex 305.472616942428 0.182871519220824 -5.83012381869478
vertex 305.597492470564 0.484345875276776 -2.83012363403473
vertex 305.472616942433 0.182869681654951 -2.83012381869534
endloop
endfacet
facet normal 0.866025403784482 -0.499999999999832 -3.06262276945489e-007
outer loop
vertex 305.597492470564 0.484345875276776 -2.83012363403473
vertex 305.472616942428 0.182871519220824 -5.83012381869478
vertex 305.597492470559 0.484347712842649 -5.83012363403417
endloop
endfacet
facet normal 0.866025403784481 -0.499999999999834 -3.0626227694549e-007
outer loop
vertex 305.597492470559 0.484347712842649 -5.83012363403417
vertex 305.796140748811 0.743229351759936 -2.83012347546323
vertex 305.597492470564 0.484345875276776 -2.83012363403473
endloop
endfacet
facet normal 0.707106781186595 -0.707106781186368 -4.33119489773803e-007
outer loop
vertex 305.796140748811 0.743229351759936 -2.83012347546323
vertex 305.597492470559 0.484347712842649 -5.83012363403417
vertex 305.796140748806 0.743231189325809 -5.83012347546267
endloop
endfacet
facet normal 0.499999999999995 -0.866025403784279 -5.30460325137844e-007
outer loop
vertex 306.05502422529 0.941879467573096 -5.83012335378662
vertex 305.796140748811 0.743229351759936 -2.83012347546323
vertex 305.796140748806 0.743231189325809 -5.83012347546267
endloop
endfacet
facet normal 0.707106781186595 -0.707106781186368 -4.33119489773803e-007
outer loop
vertex 305.796140748811 0.743229351759936 -2.83012347546323
vertex 306.05502422529 0.941879467573096 -5.83012335378662
vertex 306.055024225294 0.941877630007224 -2.83012335378718
endloop
endfacet
facet normal 0.258819045102409 -0.965925826288917 -5.91651165970863e-007
outer loop
vertex 306.356500418911 1.06675499570384 -5.83012327729807
vertex 306.055024225294 0.941877630007224 -2.83012335378718
vertex 306.05502422529 0.941879467573096 -5.83012335378662
endloop
endfacet
facet normal 0.499999999999994 -0.866025403784279 -5.30460325137844e-007
outer loop
vertex 306.055024225294 0.941877630007224 -2.83012335378718
vertex 306.356500418911 1.06675499570384 -5.83012327729807
vertex 306.356500418916 1.06675315813797 -2.83012327729864
endloop
endfacet
facet normal -5.30032816593073e-014 -0.999999999999812 -6.12521957592714e-007
outer loop
vertex 306.68002422529 1.10934771284246 -5.83012325120959
vertex 306.356500418916 1.06675315813797 -2.83012327729864
vertex 306.356500418911 1.06675499570384 -5.83012327729807
endloop
endfacet
facet normal 0.258819045102411 -0.965925826288916 -5.91651165970862e-007
outer loop
vertex 306.356500418916 1.06675315813797 -2.83012327729864
vertex 306.68002422529 1.10934771284246 -5.83012325120959
vertex 306.680024225294 1.10934587527659 -2.83012325121016
endloop
endfacet
facet normal -0.258819045102515 -0.965925826288888 -5.91650390045037e-007
outer loop
vertex 307.003548031672 1.06675315813792 -2.83012327729963
vertex 306.68002422529 1.10934771284246 -5.83012325120959
vertex 307.003548031668 1.0667549957038 -5.83012327729907
endloop
endfacet
facet normal -5.30032816593073e-014 -0.999999999999812 -6.12521957592714e-007
outer loop
vertex 306.68002422529 1.10934771284246 -5.83012325120959
vertex 307.003548031672 1.06675315813792 -2.83012327729963
vertex 306.680024225294 1.10934587527659 -2.83012325121016
endloop
endfacet
facet normal -0.499999999999969 -0.866025403784294 -5.30458826164299e-007
outer loop
vertex 307.305024225294 0.941877630007179 -2.83012335378903
vertex 307.003548031668 1.0667549957038 -5.83012327729907
vertex 307.30502422529 0.941879467573051 -5.83012335378847
endloop
endfacet
facet normal -0.258819045102505 -0.965925826288891 -5.91650390045039e-007
outer loop
vertex 307.003548031668 1.0667549957038 -5.83012327729907
vertex 307.305024225294 0.941877630007179 -2.83012335378903
vertex 307.003548031672 1.06675315813792 -2.83012327729963
endloop
endfacet
facet normal -0.707106781186455 -0.707106781186507 -4.33117369905159e-007
outer loop
vertex 307.563907701777 0.743229351759891 -2.83012347546589
vertex 307.30502422529 0.941879467573051 -5.83012335378847
vertex 307.563907701773 0.743231189325764 -5.83012347546533
endloop
endfacet
facet normal -0.499999999999966 -0.866025403784296 -5.304588261643e-007
outer loop
vertex 307.30502422529 0.941879467573051 -5.83012335378847
vertex 307.563907701777 0.743229351759891 -2.83012347546589
vertex 307.305024225294 0.941877630007179 -2.83012335378903
endloop
endfacet
facet normal -0.707106781186455 -0.707106781186507 -4.33117369905159e-007
outer loop
vertex 307.563907701777 0.743229351759891 -2.83012347546589
vertex 307.76255598002 0.484347712842604 -5.83012363403741
vertex 307.762555980025 0.484345875276731 -2.83012363403798
endloop
endfacet
facet normal -0.866025403784427 -0.499999999999927 -3.06259680647192e-007
outer loop
vertex 307.76255598002 0.484347712842604 -5.83012363403741
vertex 307.563907701777 0.743229351759891 -2.83012347546589
vertex 307.563907701773 0.743231189325764 -5.83012347546533
endloop
endfacet
facet normal -0.866025403784425 -0.499999999999929 -3.06259680647194e-007
outer loop
vertex 307.762555980025 0.484345875276731 -2.83012363403798
vertex 307.887431508151 0.182871519220778 -5.83012381869843
vertex 307.887431508155 0.182869681654906 -2.83012381869899
endloop
endfacet
facet normal -0.965925826289124 -0.258819045102263 -1.58530900271076e-007
outer loop
vertex 307.887431508151 0.182871519220778 -5.83012381869843
vertex 307.762555980025 0.484345875276731 -2.83012363403798
vertex 307.76255598002 0.484347712842604 -5.83012363403741
endloop
endfacet
facet normal -0.965925826289122 -0.258819045102272 -1.58530900271082e-007
outer loop
vertex 307.887431508155 0.182869681654906 -2.83012381869899
vertex 307.93002422529 -0.140652287157299 -5.83012401686393
vertex 307.930024225294 -0.140654124723172 -2.83012401686449
endloop
endfacet
facet normal -1.0 -1.56835534163381e-015 1.4989735532686e-012
outer loop
vertex 307.93002422529 -0.140652287157299 -5.83012401686393
vertex 307.887431508155 0.182869681654906 -2.83012381869899
vertex 307.887431508151 0.182871519220778 -5.83012381869843
endloop
endfacet
facet normal -1.0 1.55944423173814e-015 1.4989735551807e-012
outer loop
vertex 307.930024225294 -0.140654124723172 -2.83012401686449
vertex 307.887431508151 -0.464176093535376 -5.83012421502929
vertex 307.887431508155 -0.464177931101249 -2.83012421502985
endloop
endfacet
facet normal -0.965925826289118 0.258819045102287 1.58533796065629e-007
outer loop
vertex 307.887431508151 -0.464176093535376 -5.83012421502929
vertex 307.930024225294 -0.140654124723172 -2.83012401686449
vertex 307.93002422529 -0.140652287157299 -5.83012401686393
endloop
endfacet
facet normal -0.965925826289115 0.258819045102299 1.58533796065636e-007
outer loop
vertex 307.887431508155 -0.464177931101249 -2.83012421502985
vertex 307.76255598002 -0.765652287157157 -5.83012439968985
vertex 307.762555980025 -0.76565412472303 -2.83012439969042
endloop
endfacet
facet normal -0.866025403784413 0.49999999999995 3.06262276945562e-007
outer loop
vertex 307.76255598002 -0.765652287157157 -5.83012439968985
vertex 307.887431508155 -0.464177931101249 -2.83012421502985
vertex 307.887431508151 -0.464176093535376 -5.83012421502929
endloop
endfacet
facet normal -0.866025403784413 0.499999999999952 3.06262276945563e-007
outer loop
vertex 307.762555980025 -0.76565412472303 -2.83012439969042
vertex 307.563907701773 -1.02453576364032 -5.8301245582614
vertex 307.563907701777 -1.02453760120619 -2.83012455826196
endloop
endfacet
facet normal -0.707106781186552 0.707106781186411 4.3311948977383e-007
outer loop
vertex 307.563907701773 -1.02453576364032 -5.8301245582614
vertex 307.762555980025 -0.76565412472303 -2.83012439969042
vertex 307.76255598002 -0.765652287157157 -5.83012439968985
endloop
endfacet
facet normal -0.500000000000042 0.866025403784252 5.30460325137827e-007
outer loop
vertex 307.305024225294 -1.22318587945352 -2.83012467993801
vertex 307.563907701773 -1.02453576364032 -5.8301245582614
vertex 307.30502422529 -1.22318404188765 -5.83012467993744
endloop
endfacet
facet normal -0.707106781186552 0.707106781186411 4.3311948977383e-007
outer loop
vertex 307.563907701773 -1.02453576364032 -5.8301245582614
vertex 307.305024225294 -1.22318587945352 -2.83012467993801
vertex 307.563907701777 -1.02453760120619 -2.83012455826196
endloop
endfacet
facet normal -0.258819045102409 0.965925826288917 5.91651165970863e-007
outer loop
vertex 307.003548031672 -1.34806140758427 -2.83012475642655
vertex 307.30502422529 -1.22318404188765 -5.83012467993744
vertex 307.003548031668 -1.34805957001839 -5.83012475642599
endloop
endfacet
facet normal -0.500000000000042 0.866025403784252 5.30460325137828e-007
outer loop
vertex 307.30502422529 -1.22318404188765 -5.83012467993744
vertex 307.003548031672 -1.34806140758427 -2.83012475642655
vertex 307.305024225294 -1.22318587945352 -2.83012467993801
endloop
endfacet
endsolid uploads-c5-af-25-85-c2-plotclock_SUP7
