solid uploads-c5-af-25-85-c2-plotclock_SUP7
facet normal -8.10474697588924e-010 4.41659137737615e-010 -1.0
outer loop
vertex 291.430077784123 56.8141505939275 2.22464504910453e-008
vertex 291.430077809648 55.0055207806059 -8.83430641045727e-009
vertex 290.730077784123 56.8141505482058 4.57478368391468e-008
endloop
endfacet
facet normal -8.10474697588924e-010 4.41659137737615e-010 -1.0
outer loop
vertex 291.430077809648 55.0055207806059 -8.83430641045727e-009
vertex 291.430077784123 56.8141505939275 2.22464504910453e-008
vertex 291.430077808052 59.8141504615113 -3.98882397907778e-008
endloop
endfacet
facet normal -8.10474697588924e-010 4.41659137737615e-010 -1.0
outer loop
vertex 267.800859815584 63.0137214487136 2.50830491359073e-008
vertex 269.288344667186 60.6118617638588 2.50828968577172e-008
vertex 267.192098386575 62.2203681084224 2.5082925057382e-008
endloop
endfacet
facet normal -8.10474697588924e-010 4.41659137737615e-010 -1.0
outer loop
vertex 269.288344667186 60.6118617638588 2.50828968577172e-008
vertex 267.800859815584 63.0137214487136 2.50830491359073e-008
vertex 270.801288108056 63.2323566724242 2.50830209362425e-008
endloop
endfacet
facet normal -8.10474697588924e-010 4.41659137737615e-010 -1.0
outer loop
vertex 269.288344667186 60.6118617638588 2.50828968577172e-008
vertex 270.801288108056 63.2323566724242 2.50830209362425e-008
vertex 271.851106211956 59.5503311748867 2.50830378560413e-008
endloop
endfacet
facet normal -8.10474697588924e-010 4.41659137737615e-010 -1.0
outer loop
vertex 271.851106211956 59.5503311748867 2.50830378560413e-008
vertex 270.801288108056 63.2323566724242 2.50830209362425e-008
vertex 272.634263365277 62.4731134613891 2.50828968577172e-008
endloop
endfacet
facet normal -8.10474697588924e-010 4.41659137737615e-010 -1.0
outer loop
vertex 271.851106211956 59.5503311748867 2.50830378560413e-008
vertex 272.634263365277 62.4731134613891 2.50828968577172e-008
vertex 274.601288108056 59.1882628594457 2.50830322161084e-008
endloop
endfacet
facet normal -8.10474697588924e-010 4.41659137737615e-010 -1.0
outer loop
vertex 274.601288108056 59.1882628594457 2.50830322161084e-008
vertex 272.634263365277 62.4731134613891 2.50828968577172e-008
vertex 274.601288108056 62.214149741186 2.50829194174491e-008
endloop
endfacet
facet normal -8.10474697588924e-010 4.41659137737615e-010 -1.0
outer loop
vertex 274.601288108056 59.1882628594457 2.50830322161084e-008
vertex 274.601288108056 62.214149741186 2.50829194174491e-008
vertex 276.568312850835 62.4731134613891 2.50829419771809e-008
endloop
endfacet
facet normal -8.10474697588924e-010 4.41659137737615e-010 -1.0
outer loop
vertex 274.601288108056 59.1882628594457 2.50830322161084e-008
vertex 276.568312850835 62.4731134613891 2.50829419771809e-008
vertex 277.351470004155 59.5503311748867 2.50830040164436e-008
endloop
endfacet
facet normal -8.10474697588924e-010 4.41659137737615e-010 -1.0
outer loop
vertex 277.351470004155 59.5503311748867 2.50830040164436e-008
vertex 276.568312850835 62.4731134613891 2.50829419771809e-008
vertex 278.401288108056 63.2323566724242 2.50830209362425e-008
endloop
endfacet
facet normal -8.10474697588924e-010 4.41659137737615e-010 -1.0
outer loop
vertex 277.351470004155 59.5503311748867 2.50830040164436e-008
vertex 278.401288108056 63.2323566724242 2.50830209362425e-008
vertex 279.914231548926 60.611861763859 2.5082936337248e-008
endloop
endfacet
facet normal -8.10474697588924e-010 4.41659137737615e-010 -1.0
outer loop
vertex 279.914231548926 60.611861763859 2.5082936337248e-008
vertex 278.401288108056 63.2323566724242 2.50830209362425e-008
vertex 279.975299645074 64.4401382041682 2.50829419771809e-008
endloop
endfacet
facet normal -8.10474697588924e-010 4.41659137737615e-010 -1.0
outer loop
vertex 279.914231548926 60.611861763859 2.5082936337248e-008
vertex 279.975299645074 64.4401382041682 2.50829419771809e-008
vertex 282.010477829537 62.2203681084223 2.50829476171139e-008
endloop
endfacet
facet normal -8.10474697588924e-010 4.41659137737615e-010 -1.0
outer loop
vertex 282.010477829537 62.2203681084223 2.50829476171139e-008
vertex 279.975299645074 64.4401382041682 2.50829419771809e-008
vertex 290.930077782528 66.8093285506986 2.34746079334575e-008
endloop
endfacet
facet normal -8.10474697588924e-010 4.41659137737615e-010 -1.0
outer loop
vertex 282.010477829537 62.2203681084223 2.50829476171139e-008
vertex 290.930077782528 66.8093285506986 2.34746079334575e-008
vertex 290.930077782528 63.4991553692169 2.34745064146642e-008
endloop
endfacet
facet normal -8.10474697588924e-010 4.41659137737615e-010 -1.0
outer loop
vertex 269.288344667186 79.016437718513 2.5082930697315e-008
vertex 267.800859815584 76.6145780336583 2.50829645369128e-008
vertex 267.192098386575 77.4079313739497 2.50829194174491e-008
endloop
endfacet
facet normal -8.10474697588924e-010 4.41659137737615e-010 -1.0
outer loop
vertex 267.800859815584 76.6145780336583 2.50829645369128e-008
vertex 269.288344667186 79.016437718513 2.5082930697315e-008
vertex 270.801288108056 76.3959428099475 2.50829701768458e-008
endloop
endfacet
facet normal -8.10474697588924e-010 4.41659137737615e-010 -1.0
outer loop
vertex 270.801288108056 76.3959428099475 2.50829701768458e-008
vertex 269.288344667186 79.016437718513 2.5082930697315e-008
vertex 271.851106211957 80.0779683074854 2.50829927365776e-008
endloop
endfacet
facet normal -8.10474697588924e-010 4.41659137737615e-010 -1.0
outer loop
vertex 270.801288108056 76.3959428099475 2.50829701768458e-008
vertex 271.851106211957 80.0779683074854 2.50829927365776e-008
vertex 272.634263365277 77.155186020983 2.50829476171139e-008
endloop
endfacet
facet normal -8.10474697588924e-010 4.41659137737615e-010 -1.0
outer loop
vertex 272.634263365277 77.155186020983 2.50829476171139e-008
vertex 271.851106211957 80.0779683074854 2.50829927365776e-008
vertex 274.601288108056 80.4400366229265 2.50829645369128e-008
endloop
endfacet
facet normal -8.10474697588924e-010 4.41659137737615e-010 -1.0
outer loop
vertex 272.634263365277 77.155186020983 2.50829476171139e-008
vertex 274.601288108056 80.4400366229265 2.50829645369128e-008
vertex 274.601288108056 77.414149741186 2.50828799379183e-008
endloop
endfacet
facet normal -8.10474697588924e-010 4.41659137737615e-010 -1.0
outer loop
vertex 274.601288108056 77.414149741186 2.50828799379183e-008
vertex 274.601288108056 80.4400366229265 2.50829645369128e-008
vertex 277.351470004156 80.0779683074853 2.50829194174491e-008
endloop
endfacet
facet normal -8.10474697588924e-010 4.41659137737615e-010 -1.0
outer loop
vertex 274.601288108056 77.414149741186 2.50828799379183e-008
vertex 277.351470004156 80.0779683074853 2.50829194174491e-008
vertex 276.568312850835 77.155186020983 2.50829476171139e-008
endloop
endfacet
facet normal -8.10474697588924e-010 4.41659137737615e-010 -1.0
outer loop
vertex 276.568312850835 77.155186020983 2.50829476171139e-008
vertex 277.351470004156 80.0779683074853 2.50829194174491e-008
vertex 278.401288108056 76.3959428099475 2.50830096563765e-008
endloop
endfacet
facet normal -8.10474697588924e-010 4.41659137737615e-010 -1.0
outer loop
vertex 278.401288108056 76.3959428099475 2.50830096563765e-008
vertex 277.351470004156 80.0779683074853 2.50829194174491e-008
vertex 279.914231548926 79.0164377185133 2.50829588969798e-008
endloop
endfacet
facet normal -8.10474697588924e-010 4.41659137737615e-010 -1.0
outer loop
vertex 278.401288108056 76.3959428099475 2.50830096563765e-008
vertex 279.914231548926 79.0164377185133 2.50829588969798e-008
vertex 279.975299645074 75.1881612782037 2.50829758167787e-008
endloop
endfacet
facet normal -8.10474697588924e-010 4.41659137737615e-010 -1.0
outer loop
vertex 279.975299645074 75.1881612782037 2.50829758167787e-008
vertex 279.914231548926 79.0164377185133 2.50829588969798e-008
vertex 282.010477829537 77.4079313739495 2.5082925057382e-008
endloop
endfacet
facet normal -8.10474697588924e-010 4.41659137737615e-010 -1.0
outer loop
vertex 279.975299645074 75.1881612782037 2.50829758167787e-008
vertex 282.010477829537 77.4079313739495 2.5082925057382e-008
vertex 294.216983774231 71.9493451491065 2.34745120545971e-008
endloop
endfacet
facet normal -8.10474697588924e-010 4.41659137737615e-010 -1.0
outer loop
vertex 294.216983774231 71.9493451491065 2.34745120545971e-008
vertex 282.010477829537 77.4079313739495 2.5082925057382e-008
vertex 296.930077782528 74.6227787017662 2.3474528974396e-008
endloop
endfacet
facet normal -8.10474697588924e-010 4.41659137737615e-010 -1.0
outer loop
vertex 294.216983774231 71.9493451491065 2.34745120545971e-008
vertex 290.930077782528 66.8093285506986 2.34746079334575e-008
vertex 290.930077782528 71.9493451491065 2.34745120545971e-008
endloop
endfacet
facet normal -8.10474697588924e-010 4.41659137737615e-010 -1.0
outer loop
vertex 290.930077782528 66.8093285506986 2.34746079334575e-008
vertex 294.216983774231 71.9493451491065 2.34745120545971e-008
vertex 290.930077782528 63.4991553692169 2.34745064146642e-008
endloop
endfacet
facet normal -8.10474697588924e-010 4.41659137737615e-010 -1.0
outer loop
vertex 290.930077782528 63.4991553692169 2.34745064146642e-008
vertex 294.216983774231 71.9493451491065 2.34745120545971e-008
vertex 293.533019770647 69.8275776270356 8.42262511775168e-009
endloop
endfacet
facet normal -8.10474697588924e-010 4.41659137737615e-010 -1.0
outer loop
vertex 290.930077782528 63.4991553692169 2.34745064146642e-008
vertex 293.533019770647 69.8275776270356 8.42262511775168e-009
vertex 290.930077782528 59.8141506985132 2.22731499337021e-008
endloop
endfacet
facet normal -8.10474697588924e-010 4.41659137737615e-010 -1.0
outer loop
vertex 290.930077782528 59.8141506985132 2.22731499337021e-008
vertex 293.533019770647 69.8275776270356 8.42262511775168e-009
vertex 291.430077808052 59.8141504615113 -3.98882397907778e-008
endloop
endfacet
facet normal -8.10474697588924e-010 4.41659137737615e-010 -1.0
outer loop
vertex 291.430077808052 59.8141504615113 -3.98882397907778e-008
vertex 293.533019770647 69.8275776270356 8.42262511775168e-009
vertex 291.430077809648 55.0055207806059 -8.83430641045727e-009
endloop
endfacet
facet normal -8.10474697588924e-010 4.41659137737615e-010 -1.0
outer loop
vertex 291.430077809648 55.0055207806059 -8.83430641045727e-009
vertex 293.533019770647 69.8275776270356 8.42262511775168e-009
vertex 293.430077808125 67.7055207806279 -7.53778170064216e-009
endloop
endfacet
facet normal -8.10474697588924e-010 4.41659137737615e-010 -1.0
outer loop
vertex 293.533019770647 69.8275776270356 8.42262511775168e-009
vertex 294.216983774231 71.9493451491065 2.34745120545971e-008
vertex 296.930077782528 69.8275776270357 1.24752948286817e-008
endloop
endfacet
facet normal -8.10474697588924e-010 4.41659137737615e-010 -1.0
outer loop
vertex 296.930077782528 69.8275776270357 1.24752948286817e-008
vertex 294.216983774231 71.9493451491065 2.34745120545971e-008
vertex 296.930077782528 74.6227787017662 2.3474528974396e-008
endloop
endfacet
facet normal -8.10474697588924e-010 4.41659137737615e-010 -1.0
outer loop
vertex 293.430077808125 67.7055207806279 -7.53778170064216e-009
vertex 293.533019770647 69.4275776270358 8.42259127815389e-009
vertex 294.430077808125 67.7055207806057 -8.01129919252567e-009
endloop
endfacet
facet normal -8.10474697588924e-010 4.41659137737615e-010 -1.0
outer loop
vertex 293.533019770647 69.4275776270358 8.42259127815389e-009
vertex 293.430077808125 67.7055207806279 -7.53778170064216e-009
vertex 293.533019770647 69.8275776270356 8.42262511775168e-009
endloop
endfacet
facet normal -8.10474697588924e-010 4.41659137737615e-010 -1.0
outer loop
vertex 294.430077808125 67.7055207806057 -8.01129919252567e-009
vertex 293.533019770647 69.4275776270358 8.42259127815389e-009
vertex 296.930077782528 69.4275776270356 1.59486193455711e-008
endloop
endfacet
facet normal -8.10474697588924e-010 4.41659137737615e-010 -1.0
outer loop
vertex 294.430077808125 67.7055207806057 -8.01129919252567e-009
vertex 296.930077782528 69.4275776270356 1.59486193455711e-008
vertex 294.430077809648 55.0055207806059 -1.08188127030866e-008
endloop
endfacet
facet normal -8.10474697588924e-010 4.41659137737615e-010 -1.0
outer loop
vertex 294.430077809648 55.0055207806059 -1.08188127030866e-008
vertex 296.930077782528 69.4275776270356 1.59486193455711e-008
vertex 296.430077808052 59.8141504700194 -3.98882510706438e-008
endloop
endfacet
facet normal -8.10474697588924e-010 4.41659137737615e-010 -1.0
outer loop
vertex 296.430077808052 59.8141504700194 -3.98882510706438e-008
vertex 296.930077782528 69.4275776270356 1.59486193455711e-008
vertex 296.930077782528 59.814150672695 2.22731781333669e-008
endloop
endfacet
facet normal -8.10474697588924e-010 4.41659137737615e-010 -1.0
outer loop
vertex 296.430077808052 59.8141504700194 -3.98882510706438e-008
vertex 296.430077809648 55.0055207806059 -1.02470588588171e-008
vertex 294.430077809648 55.0055207806059 -1.08188127030866e-008
endloop
endfacet
facet normal -8.10474697588924e-010 4.41659137737615e-010 -1.0
outer loop
vertex 296.430077809648 55.0055207806059 -1.02470588588171e-008
vertex 296.430077808052 59.8141504700194 -3.98882510706438e-008
vertex 296.430077809648 56.8141505939276 -2.14057903087843e-008
endloop
endfacet
facet normal -8.10474697588924e-010 4.41659137737615e-010 -1.0
outer loop
vertex 296.430077809648 55.0055207806059 -1.02470588588171e-008
vertex 296.430077809648 56.8141505939276 -2.14057903087843e-008
vertex 297.130077809648 56.8141505546763 2.06658986407767e-009
endloop
endfacet
facet normal -8.10474697588924e-010 4.41659137737615e-010 -1.0
outer loop
vertex 293.430077809648 55.0055207806279 -9.0671115633905e-009
vertex 291.430077809648 55.0055207806059 -8.83430641045727e-009
vertex 293.430077808125 67.7055207806279 -7.53778170064216e-009
endloop
endfacet
facet normal 8.10474697588924e-010 -4.41659137737615e-010 1.0
outer loop
vertex 291.430077812079 55.0055207792809 2.99999999116569
vertex 291.430077786555 56.8141505926026 3.00000002224645
vertex 290.730077786555 56.8141505468808 3.00000004574784
endloop
endfacet
facet normal 8.10474697588924e-010 -4.41659137737615e-010 1.0
outer loop
vertex 291.430077786555 56.8141505926026 3.00000002224645
vertex 291.430077812079 55.0055207792809 2.99999999116569
vertex 291.430077810484 59.8141504601863 2.99999996011176
endloop
endfacet
facet normal 8.10474697588924e-010 -4.41659137737615e-010 1.0
outer loop
vertex 293.430077812079 55.005520779303 2.99999999093289
vertex 293.430077810557 67.7055207793029 2.99999999246222
vertex 291.430077812079 55.0055207792809 2.99999999116569
endloop
endfacet
facet normal 8.10474697588924e-010 -4.41659137737615e-010 1.0
outer loop
vertex 296.430077812079 55.0055207792809 2.99999998975294
vertex 296.430077810484 59.8141504686945 2.99999996011175
vertex 294.430077812079 55.0055207792809 2.99999998918119
endloop
endfacet
facet normal 8.10474697588924e-010 -4.41659137737615e-010 1.0
outer loop
vertex 296.430077810484 59.8141504686945 2.99999996011175
vertex 296.430077812079 55.0055207792809 2.99999998975294
vertex 296.430077812079 56.8141505926027 2.99999997859421
endloop
endfacet
facet normal 8.10474697588924e-010 -4.41659137737615e-010 1.0
outer loop
vertex 296.430077812079 56.8141505926027 2.99999997859421
vertex 296.430077812079 55.0055207792809 2.99999998975294
vertex 297.130077812079 56.8141505533513 3.00000000206659
endloop
endfacet
facet normal 8.10474697588924e-010 -4.41659137737615e-010 1.0
outer loop
vertex 294.430077810557 67.7055207792807 2.9999999919887
vertex 293.533019773079 69.4275776257108 3.00000000842259
vertex 293.430077810557 67.7055207793029 2.99999999246222
endloop
endfacet
facet normal 8.10474697588924e-010 -4.41659137737615e-010 1.0
outer loop
vertex 293.533019773079 69.4275776257108 3.00000000842259
vertex 294.430077810557 67.7055207792807 2.9999999919887
vertex 296.930077784959 69.4275776257106 3.00000001594862
endloop
endfacet
facet normal 8.10474697588924e-010 -4.41659137737615e-010 1.0
outer loop
vertex 296.930077784959 69.4275776257106 3.00000001594862
vertex 294.430077810557 67.7055207792807 2.9999999919887
vertex 294.430077812079 55.0055207792809 2.99999998918119
endloop
endfacet
facet normal 8.10474697588924e-010 -4.41659137737615e-010 1.0
outer loop
vertex 296.930077784959 69.4275776257106 3.00000001594862
vertex 294.430077812079 55.0055207792809 2.99999998918119
vertex 296.430077810484 59.8141504686945 2.99999996011175
endloop
endfacet
facet normal 8.10474697588924e-010 -4.41659137737615e-010 1.0
outer loop
vertex 296.930077784959 69.4275776257106 3.00000001594862
vertex 296.430077810484 59.8141504686945 2.99999996011175
vertex 296.930077784959 59.81415067137 3.00000002227318
endloop
endfacet
facet normal 8.10474697588924e-010 -4.41659137737615e-010 1.0
outer loop
vertex 291.430077810484 59.8141504601863 2.99999996011176
vertex 290.930077784959 63.4991553678919 3.00000002347451
vertex 290.930077784959 59.8141506971883 3.00000002227315
endloop
endfacet
facet normal 8.10474697588924e-010 -4.41659137737615e-010 1.0
outer loop
vertex 290.930077784959 63.4991553678919 3.00000002347451
vertex 291.430077810484 59.8141504601863 2.99999996011176
vertex 290.930077784959 66.8093285493736 3.00000002347461
endloop
endfacet
facet normal 8.10474697588924e-010 -4.41659137737615e-010 1.0
outer loop
vertex 290.930077784959 66.8093285493736 3.00000002347461
vertex 291.430077810484 59.8141504601863 2.99999996011176
vertex 290.930077784959 71.9493451477815 3.00000002347451
endloop
endfacet
facet normal 8.10474697588924e-010 -4.41659137737615e-010 1.0
outer loop
vertex 290.930077784959 71.9493451477815 3.00000002347451
vertex 291.430077810484 59.8141504601863 2.99999996011176
vertex 293.533019773079 69.8275776257106 3.00000000842263
endloop
endfacet
facet normal 8.10474697588924e-010 -4.41659137737615e-010 1.0
outer loop
vertex 290.930077784959 71.9493451477815 3.00000002347451
vertex 293.533019773079 69.8275776257106 3.00000000842263
vertex 294.216983776663 71.9493451477815 3.00000002347451
endloop
endfacet
facet normal 8.10474697588924e-010 -4.41659137737615e-010 1.0
outer loop
vertex 293.533019773079 69.8275776257106 3.00000000842263
vertex 291.430077810484 59.8141504601863 2.99999996011176
vertex 291.430077812079 55.0055207792809 2.99999999116569
endloop
endfacet
facet normal 8.10474697588924e-010 -4.41659137737615e-010 1.0
outer loop
vertex 293.533019773079 69.8275776257106 3.00000000842263
vertex 291.430077812079 55.0055207792809 2.99999999116569
vertex 293.430077810557 67.7055207793029 2.99999999246222
endloop
endfacet
facet normal 8.10474697588924e-010 -4.41659137737615e-010 1.0
outer loop
vertex 293.533019773079 69.8275776257106 3.00000000842263
vertex 293.430077810557 67.7055207793029 2.99999999246222
vertex 293.533019773079 69.4275776257108 3.00000000842259
endloop
endfacet
facet normal 8.10474697588924e-010 -4.41659137737615e-010 1.0
outer loop
vertex 294.216983776663 71.9493451477815 3.00000002347451
vertex 293.533019773079 69.8275776257106 3.00000000842263
vertex 296.930077784959 69.8275776257107 3.0000000124753
endloop
endfacet
facet normal 8.10474697588924e-010 -4.41659137737615e-010 1.0
outer loop
vertex 267.800859818015 76.6145780323334 3.00000002508296
vertex 269.288344669617 79.016437717188 3.00000002508293
vertex 267.192098389006 77.4079313726247 3.00000002508292
endloop
endfacet
facet normal 8.10474697588924e-010 -4.41659137737615e-010 1.0
outer loop
vertex 269.288344669617 79.016437717188 3.00000002508293
vertex 267.800859818015 76.6145780323334 3.00000002508296
vertex 270.801288110487 76.3959428086226 3.00000002508297
endloop
endfacet
facet normal 8.10474697588924e-010 -4.41659137737615e-010 1.0
outer loop
vertex 269.288344669617 79.016437717188 3.00000002508293
vertex 270.801288110487 76.3959428086226 3.00000002508297
vertex 271.851106214388 80.0779683061604 3.00000002508299
endloop
endfacet
facet normal 8.10474697588924e-010 -4.41659137737615e-010 1.0
outer loop
vertex 271.851106214388 80.0779683061604 3.00000002508299
vertex 270.801288110487 76.3959428086226 3.00000002508297
vertex 272.634263367708 77.155186019658 3.00000002508295
endloop
endfacet
facet normal 8.10474697588924e-010 -4.41659137737615e-010 1.0
outer loop
vertex 271.851106214388 80.0779683061604 3.00000002508299
vertex 272.634263367708 77.155186019658 3.00000002508295
vertex 274.601288110487 80.4400366216015 3.00000002508296
endloop
endfacet
facet normal 8.10474697588924e-010 -4.41659137737615e-010 1.0
outer loop
vertex 274.601288110487 80.4400366216015 3.00000002508296
vertex 272.634263367708 77.155186019658 3.00000002508295
vertex 274.601288110487 77.414149739861 3.00000002508288
endloop
endfacet
facet normal 8.10474697588924e-010 -4.41659137737615e-010 1.0
outer loop
vertex 274.601288110487 80.4400366216015 3.00000002508296
vertex 274.601288110487 77.414149739861 3.00000002508288
vertex 276.568312853267 77.155186019658 3.00000002508295
endloop
endfacet
facet normal 8.10474697588924e-010 -4.41659137737615e-010 1.0
outer loop
vertex 274.601288110487 80.4400366216015 3.00000002508296
vertex 276.568312853267 77.155186019658 3.00000002508295
vertex 277.351470006587 80.0779683061603 3.00000002508292
endloop
endfacet
facet normal 8.10474697588924e-010 -4.41659137737615e-010 1.0
outer loop
vertex 277.351470006587 80.0779683061603 3.00000002508292
vertex 276.568312853267 77.155186019658 3.00000002508295
vertex 278.401288110487 76.3959428086226 3.00000002508301
endloop
endfacet
facet normal 8.10474697588924e-010 -4.41659137737615e-010 1.0
outer loop
vertex 277.351470006587 80.0779683061603 3.00000002508292
vertex 278.401288110487 76.3959428086226 3.00000002508301
vertex 279.914231551357 79.0164377171883 3.00000002508296
endloop
endfacet
facet normal 8.10474697588924e-010 -4.41659137737615e-010 1.0
outer loop
vertex 279.914231551357 79.0164377171883 3.00000002508296
vertex 278.401288110487 76.3959428086226 3.00000002508301
vertex 279.975299647505 75.1881612768787 3.00000002508298
endloop
endfacet
facet normal 8.10474697588924e-010 -4.41659137737615e-010 1.0
outer loop
vertex 279.914231551357 79.0164377171883 3.00000002508296
vertex 279.975299647505 75.1881612768787 3.00000002508298
vertex 282.010477831969 77.4079313726245 3.00000002508293
endloop
endfacet
facet normal 8.10474697588924e-010 -4.41659137737615e-010 1.0
outer loop
vertex 282.010477831969 77.4079313726245 3.00000002508293
vertex 279.975299647505 75.1881612768787 3.00000002508298
vertex 294.216983776663 71.9493451477815 3.00000002347451
endloop
endfacet
facet normal 8.10474697588924e-010 -4.41659137737615e-010 1.0
outer loop
vertex 282.010477831969 77.4079313726245 3.00000002508293
vertex 294.216983776663 71.9493451477815 3.00000002347451
vertex 296.930077784959 74.6227787004412 3.00000002347453
endloop
endfacet
facet normal 8.10474697588924e-010 -4.41659137737615e-010 1.0
outer loop
vertex 296.930077784959 74.6227787004412 3.00000002347453
vertex 294.216983776663 71.9493451477815 3.00000002347451
vertex 296.930077784959 69.8275776257107 3.0000000124753
endloop
endfacet
facet normal 8.10474697588924e-010 -4.41659137737615e-010 1.0
outer loop
vertex 269.288344669617 60.6118617625339 3.0000000250829
vertex 267.800859818015 63.0137214473886 3.00000002508305
vertex 267.192098389006 62.2203681070974 3.00000002508293
endloop
endfacet
facet normal 8.10474697588924e-010 -4.41659137737615e-010 1.0
outer loop
vertex 267.800859818015 63.0137214473886 3.00000002508305
vertex 269.288344669617 60.6118617625339 3.0000000250829
vertex 270.801288110487 63.2323566710992 3.00000002508302
endloop
endfacet
facet normal 8.10474697588924e-010 -4.41659137737615e-010 1.0
outer loop
vertex 270.801288110487 63.2323566710992 3.00000002508302
vertex 269.288344669617 60.6118617625339 3.0000000250829
vertex 271.851106214388 59.5503311735617 3.00000002508304
endloop
endfacet
facet normal 8.10474697588924e-010 -4.41659137737615e-010 1.0
outer loop
vertex 270.801288110487 63.2323566710992 3.00000002508302
vertex 271.851106214388 59.5503311735617 3.00000002508304
vertex 272.634263367708 62.4731134600641 3.0000000250829
endloop
endfacet
facet normal 8.10474697588924e-010 -4.41659137737615e-010 1.0
outer loop
vertex 272.634263367708 62.4731134600641 3.0000000250829
vertex 271.851106214388 59.5503311735617 3.00000002508304
vertex 274.601288110487 59.1882628581207 3.00000002508303
endloop
endfacet
facet normal 8.10474697588924e-010 -4.41659137737615e-010 1.0
outer loop
vertex 272.634263367708 62.4731134600641 3.0000000250829
vertex 274.601288110487 59.1882628581207 3.00000002508303
vertex 274.601288110487 62.2141497398611 3.00000002508292
endloop
endfacet
facet normal 8.10474697588924e-010 -4.41659137737615e-010 1.0
outer loop
vertex 274.601288110487 62.2141497398611 3.00000002508292
vertex 274.601288110487 59.1882628581207 3.00000002508303
vertex 277.351470006587 59.5503311735617 3.000000025083
endloop
endfacet
facet normal 8.10474697588924e-010 -4.41659137737615e-010 1.0
outer loop
vertex 274.601288110487 62.2141497398611 3.00000002508292
vertex 277.351470006587 59.5503311735617 3.000000025083
vertex 276.568312853267 62.4731134600641 3.00000002508294
endloop
endfacet
facet normal 8.10474697588924e-010 -4.41659137737615e-010 1.0
outer loop
vertex 276.568312853267 62.4731134600641 3.00000002508294
vertex 277.351470006587 59.5503311735617 3.000000025083
vertex 278.401288110487 63.2323566710992 3.00000002508302
endloop
endfacet
facet normal 8.10474697588924e-010 -4.41659137737615e-010 1.0
outer loop
vertex 278.401288110487 63.2323566710992 3.00000002508302
vertex 277.351470006587 59.5503311735617 3.000000025083
vertex 279.914231551358 60.611861762534 3.00000002508294
endloop
endfacet
facet normal 8.10474697588924e-010 -4.41659137737615e-010 1.0
outer loop
vertex 278.401288110487 63.2323566710992 3.00000002508302
vertex 279.914231551358 60.611861762534 3.00000002508294
vertex 279.975299647505 64.4401382028432 3.00000002508294
endloop
endfacet
facet normal 8.10474697588924e-010 -4.41659137737615e-010 1.0
outer loop
vertex 279.975299647505 64.4401382028432 3.00000002508294
vertex 279.914231551358 60.611861762534 3.00000002508294
vertex 282.010477831969 62.2203681070973 3.00000002508295
endloop
endfacet
facet normal 8.10474697588924e-010 -4.41659137737615e-010 1.0
outer loop
vertex 279.975299647505 64.4401382028432 3.00000002508294
vertex 282.010477831969 62.2203681070973 3.00000002508295
vertex 290.930077784959 66.8093285493736 3.00000002347461
endloop
endfacet
facet normal 8.10474697588924e-010 -4.41659137737615e-010 1.0
outer loop
vertex 290.930077784959 66.8093285493736 3.00000002347461
vertex 282.010477831969 62.2203681070973 3.00000002508295
vertex 290.930077784959 63.4991553678919 3.00000002347451
endloop
endfacet
facet normal 1.0 -5.33201624693031e-019 -8.10474697588924e-010
outer loop
vertex 296.930077782528 59.814150672695 2.22731781333669e-008
vertex 296.930077784959 69.4275776257106 3.00000001594862
vertex 296.930077784959 59.81415067137 3.00000002227318
endloop
endfacet
facet normal 1.0 -5.33201624693031e-019 -8.10474697588924e-010
outer loop
vertex 296.930077784959 69.4275776257106 3.00000001594862
vertex 296.930077782528 59.814150672695 2.22731781333669e-008
vertex 296.930077782528 69.4275776270356 1.59486193455711e-008
endloop
endfacet
facet normal 5.31267144431482e-014 1.0 4.41659137737572e-010
outer loop
vertex 293.533019773079 69.4275776257108 3.00000000842259
vertex 296.930077782528 69.4275776270356 1.59486193455711e-008
vertex 293.533019770647 69.4275776270358 8.42259127815389e-009
endloop
endfacet
facet normal 5.31267144431482e-014 1.0 4.41659137737572e-010
outer loop
vertex 296.930077782528 69.4275776270356 1.59486193455711e-008
vertex 293.533019773079 69.4275776257108 3.00000000842259
vertex 296.930077784959 69.4275776257106 3.00000001594862
endloop
endfacet
facet normal 1.0 6.85653444646483e-023 -8.10474697588924e-010
outer loop
vertex 293.533019770647 69.4275776270358 8.42259127815389e-009
vertex 293.533019773079 69.8275776257106 3.00000000842263
vertex 293.533019773079 69.4275776257108 3.00000000842259
endloop
endfacet
facet normal 1.0 6.85653444646483e-023 -8.10474697588924e-010
outer loop
vertex 293.533019773079 69.8275776257106 3.00000000842263
vertex 293.533019770647 69.4275776270358 8.42259127815389e-009
vertex 293.533019770647 69.8275776270356 8.42262511775168e-009
endloop
endfacet
facet normal 2.65643733561621e-014 -1.0 -4.41659137737637e-010
outer loop
vertex 296.930077782528 69.8275776270357 1.24752948286817e-008
vertex 293.533019773079 69.8275776257106 3.00000000842263
vertex 293.533019770647 69.8275776270356 8.42262511775168e-009
endloop
endfacet
facet normal 2.65643733561621e-014 -1.0 -4.41659137737637e-010
outer loop
vertex 293.533019773079 69.8275776257106 3.00000000842263
vertex 296.930077782528 69.8275776270357 1.24752948286817e-008
vertex 296.930077784959 69.8275776257107 3.0000000124753
endloop
endfacet
facet normal 1.0 1.85906718592786e-018 -8.10474697588924e-010
outer loop
vertex 296.930077782528 69.8275776270357 1.24752948286817e-008
vertex 296.930077784959 74.6227787004412 3.00000002347453
vertex 296.930077784959 69.8275776257107 3.0000000124753
endloop
endfacet
facet normal 1.0 1.85906718592786e-018 -8.10474697588924e-010
outer loop
vertex 296.930077784959 74.6227787004412 3.00000002347453
vertex 296.930077782528 69.8275776270357 1.24752948286817e-008
vertex 296.930077782528 74.6227787017662 2.3474528974396e-008
endloop
endfacet
facet normal 0.183507343520461 0.983018339032423 2.8543097325223e-010
outer loop
vertex 282.010477829537 77.4079313739495 2.5082925057382e-008
vertex 296.930077784959 74.6227787004412 3.00000002347453
vertex 296.930077782528 74.6227787017662 2.3474528974396e-008
endloop
endfacet
facet normal 0.183507343520461 0.983018339032423 2.8543097325223e-010
outer loop
vertex 296.930077784959 74.6227787004412 3.00000002347453
vertex 282.010477829537 77.4079313739495 2.5082925057382e-008
vertex 282.010477831969 77.4079313726245 3.00000002508293
endloop
endfacet
facet normal 0.499999999933612 0.866025403822768 -2.27493156294222e-011
outer loop
vertex 279.914231548926 79.0164377185133 2.50829588969798e-008
vertex 282.010477831969 77.4079313726245 3.00000002508293
vertex 282.010477829537 77.4079313739495 2.5082925057382e-008
endloop
endfacet
facet normal 0.608761429008751 0.793353340291212 -1.42993982885395e-010
outer loop
vertex 282.010477831969 77.4079313726245 3.00000002508293
vertex 279.914231548926 79.0164377185133 2.50829588969798e-008
vertex 279.914231551357 79.0164377171883 3.00000002508296
endloop
endfacet
facet normal 0.258819045174527 0.965925826269774 2.16843680180724e-010
outer loop
vertex 277.351470006587 80.0779683061603 3.00000002508292
vertex 279.914231548926 79.0164377185133 2.50829588969798e-008
vertex 277.351470004156 80.0779683074853 2.50829194174491e-008
endloop
endfacet
facet normal 0.499999999933612 0.866025403822768 -2.27493156294222e-011
outer loop
vertex 279.914231548926 79.0164377185133 2.50829588969798e-008
vertex 277.351470006587 80.0779683061603 3.00000002508292
vertex 279.914231551357 79.0164377171883 3.00000002508296
endloop
endfacet
facet normal -6.73343691959252e-011 1.0 4.41659137792188e-010
outer loop
vertex 274.601288108056 80.4400366229265 2.50829645369128e-008
vertex 277.351470006587 80.0779683061603 3.00000002508292
vertex 277.351470004156 80.0779683074853 2.50829194174491e-008
endloop
endfacet
facet normal 0.258819045174527 0.965925826269774 2.16843680180724e-010
outer loop
vertex 277.351470006587 80.0779683061603 3.00000002508292
vertex 274.601288108056 80.4400366229265 2.50829645369128e-008
vertex 274.601288110487 80.4400366216015 3.00000002508296
endloop
endfacet
facet normal -0.258819045156176 0.965925826274691 6.3637625490418e-010
outer loop
vertex 271.851106211957 80.0779683074854 2.50829927365776e-008
vertex 274.601288110487 80.4400366216015 3.00000002508296
vertex 274.601288108056 80.4400366229265 2.50829645369128e-008
endloop
endfacet
facet normal 6.73581440321839e-011 1.0 4.41659137683023e-010
outer loop
vertex 274.601288110487 80.4400366216015 3.00000002508296
vertex 271.851106211957 80.0779683074854 2.50829927365776e-008
vertex 271.851106214388 80.0779683061604 3.00000002508299
endloop
endfacet
facet normal -0.499999999965398 0.866025403804416 7.87725381869547e-010
outer loop
vertex 269.288344669617 79.016437717188 3.00000002508293
vertex 271.851106211957 80.0779683074854 2.50829927365776e-008
vertex 269.288344667186 79.016437718513 2.5082930697315e-008
endloop
endfacet
facet normal -0.258819045156176 0.965925826274691 6.3637625490418e-010
outer loop
vertex 271.851106211957 80.0779683074854 2.50829927365776e-008
vertex 269.288344669617 79.016437717188 3.00000002508293
vertex 271.851106214388 80.0779683061604 3.00000002508299
endloop
endfacet
facet normal -0.608761429008742 0.793353340291219 8.43777487273938e-010
outer loop
vertex 267.192098389006 77.4079313726247 3.00000002508292
vertex 269.288344667186 79.016437718513 2.5082930697315e-008
vertex 267.192098386575 77.4079313739497 2.50829194174491e-008
endloop
endfacet
facet normal -0.500000000034638 0.86602540376444 7.87725381908008e-010
outer loop
vertex 269.288344667186 79.016437718513 2.5082930697315e-008
vertex 267.192098389006 77.4079313726247 3.00000002508292
vertex 269.288344669617 79.016437717188 3.00000002508293
endloop
endfacet
facet normal -0.793353340291232 -0.608761429008725 3.74127760729787e-010
outer loop
vertex 267.192098389006 77.4079313726247 3.00000002508292
vertex 267.800859815584 76.6145780336583 2.50829645369128e-008
vertex 267.800859818015 76.6145780323334 3.00000002508296
endloop
endfacet
facet normal -0.793353340291232 -0.608761429008725 3.74127760729787e-010
outer loop
vertex 267.800859815584 76.6145780336583 2.50829645369128e-008
vertex 267.192098389006 77.4079313726247 3.00000002508292
vertex 267.192098386575 77.4079313739497 2.50829194174491e-008
endloop
endfacet
facet normal -0.0726753166657701 -0.99735565288794 -3.81589732375355e-010
outer loop
vertex 270.801288108056 76.3959428099475 2.50829701768458e-008
vertex 267.800859818015 76.6145780323334 3.00000002508296
vertex 267.800859815584 76.6145780336583 2.50829645369128e-008
endloop
endfacet
facet normal -0.0726753166657701 -0.99735565288794 -3.81589732375355e-010
outer loop
vertex 267.800859818015 76.6145780323334 3.00000002508296
vertex 270.801288108056 76.3959428099475 2.50829701768458e-008
vertex 270.801288110487 76.3959428086226 3.00000002508297
endloop
endfacet
facet normal 0.258819045048901 -0.965925826303435 -6.36376254829931e-010
outer loop
vertex 272.634263367708 77.155186019658 3.00000002508295
vertex 270.801288108056 76.3959428099475 2.50829701768458e-008
vertex 272.634263365277 77.155186020983 2.50829476171139e-008
endloop
endfacet
facet normal 0.382683432365206 -0.923879532511239 -7.18195076820827e-010
outer loop
vertex 270.801288108056 76.3959428099475 2.50829701768458e-008
vertex 272.634263367708 77.155186019658 3.00000002508295
vertex 270.801288110487 76.3959428086226 3.00000002508297
endloop
endfacet
facet normal -6.73533052995089e-011 -1.0 -4.41659137683027e-010
outer loop
vertex 274.601288110487 77.414149739861 3.00000002508288
vertex 272.634263365277 77.155186020983 2.50829476171139e-008
vertex 274.601288108056 77.414149741186 2.50828799379183e-008
endloop
endfacet
facet normal 0.258819045156219 -0.96592582627468 -6.3637625490421e-010
outer loop
vertex 272.634263365277 77.155186020983 2.50829476171139e-008
vertex 274.601288110487 77.414149739861 3.00000002508288
vertex 272.634263367708 77.155186019658 3.00000002508295
endloop
endfacet
facet normal -0.258819045030552 -0.965925826308352 -2.16843680314449e-010
outer loop
vertex 276.568312850835 77.155186020983 2.50829476171139e-008
vertex 274.601288110487 77.414149739861 3.00000002508288
vertex 274.601288108056 77.414149741186 2.50828799379183e-008
endloop
endfacet
facet normal -6.73533052995089e-011 -1.0 -4.41659137683027e-010
outer loop
vertex 274.601288110487 77.414149739861 3.00000002508288
vertex 276.568312850835 77.155186020983 2.50829476171139e-008
vertex 276.568312853267 77.155186019658 3.00000002508295
endloop
endfacet
facet normal -0.499999999933614 -0.866025403822767 2.27493156294242e-011
outer loop
vertex 278.401288108056 76.3959428099475 2.50830096563765e-008
vertex 276.568312853267 77.155186019658 3.00000002508295
vertex 276.568312850835 77.155186020983 2.50829476171139e-008
endloop
endfacet
facet normal -0.25881904517458 -0.96592582626976 -2.16843680180675e-010
outer loop
vertex 276.568312853267 77.155186019658 3.00000002508295
vertex 278.401288108056 76.3959428099475 2.50830096563765e-008
vertex 278.401288110487 76.3959428086226 3.00000002508301
endloop
endfacet
facet normal -0.608761429008651 -0.793353340291289 1.4299398288528e-010
outer loop
vertex 279.975299647505 75.1881612768787 3.00000002508298
vertex 278.401288108056 76.3959428099475 2.50830096563765e-008
vertex 279.975299645074 75.1881612782037 2.50829758167787e-008
endloop
endfacet
facet normal -0.499999999933614 -0.866025403822767 2.27493156294242e-011
outer loop
vertex 278.401288108056 76.3959428099475 2.50830096563765e-008
vertex 279.975299647505 75.1881612768787 3.00000002508298
vertex 278.401288110487 76.3959428086226 3.00000002508301
endloop
endfacet
facet normal -0.221755852272884 -0.975102221299248 -2.50935298955619e-010
outer loop
vertex 294.216983776663 71.9493451477815 3.00000002347451
vertex 279.975299645074 75.1881612782037 2.50829758167787e-008
vertex 294.216983774231 71.9493451491065 2.34745120545971e-008
endloop
endfacet
facet normal -0.221755852272884 -0.975102221299248 -2.50935298955619e-010
outer loop
vertex 279.975299645074 75.1881612782037 2.50829758167787e-008
vertex 294.216983776663 71.9493451477815 3.00000002347451
vertex 279.975299647505 75.1881612768787 3.00000002508298
endloop
endfacet
facet normal 0.0 1.0 4.41659137737615e-010
outer loop
vertex 290.930077784959 71.9493451477815 3.00000002347451
vertex 294.216983774231 71.9493451491065 2.34745120545971e-008
vertex 290.930077782528 71.9493451491065 2.34745120545971e-008
endloop
endfacet
facet normal 0.0 1.0 4.41659137737615e-010
outer loop
vertex 294.216983774231 71.9493451491065 2.34745120545971e-008
vertex 290.930077784959 71.9493451477815 3.00000002347451
vertex 294.216983776663 71.9493451477815 3.00000002347451
endloop
endfacet
facet normal -1.0 1.51181205168291e-023 8.10474697588924e-010
outer loop
vertex 290.930077784959 71.9493451477815 3.00000002347451
vertex 290.930077782528 66.8093285506986 2.34746079334575e-008
vertex 290.930077784959 66.8093285493736 3.00000002347461
endloop
endfacet
facet normal -1.0 1.51181205168291e-023 8.10474697588924e-010
outer loop
vertex 290.930077782528 66.8093285506986 2.34746079334575e-008
vertex 290.930077784959 71.9493451477815 3.00000002347451
vertex 290.930077782528 71.9493451491065 2.34745120545971e-008
endloop
endfacet
facet normal -0.211383053713964 0.977403296803607 6.02999713822432e-010
outer loop
vertex 279.975299645074 64.4401382041682 2.50829419771809e-008
vertex 290.930077784959 66.8093285493736 3.00000002347461
vertex 290.930077782528 66.8093285506986 2.34746079334575e-008
endloop
endfacet
facet normal -0.211383053713964 0.977403296803607 6.02999713822432e-010
outer loop
vertex 290.930077784959 66.8093285493736 3.00000002347461
vertex 279.975299645074 64.4401382041682 2.50829419771809e-008
vertex 279.975299647505 64.4401382028432 3.00000002508294
endloop
endfacet
facet normal -0.499999999965383 0.866025403804425 7.87725381869538e-010
outer loop
vertex 278.401288108056 63.2323566724242 2.50830209362425e-008
vertex 279.975299647505 64.4401382028432 3.00000002508294
vertex 279.975299645074 64.4401382041682 2.50829419771809e-008
endloop
endfacet
facet normal -0.608761429008752 0.793353340291211 8.43777487273943e-010
outer loop
vertex 279.975299647505 64.4401382028432 3.00000002508294
vertex 278.401288108056 63.2323566724242 2.50830209362425e-008
vertex 278.401288110487 63.2323566710992 3.00000002508302
endloop
endfacet
facet normal -0.258819045156151 0.965925826274698 6.36376254904162e-010
outer loop
vertex 276.568312853267 62.4731134600641 3.00000002508294
vertex 278.401288108056 63.2323566724242 2.50830209362425e-008
vertex 276.568312850835 62.4731134613891 2.50829419771809e-008
endloop
endfacet
facet normal -0.499999999965383 0.866025403804425 7.87725381869538e-010
outer loop
vertex 278.401288108056 63.2323566724242 2.50830209362425e-008
vertex 276.568312853267 62.4731134600641 3.00000002508294
vertex 278.401288110487 63.2323566710992 3.00000002508302
endloop
endfacet
facet normal -6.73542498821031e-011 1.0 4.41659137792204e-010
outer loop
vertex 274.601288110487 62.2141497398611 3.00000002508292
vertex 276.568312850835 62.4731134613891 2.50829419771809e-008
vertex 274.601288108056 62.214149741186 2.50829194174491e-008
endloop
endfacet
facet normal -0.258819045048825 0.965925826303456 6.36376254829879e-010
outer loop
vertex 276.568312850835 62.4731134613891 2.50829419771809e-008
vertex 274.601288110487 62.2141497398611 3.00000002508292
vertex 276.568312853267 62.4731134600641 3.00000002508294
endloop
endfacet
facet normal 0.258819045030491 0.965925826308369 2.16843680314507e-010
outer loop
vertex 272.634263367708 62.4731134600641 3.0000000250829
vertex 274.601288108056 62.214149741186 2.50829194174491e-008
vertex 272.634263365277 62.4731134613891 2.50828968577172e-008
endloop
endfacet
facet normal 6.73423802787787e-011 1.0 4.41659137683036e-010
outer loop
vertex 274.601288108056 62.214149741186 2.50829194174491e-008
vertex 272.634263367708 62.4731134600641 3.0000000250829
vertex 274.601288110487 62.2141497398611 3.00000002508292
endloop
endfacet
facet normal 0.382683432365089 0.923879532511287 9.7884598583979e-011
outer loop
vertex 270.801288108056 63.2323566724242 2.50830209362425e-008
vertex 272.634263367708 62.4731134600641 3.0000000250829
vertex 272.634263365277 62.4731134613891 2.50828968577172e-008
endloop
endfacet
facet normal 0.258819045030491 0.965925826308369 2.16843680314507e-010
outer loop
vertex 272.634263367708 62.4731134600641 3.0000000250829
vertex 270.801288108056 63.2323566724242 2.50830209362425e-008
vertex 270.801288110487 63.2323566710992 3.00000002508302
endloop
endfacet
facet normal -0.0726753166657104 0.997355652887945 4.99392742969047e-010
outer loop
vertex 267.800859815584 63.0137214487136 2.50830491359073e-008
vertex 270.801288110487 63.2323566710992 3.00000002508302
vertex 270.801288108056 63.2323566724242 2.50830209362425e-008
endloop
endfacet
facet normal -0.0726753166657104 0.997355652887945 4.99392742969047e-010
outer loop
vertex 270.801288110487 63.2323566710992 3.00000002508302
vertex 267.800859815584 63.0137214487136 2.50830491359073e-008
vertex 267.800859818015 63.0137214473886 3.00000002508305
endloop
endfacet
facet normal -0.793353340291198 0.608761429008768 9.11857856377603e-010
outer loop
vertex 267.800859818015 63.0137214473886 3.00000002508305
vertex 267.192098386575 62.2203681084224 2.5082925057382e-008
vertex 267.192098389006 62.2203681070974 3.00000002508293
endloop
endfacet
facet normal -0.793353340291198 0.608761429008768 9.11857856377603e-010
outer loop
vertex 267.192098386575 62.2203681084224 2.5082925057382e-008
vertex 267.800859818015 63.0137214473886 3.00000002508305
vertex 267.800859815584 63.0137214487136 2.50830491359073e-008
endloop
endfacet
facet normal -0.499999999933595 -0.866025403822777 2.27493156294047e-011
outer loop
vertex 269.288344669617 60.6118617625339 3.0000000250829
vertex 267.192098386575 62.2203681084224 2.5082925057382e-008
vertex 269.288344667186 60.6118617638588 2.50828968577172e-008
endloop
endfacet
facet normal -0.608761429008719 -0.793353340291236 1.42993982885359e-010
outer loop
vertex 267.192098386575 62.2203681084224 2.5082925057382e-008
vertex 269.288344669617 60.6118617625339 3.0000000250829
vertex 267.192098389006 62.2203681070974 3.00000002508293
endloop
endfacet
facet normal -0.258819045174516 -0.965925826269777 -2.16843680180734e-010
outer loop
vertex 271.851106211956 59.5503311748867 2.50830378560413e-008
vertex 269.288344669617 60.6118617625339 3.0000000250829
vertex 269.288344667186 60.6118617638588 2.50828968577172e-008
endloop
endfacet
facet normal -0.499999999933595 -0.866025403822777 2.27493156294047e-011
outer loop
vertex 269.288344669617 60.6118617625339 3.0000000250829
vertex 271.851106211956 59.5503311748867 2.50830378560413e-008
vertex 271.851106214388 59.5503311735617 3.00000002508304
endloop
endfacet
facet normal 6.73510864380902e-011 -1.0 -4.41659137792202e-010
outer loop
vertex 274.601288110487 59.1882628581207 3.00000002508303
vertex 271.851106211956 59.5503311748867 2.50830378560413e-008
vertex 274.601288108056 59.1882628594457 2.50830322161084e-008
endloop
endfacet
facet normal -0.258819045174516 -0.965925826269777 -2.16843680180734e-010
outer loop
vertex 271.851106211956 59.5503311748867 2.50830378560413e-008
vertex 274.601288110487 59.1882628581207 3.00000002508303
vertex 271.851106214388 59.5503311735617 3.00000002508304
endloop
endfacet
facet normal 0.258819045156171 -0.965925826274692 -6.36376254904177e-010
outer loop
vertex 277.351470006587 59.5503311735617 3.000000025083
vertex 274.601288108056 59.1882628594457 2.50830322161084e-008
vertex 277.351470004155 59.5503311748867 2.50830040164436e-008
endloop
endfacet
facet normal -6.73426208787458e-011 -1.0 -4.41659137683036e-010
outer loop
vertex 274.601288108056 59.1882628594457 2.50830322161084e-008
vertex 277.351470006587 59.5503311735617 3.000000025083
vertex 274.601288110487 59.1882628581207 3.00000002508303
endloop
endfacet
facet normal 0.500000000034604 -0.86602540376446 -7.8772538190799e-010
outer loop
vertex 279.914231551358 60.611861762534 3.00000002508294
vertex 277.351470004155 59.5503311748867 2.50830040164436e-008
vertex 279.914231548926 60.611861763859 2.5082936337248e-008
endloop
endfacet
facet normal 0.258819045048852 -0.965925826303449 -6.36376254829898e-010
outer loop
vertex 277.351470004155 59.5503311748867 2.50830040164436e-008
vertex 279.914231551358 60.611861762534 3.00000002508294
vertex 277.351470006587 59.5503311735617 3.000000025083
endloop
endfacet
facet normal 0.608761429008688 -0.79335334029126 -8.43777487273912e-010
outer loop
vertex 282.010477829537 62.2203681084223 2.50829476171139e-008
vertex 279.914231551358 60.611861762534 3.00000002508294
vertex 279.914231548926 60.611861763859 2.5082936337248e-008
endloop
endfacet
facet normal 0.500000000034604 -0.86602540376446 -7.8772538190799e-010
outer loop
vertex 279.914231551358 60.611861762534 3.00000002508294
vertex 282.010477829537 62.2203681084223 2.50829476171139e-008
vertex 282.010477831969 62.2203681070973 3.00000002508295
endloop
endfacet
facet normal 0.141917134763413 -0.989878541468873 -5.52209149970175e-010
outer loop
vertex 290.930077784959 63.4991553678919 3.00000002347451
vertex 282.010477829537 62.2203681084223 2.50829476171139e-008
vertex 290.930077782528 63.4991553692169 2.34745064146642e-008
endloop
endfacet
facet normal 0.141917134763413 -0.989878541468873 -5.52209149970175e-010
outer loop
vertex 282.010477829537 62.2203681084223 2.50829476171139e-008
vertex 290.930077784959 63.4991553678919 3.00000002347451
vertex 282.010477831969 62.2203681070973 3.00000002508295
endloop
endfacet
facet normal -1.0 -2.64224639481483e-019 8.10474697588924e-010
outer loop
vertex 290.930077784959 63.4991553678919 3.00000002347451
vertex 290.930077782528 59.8141506985132 2.22731499337021e-008
vertex 290.930077784959 59.8141506971883 3.00000002227315
endloop
endfacet
facet normal -1.0 -2.64224639481483e-019 8.10474697588924e-010
outer loop
vertex 290.930077782528 59.8141506985132 2.22731499337021e-008
vertex 290.930077784959 63.4991553678919 3.00000002347451
vertex 290.930077782528 63.4991553692169 2.34745064146642e-008
endloop
endfacet
facet normal -4.7400394579877e-007 -0.999999999999888 -4.41658753569361e-010
outer loop
vertex 291.430077810484 59.8141504601863 2.99999996011176
vertex 290.930077782528 59.8141506985132 2.22731499337021e-008
vertex 291.430077808052 59.8141504615113 -3.98882397907778e-008
endloop
endfacet
facet normal -4.7400394579877e-007 -0.999999999999888 -4.41658753569361e-010
outer loop
vertex 290.930077782528 59.8141506985132 2.22731499337021e-008
vertex 291.430077810484 59.8141504601863 2.99999996011176
vertex 290.930077784959 59.8141506971883 3.00000002227315
endloop
endfacet
facet normal -1.0 7.97639964326658e-009 8.10474701111774e-010
outer loop
vertex 291.430077810484 59.8141504601863 2.99999996011176
vertex 291.430077784123 56.8141505939275 2.22464504910453e-008
vertex 291.430077786555 56.8141505926026 3.00000002224645
endloop
endfacet
facet normal -1.0 7.97639964326658e-009 8.10474701111774e-010
outer loop
vertex 291.430077784123 56.8141505939275 2.22464504910453e-008
vertex 291.430077810484 59.8141504601863 2.99999996011176
vertex 291.430077808052 59.8141504615113 -3.98882397907778e-008
endloop
endfacet
facet normal -6.53167404459001e-008 0.999999999999998 4.4165919067518e-010
outer loop
vertex 290.730077784123 56.8141505482058 4.57478368391468e-008
vertex 291.430077786555 56.8141505926026 3.00000002224645
vertex 291.430077784123 56.8141505939275 2.22464504910453e-008
endloop
endfacet
facet normal -6.53167404459001e-008 0.999999999999998 4.4165919067518e-010
outer loop
vertex 291.430077786555 56.8141505926026 3.00000002224645
vertex 290.730077784123 56.8141505482058 4.57478368391468e-008
vertex 290.730077786555 56.8141505468808 3.00000004574784
endloop
endfacet
facet normal -0.932588011481222 -0.360942655890795 5.96425364406846e-010
outer loop
vertex 290.730077786555 56.8141505468808 3.00000004574784
vertex 291.430077809648 55.0055207806059 -8.83430641045727e-009
vertex 291.430077812079 55.0055207792809 2.99999999116569
endloop
endfacet
facet normal -0.932588011481222 -0.360942655890795 5.96425364406846e-010
outer loop
vertex 291.430077809648 55.0055207806059 -8.83430641045727e-009
vertex 290.730077786555 56.8141505468808 3.00000004574784
vertex 290.730077784123 56.8141505482058 4.57478368391468e-008
endloop
endfacet
facet normal 1.10091490964563e-011 -1.0 -4.41659137746538e-010
outer loop
vertex 293.430077812079 55.005520779303 2.99999999093289
vertex 291.430077809648 55.0055207806059 -8.83430641045727e-009
vertex 293.430077809648 55.0055207806279 -9.0671115633905e-009
endloop
endfacet
facet normal 1.10091490964563e-011 -1.0 -4.41659137746538e-010
outer loop
vertex 291.430077809648 55.0055207806059 -8.83430641045727e-009
vertex 293.430077812079 55.005520779303 2.99999999093289
vertex 291.430077812079 55.0055207792809 2.99999999116569
endloop
endfacet
facet normal 1.0 1.19882770475042e-010 -8.10474697535977e-010
outer loop
vertex 293.430077809648 55.0055207806279 -9.0671115633905e-009
vertex 293.430077810557 67.7055207793029 2.99999999246222
vertex 293.430077812079 55.005520779303 2.99999999093289
endloop
endfacet
facet normal 1.0 1.19882770475042e-010 -8.10474697535977e-010
outer loop
vertex 293.430077810557 67.7055207793029 2.99999999246222
vertex 293.430077809648 55.0055207806279 -9.0671115633905e-009
vertex 293.430077808125 67.7055207806279 -7.53778170064216e-009
endloop
endfacet
facet normal -2.21987763597474e-011 -1.0 -4.41659137719624e-010
outer loop
vertex 294.430077810557 67.7055207792807 2.9999999919887
vertex 293.430077808125 67.7055207806279 -7.53778170064216e-009
vertex 294.430077808125 67.7055207806057 -8.01129919252567e-009
endloop
endfacet
facet normal -2.21987763597474e-011 -1.0 -4.41659137719624e-010
outer loop
vertex 293.430077808125 67.7055207806279 -7.53778170064216e-009
vertex 294.430077810557 67.7055207792807 2.9999999919887
vertex 293.430077810557 67.7055207793029 2.99999999246222
endloop
endfacet
facet normal -1.0 -1.19868559701898e-010 8.10474697535983e-010
outer loop
vertex 294.430077810557 67.7055207792807 2.9999999919887
vertex 294.430077809648 55.0055207806059 -1.08188127030866e-008
vertex 294.430077812079 55.0055207792809 2.99999998918119
endloop
endfacet
facet normal -1.0 -1.19868559701898e-010 8.10474697535983e-010
outer loop
vertex 294.430077809648 55.0055207806059 -1.08188127030866e-008
vertex 294.430077810557 67.7055207792807 2.9999999919887
vertex 294.430077808125 67.7055207806057 -8.01129919252567e-009
endloop
endfacet
facet normal 1.26260154929134e-019 -1.0 -4.41659137737615e-010
outer loop
vertex 296.430077809648 55.0055207806059 -1.02470588588171e-008
vertex 294.430077812079 55.0055207792809 2.99999998918119
vertex 294.430077809648 55.0055207806059 -1.08188127030866e-008
endloop
endfacet
facet normal 1.26260154929134e-019 -1.0 -4.41659137737615e-010
outer loop
vertex 294.430077812079 55.0055207792809 2.99999998918119
vertex 296.430077809648 55.0055207806059 -1.02470588588171e-008
vertex 296.430077812079 55.0055207792809 2.99999998975294
endloop
endfacet
facet normal 0.932588016346097 -0.36094264332114 -9.15252607145108e-010
outer loop
vertex 296.430077809648 55.0055207806059 -1.02470588588171e-008
vertex 297.130077812079 56.8141505533513 3.00000000206659
vertex 296.430077812079 55.0055207792809 2.99999998975294
endloop
endfacet
facet normal 0.932588016346097 -0.36094264332114 -9.15252607145108e-010
outer loop
vertex 297.130077812079 56.8141505533513 3.00000000206659
vertex 296.430077809648 55.0055207806059 -1.02470588588171e-008
vertex 297.130077809648 56.8141505546763 2.06658986407767e-009
endloop
endfacet
facet normal 5.60733092825755e-008 0.999999999999998 4.41659092291616e-010
outer loop
vertex 296.430077812079 56.8141505926027 2.99999997859421
vertex 297.130077809648 56.8141505546763 2.06658986407767e-009
vertex 296.430077809648 56.8141505939276 -2.14057903087843e-008
endloop
endfacet
facet normal 5.60733092825755e-008 0.999999999999998 4.41659092291616e-010
outer loop
vertex 297.130077809648 56.8141505546763 2.06658986407767e-009
vertex 296.430077812079 56.8141505926027 2.99999997859421
vertex 297.130077812079 56.8141505533513 3.00000000206659
endloop
endfacet
facet normal 1.0 5.31747936739927e-010 -8.10474697354073e-010
outer loop
vertex 296.430077809648 56.8141505939276 -2.14057903087843e-008
vertex 296.430077810484 59.8141504686945 2.99999996011175
vertex 296.430077812079 56.8141505926027 2.99999997859421
endloop
endfacet
facet normal 1.0 5.31747936739927e-010 -8.10474697354073e-010
outer loop
vertex 296.430077810484 59.8141504686945 2.99999996011175
vertex 296.430077809648 56.8141505939276 -2.14057903087843e-008
vertex 296.430077808052 59.8141504700194 -3.98882510706438e-008
endloop
endfacet
facet normal 4.05351117080795e-007 -0.999999999999918 -4.41659466264403e-010
outer loop
vertex 296.930077782528 59.814150672695 2.22731781333669e-008
vertex 296.430077810484 59.8141504686945 2.99999996011175
vertex 296.430077808052 59.8141504700194 -3.98882510706438e-008
endloop
endfacet
facet normal 4.05351117080795e-007 -0.999999999999918 -4.41659466264403e-010
outer loop
vertex 296.430077810484 59.8141504686945 2.99999996011175
vertex 296.930077782528 59.814150672695 2.22731781333669e-008
vertex 296.930077784959 59.81415067137 3.00000002227318
endloop
endfacet
endsolid uploads-c5-af-25-85-c2-plotclock_SUP7
