solid uploads-c5-af-25-85-c2-plotclock_SUP7
facet normal -1.49952412413037e-012 6.12521957945395e-007 -0.999999999999812
outer loop
vertex 302.239730120192 79.5513545021638 3.00003123862593
vertex 305.239740226897 74.0513600149251 3.00002786975405
vertex 302.23979310032 45.2780158702321 3.00001024545349
endloop
endfacet
facet normal -1.49952412413037e-012 6.12521957945395e-007 -0.999999999999812
outer loop
vertex 305.239740226897 74.0513600149251 3.00002786975405
vertex 302.239730120192 79.5513545021638 3.00003123862593
vertex 310.864734898778 76.9508894041663 3.00002964577106
endloop
endfacet
facet normal -1.49952412413037e-012 6.12521957945395e-007 -0.999999999999812
outer loop
vertex 310.864734898778 76.9508894041663 3.00002964577106
vertex 302.239730120192 79.5513545021638 3.00003123862593
vertex 311.04562047727 77.0258150534373 3.00002969166433
endloop
endfacet
facet normal -1.49952412413037e-012 6.12521957945395e-007 -0.999999999999812
outer loop
vertex 311.04562047727 77.0258150534373 3.00002969166433
vertex 302.239730120192 79.5513545021638 3.00003123862593
vertex 317.239730120166 79.5513820659193 3.00003123862033
endloop
endfacet
facet normal -1.49952412413037e-012 6.12521957945395e-007 -0.999999999999812
outer loop
vertex 302.23979310032 45.2780158702321 3.00001024545349
vertex 305.239740226897 74.0513600149251 3.00002786975405
vertex 302.239793516829 45.0513545022286 3.00001010661837
endloop
endfacet
facet normal -1.49952412413037e-012 6.12521957945395e-007 -0.999999999999812
outer loop
vertex 305.239740226897 74.0513600149251 3.00002786975405
vertex 310.864734898778 76.9508894041663 3.00002964577106
vertex 310.709405031908 76.831700151786 3.00002957276525
endloop
endfacet
facet normal -1.49952412413037e-012 6.12521957945395e-007 -0.999999999999812
outer loop
vertex 305.239740226897 74.0513600149251 3.00002786975405
vertex 310.709405031908 76.831700151786 3.00002957276525
vertex 310.590216350392 76.6763698468768 3.00002947762219
endloop
endfacet
facet normal -1.49952412413037e-012 6.12521957945395e-007 -0.999999999999812
outer loop
vertex 305.239740226897 74.0513600149251 3.00002786975405
vertex 310.590216350392 76.6763698468768 3.00002947762219
vertex 310.515291365907 76.4954839930225 3.00002936682576
endloop
endfacet
facet normal -1.49952412413037e-012 6.12521957945395e-007 -0.999999999999812
outer loop
vertex 305.239740226897 74.0513600149251 3.00002786975405
vertex 310.515291365907 76.4954839930225 3.00002936682576
vertex 310.489736092325 76.3013696622353 3.00002924792649
endloop
endfacet
facet normal -1.49952412413037e-012 6.12521957945395e-007 -0.999999999999812
outer loop
vertex 311.04562047727 77.0258150534373 3.00002969166433
vertex 317.239730120166 79.5513820659193 3.00003123862033
vertex 311.239734714136 77.0513710404217 3.00002970731767
endloop
endfacet
facet normal -1.49952412413037e-012 6.12521957945395e-007 -0.999999999999812
outer loop
vertex 311.239734714136 77.0513710404217 3.00002970731767
vertex 317.239730120166 79.5513820659193 3.00003123862033
vertex 311.433849044923 77.0258157668397 3.00002969166424
endloop
endfacet
facet normal -1.49952412413037e-012 6.12521957945395e-007 -0.999999999999812
outer loop
vertex 311.433849044923 77.0258157668397 3.00002969166424
vertex 317.239730120166 79.5513820659193 3.00003123862033
vertex 311.614734898777 76.9508907823541 3.0000296457707
endloop
endfacet
facet normal -1.49952412413037e-012 6.12521957945395e-007 -0.999999999999812
outer loop
vertex 311.614734898777 76.9508907823541 3.0000296457707
vertex 317.239730120166 79.5513820659193 3.00003123862033
vertex 311.770065203687 76.8317021008379 3.00002957276479
endloop
endfacet
facet normal -1.49952412413037e-012 6.12521957945395e-007 -0.999999999999812
outer loop
vertex 311.770065203687 76.8317021008379 3.00002957276479
vertex 317.239730120166 79.5513820659193 3.00003123862033
vertex 311.889254456067 76.676372233968 3.0000294776217
endloop
endfacet
facet normal -1.49952412413037e-012 6.12521957945395e-007 -0.999999999999812
outer loop
vertex 311.889254456067 76.676372233968 3.0000294776217
vertex 317.239730120166 79.5513820659193 3.00003123862033
vertex 311.964180105338 76.4954866554768 3.00002936682521
endloop
endfacet
facet normal -1.49952412413037e-012 6.12521957945395e-007 -0.999999999999812
outer loop
vertex 311.964180105338 76.4954866554768 3.00002936682521
vertex 317.239730120166 79.5513820659193 3.00003123862033
vertex 311.989736092322 76.3013724186109 3.00002924792595
endloop
endfacet
facet normal -1.49952412413037e-012 6.12521957945395e-007 -0.999999999999812
outer loop
vertex 305.239740226897 74.0513600149251 3.00002786975405
vertex 311.045623139724 75.5769263140064 3.00002880418821
vertex 317.239740226877 74.0513820659295 3.00002786974959
endloop
endfacet
facet normal -1.49952412413037e-012 6.12521957945395e-007 -0.999999999999812
outer loop
vertex 311.045623139724 75.5769263140064 3.00002880418821
vertex 305.239740226897 74.0513600149251 3.00002786975405
vertex 310.86473728587 75.651851298492 3.00002885008165
endloop
endfacet
facet normal -1.49952412413037e-012 6.12521957945395e-007 -0.999999999999812
outer loop
vertex 310.86473728587 75.651851298492 3.00002885008165
vertex 305.239740226897 74.0513600149251 3.00002786975405
vertex 310.70940698096 75.7710399800083 3.00002892308756
endloop
endfacet
facet normal -1.49952412413037e-012 6.12521957945395e-007 -0.999999999999812
outer loop
vertex 310.70940698096 75.7710399800083 3.00002892308756
vertex 305.239740226897 74.0513600149251 3.00002786975405
vertex 310.59021772858 75.9263698468781 3.0000290182307
endloop
endfacet
facet normal -1.49952412413037e-012 6.12521957945395e-007 -0.999999999999812
outer loop
vertex 310.59021772858 75.9263698468781 3.0000290182307
vertex 305.239740226897 74.0513600149251 3.00002786975405
vertex 310.515292079309 76.1072554253694 3.00002912902723
endloop
endfacet
facet normal -1.49952412413037e-012 6.12521957945395e-007 -0.999999999999812
outer loop
vertex 310.515292079309 76.1072554253694 3.00002912902723
vertex 305.239740226897 74.0513600149251 3.00002786975405
vertex 310.489736092325 76.3013696622353 3.00002924792649
endloop
endfacet
facet normal -1.49952412413037e-012 6.12521957945395e-007 -0.999999999999812
outer loop
vertex 317.239740226877 74.0513820659295 3.00002786974959
vertex 311.045623139724 75.5769263140064 3.00002880418821
vertex 311.239737470511 75.5513710404245 3.00002878853473
endloop
endfacet
facet normal -1.49952412413037e-012 6.12521957945395e-007 -0.999999999999812
outer loop
vertex 317.239740226877 74.0513820659295 3.00002786974959
vertex 311.239737470511 75.5513710404245 3.00002878853473
vertex 311.433851707377 75.5769270274089 3.00002880418803
endloop
endfacet
facet normal -1.49952412413037e-012 6.12521957945395e-007 -0.999999999999812
outer loop
vertex 317.239740226877 74.0513820659295 3.00002786974959
vertex 311.433851707377 75.5769270274089 3.00002880418803
vertex 311.614737285868 75.6518526766799 3.00002885008138
endloop
endfacet
facet normal -1.49952412413037e-012 6.12521957945395e-007 -0.999999999999812
outer loop
vertex 317.239740226877 74.0513820659295 3.00002786974959
vertex 311.614737285868 75.6518526766799 3.00002885008138
vertex 311.770067152738 75.7710419290601 3.0000289230872
endloop
endfacet
facet normal -1.49952412413037e-012 6.12521957945395e-007 -0.999999999999812
outer loop
vertex 317.239740226877 74.0513820659295 3.00002786974959
vertex 311.770067152738 75.7710419290601 3.0000289230872
vertex 311.889255834254 75.9263722339694 3.00002901823025
endloop
endfacet
facet normal -1.49952412413037e-012 6.12521957945395e-007 -0.999999999999812
outer loop
vertex 317.239740226877 74.0513820659295 3.00002786974959
vertex 311.889255834254 75.9263722339694 3.00002901823025
vertex 311.96418081874 76.1072580878238 3.00002912902669
endloop
endfacet
facet normal -1.49952412413037e-012 6.12521957945395e-007 -0.999999999999812
outer loop
vertex 317.239740226877 74.0513820659295 3.00002786974959
vertex 311.96418081874 76.1072580878238 3.00002912902669
vertex 311.989736092322 76.3013724186109 3.00002924792595
endloop
endfacet
facet normal -1.49952412413037e-012 6.12521957945395e-007 -0.999999999999812
outer loop
vertex 317.239740226877 74.0513820659295 3.00002786974959
vertex 311.989736092322 76.3013724186109 3.00002924792595
vertex 317.239730120166 79.5513820659193 3.00003123862033
endloop
endfacet
facet normal -1.49952412413037e-012 6.12521957945395e-007 -0.999999999999812
outer loop
vertex 305.239782491322 51.0513600149684 3.00001378174903
vertex 310.515341899458 48.9954839930742 3.00001252247193
vertex 310.489786625876 48.801369662287 3.00001240357267
endloop
endfacet
facet normal -1.49952412413037e-012 6.12521957945395e-007 -0.999999999999812
outer loop
vertex 310.515341899458 48.9954839930742 3.00001252247193
vertex 305.239782491322 51.0513600149684 3.00001378174903
vertex 310.590266883944 49.1763698469285 3.00001263326837
endloop
endfacet
facet normal -1.49952412413037e-012 6.12521957945395e-007 -0.999999999999812
outer loop
vertex 310.590266883944 49.1763698469285 3.00001263326837
vertex 305.239782491322 51.0513600149684 3.00001378174903
vertex 310.70945556546 49.3317001518379 3.00001272841142
endloop
endfacet
facet normal -1.49952412413037e-012 6.12521957945395e-007 -0.999999999999812
outer loop
vertex 310.70945556546 49.3317001518379 3.00001272841142
vertex 305.239782491322 51.0513600149684 3.00001378174903
vertex 310.86478543233 49.4508894042181 3.00001280141719
endloop
endfacet
facet normal -1.49952412413037e-012 6.12521957945395e-007 -0.999999999999812
outer loop
vertex 310.86478543233 49.4508894042181 3.00001280141719
vertex 305.239782491322 51.0513600149684 3.00001378174903
vertex 311.045671010822 49.525815053489 3.0000128473105
endloop
endfacet
facet normal -1.49952412413037e-012 6.12521957945395e-007 -0.999999999999812
outer loop
vertex 311.045671010822 49.525815053489 3.0000128473105
vertex 305.239782491322 51.0513600149684 3.00001378174903
vertex 317.239782491302 51.0513820659729 3.00001378174452
endloop
endfacet
facet normal -1.49952412413037e-012 6.12521957945395e-007 -0.999999999999812
outer loop
vertex 311.045671010822 49.525815053489 3.0000128473105
vertex 317.239782491302 51.0513820659729 3.00001378174452
vertex 311.239785247687 49.5513710404734 3.0000128629638
endloop
endfacet
facet normal -1.49952412413037e-012 6.12521957945395e-007 -0.999999999999812
outer loop
vertex 311.239785247687 49.5513710404734 3.0000128629638
vertex 317.239782491302 51.0513820659729 3.00001378174452
vertex 311.433899578475 49.5258157668916 3.00001284731041
endloop
endfacet
facet normal -1.49952412413037e-012 6.12521957945395e-007 -0.999999999999812
outer loop
vertex 311.433899578475 49.5258157668916 3.00001284731041
vertex 317.239782491302 51.0513820659729 3.00001378174452
vertex 311.614785432329 49.4508907824058 3.00001280141688
endloop
endfacet
facet normal -1.49952412413037e-012 6.12521957945395e-007 -0.999999999999812
outer loop
vertex 311.614785432329 49.4508907824058 3.00001280141688
vertex 317.239782491302 51.0513820659729 3.00001378174452
vertex 311.770115737238 49.3317021008897 3.00001272841097
endloop
endfacet
facet normal -1.49952412413037e-012 6.12521957945395e-007 -0.999999999999812
outer loop
vertex 311.770115737238 49.3317021008897 3.00001272841097
vertex 317.239782491302 51.0513820659729 3.00001378174452
vertex 311.889304989619 49.1763722340198 3.00001263326782
endloop
endfacet
facet normal -1.49952412413037e-012 6.12521957945395e-007 -0.999999999999812
outer loop
vertex 311.889304989619 49.1763722340198 3.00001263326782
vertex 317.239782491302 51.0513820659729 3.00001378174452
vertex 311.96423063889 48.9954866555286 3.00001252247139
endloop
endfacet
facet normal -1.49952412413037e-012 6.12521957945395e-007 -0.999999999999812
outer loop
vertex 311.96423063889 48.9954866555286 3.00001252247139
vertex 317.239782491302 51.0513820659729 3.00001378174452
vertex 311.989786625874 48.8013724186626 3.00001240357212
endloop
endfacet
facet normal -1.49952412413037e-012 6.12521957945395e-007 -0.999999999999812
outer loop
vertex 302.239793516829 45.0513545022286 3.00001010661837
vertex 310.864787819422 48.1518512985439 3.00001200572782
vertex 317.239793516804 45.0513820659841 3.00001010661278
endloop
endfacet
facet normal -1.49952412413037e-012 6.12521957945395e-007 -0.999999999999812
outer loop
vertex 310.864787819422 48.1518512985439 3.00001200572782
vertex 302.239793516829 45.0513545022286 3.00001010661837
vertex 305.239782491322 51.0513600149684 3.00001378174903
endloop
endfacet
facet normal -1.49952412413037e-012 6.12521957945395e-007 -0.999999999999812
outer loop
vertex 305.239782491322 51.0513600149684 3.00001378174903
vertex 302.239793516829 45.0513545022286 3.00001010661837
vertex 305.239740226897 74.0513600149251 3.00002786975405
endloop
endfacet
facet normal -1.49952412413037e-012 6.12521957945395e-007 -0.999999999999812
outer loop
vertex 310.864787819422 48.1518512985439 3.00001200572782
vertex 305.239782491322 51.0513600149684 3.00001378174903
vertex 310.709457514512 48.27103998006 3.00001207873373
endloop
endfacet
facet normal -1.49952412413037e-012 6.12521957945395e-007 -0.999999999999812
outer loop
vertex 310.709457514512 48.27103998006 3.00001207873373
vertex 305.239782491322 51.0513600149684 3.00001378174903
vertex 310.590268262132 48.4263698469299 3.00001217387688
endloop
endfacet
facet normal -1.49952412413037e-012 6.12521957945395e-007 -0.999999999999812
outer loop
vertex 310.590268262132 48.4263698469299 3.00001217387688
vertex 305.239782491322 51.0513600149684 3.00001378174903
vertex 310.515342612861 48.6072554254211 3.0000122846734
endloop
endfacet
facet normal -1.49952412413037e-012 6.12521957945395e-007 -0.999999999999812
outer loop
vertex 310.515342612861 48.6072554254211 3.0000122846734
vertex 305.239782491322 51.0513600149684 3.00001378174903
vertex 310.489786625876 48.801369662287 3.00001240357267
endloop
endfacet
facet normal -1.49952412413037e-012 6.12521957945395e-007 -0.999999999999812
outer loop
vertex 317.239793516804 45.0513820659841 3.00001010661278
vertex 310.864787819422 48.1518512985439 3.00001200572782
vertex 311.045673673276 48.0769263140581 3.00001195983438
endloop
endfacet
facet normal -1.49952412413037e-012 6.12521957945395e-007 -0.999999999999812
outer loop
vertex 317.239793516804 45.0513820659841 3.00001010661278
vertex 311.045673673276 48.0769263140581 3.00001195983438
vertex 311.239788004063 48.0513710404762 3.0000119441809
endloop
endfacet
facet normal -1.49952412413037e-012 6.12521957945395e-007 -0.999999999999812
outer loop
vertex 317.239793516804 45.0513820659841 3.00001010661278
vertex 311.239788004063 48.0513710404762 3.0000119441809
vertex 311.433902240929 48.0769270274607 3.0000119598342
endloop
endfacet
facet normal -1.49952412413037e-012 6.12521957945395e-007 -0.999999999999812
outer loop
vertex 317.239793516804 45.0513820659841 3.00001010661278
vertex 311.433902240929 48.0769270274607 3.0000119598342
vertex 311.61478781942 48.1518526767316 3.00001200572755
endloop
endfacet
facet normal -1.49952412413037e-012 6.12521957945395e-007 -0.999999999999812
outer loop
vertex 317.239793516804 45.0513820659841 3.00001010661278
vertex 311.61478781942 48.1518526767316 3.00001200572755
vertex 311.77011768629 48.2710419291119 3.00001207873337
endloop
endfacet
facet normal -1.49952412413037e-012 6.12521957945395e-007 -0.999999999999812
outer loop
vertex 317.239793516804 45.0513820659841 3.00001010661278
vertex 311.77011768629 48.2710419291119 3.00001207873337
vertex 311.889306367806 48.4263722340212 3.00001217387642
endloop
endfacet
facet normal -1.49952412413037e-012 6.12521957945395e-007 -0.999999999999812
outer loop
vertex 317.239793516804 45.0513820659841 3.00001010661278
vertex 311.889306367806 48.4263722340212 3.00001217387642
vertex 311.964231352292 48.6072580878755 3.00001228467286
endloop
endfacet
facet normal -1.49952412413037e-012 6.12521957945395e-007 -0.999999999999812
outer loop
vertex 317.239793516804 45.0513820659841 3.00001010661278
vertex 311.964231352292 48.6072580878755 3.00001228467286
vertex 311.989786625874 48.8013724186626 3.00001240357212
endloop
endfacet
facet normal -1.49952412413037e-012 6.12521957945395e-007 -0.999999999999812
outer loop
vertex 317.239793516804 45.0513820659841 3.00001010661278
vertex 311.989786625874 48.8013724186626 3.00001240357212
vertex 317.239782491302 51.0513820659729 3.00001378174452
endloop
endfacet
facet normal 1.49952412415649e-012 -6.12521957945395e-007 0.999999999999813
outer loop
vertex 302.239793516834 45.0513526646627 6.00001010661781
vertex 305.239782491327 51.0513581774025 6.00001378174847
vertex 305.239740226901 74.0513581773592 6.00002786975349
endloop
endfacet
facet normal 1.49952412415649e-012 -6.12521957945395e-007 0.999999999999813
outer loop
vertex 305.239782491327 51.0513581774025 6.00001378174847
vertex 302.239793516834 45.0513526646627 6.00001010661781
vertex 310.864787819426 48.151849460978 6.00001200572726
endloop
endfacet
facet normal 1.49952412415649e-012 -6.12521957945395e-007 0.999999999999813
outer loop
vertex 310.864787819426 48.151849460978 6.00001200572726
vertex 302.239793516834 45.0513526646627 6.00001010661781
vertex 317.239793516809 45.0513802284183 6.00001010661222
endloop
endfacet
facet normal 1.49952412415649e-012 -6.12521957945395e-007 0.999999999999813
outer loop
vertex 305.239782491327 51.0513581774025 6.00001378174847
vertex 310.864787819426 48.151849460978 6.00001200572726
vertex 310.709457514517 48.2710381424942 6.00001207873317
endloop
endfacet
facet normal 1.49952412415649e-012 -6.12521957945395e-007 0.999999999999813
outer loop
vertex 305.239782491327 51.0513581774025 6.00001378174847
vertex 310.709457514517 48.2710381424942 6.00001207873317
vertex 310.590268262136 48.4263680093641 6.00001217387631
endloop
endfacet
facet normal 1.49952412415649e-012 -6.12521957945395e-007 0.999999999999813
outer loop
vertex 305.239782491327 51.0513581774025 6.00001378174847
vertex 310.590268262136 48.4263680093641 6.00001217387631
vertex 310.515342612865 48.6072535878553 6.00001228467284
endloop
endfacet
facet normal 1.49952412415649e-012 -6.12521957945395e-007 0.999999999999813
outer loop
vertex 305.239782491327 51.0513581774025 6.00001378174847
vertex 310.515342612865 48.6072535878553 6.00001228467284
vertex 310.489786625881 48.8013678247211 6.0000124035721
endloop
endfacet
facet normal 1.49952412415649e-012 -6.12521957945395e-007 0.999999999999813
outer loop
vertex 310.864787819426 48.151849460978 6.00001200572726
vertex 317.239793516809 45.0513802284183 6.00001010661222
vertex 311.04567367328 48.0769244764923 6.00001195983382
endloop
endfacet
facet normal 1.49952412415649e-012 -6.12521957945395e-007 0.999999999999813
outer loop
vertex 311.04567367328 48.0769244764923 6.00001195983382
vertex 317.239793516809 45.0513802284183 6.00001010661222
vertex 311.239788004067 48.0513692029103 6.00001194418034
endloop
endfacet
facet normal 1.49952412415649e-012 -6.12521957945395e-007 0.999999999999813
outer loop
vertex 311.239788004067 48.0513692029103 6.00001194418034
vertex 317.239793516809 45.0513802284183 6.00001010661222
vertex 311.433902240933 48.0769251898948 6.00001195983364
endloop
endfacet
facet normal 1.49952412415649e-012 -6.12521957945395e-007 0.999999999999813
outer loop
vertex 311.433902240933 48.0769251898948 6.00001195983364
vertex 317.239793516809 45.0513802284183 6.00001010661222
vertex 311.614787819425 48.1518508391657 6.00001200572699
endloop
endfacet
facet normal 1.49952412415649e-012 -6.12521957945395e-007 0.999999999999813
outer loop
vertex 311.614787819425 48.1518508391657 6.00001200572699
vertex 317.239793516809 45.0513802284183 6.00001010661222
vertex 311.770117686295 48.271040091546 6.00001207873281
endloop
endfacet
facet normal 1.49952412415649e-012 -6.12521957945395e-007 0.999999999999813
outer loop
vertex 311.770117686295 48.271040091546 6.00001207873281
vertex 317.239793516809 45.0513802284183 6.00001010661222
vertex 311.889306367811 48.4263703964553 6.00001217387586
endloop
endfacet
facet normal 1.49952412415649e-012 -6.12521957945395e-007 0.999999999999813
outer loop
vertex 311.889306367811 48.4263703964553 6.00001217387586
vertex 317.239793516809 45.0513802284183 6.00001010661222
vertex 311.964231352297 48.6072562503096 6.0000122846723
endloop
endfacet
facet normal 1.49952412415649e-012 -6.12521957945395e-007 0.999999999999813
outer loop
vertex 311.964231352297 48.6072562503096 6.0000122846723
vertex 317.239793516809 45.0513802284183 6.00001010661222
vertex 311.989786625878 48.8013705810967 6.00001240357156
endloop
endfacet
facet normal 1.49952412415649e-012 -6.12521957945395e-007 0.999999999999813
outer loop
vertex 311.989786625878 48.8013705810967 6.00001240357156
vertex 317.239793516809 45.0513802284183 6.00001010661222
vertex 317.239782491306 51.051380228407 6.00001378174396
endloop
endfacet
facet normal 1.49952412415649e-012 -6.12521957945395e-007 0.999999999999813
outer loop
vertex 305.239782491327 51.0513581774025 6.00001378174847
vertex 311.045671010826 49.5258132159232 6.00001284730994
vertex 317.239782491306 51.051380228407 6.00001378174396
endloop
endfacet
facet normal 1.49952412415649e-012 -6.12521957945395e-007 0.999999999999813
outer loop
vertex 311.045671010826 49.5258132159232 6.00001284730994
vertex 305.239782491327 51.0513581774025 6.00001378174847
vertex 310.864785432335 49.4508875666522 6.00001280141663
endloop
endfacet
facet normal 1.49952412415649e-012 -6.12521957945395e-007 0.999999999999813
outer loop
vertex 310.864785432335 49.4508875666522 6.00001280141663
vertex 305.239782491327 51.0513581774025 6.00001378174847
vertex 310.709455565465 49.331698314272 6.00001272841086
endloop
endfacet
facet normal 1.49952412415649e-012 -6.12521957945395e-007 0.999999999999813
outer loop
vertex 310.709455565465 49.331698314272 6.00001272841086
vertex 305.239782491327 51.0513581774025 6.00001378174847
vertex 310.590266883949 49.1763680093626 6.0000126332678
endloop
endfacet
facet normal 1.49952412415649e-012 -6.12521957945395e-007 0.999999999999813
outer loop
vertex 310.590266883949 49.1763680093626 6.0000126332678
vertex 305.239782491327 51.0513581774025 6.00001378174847
vertex 310.515341899463 48.9954821555083 6.00001252247137
endloop
endfacet
facet normal 1.49952412415649e-012 -6.12521957945395e-007 0.999999999999813
outer loop
vertex 310.515341899463 48.9954821555083 6.00001252247137
vertex 305.239782491327 51.0513581774025 6.00001378174847
vertex 310.489786625881 48.8013678247211 6.0000124035721
endloop
endfacet
facet normal 1.49952412415649e-012 -6.12521957945395e-007 0.999999999999813
outer loop
vertex 317.239782491306 51.051380228407 6.00001378174396
vertex 311.045671010826 49.5258132159232 6.00001284730994
vertex 311.239785247692 49.5513692029075 6.00001286296323
endloop
endfacet
facet normal 1.49952412415649e-012 -6.12521957945395e-007 0.999999999999813
outer loop
vertex 317.239782491306 51.051380228407 6.00001378174396
vertex 311.239785247692 49.5513692029075 6.00001286296323
vertex 311.433899578479 49.5258139293257 6.00001284730985
endloop
endfacet
facet normal 1.49952412415649e-012 -6.12521957945395e-007 0.999999999999813
outer loop
vertex 317.239782491306 51.051380228407 6.00001378174396
vertex 311.433899578479 49.5258139293257 6.00001284730985
vertex 311.614785432334 49.45088894484 6.00001280141631
endloop
endfacet
facet normal 1.49952412415649e-012 -6.12521957945395e-007 0.999999999999813
outer loop
vertex 317.239782491306 51.051380228407 6.00001378174396
vertex 311.614785432334 49.45088894484 6.00001280141631
vertex 311.770115737243 49.3317002633238 6.0000127284104
endloop
endfacet
facet normal 1.49952412415649e-012 -6.12521957945395e-007 0.999999999999813
outer loop
vertex 317.239782491306 51.051380228407 6.00001378174396
vertex 311.770115737243 49.3317002633238 6.0000127284104
vertex 311.889304989623 49.1763703964539 6.00001263326726
endloop
endfacet
facet normal 1.49952412415649e-012 -6.12521957945395e-007 0.999999999999813
outer loop
vertex 317.239782491306 51.051380228407 6.00001378174396
vertex 311.889304989623 49.1763703964539 6.00001263326726
vertex 311.964230638894 48.9954848179627 6.00001252247082
endloop
endfacet
facet normal 1.49952412415649e-012 -6.12521957945395e-007 0.999999999999813
outer loop
vertex 317.239782491306 51.051380228407 6.00001378174396
vertex 311.964230638894 48.9954848179627 6.00001252247082
vertex 311.989786625878 48.8013705810967 6.00001240357156
endloop
endfacet
facet normal 1.49952412415649e-012 -6.12521957945395e-007 0.999999999999813
outer loop
vertex 305.239740226901 74.0513581773592 6.00002786975349
vertex 310.515292079314 76.1072535878035 6.00002912902667
vertex 310.489736092329 76.3013678246694 6.00002924792593
endloop
endfacet
facet normal 1.49952412415649e-012 -6.12521957945395e-007 0.999999999999813
outer loop
vertex 310.515292079314 76.1072535878035 6.00002912902667
vertex 305.239740226901 74.0513581773592 6.00002786975349
vertex 310.590217728585 75.9263680093122 6.00002901823014
endloop
endfacet
facet normal 1.49952412415649e-012 -6.12521957945395e-007 0.999999999999813
outer loop
vertex 310.590217728585 75.9263680093122 6.00002901823014
vertex 305.239740226901 74.0513581773592 6.00002786975349
vertex 310.709406980965 75.7710381424424 6.000028923087
endloop
endfacet
facet normal 1.49952412415649e-012 -6.12521957945395e-007 0.999999999999813
outer loop
vertex 310.709406980965 75.7710381424424 6.000028923087
vertex 305.239740226901 74.0513581773592 6.00002786975349
vertex 310.864737285874 75.6518494609262 6.00002885008109
endloop
endfacet
facet normal 1.49952412415649e-012 -6.12521957945395e-007 0.999999999999813
outer loop
vertex 310.864737285874 75.6518494609262 6.00002885008109
vertex 305.239740226901 74.0513581773592 6.00002786975349
vertex 311.045623139729 75.5769244764405 6.00002880418765
endloop
endfacet
facet normal 1.49952412415649e-012 -6.12521957945395e-007 0.999999999999813
outer loop
vertex 311.045623139729 75.5769244764405 6.00002880418765
vertex 305.239740226901 74.0513581773592 6.00002786975349
vertex 317.239740226881 74.0513802283636 6.00002786974902
endloop
endfacet
facet normal 1.49952412415649e-012 -6.12521957945395e-007 0.999999999999813
outer loop
vertex 311.045623139729 75.5769244764405 6.00002880418765
vertex 317.239740226881 74.0513802283636 6.00002786974902
vertex 311.239737470516 75.5513692028586 6.00002878853417
endloop
endfacet
facet normal 1.49952412415649e-012 -6.12521957945395e-007 0.999999999999813
outer loop
vertex 311.239737470516 75.5513692028586 6.00002878853417
vertex 317.239740226881 74.0513802283636 6.00002786974902
vertex 311.433851707382 75.5769251898431 6.00002880418747
endloop
endfacet
facet normal 1.49952412415649e-012 -6.12521957945395e-007 0.999999999999813
outer loop
vertex 311.433851707382 75.5769251898431 6.00002880418747
vertex 317.239740226881 74.0513802283636 6.00002786974902
vertex 311.614737285873 75.651850839114 6.00002885008082
endloop
endfacet
facet normal 1.49952412415649e-012 -6.12521957945395e-007 0.999999999999813
outer loop
vertex 311.614737285873 75.651850839114 6.00002885008082
vertex 317.239740226881 74.0513802283636 6.00002786974902
vertex 311.770067152743 75.7710400914943 6.00002892308664
endloop
endfacet
facet normal 1.49952412415649e-012 -6.12521957945395e-007 0.999999999999813
outer loop
vertex 311.770067152743 75.7710400914943 6.00002892308664
vertex 317.239740226881 74.0513802283636 6.00002786974902
vertex 311.889255834259 75.9263703964035 6.00002901822969
endloop
endfacet
facet normal 1.49952412415649e-012 -6.12521957945395e-007 0.999999999999813
outer loop
vertex 311.889255834259 75.9263703964035 6.00002901822969
vertex 317.239740226881 74.0513802283636 6.00002786974902
vertex 311.964180818745 76.1072562502579 6.00002912902613
endloop
endfacet
facet normal 1.49952412415649e-012 -6.12521957945395e-007 0.999999999999813
outer loop
vertex 311.964180818745 76.1072562502579 6.00002912902613
vertex 317.239740226881 74.0513802283636 6.00002786974902
vertex 311.989736092327 76.301370581045 6.00002924792539
endloop
endfacet
facet normal 1.49952412415649e-012 -6.12521957945395e-007 0.999999999999813
outer loop
vertex 311.989736092327 76.301370581045 6.00002924792539
vertex 317.239740226881 74.0513802283636 6.00002786974902
vertex 317.239730120171 79.5513802283534 6.00003123861977
endloop
endfacet
facet normal 1.49952412415649e-012 -6.12521957945395e-007 0.999999999999813
outer loop
vertex 302.239730120196 79.5513526645979 6.00003123862537
vertex 311.045620477274 77.0258132158714 6.00002969166377
vertex 317.239730120171 79.5513802283534 6.00003123861977
endloop
endfacet
facet normal 1.49952412415649e-012 -6.12521957945395e-007 0.999999999999813
outer loop
vertex 311.045620477274 77.0258132158714 6.00002969166377
vertex 302.239730120196 79.5513526645979 6.00003123862537
vertex 310.864734898783 76.9508875666004 6.0000296457705
endloop
endfacet
facet normal 1.49952412415649e-012 -6.12521957945395e-007 0.999999999999813
outer loop
vertex 310.864734898783 76.9508875666004 6.0000296457705
vertex 302.239730120196 79.5513526645979 6.00003123862537
vertex 305.239740226901 74.0513581773592 6.00002786975349
endloop
endfacet
facet normal 1.49952412415649e-012 -6.12521957945395e-007 0.999999999999813
outer loop
vertex 305.239740226901 74.0513581773592 6.00002786975349
vertex 302.239730120196 79.5513526645979 6.00003123862537
vertex 302.239793100325 45.2780140326662 6.00001024545293
endloop
endfacet
facet normal 1.49952412415649e-012 -6.12521957945395e-007 0.999999999999813
outer loop
vertex 305.239740226901 74.0513581773592 6.00002786975349
vertex 302.239793100325 45.2780140326662 6.00001024545293
vertex 302.239793516834 45.0513526646627 6.00001010661781
endloop
endfacet
facet normal 1.49952412415649e-012 -6.12521957945395e-007 0.999999999999813
outer loop
vertex 310.864734898783 76.9508875666004 6.0000296457705
vertex 305.239740226901 74.0513581773592 6.00002786975349
vertex 310.709405031913 76.8316983142201 6.00002957276468
endloop
endfacet
facet normal 1.49952412415649e-012 -6.12521957945395e-007 0.999999999999813
outer loop
vertex 310.709405031913 76.8316983142201 6.00002957276468
vertex 305.239740226901 74.0513581773592 6.00002786975349
vertex 310.590216350397 76.6763680093109 6.00002947762163
endloop
endfacet
facet normal 1.49952412415649e-012 -6.12521957945395e-007 0.999999999999813
outer loop
vertex 310.590216350397 76.6763680093109 6.00002947762163
vertex 305.239740226901 74.0513581773592 6.00002786975349
vertex 310.515291365911 76.4954821554566 6.00002936682519
endloop
endfacet
facet normal 1.49952412415649e-012 -6.12521957945395e-007 0.999999999999813
outer loop
vertex 310.515291365911 76.4954821554566 6.00002936682519
vertex 305.239740226901 74.0513581773592 6.00002786975349
vertex 310.489736092329 76.3013678246694 6.00002924792593
endloop
endfacet
facet normal 1.49952412415649e-012 -6.12521957945395e-007 0.999999999999813
outer loop
vertex 317.239730120171 79.5513802283534 6.00003123861977
vertex 311.045620477274 77.0258132158714 6.00002969166377
vertex 311.23973471414 77.0513692028558 6.00002970731711
endloop
endfacet
facet normal 1.49952412415649e-012 -6.12521957945395e-007 0.999999999999813
outer loop
vertex 317.239730120171 79.5513802283534 6.00003123861977
vertex 311.23973471414 77.0513692028558 6.00002970731711
vertex 311.433849044927 77.0258139292739 6.00002969166367
endloop
endfacet
facet normal 1.49952412415649e-012 -6.12521957945395e-007 0.999999999999813
outer loop
vertex 317.239730120171 79.5513802283534 6.00003123861977
vertex 311.433849044927 77.0258139292739 6.00002969166367
vertex 311.614734898782 76.9508889447882 6.00002964577014
endloop
endfacet
facet normal 1.49952412415649e-012 -6.12521957945395e-007 0.999999999999813
outer loop
vertex 317.239730120171 79.5513802283534 6.00003123861977
vertex 311.614734898782 76.9508889447882 6.00002964577014
vertex 311.770065203691 76.8317002632721 6.00002957276423
endloop
endfacet
facet normal 1.49952412415649e-012 -6.12521957945395e-007 0.999999999999813
outer loop
vertex 317.239730120171 79.5513802283534 6.00003123861977
vertex 311.770065203691 76.8317002632721 6.00002957276423
vertex 311.889254456071 76.6763703964021 6.00002947762114
endloop
endfacet
facet normal 1.49952412415649e-012 -6.12521957945395e-007 0.999999999999813
outer loop
vertex 317.239730120171 79.5513802283534 6.00003123861977
vertex 311.889254456071 76.6763703964021 6.00002947762114
vertex 311.964180105342 76.495484817911 6.00002936682465
endloop
endfacet
facet normal 1.49952412415649e-012 -6.12521957945395e-007 0.999999999999813
outer loop
vertex 317.239730120171 79.5513802283534 6.00003123861977
vertex 311.964180105342 76.495484817911 6.00002936682465
vertex 311.989736092327 76.301370581045 6.00002924792539
endloop
endfacet
facet normal 1.83758370019584e-006 -0.999999999998124 -6.12521957947117e-007
outer loop
vertex 317.239740226881 74.0513802283636 6.00002786974902
vertex 305.239740226897 74.0513600149251 3.00002786975405
vertex 317.239740226877 74.0513820659295 3.00002786974959
endloop
endfacet
facet normal 1.83758370019584e-006 -0.999999999998124 -6.12521957947117e-007
outer loop
vertex 305.239740226897 74.0513600149251 3.00002786975405
vertex 317.239740226881 74.0513802283636 6.00002786974902
vertex 305.239740226901 74.0513581773592 6.00002786975349
endloop
endfacet
facet normal 0.999999999998312 1.8375836967788e-006 -3.73963760314542e-013
outer loop
vertex 317.239740226877 74.0513820659295 3.00002786974959
vertex 317.239730120171 79.5513802283534 6.00003123861977
vertex 317.239740226881 74.0513802283636 6.00002786974902
endloop
endfacet
facet normal 0.999999999998312 1.8375836967788e-006 -3.73963760314542e-013
outer loop
vertex 317.239730120171 79.5513802283534 6.00003123861977
vertex 317.239740226877 74.0513820659295 3.00002786974959
vertex 317.239730120166 79.5513820659193 3.00003123862033
endloop
endfacet
facet normal -1.83758370169982e-006 0.999999999998124 6.12521957947117e-007
outer loop
vertex 302.239730120192 79.5513545021638 3.00003123862593
vertex 317.239730120171 79.5513802283534 6.00003123861977
vertex 317.239730120166 79.5513820659193 3.00003123862033
endloop
endfacet
facet normal -1.83758370169982e-006 0.999999999998124 6.12521957947117e-007
outer loop
vertex 317.239730120171 79.5513802283534 6.00003123861977
vertex 302.239730120192 79.5513545021638 3.00003123862593
vertex 302.239730120196 79.5513526645979 6.00003123862537
endloop
endfacet
facet normal -0.999999999998312 -1.83758370265713e-006 3.78421757180043e-013
outer loop
vertex 302.239730120196 79.5513526645979 6.00003123862537
vertex 302.23979310032 45.2780158702321 3.00001024545349
vertex 302.239793100325 45.2780140326662 6.00001024545293
endloop
endfacet
facet normal -0.999999999998312 -1.83758370265713e-006 3.78421757180043e-013
outer loop
vertex 302.23979310032 45.2780158702321 3.00001024545349
vertex 302.239730120196 79.5513526645979 6.00003123862537
vertex 302.239730120192 79.5513545021638 3.00003123862593
endloop
endfacet
facet normal -0.999999999998312 -1.83758367655808e-006 3.78421771165118e-013
outer loop
vertex 302.239793100325 45.2780140326662 6.00001024545293
vertex 302.239793516829 45.0513545022286 3.00001010661837
vertex 302.239793516834 45.0513526646627 6.00001010661781
endloop
endfacet
facet normal -0.999999999998312 -1.83758367655808e-006 3.78421771165118e-013
outer loop
vertex 302.239793516829 45.0513545022286 3.00001010661837
vertex 302.239793100325 45.2780140326662 6.00001024545293
vertex 302.23979310032 45.2780158702321 3.00001024545349
endloop
endfacet
facet normal 1.83758370169982e-006 -0.999999999998124 -6.12521957947117e-007
outer loop
vertex 317.239793516809 45.0513802284183 6.00001010661222
vertex 302.239793516829 45.0513545022286 3.00001010661837
vertex 317.239793516804 45.0513820659841 3.00001010661278
endloop
endfacet
facet normal 1.83758370169982e-006 -0.999999999998124 -6.12521957947117e-007
outer loop
vertex 302.239793516829 45.0513545022286 3.00001010661837
vertex 317.239793516809 45.0513802284183 6.00001010661222
vertex 302.239793516834 45.0513526646627 6.00001010661781
endloop
endfacet
facet normal 0.999999999998312 1.83758369267707e-006 -3.7396376282694e-013
outer loop
vertex 317.239793516804 45.0513820659841 3.00001010661278
vertex 317.239782491306 51.051380228407 6.00001378174396
vertex 317.239793516809 45.0513802284183 6.00001010661222
endloop
endfacet
facet normal 0.999999999998312 1.83758369267707e-006 -3.7396376282694e-013
outer loop
vertex 317.239782491306 51.051380228407 6.00001378174396
vertex 317.239793516804 45.0513820659841 3.00001010661278
vertex 317.239782491302 51.0513820659729 3.00001378174452
endloop
endfacet
facet normal -1.83758370771575e-006 0.999999999998124 6.12521957947117e-007
outer loop
vertex 305.239782491322 51.0513600149684 3.00001378174903
vertex 317.239782491306 51.051380228407 6.00001378174396
vertex 317.239782491302 51.0513820659729 3.00001378174452
endloop
endfacet
facet normal -1.83758370771575e-006 0.999999999998124 6.12521957947117e-007
outer loop
vertex 317.239782491306 51.051380228407 6.00001378174396
vertex 305.239782491322 51.0513600149684 3.00001378174903
vertex 305.239782491327 51.0513581774025 6.00001378174847
endloop
endfacet
facet normal 0.999999999998312 1.8375837064091e-006 -3.73963754415772e-013
outer loop
vertex 305.239782491322 51.0513600149684 3.00001378174903
vertex 305.239740226901 74.0513581773592 6.00002786975349
vertex 305.239782491327 51.0513581774025 6.00001378174847
endloop
endfacet
facet normal 0.999999999998312 1.8375837064091e-006 -3.73963754415772e-013
outer loop
vertex 305.239740226901 74.0513581773592 6.00002786975349
vertex 305.239782491322 51.0513600149684 3.00001378174903
vertex 305.239740226897 74.0513600149251 3.00002786975405
endloop
endfacet
facet normal -1.83758380457652e-006 0.999999999998124 6.12521957947117e-007
outer loop
vertex 311.239737470516 75.5513692028586 6.00002878853417
vertex 311.433851707377 75.5769270274089 3.00002880418803
vertex 311.239737470511 75.5513710404245 3.00002878853473
endloop
endfacet
facet normal -0.258820820071731 0.965925350685573 5.91650875139194e-007
outer loop
vertex 311.433851707377 75.5769270274089 3.00002880418803
vertex 311.239737470516 75.5513692028586 6.00002878853417
vertex 311.433851707382 75.5769251898431 6.00002880418747
endloop
endfacet
facet normal 0.258817270132464 0.965926301888932 5.91650681561334e-007
outer loop
vertex 311.045623139724 75.5769263140064 3.00002880418821
vertex 311.239737470516 75.5513692028586 6.00002878853417
vertex 311.239737470511 75.5513710404245 3.00002878853473
endloop
endfacet
facet normal -1.83758380457652e-006 0.999999999998124 6.12521957947117e-007
outer loop
vertex 311.239737470516 75.5513692028586 6.00002878853417
vertex 311.045623139724 75.5769263140064 3.00002880418821
vertex 311.045623139729 75.5769244764405 6.00002880418765
endloop
endfacet
facet normal 0.499998408605036 0.866026322574638 5.30459388976091e-007
outer loop
vertex 310.86473728587 75.651851298492 3.00002885008165
vertex 311.045623139729 75.5769244764405 6.00002880418765
vertex 311.045623139724 75.5769263140064 3.00002880418821
endloop
endfacet
facet normal 0.25881727013246 0.965926301888934 5.91650681561335e-007
outer loop
vertex 311.045623139729 75.5769244764405 6.00002880418765
vertex 310.86473728587 75.651851298492 3.00002885008165
vertex 310.864737285874 75.6518494609262 6.00002885008109
endloop
endfacet
facet normal 0.707105481817501 0.707108080553074 4.33118165657732e-007
outer loop
vertex 310.70940698096 75.7710399800083 3.00002892308756
vertex 310.864737285874 75.6518494609262 6.00002885008109
vertex 310.86473728587 75.651851298492 3.00002885008165
endloop
endfacet
facet normal 0.499998408605023 0.866026322574645 5.30459388976096e-007
outer loop
vertex 310.864737285874 75.6518494609262 6.00002885008109
vertex 310.70940698096 75.7710399800083 3.00002892308756
vertex 310.709406980965 75.7710381424424 6.000028923087
endloop
endfacet
facet normal 0.707105481817501 0.707108080553074 4.33118165657732e-007
outer loop
vertex 310.70940698096 75.7710399800083 3.00002892308756
vertex 310.590217728585 75.9263680093122 6.00002901823014
vertex 310.709406980965 75.7710381424424 6.000028923087
endloop
endfacet
facet normal 0.866024484991037 0.500001591393383 3.06260655111539e-007
outer loop
vertex 310.590217728585 75.9263680093122 6.00002901823014
vertex 310.70940698096 75.7710399800083 3.00002892308756
vertex 310.59021772858 75.9263698468781 3.0000290182307
endloop
endfacet
facet normal 0.866024484991029 0.500001591393397 3.06260655111547e-007
outer loop
vertex 310.59021772858 75.9263698468781 3.0000290182307
vertex 310.515292079314 76.1072535878035 6.00002912902667
vertex 310.590217728585 75.9263680093122 6.00002901823014
endloop
endfacet
facet normal 0.965925350685782 0.258820820071576 1.58531987038939e-007
outer loop
vertex 310.515292079314 76.1072535878035 6.00002912902667
vertex 310.59021772858 75.9263698468781 3.0000290182307
vertex 310.515292079309 76.1072554253694 3.00002912902723
endloop
endfacet
facet normal 0.96592535068578 0.258820820071584 1.58531987038944e-007
outer loop
vertex 310.515292079309 76.1072554253694 3.00002912902723
vertex 310.489736092329 76.3013678246694 6.00002924792593
vertex 310.515292079314 76.1072535878035 6.00002912902667
endloop
endfacet
facet normal 0.999999999998312 1.83758358285017e-006 -3.73963830086683e-013
outer loop
vertex 310.489736092329 76.3013678246694 6.00002924792593
vertex 310.515292079309 76.1072554253694 3.00002912902723
vertex 310.489736092325 76.3013696622353 3.00002924792649
endloop
endfacet
facet normal 0.999999999998312 1.83758358371466e-006 -3.73963829559812e-013
outer loop
vertex 310.489736092325 76.3013696622353 3.00002924792649
vertex 310.515291365911 76.4954821554566 6.00002936682519
vertex 310.489736092329 76.3013678246694 6.00002924792593
endloop
endfacet
facet normal 0.965926301889059 -0.258817270132618 -1.58532709481535e-007
outer loop
vertex 310.515291365911 76.4954821554566 6.00002936682519
vertex 310.489736092325 76.3013696622353 3.00002924792649
vertex 310.515291365907 76.4954839930225 3.00002936682576
endloop
endfacet
facet normal 0.96592630188906 -0.258817270132616 -1.58532709481534e-007
outer loop
vertex 310.515291365907 76.4954839930225 3.00002936682576
vertex 310.590216350397 76.6763680093109 6.00002947762163
vertex 310.515291365911 76.4954821554566 6.00002936682519
endloop
endfacet
facet normal 0.866026322574753 -0.499998408605024 -3.06261302835751e-007
outer loop
vertex 310.590216350397 76.6763680093109 6.00002947762163
vertex 310.515291365907 76.4954839930225 3.00002936682576
vertex 310.590216350392 76.6763698468768 3.00002947762219
endloop
endfacet
facet normal 0.866026322574753 -0.499998408605023 -3.06261302835751e-007
outer loop
vertex 310.590216350392 76.6763698468768 3.00002947762219
vertex 310.709405031913 76.8316983142201 6.00002957276468
vertex 310.590216350397 76.6763680093109 6.00002947762163
endloop
endfacet
facet normal 0.707108080553261 -0.707105481817314 -4.33118694522369e-007
outer loop
vertex 310.709405031913 76.8316983142201 6.00002957276468
vertex 310.590216350392 76.6763698468768 3.00002947762219
vertex 310.709405031908 76.831700151786 3.00002957276525
endloop
endfacet
facet normal 0.500001591393489 -0.866024484990868 -5.30459762939807e-007
outer loop
vertex 310.864734898778 76.9508894041663 3.00002964577106
vertex 310.709405031913 76.8316983142201 6.00002957276468
vertex 310.709405031908 76.831700151786 3.00002957276525
endloop
endfacet
facet normal 0.707108080553261 -0.707105481817314 -4.33118694522369e-007
outer loop
vertex 310.709405031913 76.8316983142201 6.00002957276468
vertex 310.864734898778 76.9508894041663 3.00002964577106
vertex 310.864734898783 76.9508875666004 6.0000296457705
endloop
endfacet
facet normal 0.258820820071679 -0.965925350685587 -5.91650875139203e-007
outer loop
vertex 311.04562047727 77.0258150534373 3.00002969166433
vertex 310.864734898783 76.9508875666004 6.0000296457705
vertex 310.864734898778 76.9508894041663 3.00002964577106
endloop
endfacet
facet normal 0.500001591393508 -0.866024484990856 -5.304597629398e-007
outer loop
vertex 310.864734898783 76.9508875666004 6.0000296457705
vertex 311.04562047727 77.0258150534373 3.00002969166433
vertex 311.045620477274 77.0258132158714 6.00002969166377
endloop
endfacet
facet normal 1.83758353525599e-006 -0.999999999998124 -6.12521957947116e-007
outer loop
vertex 311.239734714136 77.0513710404217 3.00002970731767
vertex 311.045620477274 77.0258132158714 6.00002969166377
vertex 311.04562047727 77.0258150534373 3.00002969166433
endloop
endfacet
facet normal 0.258820820071696 -0.965925350685582 -5.916508751392e-007
outer loop
vertex 311.045620477274 77.0258132158714 6.00002969166377
vertex 311.239734714136 77.0513710404217 3.00002970731767
vertex 311.23973471414 77.0513692028558 6.00002970731711
endloop
endfacet
facet normal -0.258817270132484 -0.965926301888927 -5.91650681561331e-007
outer loop
vertex 311.433849044927 77.0258139292739 6.00002969166367
vertex 311.239734714136 77.0513710404217 3.00002970731767
vertex 311.433849044923 77.0258157668397 3.00002969166424
endloop
endfacet
facet normal 1.83758353525599e-006 -0.999999999998124 -6.12521957947116e-007
outer loop
vertex 311.239734714136 77.0513710404217 3.00002970731767
vertex 311.433849044927 77.0258139292739 6.00002969166367
vertex 311.23973471414 77.0513692028558 6.00002970731711
endloop
endfacet
facet normal -0.499998408604861 -0.866026322574738 -5.30459388976153e-007
outer loop
vertex 311.614734898782 76.9508889447882 6.00002964577014
vertex 311.433849044923 77.0258157668397 3.00002969166424
vertex 311.614734898777 76.9508907823541 3.0000296457707
endloop
endfacet
facet normal -0.258817270132499 -0.965926301888923 -5.91650681561329e-007
outer loop
vertex 311.433849044923 77.0258157668397 3.00002969166424
vertex 311.614734898782 76.9508889447882 6.00002964577014
vertex 311.433849044927 77.0258139292739 6.00002969166367
endloop
endfacet
facet normal -0.707105481817478 -0.707108080553097 -4.33118165657746e-007
outer loop
vertex 311.770065203691 76.8317002632721 6.00002957276423
vertex 311.614734898777 76.9508907823541 3.0000296457707
vertex 311.770065203687 76.8317021008379 3.00002957276479
endloop
endfacet
facet normal -0.499998408604881 -0.866026322574727 -5.30459388976146e-007
outer loop
vertex 311.614734898777 76.9508907823541 3.0000296457707
vertex 311.770065203691 76.8317002632721 6.00002957276423
vertex 311.614734898782 76.9508889447882 6.00002964577014
endloop
endfacet
facet normal -0.707105481817478 -0.707108080553097 -4.33118165657746e-007
outer loop
vertex 311.770065203691 76.8317002632721 6.00002957276423
vertex 311.889254456067 76.676372233968 3.0000294776217
vertex 311.889254456071 76.6763703964021 6.00002947762114
endloop
endfacet
facet normal -0.866024484991053 -0.500001591393355 -3.06260655111521e-007
outer loop
vertex 311.889254456067 76.676372233968 3.0000294776217
vertex 311.770065203691 76.8317002632721 6.00002957276423
vertex 311.770065203687 76.8317021008379 3.00002957276479
endloop
endfacet
facet normal -0.866024484991065 -0.500001591393335 -3.06260655111509e-007
outer loop
vertex 311.889254456071 76.6763703964021 6.00002947762114
vertex 311.964180105338 76.4954866554768 3.00002936682521
vertex 311.964180105342 76.495484817911 6.00002936682465
endloop
endfacet
facet normal -0.965925350685765 -0.258820820071642 -1.58531987038979e-007
outer loop
vertex 311.964180105338 76.4954866554768 3.00002936682521
vertex 311.889254456071 76.6763703964021 6.00002947762114
vertex 311.889254456067 76.676372233968 3.0000294776217
endloop
endfacet
facet normal -0.965925350685768 -0.258820820071631 -1.58531987038972e-007
outer loop
vertex 311.964180105342 76.495484817911 6.00002936682465
vertex 311.989736092322 76.3013724186109 3.00002924792595
vertex 311.989736092327 76.301370581045 6.00002924792539
endloop
endfacet
facet normal -0.999999999998312 -1.83758352269126e-006 3.73963866943795e-013
outer loop
vertex 311.989736092322 76.3013724186109 3.00002924792595
vertex 311.964180105342 76.495484817911 6.00002936682465
vertex 311.964180105338 76.4954866554768 3.00002936682521
endloop
endfacet
facet normal -0.999999999998312 -1.83758352355576e-006 3.73963866408426e-013
outer loop
vertex 311.989736092327 76.301370581045 6.00002924792539
vertex 311.96418081874 76.1072580878238 3.00002912902669
vertex 311.964180818745 76.1072562502579 6.00002912902613
endloop
endfacet
facet normal -0.965926301889074 0.258817270132562 1.58532709481501e-007
outer loop
vertex 311.96418081874 76.1072580878238 3.00002912902669
vertex 311.989736092327 76.301370581045 6.00002924792539
vertex 311.989736092322 76.3013724186109 3.00002924792595
endloop
endfacet
facet normal -0.965926301889075 0.25881727013256 1.58532709481499e-007
outer loop
vertex 311.964180818745 76.1072562502579 6.00002912902613
vertex 311.889255834254 75.9263722339694 3.00002901823025
vertex 311.889255834259 75.9263703964035 6.00002901822969
endloop
endfacet
facet normal -0.866026322574888 0.49999840860479 3.06261302835608e-007
outer loop
vertex 311.889255834254 75.9263722339694 3.00002901823025
vertex 311.964180818745 76.1072562502579 6.00002912902613
vertex 311.96418081874 76.1072580878238 3.00002912902669
endloop
endfacet
facet normal -0.866026322574889 0.499998408604788 3.06261302835607e-007
outer loop
vertex 311.889255834259 75.9263703964035 6.00002901822969
vertex 311.770067152738 75.7710419290601 3.0000289230872
vertex 311.770067152743 75.7710400914943 6.00002892308664
endloop
endfacet
facet normal -0.707108080553291 0.707105481817284 4.33118694522351e-007
outer loop
vertex 311.770067152738 75.7710419290601 3.0000289230872
vertex 311.889255834259 75.9263703964035 6.00002901822969
vertex 311.889255834254 75.9263722339694 3.00002901823025
endloop
endfacet
facet normal -0.500001591393199 0.866024484991035 5.30459762939909e-007
outer loop
vertex 311.614737285873 75.651850839114 6.00002885008082
vertex 311.770067152738 75.7710419290601 3.0000289230872
vertex 311.614737285868 75.6518526766799 3.00002885008138
endloop
endfacet
facet normal -0.707108080553291 0.707105481817284 4.33118694522351e-007
outer loop
vertex 311.770067152738 75.7710419290601 3.0000289230872
vertex 311.614737285873 75.651850839114 6.00002885008082
vertex 311.770067152743 75.7710400914943 6.00002892308664
endloop
endfacet
facet normal -0.258820820071732 0.965925350685572 5.91650875139194e-007
outer loop
vertex 311.433851707382 75.5769251898431 6.00002880418747
vertex 311.614737285868 75.6518526766799 3.00002885008138
vertex 311.433851707377 75.5769270274089 3.00002880418803
endloop
endfacet
facet normal -0.500001591393185 0.866024484991043 5.30459762939914e-007
outer loop
vertex 311.614737285868 75.6518526766799 3.00002885008138
vertex 311.433851707382 75.5769251898431 6.00002880418747
vertex 311.614737285873 75.651850839114 6.00002885008082
endloop
endfacet
facet normal -0.500001591393321 0.866024484990964 5.30459762939866e-007
outer loop
vertex 311.614787819425 48.1518508391657 6.00001200572699
vertex 311.77011768629 48.2710419291119 3.00001207873337
vertex 311.61478781942 48.1518526767316 3.00001200572755
endloop
endfacet
facet normal -0.707108080553361 0.707105481817214 4.33118694522308e-007
outer loop
vertex 311.77011768629 48.2710419291119 3.00001207873337
vertex 311.614787819425 48.1518508391657 6.00001200572699
vertex 311.770117686295 48.271040091546 6.00001207873281
endloop
endfacet
facet normal -0.258820820071703 0.96592535068558 5.91650875139199e-007
outer loop
vertex 311.433902240933 48.0769251898948 6.00001195983364
vertex 311.61478781942 48.1518526767316 3.00001200572755
vertex 311.433902240929 48.0769270274607 3.0000119598342
endloop
endfacet
facet normal -0.500001591393307 0.866024484990973 5.30459762939871e-007
outer loop
vertex 311.61478781942 48.1518526767316 3.00001200572755
vertex 311.433902240933 48.0769251898948 6.00001195983364
vertex 311.614787819425 48.1518508391657 6.00001200572699
endloop
endfacet
facet normal -1.83758374444435e-006 0.999999999998124 6.12521957947116e-007
outer loop
vertex 311.239788004067 48.0513692029103 6.00001194418034
vertex 311.433902240929 48.0769270274607 3.0000119598342
vertex 311.239788004063 48.0513710404762 3.0000119441809
endloop
endfacet
facet normal -0.258820820071701 0.965925350685581 5.91650875139199e-007
outer loop
vertex 311.433902240929 48.0769270274607 3.0000119598342
vertex 311.239788004067 48.0513692029103 6.00001194418034
vertex 311.433902240933 48.0769251898948 6.00001195983364
endloop
endfacet
facet normal 0.258817270132699 0.96592630188887 5.91650681561296e-007
outer loop
vertex 311.045673673276 48.0769263140581 3.00001195983438
vertex 311.239788004067 48.0513692029103 6.00001194418034
vertex 311.239788004063 48.0513710404762 3.0000119441809
endloop
endfacet
facet normal -1.83758374444435e-006 0.999999999998124 6.12521957947116e-007
outer loop
vertex 311.239788004067 48.0513692029103 6.00001194418034
vertex 311.045673673276 48.0769263140581 3.00001195983438
vertex 311.04567367328 48.0769244764923 6.00001195983382
endloop
endfacet
facet normal 0.499998408605062 0.866026322574622 5.30459388976082e-007
outer loop
vertex 310.864787819422 48.1518512985439 3.00001200572782
vertex 311.04567367328 48.0769244764923 6.00001195983382
vertex 311.045673673276 48.0769263140581 3.00001195983438
endloop
endfacet
facet normal 0.258817270132695 0.965926301888871 5.91650681561297e-007
outer loop
vertex 311.04567367328 48.0769244764923 6.00001195983382
vertex 310.864787819422 48.1518512985439 3.00001200572782
vertex 310.864787819426 48.151849460978 6.00001200572726
endloop
endfacet
facet normal 0.707105481817471 0.707108080553104 4.3311816565775e-007
outer loop
vertex 310.709457514512 48.27103998006 3.00001207873373
vertex 310.864787819426 48.151849460978 6.00001200572726
vertex 310.864787819422 48.1518512985439 3.00001200572782
endloop
endfacet
facet normal 0.499998408605049 0.86602632257463 5.30459388976087e-007
outer loop
vertex 310.864787819426 48.151849460978 6.00001200572726
vertex 310.709457514512 48.27103998006 3.00001207873373
vertex 310.709457514517 48.2710381424942 6.00001207873317
endloop
endfacet
facet normal 0.707105481817471 0.707108080553104 4.3311816565775e-007
outer loop
vertex 310.709457514512 48.27103998006 3.00001207873373
vertex 310.590268262136 48.4263680093641 6.00001217387631
vertex 310.709457514517 48.2710381424942 6.00001207873317
endloop
endfacet
facet normal 0.866024484991063 0.500001591393338 3.06260655111511e-007
outer loop
vertex 310.590268262136 48.4263680093641 6.00001217387631
vertex 310.709457514512 48.27103998006 3.00001207873373
vertex 310.590268262132 48.4263698469299 3.00001217387688
endloop
endfacet
facet normal 0.866024484991055 0.500001591393352 3.06260655111519e-007
outer loop
vertex 310.590268262132 48.4263698469299 3.00001217387688
vertex 310.515342612865 48.6072535878553 6.00001228467284
vertex 310.590268262136 48.4263680093641 6.00001217387631
endloop
endfacet
facet normal 0.965925350685759 0.258820820071662 1.58531987038991e-007
outer loop
vertex 310.515342612865 48.6072535878553 6.00001228467284
vertex 310.590268262132 48.4263698469299 3.00001217387688
vertex 310.515342612861 48.6072554254211 3.0000122846734
endloop
endfacet
facet normal 0.965925350685757 0.258820820071669 1.58531987038996e-007
outer loop
vertex 310.515342612861 48.6072554254211 3.0000122846734
vertex 310.489786625881 48.8013678247211 6.0000124035721
vertex 310.515342612865 48.6072535878553 6.00001228467284
endloop
endfacet
facet normal 0.999999999998312 1.83758358301057e-006 -3.73963829993202e-013
outer loop
vertex 310.489786625881 48.8013678247211 6.0000124035721
vertex 310.515342612861 48.6072554254211 3.0000122846734
vertex 310.489786625876 48.801369662287 3.00001240357267
endloop
endfacet
facet normal 0.999999999998312 1.83758358357208e-006 -3.73963829653293e-013
outer loop
vertex 310.489786625876 48.801369662287 3.00001240357267
vertex 310.515341899463 48.9954821555083 6.00001252247137
vertex 310.489786625881 48.8013678247211 6.0000124035721
endloop
endfacet
facet normal 0.96592630188906 -0.258817270132618 -1.58532709481535e-007
outer loop
vertex 310.515341899463 48.9954821555083 6.00001252247137
vertex 310.489786625876 48.801369662287 3.00001240357267
vertex 310.515341899458 48.9954839930742 3.00001252247193
endloop
endfacet
facet normal 0.96592630188906 -0.258817270132616 -1.58532709481534e-007
outer loop
vertex 310.515341899458 48.9954839930742 3.00001252247193
vertex 310.590266883949 49.1763680093626 6.0000126332678
vertex 310.515341899463 48.9954821555083 6.00001252247137
endloop
endfacet
facet normal 0.866026322574914 -0.499998408604744 -3.0626130283558e-007
outer loop
vertex 310.590266883949 49.1763680093626 6.0000126332678
vertex 310.515341899458 48.9954839930742 3.00001252247193
vertex 310.590266883944 49.1763698469285 3.00001263326837
endloop
endfacet
facet normal 0.866026322574915 -0.499998408604743 -3.06261302835579e-007
outer loop
vertex 310.590266883944 49.1763698469285 3.00001263326837
vertex 310.709455565465 49.331698314272 6.00001272841086
vertex 310.590266883949 49.1763680093626 6.0000126332678
endloop
endfacet
facet normal 0.707108080553397 -0.707105481817177 -4.33118694522286e-007
outer loop
vertex 310.709455565465 49.331698314272 6.00001272841086
vertex 310.590266883944 49.1763698469285 3.00001263326837
vertex 310.70945556546 49.3317001518379 3.00001272841142
endloop
endfacet
facet normal 0.500001591393183 -0.866024484991044 -5.30459762939915e-007
outer loop
vertex 310.86478543233 49.4508894042181 3.00001280141719
vertex 310.709455565465 49.331698314272 6.00001272841086
vertex 310.70945556546 49.3317001518379 3.00001272841142
endloop
endfacet
facet normal 0.707108080553397 -0.707105481817177 -4.33118694522286e-007
outer loop
vertex 310.709455565465 49.331698314272 6.00001272841086
vertex 310.86478543233 49.4508894042181 3.00001280141719
vertex 310.864785432335 49.4508875666522 6.00001280141663
endloop
endfacet
facet normal 0.258820820071502 -0.965925350685634 -5.91650875139231e-007
outer loop
vertex 311.045671010822 49.525815053489 3.0000128473105
vertex 310.864785432335 49.4508875666522 6.00001280141663
vertex 310.86478543233 49.4508894042181 3.00001280141719
endloop
endfacet
facet normal 0.500001591393202 -0.866024484991033 -5.30459762939908e-007
outer loop
vertex 310.864785432335 49.4508875666522 6.00001280141663
vertex 311.045671010822 49.525815053489 3.0000128473105
vertex 311.045671010826 49.5258132159232 6.00001284730994
endloop
endfacet
facet normal 1.83758382389597e-006 -0.999999999998124 -6.12521957947117e-007
outer loop
vertex 311.239785247687 49.5513710404734 3.0000128629638
vertex 311.045671010826 49.5258132159232 6.00001284730994
vertex 311.045671010822 49.525815053489 3.0000128473105
endloop
endfacet
facet normal 0.258820820071519 -0.965925350685629 -5.91650875139229e-007
outer loop
vertex 311.045671010826 49.5258132159232 6.00001284730994
vertex 311.239785247687 49.5513710404734 3.0000128629638
vertex 311.239785247692 49.5513692029075 6.00001286296323
endloop
endfacet
facet normal -0.258817270132449 -0.965926301888936 -5.91650681561337e-007
outer loop
vertex 311.433899578479 49.5258139293257 6.00001284730985
vertex 311.239785247687 49.5513710404734 3.0000128629638
vertex 311.433899578475 49.5258157668916 3.00001284731041
endloop
endfacet
facet normal 1.83758382389597e-006 -0.999999999998124 -6.12521957947117e-007
outer loop
vertex 311.239785247687 49.5513710404734 3.0000128629638
vertex 311.433899578479 49.5258139293257 6.00001284730985
vertex 311.239785247692 49.5513692029075 6.00001286296323
endloop
endfacet
facet normal -0.499998408605045 -0.866026322574632 -5.30459388976088e-007
outer loop
vertex 311.614785432334 49.45088894484 6.00001280141631
vertex 311.433899578475 49.5258157668916 3.00001284731041
vertex 311.614785432329 49.4508907824058 3.00001280141688
endloop
endfacet
facet normal -0.258817270132445 -0.965926301888937 -5.91650681561338e-007
outer loop
vertex 311.433899578475 49.5258157668916 3.00001284731041
vertex 311.614785432334 49.45088894484 6.00001280141631
vertex 311.433899578479 49.5258139293257 6.00001284730985
endloop
endfacet
facet normal -0.707105481817471 -0.707108080553104 -4.3311816565775e-007
outer loop
vertex 311.770115737243 49.3317002633238 6.0000127284104
vertex 311.614785432329 49.4508907824058 3.00001280141688
vertex 311.770115737238 49.3317021008897 3.00001272841097
endloop
endfacet
facet normal -0.499998408605065 -0.86602632257462 -5.30459388976081e-007
outer loop
vertex 311.614785432329 49.4508907824058 3.00001280141688
vertex 311.770115737243 49.3317002633238 6.0000127284104
vertex 311.614785432334 49.45088894484 6.00001280141631
endloop
endfacet
facet normal -0.707105481817471 -0.707108080553104 -4.3311816565775e-007
outer loop
vertex 311.770115737243 49.3317002633238 6.0000127284104
vertex 311.889304989619 49.1763722340198 3.00001263326782
vertex 311.889304989623 49.1763703964539 6.00001263326726
endloop
endfacet
facet normal -0.866024484991053 -0.500001591393355 -3.06260655111521e-007
outer loop
vertex 311.889304989619 49.1763722340198 3.00001263326782
vertex 311.770115737243 49.3317002633238 6.0000127284104
vertex 311.770115737238 49.3317021008897 3.00001272841097
endloop
endfacet
facet normal -0.866024484991065 -0.500001591393335 -3.06260655111509e-007
outer loop
vertex 311.889304989623 49.1763703964539 6.00001263326726
vertex 311.96423063889 48.9954866555286 3.00001252247139
vertex 311.964230638894 48.9954848179627 6.00001252247082
endloop
endfacet
facet normal -0.965925350685762 -0.258820820071651 -1.58531987038985e-007
outer loop
vertex 311.96423063889 48.9954866555286 3.00001252247139
vertex 311.889304989623 49.1763703964539 6.00001263326726
vertex 311.889304989619 49.1763722340198 3.00001263326782
endloop
endfacet
facet normal -0.96592535068577 -0.258820820071621 -1.58531987038967e-007
outer loop
vertex 311.964230638894 48.9954848179627 6.00001252247082
vertex 311.989786625874 48.8013724186626 3.00001240357212
vertex 311.989786625878 48.8013705810967 6.00001240357156
endloop
endfacet
facet normal -0.999999999998312 -1.83758352284275e-006 3.73963866841816e-013
outer loop
vertex 311.989786625874 48.8013724186626 3.00001240357212
vertex 311.964230638894 48.9954848179627 6.00001252247082
vertex 311.96423063889 48.9954866555286 3.00001252247139
endloop
endfacet
facet normal -0.999999999998312 -1.83758352340427e-006 3.73963866501907e-013
outer loop
vertex 311.989786625878 48.8013705810967 6.00001240357156
vertex 311.964231352292 48.6072580878755 3.00001228467286
vertex 311.964231352297 48.6072562503096 6.0000122846723
endloop
endfacet
facet normal -0.965926301889052 0.258817270132647 1.58532709481553e-007
outer loop
vertex 311.964231352292 48.6072580878755 3.00001228467286
vertex 311.989786625878 48.8013705810967 6.00001240357156
vertex 311.989786625874 48.8013724186626 3.00001240357212
endloop
endfacet
facet normal -0.965926301889052 0.258817270132645 1.58532709481552e-007
outer loop
vertex 311.964231352297 48.6072562503096 6.0000122846723
vertex 311.889306367806 48.4263722340212 3.00001217387642
vertex 311.889306367811 48.4263703964553 6.00001217387586
endloop
endfacet
facet normal -0.866026322574823 0.499998408604903 3.06261302835677e-007
outer loop
vertex 311.889306367806 48.4263722340212 3.00001217387642
vertex 311.964231352297 48.6072562503096 6.0000122846723
vertex 311.964231352292 48.6072580878755 3.00001228467286
endloop
endfacet
facet normal -0.866026322574823 0.499998408604902 3.06261302835677e-007
outer loop
vertex 311.889306367811 48.4263703964553 6.00001217387586
vertex 311.77011768629 48.2710419291119 3.00001207873337
vertex 311.770117686295 48.271040091546 6.00001207873281
endloop
endfacet
facet normal -0.707108080553361 0.707105481817214 4.33118694522308e-007
outer loop
vertex 311.77011768629 48.2710419291119 3.00001207873337
vertex 311.889306367811 48.4263703964553 6.00001217387586
vertex 311.889306367806 48.4263722340212 3.00001217387642
endloop
endfacet
endsolid uploads-c5-af-25-85-c2-plotclock_SUP7
