solid uploads-c5-af-25-85-c2-plotclock_SUP7
facet normal -1.66707833145865e-017 -6.05219954154555e-018 -1.0
outer loop
vertex 352.48033474322 73.8321004217386 -8.68983644149162e-014
vertex 353.033249013835 68.0365454640044 -8.94010021690043e-014
vertex 352.79834969485 33.0365454640048 -9.06553896378657e-014
endloop
endfacet
facet normal -1.66707833145865e-017 -6.05219954154555e-018 -1.0
outer loop
vertex 353.033249013835 68.0365454640044 -8.94010021690043e-014
vertex 352.48033474322 73.8321004217386 -8.68983644149162e-014
vertex 353.067323187546 68.2953645091073 -8.93996861683305e-014
endloop
endfacet
facet normal -1.66707833145865e-017 -6.05219954154555e-018 -1.0
outer loop
vertex 353.067323187546 68.2953645091073 -8.93996861683305e-014
vertex 352.48033474322 73.8321004217386 -8.68983644149162e-014
vertex 354.033249013835 74.0365454640049 -8.9723899972269e-014
endloop
endfacet
facet normal -1.66707833145865e-017 -6.05219954154555e-018 -1.0
outer loop
vertex 352.79834969485 33.0365454640048 -9.06553896378657e-014
vertex 353.033249013835 68.0365454640044 -8.94010021690043e-014
vertex 352.840427868761 33.3561609265422 -9.06537645095298e-014
endloop
endfacet
facet normal -1.66707833145865e-017 -6.05219954154555e-018 -1.0
outer loop
vertex 352.840427868761 33.3561609265422 -9.06537645095298e-014
vertex 353.033249013835 68.0365454640044 -8.94010021690043e-014
vertex 352.963794832478 33.6539951234973 -8.99476229641369e-014
endloop
endfacet
facet normal -1.66707833145865e-017 -6.05219954154555e-018 -1.0
outer loop
vertex 353.067323187546 68.2953645091073 -8.93996861683305e-014
vertex 354.033249013835 74.0365454640049 -8.9723899972269e-014
vertex 353.167223610051 68.5365454640046 -8.93987549792544e-014
endloop
endfacet
facet normal -1.66707833145865e-017 -6.05219954154555e-018 -1.0
outer loop
vertex 353.167223610051 68.5365454640046 -8.93987549792544e-014
vertex 354.033249013835 74.0365454640049 -8.9723899972269e-014
vertex 353.326142232648 68.7436522451914 -8.93982720607727e-014
endloop
endfacet
facet normal -1.66707833145865e-017 -6.05219954154555e-018 -1.0
outer loop
vertex 353.326142232648 68.7436522451914 -8.93982720607727e-014
vertex 354.033249013835 74.0365454640049 -8.9723899972269e-014
vertex 353.533249013835 68.9025708677891 -8.97507661333004e-014
endloop
endfacet
facet normal -1.66707833145865e-017 -6.05219954154555e-018 -1.0
outer loop
vertex 353.533249013835 68.9025708677891 -8.97507661333004e-014
vertex 354.033249013835 74.0365454640049 -8.9723899972269e-014
vertex 353.774429968732 69.0024712902939 -8.97512456946281e-014
endloop
endfacet
facet normal -1.66707833145865e-017 -6.05219954154555e-018 -1.0
outer loop
vertex 353.774429968732 69.0024712902939 -8.97512456946281e-014
vertex 354.033249013835 74.0365454640049 -8.9723899972269e-014
vertex 354.033249013835 69.0365454640045 -8.97521738737622e-014
endloop
endfacet
facet normal -1.66707833145865e-017 -6.05219954154555e-018 -1.0
outer loop
vertex 354.033249013835 69.0365454640045 -8.97521738737622e-014
vertex 354.033249013835 74.0365454640049 -8.9723899972269e-014
vertex 355.58616328445 73.8321004217391 -8.97317812306682e-014
endloop
endfacet
facet normal -1.66707833145865e-017 -6.05219954154555e-018 -1.0
outer loop
vertex 354.033249013835 69.0365454640045 -8.97521738737622e-014
vertex 355.58616328445 73.8321004217391 -8.97317812306682e-014
vertex 354.292068058937 69.0024712902939 -9.01059832271473e-014
endloop
endfacet
facet normal -1.66707833145865e-017 -6.05219954154555e-018 -1.0
outer loop
vertex 354.292068058937 69.0024712902939 -9.01059832271473e-014
vertex 355.58616328445 73.8321004217391 -8.97317812306682e-014
vertex 354.533249013836 68.9025708677889 -8.97550968080384e-014
endloop
endfacet
facet normal -1.66707833145865e-017 -6.05219954154555e-018 -1.0
outer loop
vertex 354.533249013836 68.9025708677889 -8.97550968080384e-014
vertex 355.58616328445 73.8321004217391 -8.97317812306682e-014
vertex 354.740355795022 68.7436522451913 -8.97568923700399e-014
endloop
endfacet
facet normal -1.66707833145865e-017 -6.05219954154555e-018 -1.0
outer loop
vertex 354.740355795022 68.7436522451913 -8.97568923700399e-014
vertex 355.58616328445 73.8321004217391 -8.97317812306682e-014
vertex 354.89927441762 68.5365454640047 -8.97587517382502e-014
endloop
endfacet
facet normal -1.66707833145865e-017 -6.05219954154555e-018 -1.0
outer loop
vertex 354.89927441762 68.5365454640047 -8.97587517382502e-014
vertex 355.58616328445 73.8321004217391 -8.97317812306682e-014
vertex 354.999174840124 68.2953645091072 -9.01130440101169e-014
endloop
endfacet
facet normal -1.66707833145865e-017 -6.05219954154555e-018 -1.0
outer loop
vertex 354.999174840124 68.2953645091072 -9.01130440101169e-014
vertex 355.58616328445 73.8321004217391 -8.97317812306682e-014
vertex 355.033249013835 68.0365454640047 -9.04671509494358e-014
endloop
endfacet
facet normal -1.66707833145865e-017 -6.05219954154555e-018 -1.0
outer loop
vertex 355.033249013835 68.0365454640047 -9.04671509494358e-014
vertex 355.58616328445 73.8321004217391 -8.97317812306682e-014
vertex 355.102703195192 33.6539951234971 -9.03093816908687e-014
endloop
endfacet
facet normal -1.66707833145865e-017 -6.05219954154555e-018 -1.0
outer loop
vertex 355.102703195192 33.6539951234971 -9.03093816908687e-014
vertex 355.58616328445 73.8321004217391 -8.97317812306682e-014
vertex 355.226070158909 33.3561609265419 -9.06640959503297e-014
endloop
endfacet
facet normal -1.66707833145865e-017 -6.05219954154555e-018 -1.0
outer loop
vertex 355.226070158909 33.3561609265419 -9.06640959503297e-014
vertex 355.58616328445 73.8321004217391 -8.97317812306682e-014
vertex 355.26814833282 33.036545464005 -9.10185813427537e-014
endloop
endfacet
facet normal -1.66707833145865e-017 -6.05219954154555e-018 -1.0
outer loop
vertex 358.275889700954 72.279186151124 -8.97522109499353e-014
vertex 358.275889700954 63.7939047768853 -8.98001933518788e-014
vertex 358.275889700954 37.2791861511239 -8.99501282603879e-014
endloop
endfacet
facet normal -1.66707833145865e-017 -6.05219954154555e-018 -1.0
outer loop
vertex 358.275889700954 63.7939047768853 -8.98001933518788e-014
vertex 358.275889700954 72.279186151124 -8.97522109499353e-014
vertex 359.229401436542 71.036545464005 -9.11733504004708e-014
endloop
endfacet
facet normal -1.66707833145865e-017 -6.05219954154555e-018 -1.0
outer loop
vertex 358.275889700954 63.7939047768853 -8.98001933518788e-014
vertex 359.229401436542 71.036545464005 -9.11733504004708e-014
vertex 359.229401436541 65.0365454640047 -8.97972958409887e-014
endloop
endfacet
facet normal -1.66707833145865e-017 -6.05219954154555e-018 -1.0
outer loop
vertex 359.229401436541 65.0365454640047 -8.97972958409887e-014
vertex 359.229401436542 71.036545464005 -9.11733504004708e-014
vertex 359.828803971569 66.4836311933898 -8.97917087065321e-014
endloop
endfacet
facet normal -1.66707833145865e-017 -6.05219954154555e-018 -1.0
outer loop
vertex 359.828803971569 66.4836311933898 -8.97917087065321e-014
vertex 359.229401436542 71.036545464005 -9.11733504004708e-014
vertex 359.82880397157 69.5894597346198 -8.97741459284862e-014
endloop
endfacet
facet normal -1.66707833145865e-017 -6.05219954154555e-018 -1.0
outer loop
vertex 359.828803971569 66.4836311933898 -8.97917087065321e-014
vertex 359.82880397157 69.5894597346198 -8.97741459284862e-014
vertex 360.033249013835 68.036545464005 -8.80213336508965e-014
endloop
endfacet
facet normal -1.66707833145865e-017 -6.05219954154555e-018 -1.0
outer loop
vertex 348.237694056101 69.5894597346197 -8.69039821190417e-014
vertex 348.237694056101 66.4836311933895 -9.0798998810591e-014
vertex 348.033249013835 68.0365454640044 -8.97318446056327e-014
endloop
endfacet
facet normal -1.66707833145865e-017 -6.05219954154555e-018 -1.0
outer loop
vertex 348.237694056101 66.4836311933895 -9.0798998810591e-014
vertex 348.237694056101 69.5894597346197 -8.69039821190417e-014
vertex 348.837096591128 65.0365454640047 -8.72848194766955e-014
endloop
endfacet
facet normal -1.66707833145865e-017 -6.05219954154555e-018 -1.0
outer loop
vertex 348.837096591128 65.0365454640047 -8.72848194766955e-014
vertex 348.237694056101 69.5894597346197 -8.69039821190417e-014
vertex 348.837096591128 71.0365454640046 -9.07758488980885e-014
endloop
endfacet
facet normal -1.66707833145865e-017 -6.05219954154555e-018 -1.0
outer loop
vertex 348.837096591128 65.0365454640047 -8.72848194766955e-014
vertex 348.837096591128 71.0365454640046 -9.07758488980885e-014
vertex 349.790608326716 63.7939047768851 -9.08209337891419e-014
endloop
endfacet
facet normal -1.66707833145865e-017 -6.05219954154555e-018 -1.0
outer loop
vertex 349.790608326716 63.7939047768851 -9.08209337891419e-014
vertex 348.837096591128 71.0365454640046 -9.07758488980885e-014
vertex 349.790608326716 72.2791861511238 -8.97154639562429e-014
endloop
endfacet
facet normal -1.66707833145865e-017 -6.05219954154555e-018 -1.0
outer loop
vertex 349.790608326716 63.7939047768851 -9.08209337891419e-014
vertex 349.790608326716 72.2791861511238 -8.97154639562429e-014
vertex 349.790608326716 37.2791861511239 -9.0970868697651e-014
endloop
endfacet
facet normal -1.66707833145865e-017 -6.05219954154555e-018 -1.0
outer loop
vertex 349.790608326716 37.2791861511239 -9.0970868697651e-014
vertex 349.790608326716 72.2791861511238 -8.97154639562429e-014
vertex 351.033249013835 73.2326978867113 -9.07729409604536e-014
endloop
endfacet
facet normal -1.66707833145865e-017 -6.05219954154555e-018 -1.0
outer loop
vertex 349.790608326716 37.2791861511239 -9.0970868697651e-014
vertex 351.033249013835 73.2326978867113 -9.07729409604536e-014
vertex 351.033249013835 27.8403930412983 -9.03246328509666e-014
endloop
endfacet
facet normal -1.66707833145865e-017 -6.05219954154555e-018 -1.0
outer loop
vertex 351.033249013835 27.8403930412983 -9.03246328509666e-014
vertex 351.033249013835 73.2326978867113 -9.07729409604536e-014
vertex 352.48033474322 27.2409905062702 -8.71618269053583e-014
endloop
endfacet
facet normal -1.66707833145865e-017 -6.05219954154555e-018 -1.0
outer loop
vertex 352.48033474322 27.2409905062702 -8.71618269053583e-014
vertex 351.033249013835 73.2326978867113 -9.07729409604536e-014
vertex 352.48033474322 73.8321004217386 -8.68983644149162e-014
endloop
endfacet
facet normal -1.66707833145865e-017 -6.05219954154555e-018 -1.0
outer loop
vertex 352.48033474322 27.2409905062702 -8.71618269053583e-014
vertex 352.48033474322 73.8321004217386 -8.68983644149162e-014
vertex 352.79834969485 33.0365454640048 -9.06553896378657e-014
endloop
endfacet
facet normal -1.66707833145865e-017 -6.05219954154555e-018 -1.0
outer loop
vertex 352.48033474322 27.2409905062702 -8.71618269053583e-014
vertex 352.79834969485 33.0365454640048 -9.06553896378657e-014
vertex 352.840427868761 32.7169300014673 -9.06573792199712e-014
endloop
endfacet
facet normal -1.66707833145865e-017 -6.05219954154555e-018 -1.0
outer loop
vertex 352.48033474322 27.2409905062702 -8.71618269053583e-014
vertex 352.840427868761 32.7169300014673 -9.06573792199712e-014
vertex 354.033249013835 27.0365454640049 -8.99896746463054e-014
endloop
endfacet
facet normal -1.66707833145865e-017 -6.05219954154555e-018 -1.0
outer loop
vertex 354.033249013835 27.0365454640049 -8.99896746463054e-014
vertex 352.840427868761 32.7169300014673 -9.06573792199712e-014
vertex 352.963794832479 32.4190958045126 -8.88971186175213e-014
endloop
endfacet
facet normal -1.66707833145865e-017 -6.05219954154555e-018 -1.0
outer loop
vertex 354.033249013835 27.0365454640049 -8.99896746463054e-014
vertex 352.963794832479 32.4190958045126 -8.88971186175213e-014
vertex 353.160043331298 32.1633397814682 -8.78419273191024e-014
endloop
endfacet
facet normal -1.66707833145865e-017 -6.05219954154555e-018 -1.0
outer loop
vertex 354.033249013835 27.0365454640049 -8.99896746463054e-014
vertex 353.160043331298 32.1633397814682 -8.78419273191024e-014
vertex 353.415799354343 31.967091282648 -9.03116153296247e-014
endloop
endfacet
facet normal -1.66707833145865e-017 -6.05219954154555e-018 -1.0
outer loop
vertex 354.033249013835 27.0365454640049 -8.99896746463054e-014
vertex 353.415799354343 31.967091282648 -9.03116153296247e-014
vertex 353.713633551297 31.8437243189311 -9.10185943863704e-014
endloop
endfacet
facet normal -1.66707833145865e-017 -6.05219954154555e-018 -1.0
outer loop
vertex 354.033249013835 27.0365454640049 -8.99896746463054e-014
vertex 353.713633551297 31.8437243189311 -9.10185943863704e-014
vertex 354.033249013835 31.8016461450202 -9.03152248591718e-014
endloop
endfacet
facet normal -1.66707833145865e-017 -6.05219954154555e-018 -1.0
outer loop
vertex 354.033249013835 27.0365454640049 -8.99896746463054e-014
vertex 354.033249013835 31.8016461450202 -9.03152248591718e-014
vertex 355.58616328445 27.2409905062704 -8.99952437211103e-014
endloop
endfacet
facet normal -1.66707833145865e-017 -6.05219954154555e-018 -1.0
outer loop
vertex 355.58616328445 27.2409905062704 -8.99952437211103e-014
vertex 354.033249013835 31.8016461450202 -9.03152248591718e-014
vertex 354.352864476372 31.8437243189308 -8.9258883635997e-014
endloop
endfacet
facet normal -1.66707833145865e-017 -6.05219954154555e-018 -1.0
outer loop
vertex 355.58616328445 27.2409905062704 -8.99952437211103e-014
vertex 354.352864476372 31.8437243189308 -8.9258883635997e-014
vertex 354.650698673327 31.9670912826479 -8.82019884149985e-014
endloop
endfacet
facet normal -1.66707833145865e-017 -6.05219954154555e-018 -1.0
outer loop
vertex 355.58616328445 27.2409905062704 -8.99952437211103e-014
vertex 354.650698673327 31.9670912826479 -8.82019884149985e-014
vertex 354.906454696372 32.1633397814679 -8.89069778896388e-014
endloop
endfacet
facet normal -1.66707833145865e-017 -6.05219954154555e-018 -1.0
outer loop
vertex 355.58616328445 27.2409905062704 -8.99952437211103e-014
vertex 354.906454696372 32.1633397814679 -8.89069778896388e-014
vertex 355.102703195192 32.4190958045121 -8.82013899132977e-014
endloop
endfacet
facet normal -1.66707833145865e-017 -6.05219954154555e-018 -1.0
outer loop
vertex 355.58616328445 27.2409905062704 -8.99952437211103e-014
vertex 355.102703195192 32.4190958045121 -8.82013899132977e-014
vertex 355.226070158909 32.7169300014676 -8.92577274194972e-014
endloop
endfacet
facet normal -1.66707833145865e-017 -6.05219954154555e-018 -1.0
outer loop
vertex 355.58616328445 27.2409905062704 -8.99952437211103e-014
vertex 355.226070158909 32.7169300014676 -8.92577274194972e-014
vertex 355.26814833282 33.036545464005 -9.10185813427537e-014
endloop
endfacet
facet normal -1.66707833145865e-017 -6.05219954154555e-018 -1.0
outer loop
vertex 355.58616328445 27.2409905062704 -8.99952437211103e-014
vertex 355.26814833282 33.036545464005 -9.10185813427537e-014
vertex 355.58616328445 73.8321004217391 -8.97317812306682e-014
endloop
endfacet
facet normal -1.66707833145865e-017 -6.05219954154555e-018 -1.0
outer loop
vertex 355.58616328445 27.2409905062704 -8.99952437211103e-014
vertex 355.58616328445 73.8321004217391 -8.97317812306682e-014
vertex 357.033249013835 73.2326978867113 -9.00939333882448e-014
endloop
endfacet
facet normal -1.66707833145865e-017 -6.05219954154555e-018 -1.0
outer loop
vertex 355.58616328445 27.2409905062704 -8.99952437211103e-014
vertex 357.033249013835 73.2326978867113 -9.00939333882448e-014
vertex 357.033249013835 27.8403930412981 -8.71781546065284e-014
endloop
endfacet
facet normal -1.66707833145865e-017 -6.05219954154555e-018 -1.0
outer loop
vertex 357.033249013835 27.8403930412981 -8.71781546065284e-014
vertex 357.033249013835 73.2326978867113 -9.00939333882448e-014
vertex 358.275889700954 28.7939047768857 -8.82356316107391e-014
endloop
endfacet
facet normal -1.66707833145865e-017 -6.05219954154555e-018 -1.0
outer loop
vertex 358.275889700954 28.7939047768857 -8.82356316107391e-014
vertex 357.033249013835 73.2326978867113 -9.00939333882448e-014
vertex 358.275889700954 72.279186151124 -8.97522109499353e-014
endloop
endfacet
facet normal -1.66707833145865e-017 -6.05219954154555e-018 -1.0
outer loop
vertex 358.275889700954 28.7939047768857 -8.82356316107391e-014
vertex 358.275889700954 72.279186151124 -8.97522109499353e-014
vertex 358.275889700954 37.2791861511239 -8.99501282603879e-014
endloop
endfacet
facet normal -1.66707833145865e-017 -6.05219954154555e-018 -1.0
outer loop
vertex 358.275889700954 28.7939047768857 -8.82356316107391e-014
vertex 358.275889700954 37.2791861511239 -8.99501282603879e-014
vertex 359.229401436542 30.0365454640051 -8.78802382895305e-014
endloop
endfacet
facet normal -1.66707833145865e-017 -6.05219954154555e-018 -1.0
outer loop
vertex 359.229401436542 30.0365454640051 -8.78802382895305e-014
vertex 358.275889700954 37.2791861511239 -8.99501282603879e-014
vertex 359.229401436541 36.036545464005 -9.03137802799679e-014
endloop
endfacet
facet normal -1.66707833145865e-017 -6.05219954154555e-018 -1.0
outer loop
vertex 359.229401436542 30.0365454640051 -8.78802382895305e-014
vertex 359.229401436541 36.036545464005 -9.03137802799679e-014
vertex 359.828803971569 34.5894597346199 -9.06770548595758e-014
endloop
endfacet
facet normal -1.66707833145865e-017 -6.05219954154555e-018 -1.0
outer loop
vertex 359.229401436542 30.0365454640051 -8.78802382895305e-014
vertex 359.828803971569 34.5894597346199 -9.06770548595758e-014
vertex 359.82880397157 31.4836311933895 -9.06946176376217e-014
endloop
endfacet
facet normal -1.66707833145865e-017 -6.05219954154555e-018 -1.0
outer loop
vertex 359.82880397157 31.4836311933895 -9.06946176376217e-014
vertex 359.828803971569 34.5894597346199 -9.06770548595758e-014
vertex 360.033249013836 33.0365454640052 -8.99817300129416e-014
endloop
endfacet
facet normal -1.66707833145865e-017 -6.05219954154555e-018 -1.0
outer loop
vertex 353.033249013835 68.0365454640044 -8.94010021690043e-014
vertex 353.160043331298 33.9097511465415 -8.88895391774773e-014
vertex 352.963794832478 33.6539951234973 -8.99476229641369e-014
endloop
endfacet
facet normal -1.66707833145865e-017 -6.05219954154555e-018 -1.0
outer loop
vertex 353.160043331298 33.9097511465415 -8.88895391774773e-014
vertex 353.033249013835 68.0365454640044 -8.94010021690043e-014
vertex 353.067323187545 67.7777264189023 -8.94026132980048e-014
endloop
endfacet
facet normal -1.66707833145865e-017 -6.05219954154555e-018 -1.0
outer loop
vertex 353.160043331298 33.9097511465415 -8.88895391774773e-014
vertex 353.067323187545 67.7777264189023 -8.94026132980048e-014
vertex 353.16722361005 67.5365454640045 -8.97569055698715e-014
endloop
endfacet
facet normal -1.66707833145865e-017 -6.05219954154555e-018 -1.0
outer loop
vertex 353.160043331298 33.9097511465415 -8.88895391774773e-014
vertex 353.16722361005 67.5365454640045 -8.97569055698715e-014
vertex 353.415799354343 34.1059996453617 -8.95945286521176e-014
endloop
endfacet
facet normal -1.66707833145865e-017 -6.05219954154555e-018 -1.0
outer loop
vertex 353.415799354343 34.1059996453617 -8.95945286521176e-014
vertex 353.16722361005 67.5365454640045 -8.97569055698715e-014
vertex 353.326142232648 67.3294386828179 -8.97587649380818e-014
endloop
endfacet
facet normal -1.66707833145865e-017 -6.05219954154555e-018 -1.0
outer loop
vertex 353.415799354343 34.1059996453617 -8.95945286521176e-014
vertex 353.326142232648 67.3294386828179 -8.97587649380818e-014
vertex 353.533249013835 67.1705200602203 -8.97605605000833e-014
endloop
endfacet
facet normal -1.66707833145865e-017 -6.05219954154555e-018 -1.0
outer loop
vertex 353.415799354343 34.1059996453617 -8.95945286521176e-014
vertex 353.533249013835 67.1705200602203 -8.97605605000833e-014
vertex 353.713633551298 34.229366609079 -9.03001124827115e-014
endloop
endfacet
facet normal -1.66707833145865e-017 -6.05219954154555e-018 -1.0
outer loop
vertex 353.713633551298 34.229366609079 -9.03001124827115e-014
vertex 353.533249013835 67.1705200602203 -8.97605605000833e-014
vertex 353.774429968733 67.0706196377154 -9.01146657016115e-014
endloop
endfacet
facet normal -1.66707833145865e-017 -6.05219954154555e-018 -1.0
outer loop
vertex 353.713633551298 34.229366609079 -9.03001124827115e-014
vertex 353.774429968733 67.0706196377154 -9.01146657016115e-014
vertex 354.033249013835 34.2714447829896 -8.99487628801737e-014
endloop
endfacet
facet normal -1.66707833145865e-017 -6.05219954154555e-018 -1.0
outer loop
vertex 354.033249013835 34.2714447829896 -8.99487628801737e-014
vertex 353.774429968733 67.0706196377154 -9.01146657016115e-014
vertex 354.033249013835 67.0365454640046 -8.97634834343595e-014
endloop
endfacet
facet normal -1.66707833145865e-017 -6.05219954154555e-018 -1.0
outer loop
vertex 354.033249013835 34.2714447829896 -8.99487628801737e-014
vertex 354.033249013835 67.0365454640046 -8.97634834343595e-014
vertex 354.292068058937 67.070619637716 -8.97644116134937e-014
endloop
endfacet
facet normal -1.66707833145865e-017 -6.05219954154555e-018 -1.0
outer loop
vertex 354.033249013835 34.2714447829896 -8.99487628801737e-014
vertex 354.292068058937 67.070619637716 -8.97644116134937e-014
vertex 354.352864476372 34.229366609079 -9.03028807839305e-014
endloop
endfacet
facet normal -1.66707833145865e-017 -6.05219954154555e-018 -1.0
outer loop
vertex 354.352864476372 34.229366609079 -9.03028807839305e-014
vertex 354.292068058937 67.070619637716 -8.97644116134937e-014
vertex 354.533249013835 67.17052006022 -8.97648911748213e-014
endloop
endfacet
facet normal -1.66707833145865e-017 -6.05219954154555e-018 -1.0
outer loop
vertex 354.352864476372 34.229366609079 -9.03028807839305e-014
vertex 354.533249013835 67.17052006022 -8.97648911748213e-014
vertex 354.650698673327 34.1059996453615 -8.81898933581284e-014
endloop
endfacet
facet normal -1.66707833145865e-017 -6.05219954154555e-018 -1.0
outer loop
vertex 354.650698673327 34.1059996453615 -8.81898933581284e-014
vertex 354.533249013835 67.17052006022 -8.97648911748213e-014
vertex 354.740355795021 67.3294386828183 -9.0117385247349e-014
endloop
endfacet
facet normal -1.66707833145865e-017 -6.05219954154555e-018 -1.0
outer loop
vertex 354.650698673327 34.1059996453615 -8.81898933581284e-014
vertex 354.740355795021 67.3294386828183 -9.0117385247349e-014
vertex 354.906454696372 33.9097511465417 -8.96020939376952e-014
endloop
endfacet
facet normal -1.66707833145865e-017 -6.05219954154555e-018 -1.0
outer loop
vertex 354.906454696372 33.9097511465417 -8.96020939376952e-014
vertex 354.740355795021 67.3294386828183 -9.0117385247349e-014
vertex 354.899274417619 67.5365454640046 -9.01169023288674e-014
endloop
endfacet
facet normal -1.66707833145865e-017 -6.05219954154555e-018 -1.0
outer loop
vertex 354.906454696372 33.9097511465417 -8.96020939376952e-014
vertex 354.899274417619 67.5365454640046 -9.01169023288674e-014
vertex 354.999174840124 67.7777264189023 -9.01159711397912e-014
endloop
endfacet
facet normal -1.66707833145865e-017 -6.05219954154555e-018 -1.0
outer loop
vertex 354.906454696372 33.9097511465417 -8.96020939376952e-014
vertex 354.999174840124 67.7777264189023 -9.01159711397912e-014
vertex 355.102703195192 33.6539951234971 -9.03093816908687e-014
endloop
endfacet
facet normal -1.66707833145865e-017 -6.05219954154555e-018 -1.0
outer loop
vertex 355.102703195192 33.6539951234971 -9.03093816908687e-014
vertex 354.999174840124 67.7777264189023 -9.01159711397912e-014
vertex 355.033249013835 68.0365454640047 -9.04671509494358e-014
endloop
endfacet
facet normal -1.66707833145865e-017 -6.05219954154555e-018 -1.0
outer loop
vertex 348.237694056101 34.5894597346202 -9.09793533429977e-014
vertex 348.237694056101 31.4836311933898 -8.71194622075403e-014
vertex 348.033249013835 33.0365454640049 -9.06347535367223e-014
endloop
endfacet
facet normal -1.66707833145865e-017 -6.05219954154555e-018 -1.0
outer loop
vertex 348.237694056101 31.4836311933898 -8.71194622075403e-014
vertex 348.237694056101 34.5894597346202 -9.09793533429977e-014
vertex 348.837096591128 36.0365454640051 -8.99162787775856e-014
endloop
endfacet
facet normal -1.66707833145865e-017 -6.05219954154555e-018 -1.0
outer loop
vertex 348.237694056101 31.4836311933898 -8.71194622075403e-014
vertex 348.837096591128 36.0365454640051 -8.99162787775856e-014
vertex 348.837096591129 30.0365454640049 -9.0302703269696e-014
endloop
endfacet
facet normal -1.66707833145865e-017 -6.05219954154555e-018 -1.0
outer loop
vertex 348.837096591129 30.0365454640049 -9.0302703269696e-014
vertex 348.837096591128 36.0365454640051 -8.99162787775856e-014
vertex 349.790608326716 37.2791861511239 -9.0970868697651e-014
endloop
endfacet
facet normal -1.66707833145865e-017 -6.05219954154555e-018 -1.0
outer loop
vertex 348.837096591129 30.0365454640049 -9.0302703269696e-014
vertex 349.790608326716 37.2791861511239 -9.0970868697651e-014
vertex 349.790608326716 28.7939047768855 -8.71413971860912e-014
endloop
endfacet
facet normal -1.66707833145865e-017 -6.05219954154555e-018 -1.0
outer loop
vertex 349.790608326716 28.7939047768855 -8.71413971860912e-014
vertex 349.790608326716 37.2791861511239 -9.0970868697651e-014
vertex 351.033249013835 27.8403930412983 -9.03246328509666e-014
endloop
endfacet
facet normal 1.66707833145865e-017 6.05219954154555e-018 1.0
outer loop
vertex 353.160043331298 33.9097511465415 2.99999999999991
vertex 353.033249013835 68.0365454640044 2.99999999999991
vertex 352.963794832478 33.6539951234973 2.99999999999991
endloop
endfacet
facet normal 1.66707833145865e-017 6.05219954154555e-018 1.0
outer loop
vertex 353.033249013835 68.0365454640044 2.99999999999991
vertex 353.160043331298 33.9097511465415 2.99999999999991
vertex 353.067323187545 67.7777264189023 2.99999999999991
endloop
endfacet
facet normal 1.66707833145865e-017 6.05219954154555e-018 1.0
outer loop
vertex 353.067323187545 67.7777264189023 2.99999999999991
vertex 353.160043331298 33.9097511465415 2.99999999999991
vertex 353.16722361005 67.5365454640045 2.99999999999991
endloop
endfacet
facet normal 1.66707833145865e-017 6.05219954154555e-018 1.0
outer loop
vertex 353.16722361005 67.5365454640045 2.99999999999991
vertex 353.160043331298 33.9097511465415 2.99999999999991
vertex 353.415799354343 34.1059996453617 2.99999999999991
endloop
endfacet
facet normal 1.66707833145865e-017 6.05219954154555e-018 1.0
outer loop
vertex 353.16722361005 67.5365454640045 2.99999999999991
vertex 353.415799354343 34.1059996453617 2.99999999999991
vertex 353.326142232648 67.3294386828179 2.99999999999991
endloop
endfacet
facet normal 1.66707833145865e-017 6.05219954154555e-018 1.0
outer loop
vertex 353.326142232648 67.3294386828179 2.99999999999991
vertex 353.415799354343 34.1059996453617 2.99999999999991
vertex 353.533249013835 67.1705200602203 2.99999999999991
endloop
endfacet
facet normal 1.66707833145865e-017 6.05219954154555e-018 1.0
outer loop
vertex 353.533249013835 67.1705200602203 2.99999999999991
vertex 353.415799354343 34.1059996453617 2.99999999999991
vertex 353.713633551298 34.229366609079 2.99999999999991
endloop
endfacet
facet normal 1.66707833145865e-017 6.05219954154555e-018 1.0
outer loop
vertex 353.533249013835 67.1705200602203 2.99999999999991
vertex 353.713633551298 34.229366609079 2.99999999999991
vertex 353.774429968733 67.0706196377154 2.99999999999991
endloop
endfacet
facet normal 1.66707833145865e-017 6.05219954154555e-018 1.0
outer loop
vertex 353.774429968733 67.0706196377154 2.99999999999991
vertex 353.713633551298 34.229366609079 2.99999999999991
vertex 354.033249013835 34.2714447829896 2.99999999999991
endloop
endfacet
facet normal 1.66707833145865e-017 6.05219954154555e-018 1.0
outer loop
vertex 353.774429968733 67.0706196377154 2.99999999999991
vertex 354.033249013835 34.2714447829896 2.99999999999991
vertex 354.033249013835 67.0365454640046 2.99999999999991
endloop
endfacet
facet normal 1.66707833145865e-017 6.05219954154555e-018 1.0
outer loop
vertex 354.033249013835 67.0365454640046 2.99999999999991
vertex 354.033249013835 34.2714447829896 2.99999999999991
vertex 354.352864476372 34.229366609079 2.99999999999991
endloop
endfacet
facet normal 1.66707833145865e-017 6.05219954154555e-018 1.0
outer loop
vertex 354.033249013835 67.0365454640046 2.99999999999991
vertex 354.352864476372 34.229366609079 2.99999999999991
vertex 354.292068058937 67.070619637716 2.99999999999991
endloop
endfacet
facet normal 1.66707833145865e-017 6.05219954154555e-018 1.0
outer loop
vertex 354.292068058937 67.070619637716 2.99999999999991
vertex 354.352864476372 34.229366609079 2.99999999999991
vertex 354.533249013835 67.17052006022 2.99999999999991
endloop
endfacet
facet normal 1.66707833145865e-017 6.05219954154555e-018 1.0
outer loop
vertex 354.533249013835 67.17052006022 2.99999999999991
vertex 354.352864476372 34.229366609079 2.99999999999991
vertex 354.650698673327 34.1059996453615 2.99999999999991
endloop
endfacet
facet normal 1.66707833145865e-017 6.05219954154555e-018 1.0
outer loop
vertex 354.533249013835 67.17052006022 2.99999999999991
vertex 354.650698673327 34.1059996453615 2.99999999999991
vertex 354.740355795021 67.3294386828183 2.99999999999991
endloop
endfacet
facet normal 1.66707833145865e-017 6.05219954154555e-018 1.0
outer loop
vertex 354.740355795021 67.3294386828183 2.99999999999991
vertex 354.650698673327 34.1059996453615 2.99999999999991
vertex 354.906454696372 33.9097511465417 2.99999999999991
endloop
endfacet
facet normal 1.66707833145865e-017 6.05219954154555e-018 1.0
outer loop
vertex 354.740355795021 67.3294386828183 2.99999999999991
vertex 354.906454696372 33.9097511465417 2.99999999999991
vertex 354.899274417619 67.5365454640046 2.99999999999991
endloop
endfacet
facet normal 1.66707833145865e-017 6.05219954154555e-018 1.0
outer loop
vertex 354.899274417619 67.5365454640046 2.99999999999991
vertex 354.906454696372 33.9097511465417 2.99999999999991
vertex 354.999174840124 67.7777264189023 2.99999999999991
endloop
endfacet
facet normal 1.66707833145865e-017 6.05219954154555e-018 1.0
outer loop
vertex 354.999174840124 67.7777264189023 2.99999999999991
vertex 354.906454696372 33.9097511465417 2.99999999999991
vertex 355.102703195192 33.6539951234971 2.99999999999991
endloop
endfacet
facet normal 1.66707833145865e-017 6.05219954154555e-018 1.0
outer loop
vertex 354.999174840124 67.7777264189023 2.99999999999991
vertex 355.102703195192 33.6539951234971 2.99999999999991
vertex 355.033249013835 68.0365454640047 2.99999999999991
endloop
endfacet
facet normal 1.66707833145865e-017 6.05219954154555e-018 1.0
outer loop
vertex 359.229401436542 30.0365454640051 2.99999999999991
vertex 358.275889700954 37.2791861511239 2.99999999999991
vertex 358.275889700954 28.7939047768857 2.99999999999991
endloop
endfacet
facet normal 1.66707833145865e-017 6.05219954154555e-018 1.0
outer loop
vertex 358.275889700954 37.2791861511239 2.99999999999991
vertex 359.229401436542 30.0365454640051 2.99999999999991
vertex 359.229401436541 36.036545464005 2.99999999999991
endloop
endfacet
facet normal 1.66707833145865e-017 6.05219954154555e-018 1.0
outer loop
vertex 359.229401436541 36.036545464005 2.99999999999991
vertex 359.229401436542 30.0365454640051 2.99999999999991
vertex 359.828803971569 34.5894597346199 2.99999999999991
endloop
endfacet
facet normal 1.66707833145865e-017 6.05219954154555e-018 1.0
outer loop
vertex 359.828803971569 34.5894597346199 2.99999999999991
vertex 359.229401436542 30.0365454640051 2.99999999999991
vertex 359.82880397157 31.4836311933895 2.99999999999991
endloop
endfacet
facet normal 1.66707833145865e-017 6.05219954154555e-018 1.0
outer loop
vertex 359.828803971569 34.5894597346199 2.99999999999991
vertex 359.82880397157 31.4836311933895 2.99999999999991
vertex 360.033249013836 33.0365454640052 2.99999999999991
endloop
endfacet
facet normal 1.66707833145865e-017 6.05219954154555e-018 1.0
outer loop
vertex 348.237694056101 66.4836311933895 2.99999999999991
vertex 348.237694056101 69.5894597346197 2.99999999999991
vertex 348.033249013835 68.0365454640044 2.99999999999991
endloop
endfacet
facet normal 1.66707833145865e-017 6.05219954154555e-018 1.0
outer loop
vertex 348.237694056101 69.5894597346197 2.99999999999991
vertex 348.237694056101 66.4836311933895 2.99999999999991
vertex 348.837096591128 65.0365454640047 2.99999999999991
endloop
endfacet
facet normal 1.66707833145865e-017 6.05219954154555e-018 1.0
outer loop
vertex 348.237694056101 69.5894597346197 2.99999999999991
vertex 348.837096591128 65.0365454640047 2.99999999999991
vertex 348.837096591128 71.0365454640046 2.99999999999991
endloop
endfacet
facet normal 1.66707833145865e-017 6.05219954154555e-018 1.0
outer loop
vertex 348.837096591128 71.0365454640046 2.99999999999991
vertex 348.837096591128 65.0365454640047 2.99999999999991
vertex 349.790608326716 63.7939047768851 2.99999999999991
endloop
endfacet
facet normal 1.66707833145865e-017 6.05219954154555e-018 1.0
outer loop
vertex 348.837096591128 71.0365454640046 2.99999999999991
vertex 349.790608326716 63.7939047768851 2.99999999999991
vertex 349.790608326716 72.2791861511238 2.99999999999991
endloop
endfacet
facet normal 1.66707833145865e-017 6.05219954154555e-018 1.0
outer loop
vertex 349.790608326716 72.2791861511238 2.99999999999991
vertex 349.790608326716 63.7939047768851 2.99999999999991
vertex 349.790608326716 37.2791861511239 2.99999999999991
endloop
endfacet
facet normal 1.66707833145865e-017 6.05219954154555e-018 1.0
outer loop
vertex 349.790608326716 72.2791861511238 2.99999999999991
vertex 349.790608326716 37.2791861511239 2.99999999999991
vertex 351.033249013835 73.2326978867113 2.99999999999991
endloop
endfacet
facet normal 1.66707833145865e-017 6.05219954154555e-018 1.0
outer loop
vertex 351.033249013835 73.2326978867113 2.99999999999991
vertex 349.790608326716 37.2791861511239 2.99999999999991
vertex 351.033249013835 27.8403930412983 2.99999999999991
endloop
endfacet
facet normal 1.66707833145865e-017 6.05219954154555e-018 1.0
outer loop
vertex 351.033249013835 73.2326978867113 2.99999999999991
vertex 351.033249013835 27.8403930412983 2.99999999999991
vertex 352.48033474322 27.2409905062702 2.99999999999991
endloop
endfacet
facet normal 1.66707833145865e-017 6.05219954154555e-018 1.0
outer loop
vertex 351.033249013835 73.2326978867113 2.99999999999991
vertex 352.48033474322 27.2409905062702 2.99999999999991
vertex 352.48033474322 73.8321004217386 2.99999999999991
endloop
endfacet
facet normal 1.66707833145865e-017 6.05219954154555e-018 1.0
outer loop
vertex 352.48033474322 73.8321004217386 2.99999999999991
vertex 352.48033474322 27.2409905062702 2.99999999999991
vertex 352.79834969485 33.0365454640048 2.99999999999991
endloop
endfacet
facet normal 1.66707833145865e-017 6.05219954154555e-018 1.0
outer loop
vertex 352.79834969485 33.0365454640048 2.99999999999991
vertex 352.48033474322 27.2409905062702 2.99999999999991
vertex 352.840427868761 32.7169300014673 2.99999999999991
endloop
endfacet
facet normal 1.66707833145865e-017 6.05219954154555e-018 1.0
outer loop
vertex 352.840427868761 32.7169300014673 2.99999999999991
vertex 352.48033474322 27.2409905062702 2.99999999999991
vertex 354.033249013835 27.0365454640049 2.99999999999991
endloop
endfacet
facet normal 1.66707833145865e-017 6.05219954154555e-018 1.0
outer loop
vertex 352.840427868761 32.7169300014673 2.99999999999991
vertex 354.033249013835 27.0365454640049 2.99999999999991
vertex 352.963794832479 32.4190958045126 2.99999999999991
endloop
endfacet
facet normal 1.66707833145865e-017 6.05219954154555e-018 1.0
outer loop
vertex 352.963794832479 32.4190958045126 2.99999999999991
vertex 354.033249013835 27.0365454640049 2.99999999999991
vertex 353.160043331298 32.1633397814682 2.99999999999991
endloop
endfacet
facet normal 1.66707833145865e-017 6.05219954154555e-018 1.0
outer loop
vertex 353.160043331298 32.1633397814682 2.99999999999991
vertex 354.033249013835 27.0365454640049 2.99999999999991
vertex 353.415799354343 31.967091282648 2.99999999999991
endloop
endfacet
facet normal 1.66707833145865e-017 6.05219954154555e-018 1.0
outer loop
vertex 353.415799354343 31.967091282648 2.99999999999991
vertex 354.033249013835 27.0365454640049 2.99999999999991
vertex 353.713633551297 31.8437243189311 2.99999999999991
endloop
endfacet
facet normal 1.66707833145865e-017 6.05219954154555e-018 1.0
outer loop
vertex 353.713633551297 31.8437243189311 2.99999999999991
vertex 354.033249013835 27.0365454640049 2.99999999999991
vertex 354.033249013835 31.8016461450202 2.99999999999991
endloop
endfacet
facet normal 1.66707833145865e-017 6.05219954154555e-018 1.0
outer loop
vertex 354.033249013835 31.8016461450202 2.99999999999991
vertex 354.033249013835 27.0365454640049 2.99999999999991
vertex 355.58616328445 27.2409905062704 2.99999999999991
endloop
endfacet
facet normal 1.66707833145865e-017 6.05219954154555e-018 1.0
outer loop
vertex 354.033249013835 31.8016461450202 2.99999999999991
vertex 355.58616328445 27.2409905062704 2.99999999999991
vertex 354.352864476372 31.8437243189308 2.99999999999991
endloop
endfacet
facet normal 1.66707833145865e-017 6.05219954154555e-018 1.0
outer loop
vertex 354.352864476372 31.8437243189308 2.99999999999991
vertex 355.58616328445 27.2409905062704 2.99999999999991
vertex 354.650698673327 31.9670912826479 2.99999999999991
endloop
endfacet
facet normal 1.66707833145865e-017 6.05219954154555e-018 1.0
outer loop
vertex 354.650698673327 31.9670912826479 2.99999999999991
vertex 355.58616328445 27.2409905062704 2.99999999999991
vertex 354.906454696372 32.1633397814679 2.99999999999991
endloop
endfacet
facet normal 1.66707833145865e-017 6.05219954154555e-018 1.0
outer loop
vertex 354.906454696372 32.1633397814679 2.99999999999991
vertex 355.58616328445 27.2409905062704 2.99999999999991
vertex 355.102703195192 32.4190958045121 2.99999999999991
endloop
endfacet
facet normal 1.66707833145865e-017 6.05219954154555e-018 1.0
outer loop
vertex 355.102703195192 32.4190958045121 2.99999999999991
vertex 355.58616328445 27.2409905062704 2.99999999999991
vertex 355.226070158909 32.7169300014676 2.99999999999991
endloop
endfacet
facet normal 1.66707833145865e-017 6.05219954154555e-018 1.0
outer loop
vertex 355.226070158909 32.7169300014676 2.99999999999991
vertex 355.58616328445 27.2409905062704 2.99999999999991
vertex 355.26814833282 33.036545464005 2.99999999999991
endloop
endfacet
facet normal 1.66707833145865e-017 6.05219954154555e-018 1.0
outer loop
vertex 355.26814833282 33.036545464005 2.99999999999991
vertex 355.58616328445 27.2409905062704 2.99999999999991
vertex 355.58616328445 73.8321004217391 2.99999999999991
endloop
endfacet
facet normal 1.66707833145865e-017 6.05219954154555e-018 1.0
outer loop
vertex 355.58616328445 73.8321004217391 2.99999999999991
vertex 355.58616328445 27.2409905062704 2.99999999999991
vertex 357.033249013835 73.2326978867113 2.99999999999991
endloop
endfacet
facet normal 1.66707833145865e-017 6.05219954154555e-018 1.0
outer loop
vertex 357.033249013835 73.2326978867113 2.99999999999991
vertex 355.58616328445 27.2409905062704 2.99999999999991
vertex 357.033249013835 27.8403930412981 2.99999999999991
endloop
endfacet
facet normal 1.66707833145865e-017 6.05219954154555e-018 1.0
outer loop
vertex 357.033249013835 73.2326978867113 2.99999999999991
vertex 357.033249013835 27.8403930412981 2.99999999999991
vertex 358.275889700954 28.7939047768857 2.99999999999991
endloop
endfacet
facet normal 1.66707833145865e-017 6.05219954154555e-018 1.0
outer loop
vertex 357.033249013835 73.2326978867113 2.99999999999991
vertex 358.275889700954 28.7939047768857 2.99999999999991
vertex 358.275889700954 72.279186151124 2.99999999999991
endloop
endfacet
facet normal 1.66707833145865e-017 6.05219954154555e-018 1.0
outer loop
vertex 358.275889700954 72.279186151124 2.99999999999991
vertex 358.275889700954 28.7939047768857 2.99999999999991
vertex 358.275889700954 37.2791861511239 2.99999999999991
endloop
endfacet
facet normal 1.66707833145865e-017 6.05219954154555e-018 1.0
outer loop
vertex 358.275889700954 72.279186151124 2.99999999999991
vertex 358.275889700954 37.2791861511239 2.99999999999991
vertex 358.275889700954 63.7939047768853 2.99999999999991
endloop
endfacet
facet normal 1.66707833145865e-017 6.05219954154555e-018 1.0
outer loop
vertex 358.275889700954 72.279186151124 2.99999999999991
vertex 358.275889700954 63.7939047768853 2.99999999999991
vertex 359.229401436542 71.036545464005 2.99999999999991
endloop
endfacet
facet normal 1.66707833145865e-017 6.05219954154555e-018 1.0
outer loop
vertex 359.229401436542 71.036545464005 2.99999999999991
vertex 358.275889700954 63.7939047768853 2.99999999999991
vertex 359.229401436541 65.0365454640047 2.99999999999991
endloop
endfacet
facet normal 1.66707833145865e-017 6.05219954154555e-018 1.0
outer loop
vertex 359.229401436542 71.036545464005 2.99999999999991
vertex 359.229401436541 65.0365454640047 2.99999999999991
vertex 359.828803971569 66.4836311933898 2.99999999999991
endloop
endfacet
facet normal 1.66707833145865e-017 6.05219954154555e-018 1.0
outer loop
vertex 359.229401436542 71.036545464005 2.99999999999991
vertex 359.828803971569 66.4836311933898 2.99999999999991
vertex 359.82880397157 69.5894597346198 2.99999999999991
endloop
endfacet
facet normal 1.66707833145865e-017 6.05219954154555e-018 1.0
outer loop
vertex 359.82880397157 69.5894597346198 2.99999999999991
vertex 359.828803971569 66.4836311933898 2.99999999999991
vertex 360.033249013835 68.036545464005 2.99999999999991
endloop
endfacet
facet normal 1.66707833145865e-017 6.05219954154555e-018 1.0
outer loop
vertex 352.48033474322 73.8321004217386 2.99999999999991
vertex 353.067323187546 68.2953645091073 2.99999999999991
vertex 354.033249013835 74.0365454640049 2.99999999999991
endloop
endfacet
facet normal 1.66707833145865e-017 6.05219954154555e-018 1.0
outer loop
vertex 353.067323187546 68.2953645091073 2.99999999999991
vertex 352.48033474322 73.8321004217386 2.99999999999991
vertex 353.033249013835 68.0365454640044 2.99999999999991
endloop
endfacet
facet normal 1.66707833145865e-017 6.05219954154555e-018 1.0
outer loop
vertex 353.033249013835 68.0365454640044 2.99999999999991
vertex 352.48033474322 73.8321004217386 2.99999999999991
vertex 352.79834969485 33.0365454640048 2.99999999999991
endloop
endfacet
facet normal 1.66707833145865e-017 6.05219954154555e-018 1.0
outer loop
vertex 353.033249013835 68.0365454640044 2.99999999999991
vertex 352.79834969485 33.0365454640048 2.99999999999991
vertex 352.840427868761 33.3561609265422 2.99999999999991
endloop
endfacet
facet normal 1.66707833145865e-017 6.05219954154555e-018 1.0
outer loop
vertex 353.033249013835 68.0365454640044 2.99999999999991
vertex 352.840427868761 33.3561609265422 2.99999999999991
vertex 352.963794832478 33.6539951234973 2.99999999999991
endloop
endfacet
facet normal 1.66707833145865e-017 6.05219954154555e-018 1.0
outer loop
vertex 354.033249013835 74.0365454640049 2.99999999999991
vertex 353.067323187546 68.2953645091073 2.99999999999991
vertex 353.167223610051 68.5365454640046 2.99999999999991
endloop
endfacet
facet normal 1.66707833145865e-017 6.05219954154555e-018 1.0
outer loop
vertex 354.033249013835 74.0365454640049 2.99999999999991
vertex 353.167223610051 68.5365454640046 2.99999999999991
vertex 353.326142232648 68.7436522451914 2.99999999999991
endloop
endfacet
facet normal 1.66707833145865e-017 6.05219954154555e-018 1.0
outer loop
vertex 354.033249013835 74.0365454640049 2.99999999999991
vertex 353.326142232648 68.7436522451914 2.99999999999991
vertex 353.533249013835 68.9025708677891 2.99999999999991
endloop
endfacet
facet normal 1.66707833145865e-017 6.05219954154555e-018 1.0
outer loop
vertex 354.033249013835 74.0365454640049 2.99999999999991
vertex 353.533249013835 68.9025708677891 2.99999999999991
vertex 353.774429968732 69.0024712902939 2.99999999999991
endloop
endfacet
facet normal 1.66707833145865e-017 6.05219954154555e-018 1.0
outer loop
vertex 354.033249013835 74.0365454640049 2.99999999999991
vertex 353.774429968732 69.0024712902939 2.99999999999991
vertex 354.033249013835 69.0365454640045 2.99999999999991
endloop
endfacet
facet normal 1.66707833145865e-017 6.05219954154555e-018 1.0
outer loop
vertex 354.033249013835 74.0365454640049 2.99999999999991
vertex 354.033249013835 69.0365454640045 2.99999999999991
vertex 354.292068058937 69.0024712902939 2.99999999999991
endloop
endfacet
facet normal 1.66707833145865e-017 6.05219954154555e-018 1.0
outer loop
vertex 354.033249013835 74.0365454640049 2.99999999999991
vertex 354.292068058937 69.0024712902939 2.99999999999991
vertex 355.58616328445 73.8321004217391 2.99999999999991
endloop
endfacet
facet normal 1.66707833145865e-017 6.05219954154555e-018 1.0
outer loop
vertex 355.58616328445 73.8321004217391 2.99999999999991
vertex 354.292068058937 69.0024712902939 2.99999999999991
vertex 354.533249013836 68.9025708677889 2.99999999999991
endloop
endfacet
facet normal 1.66707833145865e-017 6.05219954154555e-018 1.0
outer loop
vertex 355.58616328445 73.8321004217391 2.99999999999991
vertex 354.533249013836 68.9025708677889 2.99999999999991
vertex 354.740355795022 68.7436522451913 2.99999999999991
endloop
endfacet
facet normal 1.66707833145865e-017 6.05219954154555e-018 1.0
outer loop
vertex 355.58616328445 73.8321004217391 2.99999999999991
vertex 354.740355795022 68.7436522451913 2.99999999999991
vertex 354.89927441762 68.5365454640047 2.99999999999991
endloop
endfacet
facet normal 1.66707833145865e-017 6.05219954154555e-018 1.0
outer loop
vertex 355.58616328445 73.8321004217391 2.99999999999991
vertex 354.89927441762 68.5365454640047 2.99999999999991
vertex 354.999174840124 68.2953645091072 2.99999999999991
endloop
endfacet
facet normal 1.66707833145865e-017 6.05219954154555e-018 1.0
outer loop
vertex 355.58616328445 73.8321004217391 2.99999999999991
vertex 354.999174840124 68.2953645091072 2.99999999999991
vertex 355.033249013835 68.0365454640047 2.99999999999991
endloop
endfacet
facet normal 1.66707833145865e-017 6.05219954154555e-018 1.0
outer loop
vertex 355.58616328445 73.8321004217391 2.99999999999991
vertex 355.033249013835 68.0365454640047 2.99999999999991
vertex 355.102703195192 33.6539951234971 2.99999999999991
endloop
endfacet
facet normal 1.66707833145865e-017 6.05219954154555e-018 1.0
outer loop
vertex 355.58616328445 73.8321004217391 2.99999999999991
vertex 355.102703195192 33.6539951234971 2.99999999999991
vertex 355.226070158909 33.3561609265419 2.99999999999991
endloop
endfacet
facet normal 1.66707833145865e-017 6.05219954154555e-018 1.0
outer loop
vertex 355.58616328445 73.8321004217391 2.99999999999991
vertex 355.226070158909 33.3561609265419 2.99999999999991
vertex 355.26814833282 33.036545464005 2.99999999999991
endloop
endfacet
facet normal 1.66707833145865e-017 6.05219954154555e-018 1.0
outer loop
vertex 348.237694056101 31.4836311933898 2.99999999999991
vertex 348.237694056101 34.5894597346202 2.99999999999991
vertex 348.033249013835 33.0365454640049 2.99999999999991
endloop
endfacet
facet normal 1.66707833145865e-017 6.05219954154555e-018 1.0
outer loop
vertex 348.237694056101 34.5894597346202 2.99999999999991
vertex 348.237694056101 31.4836311933898 2.99999999999991
vertex 348.837096591129 30.0365454640049 2.99999999999991
endloop
endfacet
facet normal 1.66707833145865e-017 6.05219954154555e-018 1.0
outer loop
vertex 348.237694056101 34.5894597346202 2.99999999999991
vertex 348.837096591129 30.0365454640049 2.99999999999991
vertex 348.837096591128 36.0365454640051 2.99999999999991
endloop
endfacet
facet normal 1.66707833145865e-017 6.05219954154555e-018 1.0
outer loop
vertex 348.837096591128 36.0365454640051 2.99999999999991
vertex 348.837096591129 30.0365454640049 2.99999999999991
vertex 349.790608326716 37.2791861511239 2.99999999999991
endloop
endfacet
facet normal 1.66707833145865e-017 6.05219954154555e-018 1.0
outer loop
vertex 349.790608326716 37.2791861511239 2.99999999999991
vertex 348.837096591129 30.0365454640049 2.99999999999991
vertex 349.790608326716 28.7939047768855 2.99999999999991
endloop
endfacet
facet normal 1.66707833145865e-017 6.05219954154555e-018 1.0
outer loop
vertex 349.790608326716 37.2791861511239 2.99999999999991
vertex 349.790608326716 28.7939047768855 2.99999999999991
vertex 351.033249013835 27.8403930412983 2.99999999999991
endloop
endfacet
facet normal 0.866025403784552 -0.499999999999804 -1.14112220806479e-017
outer loop
vertex 359.229401436541 65.0365454640047 -8.97972958409887e-014
vertex 358.275889700954 63.7939047768853 2.99999999999991
vertex 358.275889700954 63.7939047768853 -8.98001933518788e-014
endloop
endfacet
facet normal 0.793353340291423 -0.608761429008476 -9.541475986346e-018
outer loop
vertex 358.275889700954 63.7939047768853 2.99999999999991
vertex 359.229401436541 65.0365454640047 -8.97972958409887e-014
vertex 359.229401436541 65.0365454640047 2.99999999999991
endloop
endfacet
facet normal 0.965925826289081 -0.258819045102474 -1.45363156419157e-017
outer loop
vertex 359.828803971569 66.4836311933898 -8.97917087065321e-014
vertex 359.229401436541 65.0365454640047 2.99999999999991
vertex 359.229401436541 65.0365454640047 -8.97972958409887e-014
endloop
endfacet
facet normal 0.866025403784552 -0.499999999999804 -1.14112220806479e-017
outer loop
vertex 359.229401436541 65.0365454640047 2.99999999999991
vertex 359.828803971569 66.4836311933898 -8.97917087065321e-014
vertex 359.828803971569 66.4836311933898 2.99999999999991
endloop
endfacet
facet normal 1.0 -1.86750130083069e-013 -1.66707833145854e-017
outer loop
vertex 360.033249013835 68.036545464005 -8.80213336508965e-014
vertex 359.828803971569 66.4836311933898 2.99999999999991
vertex 359.828803971569 66.4836311933898 -8.97917087065321e-014
endloop
endfacet
facet normal 0.965925826289081 -0.258819045102474 -1.45363156419157e-017
outer loop
vertex 359.828803971569 66.4836311933898 2.99999999999991
vertex 360.033249013835 68.036545464005 -8.80213336508965e-014
vertex 360.033249013835 68.036545464005 2.99999999999991
endloop
endfacet
facet normal 0.965925826289105 0.258819045102386 -1.76691646541405e-017
outer loop
vertex 359.82880397157 69.5894597346198 -8.97741459284862e-014
vertex 360.033249013835 68.036545464005 2.99999999999991
vertex 360.033249013835 68.036545464005 -8.80213336508965e-014
endloop
endfacet
facet normal 1.0 -1.86759041192965e-013 -1.66707833145854e-017
outer loop
vertex 360.033249013835 68.036545464005 2.99999999999991
vertex 359.82880397157 69.5894597346198 -8.97741459284862e-014
vertex 359.82880397157 69.5894597346198 2.99999999999991
endloop
endfacet
facet normal 0.866025403784403 0.500000000000061 -1.74634216221902e-017
outer loop
vertex 359.229401436542 71.036545464005 -9.11733504004708e-014
vertex 359.82880397157 69.5894597346198 2.99999999999991
vertex 359.82880397157 69.5894597346198 -8.97741459284862e-014
endloop
endfacet
facet normal 0.965925826289105 0.258819045102385 -1.76691646541405e-017
outer loop
vertex 359.82880397157 69.5894597346198 2.99999999999991
vertex 359.229401436542 71.036545464005 -9.11733504004708e-014
vertex 359.229401436542 71.036545464005 2.99999999999991
endloop
endfacet
facet normal 0.707106781186523 0.707106781186572 -1.60675752663564e-017
outer loop
vertex 358.275889700954 72.279186151124 -8.97522109499353e-014
vertex 359.229401436542 71.036545464005 2.99999999999991
vertex 359.229401436542 71.036545464005 -9.11733504004708e-014
endloop
endfacet
facet normal 0.866025403784403 0.500000000000061 -1.74634216221902e-017
outer loop
vertex 359.229401436542 71.036545464005 2.99999999999991
vertex 358.275889700954 72.279186151124 -8.97522109499353e-014
vertex 358.275889700954 72.279186151124 2.99999999999991
endloop
endfacet
facet normal 0.499999999999975 0.866025403784453 -1.35767502090439e-017
outer loop
vertex 357.033249013835 73.2326978867113 2.99999999999991
vertex 358.275889700954 72.279186151124 -8.97522109499353e-014
vertex 357.033249013835 73.2326978867113 -9.00939333882448e-014
endloop
endfacet
facet normal 0.707106781186523 0.707106781186572 -1.60675752663564e-017
outer loop
vertex 358.275889700954 72.279186151124 -8.97522109499353e-014
vertex 357.033249013835 73.2326978867113 2.99999999999991
vertex 358.275889700954 72.279186151124 2.99999999999991
endloop
endfacet
facet normal 0.258819045102537 0.965925826289064 -1.01606920616263e-017
outer loop
vertex 355.58616328445 73.8321004217391 -8.97317812306682e-014
vertex 357.033249013835 73.2326978867113 2.99999999999991
vertex 357.033249013835 73.2326978867113 -9.00939333882448e-014
endloop
endfacet
facet normal 0.499999999999975 0.866025403784453 -1.35767502090439e-017
outer loop
vertex 357.033249013835 73.2326978867113 2.99999999999991
vertex 355.58616328445 73.8321004217391 -8.97317812306682e-014
vertex 355.58616328445 73.8321004217391 2.99999999999991
endloop
endfacet
facet normal -1.86304574588297e-013 1.0 -6.05219954154244e-018
outer loop
vertex 354.033249013835 74.0365454640049 -8.9723899972269e-014
vertex 355.58616328445 73.8321004217391 2.99999999999991
vertex 355.58616328445 73.8321004217391 -8.97317812306682e-014
endloop
endfacet
facet normal 0.258819045102537 0.965925826289064 -1.01606920616263e-017
outer loop
vertex 355.58616328445 73.8321004217391 2.99999999999991
vertex 354.033249013835 74.0365454640049 -8.9723899972269e-014
vertex 354.033249013835 74.0365454640049 2.99999999999991
endloop
endfacet
facet normal -0.258819045102584 0.965925826289051 -1.53125962444024e-018
outer loop
vertex 352.48033474322 73.8321004217386 -8.68983644149162e-014
vertex 354.033249013835 74.0365454640049 2.99999999999991
vertex 354.033249013835 74.0365454640049 -8.9723899972269e-014
endloop
endfacet
facet normal -1.86456063456523e-013 1.0 -6.05219954154244e-018
outer loop
vertex 354.033249013835 74.0365454640049 2.99999999999991
vertex 352.48033474322 73.8321004217386 -8.68983644149162e-014
vertex 352.48033474322 73.8321004217386 2.99999999999991
endloop
endfacet
facet normal -0.499999999999926 0.866025403784481 3.09403310554078e-018
outer loop
vertex 351.033249013835 73.2326978867113 2.99999999999991
vertex 352.48033474322 73.8321004217386 -8.68983644149162e-014
vertex 351.033249013835 73.2326978867113 -9.07729409604536e-014
endloop
endfacet
facet normal -0.258819045102584 0.965925826289051 -1.53125962444024e-018
outer loop
vertex 352.48033474322 73.8321004217386 -8.68983644149162e-014
vertex 351.033249013835 73.2326978867113 2.99999999999991
vertex 352.48033474322 73.8321004217386 2.99999999999991
endloop
endfacet
facet normal -0.70710678118654 0.707106781186555 7.50847259251451e-018
outer loop
vertex 349.790608326716 72.2791861511238 -8.97154639562429e-014
vertex 351.033249013835 73.2326978867113 2.99999999999991
vertex 351.033249013835 73.2326978867113 -9.07729409604536e-014
endloop
endfacet
facet normal -0.499999999999926 0.866025403784481 3.09403310554078e-018
outer loop
vertex 351.033249013835 73.2326978867113 2.99999999999991
vertex 349.790608326716 72.2791861511238 -8.97154639562429e-014
vertex 349.790608326716 72.2791861511238 2.99999999999991
endloop
endfacet
facet normal -0.70710678118654 0.707106781186555 7.50847259251451e-018
outer loop
vertex 349.790608326716 72.2791861511238 2.99999999999991
vertex 348.837096591128 71.0365454640046 -9.07758488980885e-014
vertex 348.837096591128 71.0365454640046 2.99999999999991
endloop
endfacet
facet normal -0.866025403784465 0.499999999999954 1.14112220806456e-017
outer loop
vertex 348.837096591128 71.0365454640046 -9.07758488980885e-014
vertex 349.790608326716 72.2791861511238 2.99999999999991
vertex 349.790608326716 72.2791861511238 -8.97154639562429e-014
endloop
endfacet
facet normal -0.866025403784465 0.499999999999954 1.14112220806456e-017
outer loop
vertex 348.837096591128 71.0365454640046 2.99999999999991
vertex 348.237694056101 69.5894597346197 -8.69039821190417e-014
vertex 348.237694056101 69.5894597346197 2.99999999999991
endloop
endfacet
facet normal -0.965925826289082 0.25881904510247 1.45363156419158e-017
outer loop
vertex 348.237694056101 69.5894597346197 -8.69039821190417e-014
vertex 348.837096591128 71.0365454640046 2.99999999999991
vertex 348.837096591128 71.0365454640046 -9.07758488980885e-014
endloop
endfacet
facet normal -0.965925826289082 0.258819045102469 1.45363156419158e-017
outer loop
vertex 348.237694056101 69.5894597346197 2.99999999999991
vertex 348.033249013835 68.0365454640044 -8.97318446056327e-014
vertex 348.033249013835 68.0365454640044 2.99999999999991
endloop
endfacet
facet normal -1.0 1.25780316177057e-013 1.66707833145857e-017
outer loop
vertex 348.033249013835 68.0365454640044 -8.97318446056327e-014
vertex 348.237694056101 69.5894597346197 2.99999999999991
vertex 348.237694056101 69.5894597346197 -8.69039821190417e-014
endloop
endfacet
facet normal -1.0 1.25985271704657e-013 1.66707833145857e-017
outer loop
vertex 348.033249013835 68.0365454640044 2.99999999999991
vertex 348.237694056101 66.4836311933895 -9.0798998810591e-014
vertex 348.237694056101 66.4836311933895 2.99999999999991
endloop
endfacet
facet normal -0.965925826289112 -0.258819045102358 1.76691646541404e-017
outer loop
vertex 348.237694056101 66.4836311933895 -9.0798998810591e-014
vertex 348.033249013835 68.0365454640044 2.99999999999991
vertex 348.033249013835 68.0365454640044 -8.97318446056327e-014
endloop
endfacet
facet normal -0.965925826289112 -0.258819045102359 1.76691646541404e-017
outer loop
vertex 348.237694056101 66.4836311933895 2.99999999999991
vertex 348.837096591128 65.0365454640047 -8.72848194766955e-014
vertex 348.837096591128 65.0365454640047 2.99999999999991
endloop
endfacet
facet normal -0.866025403784503 -0.499999999999888 1.74634216221908e-017
outer loop
vertex 348.837096591128 65.0365454640047 -8.72848194766955e-014
vertex 348.237694056101 66.4836311933895 2.99999999999991
vertex 348.237694056101 66.4836311933895 -9.0798998810591e-014
endloop
endfacet
facet normal -0.866025403784503 -0.499999999999888 1.74634216221908e-017
outer loop
vertex 348.837096591128 65.0365454640047 2.99999999999991
vertex 349.790608326716 63.7939047768851 -9.08209337891419e-014
vertex 349.790608326716 63.7939047768851 2.99999999999991
endloop
endfacet
facet normal -0.793353340291215 -0.608761429008747 1.69101672694556e-017
outer loop
vertex 349.790608326716 63.7939047768851 -9.08209337891419e-014
vertex 348.837096591128 65.0365454640047 2.99999999999991
vertex 348.837096591128 65.0365454640047 -8.72848194766955e-014
endloop
endfacet
facet normal -1.0 -2.04201135335885e-014 1.66707833145866e-017
outer loop
vertex 349.790608326716 63.7939047768851 2.99999999999991
vertex 349.790608326716 37.2791861511239 -9.0970868697651e-014
vertex 349.790608326716 37.2791861511239 2.99999999999991
endloop
endfacet
facet normal -1.0 -2.04201135335885e-014 1.66707833145866e-017
outer loop
vertex 349.790608326716 37.2791861511239 -9.0970868697651e-014
vertex 349.790608326716 63.7939047768851 2.99999999999991
vertex 349.790608326716 63.7939047768851 -9.08209337891419e-014
endloop
endfacet
facet normal -0.793353340290995 0.608761429009033 9.54147598633549e-018
outer loop
vertex 349.790608326716 37.2791861511239 2.99999999999991
vertex 348.837096591128 36.0365454640051 -8.99162787775856e-014
vertex 348.837096591128 36.0365454640051 2.99999999999991
endloop
endfacet
facet normal -0.866025403784352 0.50000000000015 1.14112220806425e-017
outer loop
vertex 348.837096591128 36.0365454640051 -8.99162787775856e-014
vertex 349.790608326716 37.2791861511239 2.99999999999991
vertex 349.790608326716 37.2791861511239 -9.0970868697651e-014
endloop
endfacet
facet normal -0.866025403784352 0.50000000000015 1.14112220806425e-017
outer loop
vertex 348.837096591128 36.0365454640051 2.99999999999991
vertex 348.237694056101 34.5894597346202 -9.09793533429977e-014
vertex 348.237694056101 34.5894597346202 2.99999999999991
endloop
endfacet
facet normal -0.96592582628907 0.258819045102515 1.45363156419153e-017
outer loop
vertex 348.237694056101 34.5894597346202 -9.09793533429977e-014
vertex 348.837096591128 36.0365454640051 2.99999999999991
vertex 348.837096591128 36.0365454640051 -8.99162787775856e-014
endloop
endfacet
facet normal -0.96592582628907 0.258819045102515 1.45363156419153e-017
outer loop
vertex 348.237694056101 34.5894597346202 2.99999999999991
vertex 348.033249013835 33.0365454640049 -9.06347535367223e-014
vertex 348.033249013835 33.0365454640049 2.99999999999991
endloop
endfacet
facet normal -1.0 -9.30319873105543e-015 1.66707833145865e-017
outer loop
vertex 348.033249013835 33.0365454640049 -9.06347535367223e-014
vertex 348.237694056101 34.5894597346202 2.99999999999991
vertex 348.237694056101 34.5894597346202 -9.09793533429977e-014
endloop
endfacet
facet normal -1.0 -9.5081542586553e-015 1.66707833145865e-017
outer loop
vertex 348.033249013835 33.0365454640049 2.99999999999991
vertex 348.237694056101 31.4836311933898 -8.71194622075403e-014
vertex 348.237694056101 31.4836311933898 2.99999999999991
endloop
endfacet
facet normal -0.965925826289038 -0.258819045102632 1.76691646541409e-017
outer loop
vertex 348.237694056101 31.4836311933898 -8.71194622075403e-014
vertex 348.033249013835 33.0365454640049 2.99999999999991
vertex 348.033249013835 33.0365454640049 -9.06347535367223e-014
endloop
endfacet
facet normal -0.965925826289038 -0.258819045102632 1.76691646541409e-017
outer loop
vertex 348.237694056101 31.4836311933898 2.99999999999991
vertex 348.837096591129 30.0365454640049 -9.0302703269696e-014
vertex 348.837096591129 30.0365454640049 2.99999999999991
endloop
endfacet
facet normal -0.866025403784415 -0.500000000000042 1.74634216221903e-017
outer loop
vertex 348.837096591129 30.0365454640049 -9.0302703269696e-014
vertex 348.237694056101 31.4836311933898 2.99999999999991
vertex 348.237694056101 31.4836311933898 -8.71194622075403e-014
endloop
endfacet
facet normal -0.866025403784415 -0.500000000000042 1.74634216221903e-017
outer loop
vertex 348.837096591129 30.0365454640049 2.99999999999991
vertex 349.790608326716 28.7939047768855 -8.71413971860912e-014
vertex 349.790608326716 28.7939047768855 2.99999999999991
endloop
endfacet
facet normal -0.707106781186639 -0.707106781186456 1.60675752663576e-017
outer loop
vertex 349.790608326716 28.7939047768855 -8.71413971860912e-014
vertex 348.837096591129 30.0365454640049 2.99999999999991
vertex 348.837096591129 30.0365454640049 -9.0302703269696e-014
endloop
endfacet
facet normal -0.500000000000139 -0.866025403784358 1.35767502090461e-017
outer loop
vertex 351.033249013835 27.8403930412983 2.99999999999991
vertex 349.790608326716 28.7939047768855 -8.71413971860912e-014
vertex 351.033249013835 27.8403930412983 -9.03246328509666e-014
endloop
endfacet
facet normal -0.707106781186639 -0.707106781186456 1.60675752663576e-017
outer loop
vertex 349.790608326716 28.7939047768855 -8.71413971860912e-014
vertex 351.033249013835 27.8403930412983 2.99999999999991
vertex 349.790608326716 28.7939047768855 2.99999999999991
endloop
endfacet
facet normal -0.258819045102487 -0.965925826289077 1.01606920616255e-017
outer loop
vertex 352.48033474322 27.2409905062702 -8.71618269053583e-014
vertex 351.033249013835 27.8403930412983 2.99999999999991
vertex 351.033249013835 27.8403930412983 -9.03246328509666e-014
endloop
endfacet
facet normal -0.500000000000139 -0.866025403784358 1.35767502090461e-017
outer loop
vertex 351.033249013835 27.8403930412983 2.99999999999991
vertex 352.48033474322 27.2409905062702 -8.71618269053583e-014
vertex 352.48033474322 27.2409905062702 2.99999999999991
endloop
endfacet
facet normal 6.75640352287935e-014 -1.0 6.05219954154442e-018
outer loop
vertex 354.033249013835 27.0365454640049 2.99999999999991
vertex 352.48033474322 27.2409905062702 -8.71618269053583e-014
vertex 354.033249013835 27.0365454640049 -8.99896746463054e-014
endloop
endfacet
facet normal -0.258819045102487 -0.965925826289077 1.01606920616255e-017
outer loop
vertex 352.48033474322 27.2409905062702 -8.71618269053583e-014
vertex 354.033249013835 27.0365454640049 2.99999999999991
vertex 352.48033474322 27.2409905062702 2.99999999999991
endloop
endfacet
facet normal 0.258819045102469 -0.965925826289082 1.53125962444235e-018
outer loop
vertex 355.58616328445 27.2409905062704 2.99999999999991
vertex 354.033249013835 27.0365454640049 -8.99896746463054e-014
vertex 355.58616328445 27.2409905062704 -8.99952437211103e-014
endloop
endfacet
facet normal 6.77155240970196e-014 -1.0 6.05219954154442e-018
outer loop
vertex 354.033249013835 27.0365454640049 -8.99896746463054e-014
vertex 355.58616328445 27.2409905062704 2.99999999999991
vertex 354.033249013835 27.0365454640049 2.99999999999991
endloop
endfacet
facet normal 0.500000000000067 -0.8660254037844 -3.09403310554362e-018
outer loop
vertex 357.033249013835 27.8403930412981 -8.71781546065284e-014
vertex 355.58616328445 27.2409905062704 2.99999999999991
vertex 355.58616328445 27.2409905062704 -8.99952437211103e-014
endloop
endfacet
facet normal 0.258819045102469 -0.965925826289082 1.53125962444235e-018
outer loop
vertex 355.58616328445 27.2409905062704 2.99999999999991
vertex 357.033249013835 27.8403930412981 -8.71781546065284e-014
vertex 357.033249013835 27.8403930412981 2.99999999999991
endloop
endfacet
facet normal 0.70710678118657 -0.707106781186525 -7.5084725925152e-018
outer loop
vertex 358.275889700954 28.7939047768857 2.99999999999991
vertex 357.033249013835 27.8403930412981 -8.71781546065284e-014
vertex 358.275889700954 28.7939047768857 -8.82356316107391e-014
endloop
endfacet
facet normal 0.500000000000067 -0.8660254037844 -3.09403310554362e-018
outer loop
vertex 357.033249013835 27.8403930412981 -8.71781546065284e-014
vertex 358.275889700954 28.7939047768857 2.99999999999991
vertex 357.033249013835 27.8403930412981 2.99999999999991
endloop
endfacet
facet normal 0.866025403784361 -0.500000000000135 -1.14112220806428e-017
outer loop
vertex 359.229401436542 30.0365454640051 -8.78802382895305e-014
vertex 358.275889700954 28.7939047768857 2.99999999999991
vertex 358.275889700954 28.7939047768857 -8.82356316107391e-014
endloop
endfacet
facet normal 0.70710678118657 -0.707106781186525 -7.5084725925152e-018
outer loop
vertex 358.275889700954 28.7939047768857 2.99999999999991
vertex 359.229401436542 30.0365454640051 -8.78802382895305e-014
vertex 359.229401436542 30.0365454640051 2.99999999999991
endloop
endfacet
facet normal 0.965925826289021 -0.258819045102697 -1.45363156419134e-017
outer loop
vertex 359.82880397157 31.4836311933895 -9.06946176376217e-014
vertex 359.229401436542 30.0365454640051 2.99999999999991
vertex 359.229401436542 30.0365454640051 -8.78802382895305e-014
endloop
endfacet
facet normal 0.866025403784361 -0.500000000000135 -1.14112220806428e-017
outer loop
vertex 359.229401436542 30.0365454640051 2.99999999999991
vertex 359.82880397157 31.4836311933895 -9.06946176376217e-014
vertex 359.82880397157 31.4836311933895 2.99999999999991
endloop
endfacet
facet normal 1.0 1.25156538484366e-013 -1.66707833145872e-017
outer loop
vertex 360.033249013836 33.0365454640052 -8.99817300129416e-014
vertex 359.82880397157 31.4836311933895 2.99999999999991
vertex 359.82880397157 31.4836311933895 -9.06946176376217e-014
endloop
endfacet
facet normal 0.965925826289021 -0.258819045102697 -1.45363156419134e-017
outer loop
vertex 359.82880397157 31.4836311933895 2.99999999999991
vertex 360.033249013836 33.0365454640052 -8.99817300129416e-014
vertex 360.033249013836 33.0365454640052 2.99999999999991
endloop
endfacet
facet normal 0.965925826289005 0.258819045102758 -1.76691646541411e-017
outer loop
vertex 359.828803971569 34.5894597346199 -9.06770548595758e-014
vertex 360.033249013836 33.0365454640052 2.99999999999991
vertex 360.033249013836 33.0365454640052 -8.99817300129416e-014
endloop
endfacet
facet normal 1.0 1.25156538484366e-013 -1.66707833145872e-017
outer loop
vertex 360.033249013836 33.0365454640052 2.99999999999991
vertex 359.828803971569 34.5894597346199 -9.06770548595758e-014
vertex 359.828803971569 34.5894597346199 2.99999999999991
endloop
endfacet
facet normal 0.8660254037844 0.500000000000066 -1.74634216221902e-017
outer loop
vertex 359.229401436541 36.036545464005 -9.03137802799679e-014
vertex 359.828803971569 34.5894597346199 2.99999999999991
vertex 359.828803971569 34.5894597346199 -9.06770548595758e-014
endloop
endfacet
facet normal 0.965925826289005 0.258819045102758 -1.76691646541411e-017
outer loop
vertex 359.828803971569 34.5894597346199 2.99999999999991
vertex 359.229401436541 36.036545464005 -9.03137802799679e-014
vertex 359.229401436541 36.036545464005 2.99999999999991
endloop
endfacet
facet normal 0.793353340291183 0.608761429008788 -1.69101672694553e-017
outer loop
vertex 358.275889700954 37.2791861511239 -8.99501282603879e-014
vertex 359.229401436541 36.036545464005 2.99999999999991
vertex 359.229401436541 36.036545464005 -9.03137802799679e-014
endloop
endfacet
facet normal 0.8660254037844 0.500000000000066 -1.74634216221902e-017
outer loop
vertex 359.229401436541 36.036545464005 2.99999999999991
vertex 358.275889700954 37.2791861511239 -8.99501282603879e-014
vertex 358.275889700954 37.2791861511239 2.99999999999991
endloop
endfacet
facet normal 1.0 -6.80670451119612e-015 -1.66707833145864e-017
outer loop
vertex 358.275889700954 63.7939047768853 -8.98001933518788e-014
vertex 358.275889700954 37.2791861511239 2.99999999999991
vertex 358.275889700954 37.2791861511239 -8.99501282603879e-014
endloop
endfacet
facet normal 1.0 -6.80670451119612e-015 -1.66707833145864e-017
outer loop
vertex 358.275889700954 37.2791861511239 2.99999999999991
vertex 358.275889700954 63.7939047768853 -8.98001933518788e-014
vertex 358.275889700954 63.7939047768853 2.99999999999991
endloop
endfacet
facet normal 0.707106781186729 0.707106781186366 -1.60675752663586e-017
outer loop
vertex 353.160043331298 32.1633397814682 -8.78419273191024e-014
vertex 353.415799354343 31.967091282648 2.99999999999991
vertex 353.415799354343 31.967091282648 -9.03116153296247e-014
endloop
endfacet
facet normal 0.499999999999531 0.866025403784709 -1.3576750209038e-017
outer loop
vertex 353.415799354343 31.967091282648 2.99999999999991
vertex 353.160043331298 32.1633397814682 -8.78419273191024e-014
vertex 353.160043331298 32.1633397814682 2.99999999999991
endloop
endfacet
facet normal 0.866025403784434 0.500000000000009 -1.74634216221904e-017
outer loop
vertex 352.963794832479 32.4190958045126 -8.88971186175213e-014
vertex 353.160043331298 32.1633397814682 2.99999999999991
vertex 353.160043331298 32.1633397814682 -8.78419273191024e-014
endloop
endfacet
facet normal 0.707106781186729 0.707106781186366 -1.60675752663586e-017
outer loop
vertex 353.160043331298 32.1633397814682 2.99999999999991
vertex 352.963794832479 32.4190958045126 -8.88971186175213e-014
vertex 352.963794832479 32.4190958045126 2.99999999999991
endloop
endfacet
facet normal 0.965925826288774 0.258819045103618 -1.76691646541424e-017
outer loop
vertex 352.840427868761 32.7169300014673 -9.06573792199712e-014
vertex 352.963794832479 32.4190958045126 2.99999999999991
vertex 352.963794832479 32.4190958045126 -8.88971186175213e-014
endloop
endfacet
facet normal 0.866025403784433 0.500000000000009 -1.74634216221904e-017
outer loop
vertex 352.963794832479 32.4190958045126 2.99999999999991
vertex 352.840427868761 32.7169300014673 -9.06573792199712e-014
vertex 352.840427868761 32.7169300014673 2.99999999999991
endloop
endfacet
facet normal 1.0 -1.82588641761833e-014 -1.66707833145864e-017
outer loop
vertex 352.79834969485 33.0365454640048 -9.06553896378657e-014
vertex 352.840427868761 32.7169300014673 2.99999999999991
vertex 352.840427868761 32.7169300014673 -9.06573792199712e-014
endloop
endfacet
facet normal 0.965925826288774 0.258819045103618 -1.76691646541424e-017
outer loop
vertex 352.840427868761 32.7169300014673 2.99999999999991
vertex 352.79834969485 33.0365454640048 -9.06553896378657e-014
vertex 352.79834969485 33.0365454640048 2.99999999999991
endloop
endfacet
facet normal 0.965925826289059 -0.258819045102555 -1.45363156419149e-017
outer loop
vertex 352.840427868761 33.3561609265422 -9.06537645095298e-014
vertex 352.79834969485 33.0365454640048 2.99999999999991
vertex 352.79834969485 33.0365454640048 -9.06553896378657e-014
endloop
endfacet
facet normal 1.0 -1.82588641761833e-014 -1.66707833145864e-017
outer loop
vertex 352.79834969485 33.0365454640048 2.99999999999991
vertex 352.840427868761 33.3561609265422 -9.06537645095298e-014
vertex 352.840427868761 33.3561609265422 2.99999999999991
endloop
endfacet
facet normal 0.86602540378472 -0.499999999999512 -1.14112220806525e-017
outer loop
vertex 352.963794832478 33.6539951234973 -8.99476229641369e-014
vertex 352.840427868761 33.3561609265422 2.99999999999991
vertex 352.840427868761 33.3561609265422 -9.06537645095298e-014
endloop
endfacet
facet normal 0.965925826289059 -0.258819045102555 -1.45363156419149e-017
outer loop
vertex 352.840427868761 33.3561609265422 2.99999999999991
vertex 352.963794832478 33.6539951234973 -8.99476229641369e-014
vertex 352.963794832478 33.6539951234973 2.99999999999991
endloop
endfacet
facet normal 0.70710678118606 -0.707106781187035 -7.50847259250361e-018
outer loop
vertex 353.160043331298 33.9097511465415 -8.88895391774773e-014
vertex 352.963794832478 33.6539951234973 2.99999999999991
vertex 352.963794832478 33.6539951234973 -8.99476229641369e-014
endloop
endfacet
facet normal 0.86602540378472 -0.499999999999513 -1.14112220806525e-017
outer loop
vertex 352.963794832478 33.6539951234973 2.99999999999991
vertex 353.160043331298 33.9097511465415 -8.88895391774773e-014
vertex 353.160043331298 33.9097511465415 2.99999999999991
endloop
endfacet
facet normal 0.499999999999689 -0.866025403784619 -3.09403310553598e-018
outer loop
vertex 353.415799354343 34.1059996453617 2.99999999999991
vertex 353.160043331298 33.9097511465415 -8.88895391774773e-014
vertex 353.415799354343 34.1059996453617 -8.95945286521176e-014
endloop
endfacet
facet normal 0.70710678118606 -0.707106781187035 -7.50847259250361e-018
outer loop
vertex 353.160043331298 33.9097511465415 -8.88895391774773e-014
vertex 353.415799354343 34.1059996453617 2.99999999999991
vertex 353.160043331298 33.9097511465415 2.99999999999991
endloop
endfacet
facet normal 0.25881904510288 -0.965925826288972 1.53125962443482e-018
outer loop
vertex 353.713633551298 34.229366609079 2.99999999999991
vertex 353.415799354343 34.1059996453617 -8.95945286521176e-014
vertex 353.713633551298 34.229366609079 -9.03001124827115e-014
endloop
endfacet
facet normal 0.499999999999688 -0.866025403784619 -3.09403310553598e-018
outer loop
vertex 353.415799354343 34.1059996453617 -8.95945286521176e-014
vertex 353.713633551298 34.229366609079 2.99999999999991
vertex 353.415799354343 34.1059996453617 2.99999999999991
endloop
endfacet
facet normal 0.0 -1.0 6.05219954154555e-018
outer loop
vertex 354.033249013835 34.2714447829896 -8.99487628801737e-014
vertex 353.713633551298 34.229366609079 2.99999999999991
vertex 353.713633551298 34.229366609079 -9.03001124827115e-014
endloop
endfacet
facet normal 0.25881904510288 -0.965925826288972 1.53125962443482e-018
outer loop
vertex 353.713633551298 34.229366609079 2.99999999999991
vertex 354.033249013835 34.2714447829896 -8.99487628801737e-014
vertex 354.033249013835 34.2714447829896 2.99999999999991
endloop
endfacet
facet normal -0.258819045102997 -0.965925826288941 1.01606920616332e-017
outer loop
vertex 354.352864476372 34.229366609079 2.99999999999991
vertex 354.033249013835 34.2714447829896 -8.99487628801737e-014
vertex 354.352864476372 34.229366609079 -9.03028807839305e-014
endloop
endfacet
facet normal 0.0 -1.0 6.05219954154555e-018
outer loop
vertex 354.033249013835 34.2714447829896 -8.99487628801737e-014
vertex 354.352864476372 34.229366609079 2.99999999999991
vertex 354.033249013835 34.2714447829896 2.99999999999991
endloop
endfacet
facet normal -0.499999999999976 -0.866025403784453 1.35767502090439e-017
outer loop
vertex 354.650698673327 34.1059996453615 -8.81898933581284e-014
vertex 354.352864476372 34.229366609079 2.99999999999991
vertex 354.352864476372 34.229366609079 -9.03028807839305e-014
endloop
endfacet
facet normal -0.258819045102997 -0.965925826288941 1.01606920616332e-017
outer loop
vertex 354.352864476372 34.229366609079 2.99999999999991
vertex 354.650698673327 34.1059996453615 -8.81898933581284e-014
vertex 354.650698673327 34.1059996453615 2.99999999999991
endloop
endfacet
facet normal -0.707106781186294 -0.707106781186802 1.60675752663539e-017
outer loop
vertex 354.906454696372 33.9097511465417 2.99999999999991
vertex 354.650698673327 34.1059996453615 -8.81898933581284e-014
vertex 354.906454696372 33.9097511465417 -8.96020939376952e-014
endloop
endfacet
facet normal -0.499999999999976 -0.866025403784453 1.35767502090439e-017
outer loop
vertex 354.650698673327 34.1059996453615 -8.81898933581284e-014
vertex 354.906454696372 33.9097511465417 2.99999999999991
vertex 354.650698673327 34.1059996453615 2.99999999999991
endloop
endfacet
facet normal -0.707106781186294 -0.707106781186802 1.60675752663539e-017
outer loop
vertex 354.906454696372 33.9097511465417 2.99999999999991
vertex 355.102703195192 33.6539951234971 -9.03093816908687e-014
vertex 355.102703195192 33.6539951234971 2.99999999999991
endloop
endfacet
facet normal -0.86602540378451 -0.499999999999877 1.74634216221909e-017
outer loop
vertex 355.102703195192 33.6539951234971 -9.03093816908687e-014
vertex 354.906454696372 33.9097511465417 2.99999999999991
vertex 354.906454696372 33.9097511465417 -8.96020939376952e-014
endloop
endfacet
facet normal -0.86602540378451 -0.499999999999877 1.74634216221909e-017
outer loop
vertex 355.102703195192 33.6539951234971 2.99999999999991
vertex 355.226070158909 33.3561609265419 -9.06640959503297e-014
vertex 355.226070158909 33.3561609265419 2.99999999999991
endloop
endfacet
facet normal -0.965925826289179 -0.258819045102109 1.766916465414e-017
outer loop
vertex 355.226070158909 33.3561609265419 -9.06640959503297e-014
vertex 355.102703195192 33.6539951234971 2.99999999999991
vertex 355.102703195192 33.6539951234971 -9.03093816908687e-014
endloop
endfacet
facet normal -0.965925826289179 -0.258819045102109 1.766916465414e-017
outer loop
vertex 355.226070158909 33.3561609265419 2.99999999999991
vertex 355.26814833282 33.036545464005 -9.10185813427537e-014
vertex 355.26814833282 33.036545464005 2.99999999999991
endloop
endfacet
facet normal -1.0 4.45288161485455e-013 1.66707833145838e-017
outer loop
vertex 355.26814833282 33.036545464005 -9.10185813427537e-014
vertex 355.226070158909 33.3561609265419 2.99999999999991
vertex 355.226070158909 33.3561609265419 -9.06640959503297e-014
endloop
endfacet
facet normal -1.0 4.45644605881279e-013 1.66707833145838e-017
outer loop
vertex 355.26814833282 33.036545464005 2.99999999999991
vertex 355.226070158909 32.7169300014676 -8.92577274194972e-014
vertex 355.226070158909 32.7169300014676 2.99999999999991
endloop
endfacet
facet normal -0.965925826289198 0.258819045102035 1.45363156419203e-017
outer loop
vertex 355.226070158909 32.7169300014676 -8.92577274194972e-014
vertex 355.26814833282 33.036545464005 2.99999999999991
vertex 355.26814833282 33.036545464005 -9.10185813427537e-014
endloop
endfacet
facet normal -0.965925826289198 0.258819045102036 1.45363156419203e-017
outer loop
vertex 355.226070158909 32.7169300014676 2.99999999999991
vertex 355.102703195192 32.4190958045121 -8.82013899132977e-014
vertex 355.102703195192 32.4190958045121 2.99999999999991
endloop
endfacet
facet normal -0.866025403785044 0.499999999998951 1.14112220806613e-017
outer loop
vertex 355.102703195192 32.4190958045121 -8.82013899132977e-014
vertex 355.226070158909 32.7169300014676 2.99999999999991
vertex 355.226070158909 32.7169300014676 -8.92577274194972e-014
endloop
endfacet
facet normal -0.866025403785044 0.499999999998951 1.14112220806613e-017
outer loop
vertex 355.102703195192 32.4190958045121 2.99999999999991
vertex 354.906454696372 32.1633397814679 -8.89069778896388e-014
vertex 354.906454696372 32.1633397814679 2.99999999999991
endloop
endfacet
facet normal -0.707106781186455 0.70710678118664 7.50847259251259e-018
outer loop
vertex 354.906454696372 32.1633397814679 -8.89069778896388e-014
vertex 355.102703195192 32.4190958045121 2.99999999999991
vertex 355.102703195192 32.4190958045121 -8.82013899132977e-014
endloop
endfacet
facet normal -0.499999999998954 0.866025403785043 3.09403310552117e-018
outer loop
vertex 354.650698673327 31.9670912826479 -8.82019884149985e-014
vertex 354.906454696372 32.1633397814679 2.99999999999991
vertex 354.906454696372 32.1633397814679 -8.89069778896388e-014
endloop
endfacet
facet normal -0.707106781186455 0.70710678118664 7.50847259251259e-018
outer loop
vertex 354.906454696372 32.1633397814679 2.99999999999991
vertex 354.650698673327 31.9670912826479 -8.82019884149985e-014
vertex 354.650698673327 31.9670912826479 2.99999999999991
endloop
endfacet
facet normal -0.258819045102186 0.965925826289158 -1.53125962444751e-018
outer loop
vertex 354.352864476372 31.8437243189308 2.99999999999991
vertex 354.650698673327 31.9670912826479 -8.82019884149985e-014
vertex 354.352864476372 31.8437243189308 -8.9258883635997e-014
endloop
endfacet
facet normal -0.499999999998954 0.866025403785043 3.09403310552117e-018
outer loop
vertex 354.650698673327 31.9670912826479 -8.82019884149985e-014
vertex 354.352864476372 31.8437243189308 2.99999999999991
vertex 354.650698673327 31.9670912826479 2.99999999999991
endloop
endfacet
facet normal 4.08663499814395e-013 1.0 -6.05219954155236e-018
outer loop
vertex 354.033249013835 31.8016461450202 2.99999999999991
vertex 354.352864476372 31.8437243189308 -8.9258883635997e-014
vertex 354.033249013835 31.8016461450202 -9.03152248591718e-014
endloop
endfacet
facet normal -0.258819045102186 0.965925826289158 -1.53125962444752e-018
outer loop
vertex 354.352864476372 31.8437243189308 -8.9258883635997e-014
vertex 354.033249013835 31.8016461450202 2.99999999999991
vertex 354.352864476372 31.8437243189308 2.99999999999991
endloop
endfacet
facet normal 0.258819045102734 0.965925826289011 -1.01606920616292e-017
outer loop
vertex 353.713633551297 31.8437243189311 2.99999999999991
vertex 354.033249013835 31.8016461450202 -9.03152248591718e-014
vertex 353.713633551297 31.8437243189311 -9.10185943863704e-014
endloop
endfacet
facet normal 4.09117966419074e-013 1.0 -6.05219954155237e-018
outer loop
vertex 354.033249013835 31.8016461450202 -9.03152248591718e-014
vertex 353.713633551297 31.8437243189311 2.99999999999991
vertex 354.033249013835 31.8016461450202 2.99999999999991
endloop
endfacet
facet normal 0.49999999999953 0.86602540378471 -1.3576750209038e-017
outer loop
vertex 353.415799354343 31.967091282648 -9.03116153296247e-014
vertex 353.713633551297 31.8437243189311 2.99999999999991
vertex 353.713633551297 31.8437243189311 -9.10185943863704e-014
endloop
endfacet
facet normal 0.258819045102734 0.965925826289011 -1.01606920616292e-017
outer loop
vertex 353.713633551297 31.8437243189311 2.99999999999991
vertex 353.415799354343 31.967091282648 -9.03116153296247e-014
vertex 353.415799354343 31.967091282648 2.99999999999991
endloop
endfacet
facet normal -1.0 2.25718413656734e-014 1.66707833145863e-017
outer loop
vertex 355.033249013835 68.0365454640047 2.99999999999991
vertex 354.999174840124 67.7777264189023 -9.01159711397912e-014
vertex 354.999174840124 67.7777264189023 2.99999999999991
endloop
endfacet
facet normal -0.965925826289048 0.258819045102595 1.45363156419144e-017
outer loop
vertex 354.999174840124 67.7777264189023 -9.01159711397912e-014
vertex 355.033249013835 68.0365454640047 2.99999999999991
vertex 355.033249013835 68.0365454640047 -9.04671509494358e-014
endloop
endfacet
facet normal -0.965925826289048 0.258819045102595 1.45363156419144e-017
outer loop
vertex 354.999174840124 67.7777264189023 2.99999999999991
vertex 354.899274417619 67.5365454640046 -9.01169023288674e-014
vertex 354.899274417619 67.5365454640046 2.99999999999991
endloop
endfacet
facet normal -0.866025403784145 0.500000000000509 1.14112220806369e-017
outer loop
vertex 354.899274417619 67.5365454640046 -9.01169023288674e-014
vertex 354.999174840124 67.7777264189023 2.99999999999991
vertex 354.999174840124 67.7777264189023 -9.01159711397912e-014
endloop
endfacet
facet normal -0.866025403784145 0.500000000000509 1.14112220806369e-017
outer loop
vertex 354.899274417619 67.5365454640046 2.99999999999991
vertex 354.740355795021 67.3294386828183 -9.0117385247349e-014
vertex 354.740355795021 67.3294386828183 2.99999999999991
endloop
endfacet
facet normal -0.70710678118689 0.707106781186205 7.50847259252247e-018
outer loop
vertex 354.740355795021 67.3294386828183 -9.0117385247349e-014
vertex 354.899274417619 67.5365454640046 2.99999999999991
vertex 354.899274417619 67.5365454640046 -9.01169023288674e-014
endloop
endfacet
facet normal -0.499999999999536 0.866025403784707 3.09403310553291e-018
outer loop
vertex 354.533249013835 67.17052006022 -8.97648911748213e-014
vertex 354.740355795021 67.3294386828183 2.99999999999991
vertex 354.740355795021 67.3294386828183 -9.0117385247349e-014
endloop
endfacet
facet normal -0.70710678118689 0.707106781186205 7.50847259252247e-018
outer loop
vertex 354.740355795021 67.3294386828183 2.99999999999991
vertex 354.533249013835 67.17052006022 -8.97648911748213e-014
vertex 354.533249013835 67.17052006022 2.99999999999991
endloop
endfacet
facet normal -0.258819045102144 0.965925826289169 -1.53125962444828e-018
outer loop
vertex 354.292068058937 67.070619637716 -8.97644116134937e-014
vertex 354.533249013835 67.17052006022 2.99999999999991
vertex 354.533249013835 67.17052006022 -8.97648911748213e-014
endloop
endfacet
facet normal -0.499999999999536 0.866025403784707 3.0940331055329e-018
outer loop
vertex 354.533249013835 67.17052006022 2.99999999999991
vertex 354.292068058937 67.070619637716 -8.97644116134937e-014
vertex 354.292068058937 67.070619637716 2.99999999999991
endloop
endfacet
facet normal -1.3348129734889e-012 1.0 -6.0521995415233e-018
outer loop
vertex 354.033249013835 67.0365454640046 -8.97634834343595e-014
vertex 354.292068058937 67.070619637716 2.99999999999991
vertex 354.292068058937 67.070619637716 -8.97644116134937e-014
endloop
endfacet
facet normal -0.258819045102144 0.965925826289169 -1.53125962444828e-018
outer loop
vertex 354.292068058937 67.070619637716 2.99999999999991
vertex 354.033249013835 67.0365454640046 -8.97634834343595e-014
vertex 354.033249013835 67.0365454640046 2.99999999999991
endloop
endfacet
facet normal 0.258819045102908 0.965925826288965 -1.01606920616318e-017
outer loop
vertex 353.774429968733 67.0706196377154 2.99999999999991
vertex 354.033249013835 67.0365454640046 -8.97634834343595e-014
vertex 353.774429968733 67.0706196377154 -9.01146657016115e-014
endloop
endfacet
facet normal -1.3348129734889e-012 1.0 -6.0521995415233e-018
outer loop
vertex 354.033249013835 67.0365454640046 -8.97634834343595e-014
vertex 353.774429968733 67.0706196377154 2.99999999999991
vertex 354.033249013835 67.0365454640046 2.99999999999991
endloop
endfacet
facet normal 0.499999999999726 0.866025403784597 -1.35767502090406e-017
outer loop
vertex 353.533249013835 67.1705200602203 -8.97605605000833e-014
vertex 353.774429968733 67.0706196377154 2.99999999999991
vertex 353.774429968733 67.0706196377154 -9.01146657016115e-014
endloop
endfacet
facet normal 0.258819045102908 0.965925826288965 -1.01606920616318e-017
outer loop
vertex 353.774429968733 67.0706196377154 2.99999999999991
vertex 353.533249013835 67.1705200602203 -8.97605605000833e-014
vertex 353.533249013835 67.1705200602203 2.99999999999991
endloop
endfacet
facet normal 0.707106781185959 0.707106781187136 -1.60675752663504e-017
outer loop
vertex 353.326142232648 67.3294386828179 -8.97587649380818e-014
vertex 353.533249013835 67.1705200602203 2.99999999999991
vertex 353.533249013835 67.1705200602203 -8.97605605000833e-014
endloop
endfacet
facet normal 0.499999999999726 0.866025403784597 -1.35767502090406e-017
outer loop
vertex 353.533249013835 67.1705200602203 2.99999999999991
vertex 353.326142232648 67.3294386828179 -8.97587649380818e-014
vertex 353.326142232648 67.3294386828179 2.99999999999991
endloop
endfacet
facet normal 0.866025403784346 0.50000000000016 -1.74634216221898e-017
outer loop
vertex 353.16722361005 67.5365454640045 -8.97569055698715e-014
vertex 353.326142232648 67.3294386828179 2.99999999999991
vertex 353.326142232648 67.3294386828179 -8.97587649380818e-014
endloop
endfacet
facet normal 0.707106781185959 0.707106781187136 -1.60675752663504e-017
outer loop
vertex 353.326142232648 67.3294386828179 2.99999999999991
vertex 353.16722361005 67.5365454640045 -8.97569055698715e-014
vertex 353.16722361005 67.5365454640045 2.99999999999991
endloop
endfacet
facet normal 0.965925826289331 0.258819045101539 -1.76691646541391e-017
outer loop
vertex 353.067323187545 67.7777264189023 -8.94026132980048e-014
vertex 353.16722361005 67.5365454640045 2.99999999999991
vertex 353.16722361005 67.5365454640045 -8.97569055698715e-014
endloop
endfacet
facet normal 0.866025403784346 0.50000000000016 -1.74634216221898e-017
outer loop
vertex 353.16722361005 67.5365454640045 2.99999999999991
vertex 353.067323187545 67.7777264189023 -8.94026132980048e-014
vertex 353.067323187545 67.7777264189023 2.99999999999991
endloop
endfacet
facet normal 1.0 -1.51055788285048e-012 -1.66707833145773e-017
outer loop
vertex 353.033249013835 68.0365454640044 -8.94010021690043e-014
vertex 353.067323187545 67.7777264189023 2.99999999999991
vertex 353.067323187545 67.7777264189023 -8.94026132980048e-014
endloop
endfacet
facet normal 0.965925826289331 0.258819045101539 -1.76691646541391e-017
outer loop
vertex 353.067323187545 67.7777264189023 2.99999999999991
vertex 353.033249013835 68.0365454640044 -8.94010021690043e-014
vertex 353.033249013835 68.0365454640044 2.99999999999991
endloop
endfacet
facet normal 0.965925826289086 -0.258819045102456 -1.45363156419159e-017
outer loop
vertex 353.067323187546 68.2953645091073 -8.93996861683305e-014
vertex 353.033249013835 68.0365454640044 2.99999999999991
vertex 353.033249013835 68.0365454640044 -8.94010021690043e-014
endloop
endfacet
facet normal 1.0 -1.51055788285048e-012 -1.66707833145773e-017
outer loop
vertex 353.033249013835 68.0365454640044 2.99999999999991
vertex 353.067323187546 68.2953645091073 -8.93996861683305e-014
vertex 353.067323187546 68.2953645091073 2.99999999999991
endloop
endfacet
facet normal 0.866025403785075 -0.499999999998898 -1.14112220806621e-017
outer loop
vertex 353.167223610051 68.5365454640046 -8.93987549792544e-014
vertex 353.067323187546 68.2953645091073 2.99999999999991
vertex 353.067323187546 68.2953645091073 -8.93996861683305e-014
endloop
endfacet
facet normal 0.965925826289086 -0.258819045102456 -1.45363156419159e-017
outer loop
vertex 353.067323187546 68.2953645091073 2.99999999999991
vertex 353.167223610051 68.5365454640046 -8.93987549792544e-014
vertex 353.167223610051 68.5365454640046 2.99999999999991
endloop
endfacet
facet normal 0.707106781186615 -0.70710678118648 -7.50847259251622e-018
outer loop
vertex 353.326142232648 68.7436522451914 -8.93982720607727e-014
vertex 353.167223610051 68.5365454640046 2.99999999999991
vertex 353.167223610051 68.5365454640046 -8.93987549792544e-014
endloop
endfacet
facet normal 0.866025403785075 -0.499999999998898 -1.14112220806621e-017
outer loop
vertex 353.167223610051 68.5365454640046 2.99999999999991
vertex 353.326142232648 68.7436522451914 -8.93982720607727e-014
vertex 353.326142232648 68.7436522451914 2.99999999999991
endloop
endfacet
facet normal 0.499999999999787 -0.866025403784562 -3.09403310553797e-018
outer loop
vertex 353.533249013835 68.9025708677891 2.99999999999991
vertex 353.326142232648 68.7436522451914 -8.93982720607727e-014
vertex 353.533249013835 68.9025708677891 -8.97507661333004e-014
endloop
endfacet
facet normal 0.707106781186615 -0.70710678118648 -7.50847259251622e-018
outer loop
vertex 353.326142232648 68.7436522451914 -8.93982720607727e-014
vertex 353.533249013835 68.9025708677891 2.99999999999991
vertex 353.326142232648 68.7436522451914 2.99999999999991
endloop
endfacet
facet normal 0.258819045102449 -0.965925826289088 1.5312596244427e-018
outer loop
vertex 353.774429968732 69.0024712902939 2.99999999999991
vertex 353.533249013835 68.9025708677891 -8.97507661333004e-014
vertex 353.774429968732 69.0024712902939 -8.97512456946281e-014
endloop
endfacet
facet normal 0.499999999999787 -0.866025403784562 -3.09403310553796e-018
outer loop
vertex 353.533249013835 68.9025708677891 -8.97507661333004e-014
vertex 353.774429968732 69.0024712902939 2.99999999999991
vertex 353.533249013835 68.9025708677891 2.99999999999991
endloop
endfacet
facet normal 2.26163969151475e-014 -1.0 6.05219954154517e-018
outer loop
vertex 354.033249013835 69.0365454640045 2.99999999999991
vertex 353.774429968732 69.0024712902939 -8.97512456946281e-014
vertex 354.033249013835 69.0365454640045 -8.97521738737622e-014
endloop
endfacet
facet normal 0.258819045102449 -0.965925826289088 1.5312596244427e-018
outer loop
vertex 353.774429968732 69.0024712902939 -8.97512456946281e-014
vertex 354.033249013835 69.0365454640045 2.99999999999991
vertex 353.774429968732 69.0024712902939 2.99999999999991
endloop
endfacet
facet normal -0.258819045101905 -0.965925826289233 1.01606920616167e-017
outer loop
vertex 354.292068058937 69.0024712902939 2.99999999999991
vertex 354.033249013835 69.0365454640045 -8.97521738737622e-014
vertex 354.292068058937 69.0024712902939 -9.01059832271473e-014
endloop
endfacet
facet normal 2.25005524865041e-014 -1.0 6.05219954154517e-018
outer loop
vertex 354.033249013835 69.0365454640045 -8.97521738737622e-014
vertex 354.292068058937 69.0024712902939 2.99999999999991
vertex 354.033249013835 69.0365454640045 2.99999999999991
endloop
endfacet
facet normal -0.500000000000202 -0.866025403784322 1.35767502090469e-017
outer loop
vertex 354.533249013836 68.9025708677889 -8.97550968080384e-014
vertex 354.292068058937 69.0024712902939 2.99999999999991
vertex 354.292068058937 69.0024712902939 -9.01059832271473e-014
endloop
endfacet
facet normal -0.258819045101905 -0.965925826289233 1.01606920616167e-017
outer loop
vertex 354.292068058937 69.0024712902939 2.99999999999991
vertex 354.533249013836 68.9025708677889 -8.97550968080384e-014
vertex 354.533249013836 68.9025708677889 2.99999999999991
endloop
endfacet
facet normal -0.7071067811868 -0.707106781186295 1.60675752663593e-017
outer loop
vertex 354.740355795022 68.7436522451913 2.99999999999991
vertex 354.533249013836 68.9025708677889 -8.97550968080384e-014
vertex 354.740355795022 68.7436522451913 -8.97568923700399e-014
endloop
endfacet
facet normal -0.500000000000202 -0.866025403784322 1.35767502090469e-017
outer loop
vertex 354.533249013836 68.9025708677889 -8.97550968080384e-014
vertex 354.740355795022 68.7436522451913 2.99999999999991
vertex 354.533249013836 68.9025708677889 2.99999999999991
endloop
endfacet
facet normal -0.7071067811868 -0.707106781186295 1.60675752663593e-017
outer loop
vertex 354.740355795022 68.7436522451913 2.99999999999991
vertex 354.89927441762 68.5365454640047 -8.97587517382502e-014
vertex 354.89927441762 68.5365454640047 2.99999999999991
endloop
endfacet
facet normal -0.866025403784602 -0.499999999999717 1.74634216221914e-017
outer loop
vertex 354.89927441762 68.5365454640047 -8.97587517382502e-014
vertex 354.740355795022 68.7436522451913 2.99999999999991
vertex 354.740355795022 68.7436522451913 -8.97568923700399e-014
endloop
endfacet
facet normal -0.866025403784602 -0.499999999999717 1.74634216221914e-017
outer loop
vertex 354.89927441762 68.5365454640047 2.99999999999991
vertex 354.999174840124 68.2953645091072 -9.01130440101169e-014
vertex 354.999174840124 68.2953645091072 2.99999999999991
endloop
endfacet
facet normal -0.965925826289102 -0.258819045102393 1.76691646541405e-017
outer loop
vertex 354.999174840124 68.2953645091072 -9.01130440101169e-014
vertex 354.89927441762 68.5365454640047 2.99999999999991
vertex 354.89927441762 68.5365454640047 -8.97587517382502e-014
endloop
endfacet
facet normal -0.965925826289102 -0.258819045102393 1.76691646541405e-017
outer loop
vertex 354.999174840124 68.2953645091072 2.99999999999991
vertex 355.033249013835 68.0365454640047 -9.04671509494358e-014
vertex 355.033249013835 68.0365454640047 2.99999999999991
endloop
endfacet
facet normal -1.0 2.25629302557778e-014 1.66707833145863e-017
outer loop
vertex 355.033249013835 68.0365454640047 -9.04671509494358e-014
vertex 354.999174840124 68.2953645091072 2.99999999999991
vertex 354.999174840124 68.2953645091072 -9.01130440101169e-014
endloop
endfacet
endsolid uploads-c5-af-25-85-c2-plotclock_SUP7
