solid uploads-c5-af-25-85-c2-plotclock_SUP7
facet normal 2.74400766235245e-009 8.97725632970479e-008 -0.999999999999996
outer loop
vertex 278.937062705286 -26.9773494302095 1.24139075539495e-007
vertex 251.937062761358 -32.9773496825297 -9.02518531355201e-014
vertex 251.937062705287 -26.9773496825297 -9.02518531355201e-014
endloop
endfacet
facet normal 2.74400766235245e-009 8.97725632970479e-008 -0.999999999999996
outer loop
vertex 251.937062761358 -32.9773496825297 -9.02518531355201e-014
vertex 278.937062705286 -26.9773494302095 1.24139075539495e-007
vertex 251.937089313034 -37.9773434559524 5.07010324022736e-007
endloop
endfacet
facet normal 2.74400766235245e-009 8.97725632970479e-008 -0.999999999999996
outer loop
vertex 281.937062596996 -23.9773494021739 3.78695645140545e-007
vertex 278.937062705286 -26.9773494302095 1.24139075539495e-007
vertex 278.937062596996 -23.9773494302094 3.64902399483788e-007
endloop
endfacet
facet normal 2.74400766235245e-009 8.97725632970479e-008 -0.999999999999996
outer loop
vertex 297.43690577891 -14.477349096816 9.43811886143073e-007
vertex 301.936905734185 -15.9773488320923 9.50211800075215e-007
vertex 297.436905811458 -26.977349096816 1.01140241058181e-007
endloop
endfacet
facet normal 2.74400766235245e-009 8.97725632970479e-008 -0.999999999999996
outer loop
vertex 301.936905734185 -15.9773488320923 9.50211800075215e-007
vertex 297.43690577891 -14.477349096816 9.43811886143073e-007
vertex 309.43690573011 -14.4773491451827 9.15327404702856e-007
endloop
endfacet
facet normal 2.74400766235245e-009 8.97725632970479e-008 -0.999999999999996
outer loop
vertex 301.936905734185 -15.9773488320923 9.50211800075215e-007
vertex 309.43690573011 -14.4773491451827 9.15327404702856e-007
vertex 306.936905734185 -15.9773487853664 9.81708716350346e-007
endloop
endfacet
facet normal 2.74400766235245e-009 8.97725632970479e-008 -0.999999999999996
outer loop
vertex 306.936905734185 -15.9773487853664 9.81708716350346e-007
vertex 309.43690573011 -14.4773491451827 9.15327404702856e-007
vertex 306.936905762221 -18.9773487853664 9.92820997312413e-007
endloop
endfacet
facet normal 2.74400766235245e-009 8.97725632970479e-008 -0.999999999999996
outer loop
vertex 248.937062705287 -26.9773497105653 -1.379333590861e-008
vertex 248.936961842214 -42.9773372575922 -5.42085893961057e-006
vertex 215.436905811458 -26.9773497026128 -1.67818517761867e-007
endloop
endfacet
facet normal 2.74400766235245e-009 8.97725632970479e-008 -0.999999999999996
outer loop
vertex 248.936961842214 -42.9773372575922 -5.42085893961057e-006
vertex 248.937062705287 -26.9773497105653 -1.379333590861e-008
vertex 248.937089313034 -37.9773434839879 5.14131450022723e-007
endloop
endfacet
facet normal 2.74400766235245e-009 8.97725632970479e-008 -0.999999999999996
outer loop
vertex 248.936961842214 -42.9773372575922 -5.42085893961057e-006
vertex 248.937089313034 -37.9773434839879 5.14131450022723e-007
vertex 248.988200577229 -38.3655720511641 4.72467370192084e-007
endloop
endfacet
facet normal 2.74400766235245e-009 8.97725632970479e-008 -0.999999999999996
outer loop
vertex 248.936961842214 -42.9773372575922 -5.42085893961057e-006
vertex 248.988200577229 -38.3655720511641 4.72467370192084e-007
vertex 249.138051214366 -38.7273434821099 4.33399983177771e-007
endloop
endfacet
facet normal 2.74400766235245e-009 8.97725632970479e-008 -0.999999999999996
outer loop
vertex 248.936961842214 -42.9773372575922 -5.42085893961057e-006
vertex 249.138051214366 -38.7273434821099 4.33399983177771e-007
vertex 251.936911948532 -42.9773496827236 -1.27573752879991e-005
endloop
endfacet
facet normal 2.74400766235245e-009 8.97725632970479e-008 -0.999999999999996
outer loop
vertex 251.936911948532 -42.9773496827236 -1.27573752879991e-005
vertex 249.138051214366 -38.7273434821099 4.33399983177771e-007
vertex 249.376429151166 -39.038003651662 3.99591675735286e-007
endloop
endfacet
facet normal 2.74400766235245e-009 8.97725632970479e-008 -0.999999999999996
outer loop
vertex 251.936911948532 -42.9773496827236 -1.27573752879991e-005
vertex 249.376429151166 -39.038003651662 3.99591675735286e-007
vertex 249.687089325174 -39.2763815826557 3.73346405600336e-007
endloop
endfacet
facet normal 2.74400766235245e-009 8.97725632970479e-008 -0.999999999999996
outer loop
vertex 251.936911948532 -42.9773496827236 -1.27573752879991e-005
vertex 249.687089325174 -39.2763815826557 3.73346405600336e-007
vertex 250.04886075892 -39.4262322130318 3.56452753434275e-007
endloop
endfacet
facet normal 2.74400766235245e-009 8.97725632970479e-008 -0.999999999999996
outer loop
vertex 251.936911948532 -42.9773496827236 -1.27573752879991e-005
vertex 250.04886075892 -39.4262322130318 3.56452753434275e-007
vertex 250.437089327052 -39.4773434699701 3.50062010033134e-007
endloop
endfacet
facet normal 2.74400766235245e-009 8.97725632970479e-008 -0.999999999999996
outer loop
vertex 251.936911948532 -42.9773496827236 -1.27573752879991e-005
vertex 250.437089327052 -39.4773434699701 3.50062010033134e-007
vertex 250.825317894228 -39.4262322057757 3.54609668460745e-007
endloop
endfacet
facet normal 2.74400766235245e-009 8.97725632970479e-008 -0.999999999999996
outer loop
vertex 251.936911948532 -42.9773496827236 -1.27573752879991e-005
vertex 250.825317894228 -39.4262322057757 3.54609668460745e-007
vertex 251.187089325174 -39.2763815686379 3.6978583696041e-007
endloop
endfacet
facet normal 2.74400766235245e-009 8.97725632970479e-008 -0.999999999999996
outer loop
vertex 251.936911948532 -42.9773496827236 -1.27573752879991e-005
vertex 251.187089325174 -39.2763815686379 3.6978583696041e-007
vertex 251.497749494726 -39.0380036318379 3.94556275904853e-007
endloop
endfacet
facet normal 2.74400766235245e-009 8.97725632970479e-008 -0.999999999999996
outer loop
vertex 251.936911948532 -42.9773496827236 -1.27573752879991e-005
vertex 251.497749494726 -39.0380036318379 3.94556275904853e-007
vertex 251.73612742572 -38.7273434578304 4.27232919518025e-007
endloop
endfacet
facet normal 2.74400766235245e-009 8.97725632970479e-008 -0.999999999999996
outer loop
vertex 251.936911948532 -42.9773496827236 -1.27573752879991e-005
vertex 251.73612742572 -38.7273434578304 4.27232919518025e-007
vertex 251.885978056096 -38.3655720240838 4.65588896667987e-007
endloop
endfacet
facet normal 2.74400766235245e-009 8.97725632970479e-008 -0.999999999999996
outer loop
vertex 251.936911948532 -42.9773496827236 -1.27573752879991e-005
vertex 251.885978056096 -38.3655720240838 4.65588896667987e-007
vertex 251.937089313034 -37.9773434559524 5.07010324022736e-007
endloop
endfacet
facet normal 2.74400766235245e-009 8.97725632970479e-008 -0.999999999999996
outer loop
vertex 251.936911948532 -42.9773496827236 -1.27573752879991e-005
vertex 251.937089313034 -37.9773434559524 5.07010324022736e-007
vertex 251.937062920225 -49.9773496825222 -9.02518531355201e-014
endloop
endfacet
facet normal 2.74400766235245e-009 8.97725632970479e-008 -0.999999999999996
outer loop
vertex 251.937062920225 -49.9773496825222 -9.02518531355201e-014
vertex 251.937089313034 -37.9773434559524 5.07010324022736e-007
vertex 309.436905977597 -49.9773491451752 7.26557370582332e-008
endloop
endfacet
facet normal 2.74400766235245e-009 8.97725632970479e-008 -0.999999999999996
outer loop
vertex 309.436905977597 -49.9773491451752 7.26557370582332e-008
vertex 251.937089313034 -37.9773434559524 5.07010324022736e-007
vertex 278.937062705286 -26.9773494302095 1.24139075539495e-007
endloop
endfacet
facet normal 2.74400766235245e-009 8.97725632970479e-008 -0.999999999999996
outer loop
vertex 309.436905977597 -49.9773491451752 7.26557370582332e-008
vertex 278.937062705286 -26.9773494302095 1.24139075539495e-007
vertex 281.937062705286 -26.9773494021738 1.37932321196252e-007
endloop
endfacet
facet normal 2.74400766235245e-009 8.97725632970479e-008 -0.999999999999996
outer loop
vertex 281.937062705286 -26.9773494021738 1.37932321196252e-007
vertex 278.937062705286 -26.9773494302095 1.24139075539495e-007
vertex 281.937062596996 -23.9773494021739 3.78695645140545e-007
endloop
endfacet
facet normal 2.74400766235245e-009 8.97725632970479e-008 -0.999999999999996
outer loop
vertex 309.436905977597 -49.9773491451752 7.26557370582332e-008
vertex 281.937062705286 -26.9773494021738 1.37932321196252e-007
vertex 297.436905811458 -26.977349096816 1.01140241058181e-007
endloop
endfacet
facet normal 2.74400766235245e-009 8.97725632970479e-008 -0.999999999999996
outer loop
vertex 309.436905977597 -49.9773491451752 7.26557370582332e-008
vertex 297.436905811458 -26.977349096816 1.01140241058181e-007
vertex 301.936905762221 -18.9773488320923 1.06342230984197e-006
endloop
endfacet
facet normal 2.74400766235245e-009 8.97725632970479e-008 -0.999999999999996
outer loop
vertex 301.936905762221 -18.9773488320923 1.06342230984197e-006
vertex 297.436905811458 -26.977349096816 1.01140241058181e-007
vertex 301.936905734185 -15.9773488320923 9.50211800075215e-007
endloop
endfacet
facet normal 2.74400766235245e-009 8.97725632970479e-008 -0.999999999999996
outer loop
vertex 309.436905977597 -49.9773491451752 7.26557370582332e-008
vertex 301.936905762221 -18.9773488320923 1.06342230984197e-006
vertex 306.936905762221 -18.9773487853664 9.92820997312413e-007
endloop
endfacet
facet normal 2.74400766235245e-009 8.97725632970479e-008 -0.999999999999996
outer loop
vertex 309.436905977597 -49.9773491451752 7.26557370582332e-008
vertex 306.936905762221 -18.9773487853664 9.92820997312413e-007
vertex 309.43690573011 -14.4773491451827 9.15327404702856e-007
endloop
endfacet
facet normal 2.74400766235245e-009 8.97725632970479e-008 -0.999999999999996
outer loop
vertex 248.93711265504 -32.9773372573983 7.33651625813665e-006
vertex 248.937089313034 -37.9773434839879 5.14131450022723e-007
vertex 248.937062705287 -26.9773497105653 -1.379333590861e-008
endloop
endfacet
facet normal 2.74400766235245e-009 8.97725632970479e-008 -0.999999999999996
outer loop
vertex 248.937089313034 -37.9773434839879 5.14131450022723e-007
vertex 248.93711265504 -32.9773372573983 7.33651625813665e-006
vertex 248.988200569972 -37.5891149158565 5.55552888657338e-007
endloop
endfacet
facet normal 2.74400766235245e-009 8.97725632970479e-008 -0.999999999999996
outer loop
vertex 248.988200569972 -37.5891149158565 5.55552888657338e-007
vertex 248.93711265504 -32.9773372573983 7.33651625813665e-006
vertex 249.138051200348 -37.2273434821099 5.93908865807299e-007
endloop
endfacet
facet normal 2.74400766235245e-009 8.97725632970479e-008 -0.999999999999996
outer loop
vertex 249.138051200348 -37.2273434821099 5.93908865807299e-007
vertex 248.93711265504 -32.9773372573983 7.33651625813665e-006
vertex 251.937062761358 -32.9773496825297 -9.02518531355201e-014
endloop
endfacet
facet normal 2.74400766235245e-009 8.97725632970479e-008 -0.999999999999996
outer loop
vertex 249.138051200348 -37.2273434821099 5.93908865807299e-007
vertex 251.937062761358 -32.9773496825297 -9.02518531355201e-014
vertex 249.376429131342 -36.9166833081024 6.26585509420472e-007
endloop
endfacet
facet normal 2.74400766235245e-009 8.97725632970479e-008 -0.999999999999996
outer loop
vertex 249.376429131342 -36.9166833081024 6.26585509420472e-007
vertex 251.937062761358 -32.9773496825297 -9.02518531355201e-014
vertex 249.687089300894 -36.6783053713024 6.51355948364915e-007
endloop
endfacet
facet normal 2.74400766235245e-009 8.97725632970479e-008 -0.999999999999996
outer loop
vertex 249.687089300894 -36.6783053713024 6.51355948364915e-007
vertex 251.937062761358 -32.9773496825297 -9.02518531355201e-014
vertex 250.04886073184 -36.5284547341646 6.66532105584714e-007
endloop
endfacet
facet normal 2.74400766235245e-009 8.97725632970479e-008 -0.999999999999996
outer loop
vertex 250.04886073184 -36.5284547341646 6.66532105584714e-007
vertex 251.937062761358 -32.9773496825297 -9.02518531355201e-014
vertex 250.437089299016 -36.4773434699701 6.71079764012325e-007
endloop
endfacet
facet normal 2.74400766235245e-009 8.97725632970479e-008 -0.999999999999996
outer loop
vertex 250.437089299016 -36.4773434699701 6.71079764012325e-007
vertex 251.937062761358 -32.9773496825297 -9.02518531355201e-014
vertex 250.825317867148 -36.5284547269085 6.6468903189105e-007
endloop
endfacet
facet normal 2.74400766235245e-009 8.97725632970479e-008 -0.999999999999996
outer loop
vertex 250.825317867148 -36.5284547269085 6.6468903189105e-007
vertex 251.937062761358 -32.9773496825297 -9.02518531355201e-014
vertex 251.187089300894 -36.6783053572846 6.47795391004855e-007
endloop
endfacet
facet normal 2.74400766235245e-009 8.97725632970479e-008 -0.999999999999996
outer loop
vertex 251.187089300894 -36.6783053572846 6.47795391004855e-007
vertex 251.937062761358 -32.9773496825297 -9.02518531355201e-014
vertex 251.497749474902 -36.9166832882783 6.21550120869904e-007
endloop
endfacet
facet normal 2.74400766235245e-009 8.97725632970479e-008 -0.999999999999996
outer loop
vertex 251.497749474902 -36.9166832882783 6.21550120869904e-007
vertex 251.937062761358 -32.9773496825297 -9.02518531355201e-014
vertex 251.736127411702 -37.2273434578304 5.87741802147554e-007
endloop
endfacet
facet normal 2.74400766235245e-009 8.97725632970479e-008 -0.999999999999996
outer loop
vertex 251.736127411702 -37.2273434578304 5.87741802147554e-007
vertex 251.937062761358 -32.9773496825297 -9.02518531355201e-014
vertex 251.88597804884 -37.5891148887762 5.48674415133241e-007
endloop
endfacet
facet normal 2.74400766235245e-009 8.97725632970479e-008 -0.999999999999996
outer loop
vertex 251.88597804884 -37.5891148887762 5.48674415133241e-007
vertex 251.937062761358 -32.9773496825297 -9.02518531355201e-014
vertex 251.937089313034 -37.9773434559524 5.07010324022736e-007
endloop
endfacet
facet normal 2.74400766235245e-009 8.97725632970479e-008 -0.999999999999996
outer loop
vertex 215.436905622913 -23.9773497828672 -7.30965769206996e-009
vertex 212.436906047312 -49.9773500516587 -1.8161177469849e-007
vertex 212.436905643827 -23.9773501319206 -2.11029146286928e-008
endloop
endfacet
facet normal 2.74400766235245e-009 8.97725632970479e-008 -0.999999999999996
outer loop
vertex 212.436906047312 -49.9773500516587 -1.8161177469849e-007
vertex 215.436905622913 -23.9773497828672 -7.30965769206996e-009
vertex 215.436905811458 -26.9773497026128 -1.67818517761867e-007
endloop
endfacet
facet normal 2.74400766235245e-009 8.97725632970479e-008 -0.999999999999996
outer loop
vertex 212.436906047312 -49.9773500516587 -1.8161177469849e-007
vertex 215.436905811458 -26.9773497026128 -1.67818517761867e-007
vertex 248.937062920225 -49.9773497105577 -1.379333590861e-008
endloop
endfacet
facet normal 2.74400766235245e-009 8.97725632970479e-008 -0.999999999999996
outer loop
vertex 248.937062920225 -49.9773497105577 -1.379333590861e-008
vertex 215.436905811458 -26.9773497026128 -1.67818517761867e-007
vertex 248.936961842214 -42.9773372575922 -5.42085893961057e-006
endloop
endfacet
facet normal -2.74400766235245e-009 -8.97725632970479e-008 0.999999999999996
outer loop
vertex 248.937089304802 -37.9773437533056 3.00000051413144
vertex 248.937112646808 -32.977337526716 3.00000733651625
vertex 248.937062697055 -26.977349979883 2.99999998620665
endloop
endfacet
facet normal -2.74400766235245e-009 -8.97725632970479e-008 0.999999999999996
outer loop
vertex 248.937112646808 -32.977337526716 3.00000733651625
vertex 248.937089304802 -37.9773437533056 3.00000051413144
vertex 248.98820056174 -37.5891151851742 3.00000055555288
endloop
endfacet
facet normal -2.74400766235245e-009 -8.97725632970479e-008 0.999999999999996
outer loop
vertex 248.937112646808 -32.977337526716 3.00000733651625
vertex 248.98820056174 -37.5891151851742 3.00000055555288
vertex 249.138051192116 -37.2273437514276 3.00000059390885
endloop
endfacet
facet normal -2.74400766235245e-009 -8.97725632970479e-008 0.999999999999996
outer loop
vertex 248.937112646808 -32.977337526716 3.00000733651625
vertex 249.138051192116 -37.2273437514276 3.00000059390885
vertex 251.937062753126 -32.9773499518474 2.9999999999999
endloop
endfacet
facet normal -2.74400766235245e-009 -8.97725632970479e-008 0.999999999999996
outer loop
vertex 251.937062753126 -32.9773499518474 2.9999999999999
vertex 249.138051192116 -37.2273437514276 3.00000059390885
vertex 249.37642912311 -36.9166835774201 3.0000006265855
endloop
endfacet
facet normal -2.74400766235245e-009 -8.97725632970479e-008 0.999999999999996
outer loop
vertex 251.937062753126 -32.9773499518474 2.9999999999999
vertex 249.37642912311 -36.9166835774201 3.0000006265855
vertex 249.687089292662 -36.67830564062 3.00000065135594
endloop
endfacet
facet normal -2.74400766235245e-009 -8.97725632970479e-008 0.999999999999996
outer loop
vertex 251.937062753126 -32.9773499518474 2.9999999999999
vertex 249.687089292662 -36.67830564062 3.00000065135594
vertex 250.048860723608 -36.5284550034823 3.00000066653209
endloop
endfacet
facet normal -2.74400766235245e-009 -8.97725632970479e-008 0.999999999999996
outer loop
vertex 251.937062753126 -32.9773499518474 2.9999999999999
vertex 250.048860723608 -36.5284550034823 3.00000066653209
vertex 250.437089290784 -36.4773437392878 3.00000067107975
endloop
endfacet
facet normal -2.74400766235245e-009 -8.97725632970479e-008 0.999999999999996
outer loop
vertex 251.937062753126 -32.9773499518474 2.9999999999999
vertex 250.437089290784 -36.4773437392878 3.00000067107975
vertex 250.825317858916 -36.5284549962261 3.00000066468902
endloop
endfacet
facet normal -2.74400766235245e-009 -8.97725632970479e-008 0.999999999999996
outer loop
vertex 251.937062753126 -32.9773499518474 2.9999999999999
vertex 250.825317858916 -36.5284549962261 3.00000066468902
vertex 251.187089292662 -36.6783056266023 3.00000064779538
endloop
endfacet
facet normal -2.74400766235245e-009 -8.97725632970479e-008 0.999999999999996
outer loop
vertex 251.937062753126 -32.9773499518474 2.9999999999999
vertex 251.187089292662 -36.6783056266023 3.00000064779538
vertex 251.49774946667 -36.9166835575959 3.00000062155011
endloop
endfacet
facet normal -2.74400766235245e-009 -8.97725632970479e-008 0.999999999999996
outer loop
vertex 251.937062753126 -32.9773499518474 2.9999999999999
vertex 251.49774946667 -36.9166835575959 3.00000062155011
vertex 251.73612740347 -37.2273437271481 3.00000058774179
endloop
endfacet
facet normal -2.74400766235245e-009 -8.97725632970479e-008 0.999999999999996
outer loop
vertex 251.937062753126 -32.9773499518474 2.9999999999999
vertex 251.73612740347 -37.2273437271481 3.00000058774179
vertex 251.885978040608 -37.5891151580939 3.0000005486744
endloop
endfacet
facet normal -2.74400766235245e-009 -8.97725632970479e-008 0.999999999999996
outer loop
vertex 251.937062753126 -32.9773499518474 2.9999999999999
vertex 251.885978040608 -37.5891151580939 3.0000005486744
vertex 251.937089304802 -37.9773437252701 3.00000050701031
endloop
endfacet
facet normal -2.74400766235245e-009 -8.97725632970479e-008 0.999999999999996
outer loop
vertex 248.936961833982 -42.9773375269099 2.99999457914105
vertex 248.937062697055 -26.977349979883 2.99999998620665
vertex 215.436905803226 -26.9773499719304 2.99999983218147
endloop
endfacet
facet normal -2.74400766235245e-009 -8.97725632970479e-008 0.999999999999996
outer loop
vertex 248.937062697055 -26.977349979883 2.99999998620665
vertex 248.936961833982 -42.9773375269099 2.99999457914105
vertex 248.937089304802 -37.9773437533056 3.00000051413144
endloop
endfacet
facet normal -2.74400766235245e-009 -8.97725632970479e-008 0.999999999999996
outer loop
vertex 248.937089304802 -37.9773437533056 3.00000051413144
vertex 248.936961833982 -42.9773375269099 2.99999457914105
vertex 248.988200568997 -38.3655723204818 3.00000047246736
endloop
endfacet
facet normal -2.74400766235245e-009 -8.97725632970479e-008 0.999999999999996
outer loop
vertex 248.988200568997 -38.3655723204818 3.00000047246736
vertex 248.936961833982 -42.9773375269099 2.99999457914105
vertex 249.138051206134 -38.7273437514276 3.00000043339997
endloop
endfacet
facet normal -2.74400766235245e-009 -8.97725632970479e-008 0.999999999999996
outer loop
vertex 249.138051206134 -38.7273437514276 3.00000043339997
vertex 248.936961833982 -42.9773375269099 2.99999457914105
vertex 251.9369119403 -42.9773499520413 2.9999872426247
endloop
endfacet
facet normal -2.74400766235245e-009 -8.97725632970479e-008 0.999999999999996
outer loop
vertex 249.138051206134 -38.7273437514276 3.00000043339997
vertex 251.9369119403 -42.9773499520413 2.9999872426247
vertex 249.376429142934 -39.0380039209797 3.00000039959166
endloop
endfacet
facet normal -2.74400766235245e-009 -8.97725632970479e-008 0.999999999999996
outer loop
vertex 249.376429142934 -39.0380039209797 3.00000039959166
vertex 251.9369119403 -42.9773499520413 2.9999872426247
vertex 249.687089316942 -39.2763818519734 3.00000037334639
endloop
endfacet
facet normal -2.74400766235245e-009 -8.97725632970479e-008 0.999999999999996
outer loop
vertex 249.687089316942 -39.2763818519734 3.00000037334639
vertex 251.9369119403 -42.9773499520413 2.9999872426247
vertex 250.048860750688 -39.4262324823495 3.00000035645274
endloop
endfacet
facet normal -2.74400766235245e-009 -8.97725632970479e-008 0.999999999999996
outer loop
vertex 250.048860750688 -39.4262324823495 3.00000035645274
vertex 251.9369119403 -42.9773499520413 2.9999872426247
vertex 250.43708931882 -39.4773437392878 3.000000350062
endloop
endfacet
facet normal -2.74400766235245e-009 -8.97725632970479e-008 0.999999999999996
outer loop
vertex 250.43708931882 -39.4773437392878 3.000000350062
vertex 251.9369119403 -42.9773499520413 2.9999872426247
vertex 250.825317885996 -39.4262324750934 3.00000035460966
endloop
endfacet
facet normal -2.74400766235245e-009 -8.97725632970479e-008 0.999999999999996
outer loop
vertex 250.825317885996 -39.4262324750934 3.00000035460966
vertex 251.9369119403 -42.9773499520413 2.9999872426247
vertex 251.187089316942 -39.2763818379556 3.00000036978583
endloop
endfacet
facet normal -2.74400766235245e-009 -8.97725632970479e-008 0.999999999999996
outer loop
vertex 251.187089316942 -39.2763818379556 3.00000036978583
vertex 251.9369119403 -42.9773499520413 2.9999872426247
vertex 251.497749486494 -39.0380039011556 3.00000039455626
endloop
endfacet
facet normal -2.74400766235245e-009 -8.97725632970479e-008 0.999999999999996
outer loop
vertex 251.497749486494 -39.0380039011556 3.00000039455626
vertex 251.9369119403 -42.9773499520413 2.9999872426247
vertex 251.736127417488 -38.7273437271481 3.00000042723291
endloop
endfacet
facet normal -2.74400766235245e-009 -8.97725632970479e-008 0.999999999999996
outer loop
vertex 251.736127417488 -38.7273437271481 3.00000042723291
vertex 251.9369119403 -42.9773499520413 2.9999872426247
vertex 251.885978047864 -38.3655722934015 3.00000046558888
endloop
endfacet
facet normal -2.74400766235245e-009 -8.97725632970479e-008 0.999999999999996
outer loop
vertex 251.885978047864 -38.3655722934015 3.00000046558888
vertex 251.9369119403 -42.9773499520413 2.9999872426247
vertex 251.937089304802 -37.9773437252701 3.00000050701031
endloop
endfacet
facet normal -2.74400766235245e-009 -8.97725632970479e-008 0.999999999999996
outer loop
vertex 251.937089304802 -37.9773437252701 3.00000050701031
vertex 251.9369119403 -42.9773499520413 2.9999872426247
vertex 251.937062911993 -49.9773499518398 2.9999999999999
endloop
endfacet
facet normal -2.74400766235245e-009 -8.97725632970479e-008 0.999999999999996
outer loop
vertex 251.937089304802 -37.9773437252701 3.00000050701031
vertex 251.937062911993 -49.9773499518398 2.9999999999999
vertex 309.436905969365 -49.9773494144928 3.00000007265573
endloop
endfacet
facet normal -2.74400766235245e-009 -8.97725632970479e-008 0.999999999999996
outer loop
vertex 251.937089304802 -37.9773437252701 3.00000050701031
vertex 309.436905969365 -49.9773494144928 3.00000007265573
vertex 278.937062697054 -26.9773496995271 3.00000012413906
endloop
endfacet
facet normal -2.74400766235245e-009 -8.97725632970479e-008 0.999999999999996
outer loop
vertex 278.937062697054 -26.9773496995271 3.00000012413906
vertex 309.436905969365 -49.9773494144928 3.00000007265573
vertex 281.937062697054 -26.9773496714915 3.00000013793231
endloop
endfacet
facet normal -2.74400766235245e-009 -8.97725632970479e-008 0.999999999999996
outer loop
vertex 278.937062697054 -26.9773496995271 3.00000012413906
vertex 281.937062697054 -26.9773496714915 3.00000013793231
vertex 281.937062588764 -23.9773496714916 3.00000037869563
endloop
endfacet
facet normal -2.74400766235245e-009 -8.97725632970479e-008 0.999999999999996
outer loop
vertex 281.937062697054 -26.9773496714915 3.00000013793231
vertex 309.436905969365 -49.9773494144928 3.00000007265573
vertex 297.436905803226 -26.9773493661337 3.00000010114023
endloop
endfacet
facet normal -2.74400766235245e-009 -8.97725632970479e-008 0.999999999999996
outer loop
vertex 297.436905803226 -26.9773493661337 3.00000010114023
vertex 309.436905969365 -49.9773494144928 3.00000007265573
vertex 301.936905753989 -18.97734910141 3.0000010634223
endloop
endfacet
facet normal -2.74400766235245e-009 -8.97725632970479e-008 0.999999999999996
outer loop
vertex 297.436905803226 -26.9773493661337 3.00000010114023
vertex 301.936905753989 -18.97734910141 3.0000010634223
vertex 301.936905725953 -15.97734910141 3.00000095021179
endloop
endfacet
facet normal -2.74400766235245e-009 -8.97725632970479e-008 0.999999999999996
outer loop
vertex 301.936905753989 -18.97734910141 3.0000010634223
vertex 309.436905969365 -49.9773494144928 3.00000007265573
vertex 306.936905753989 -18.977349054684 3.00000099282099
endloop
endfacet
facet normal -2.74400766235245e-009 -8.97725632970479e-008 0.999999999999996
outer loop
vertex 306.936905753989 -18.977349054684 3.00000099282099
vertex 309.436905969365 -49.9773494144928 3.00000007265573
vertex 309.436905721878 -14.4773494145003 3.00000091532739
endloop
endfacet
facet normal -2.74400766235245e-009 -8.97725632970479e-008 0.999999999999996
outer loop
vertex 297.436905770678 -14.4773493661337 3.00000094381187
vertex 301.936905725953 -15.97734910141 3.00000095021179
vertex 309.436905721878 -14.4773494145003 3.00000091532739
endloop
endfacet
facet normal -2.74400766235245e-009 -8.97725632970479e-008 0.999999999999996
outer loop
vertex 301.936905725953 -15.97734910141 3.00000095021179
vertex 297.436905770678 -14.4773493661337 3.00000094381187
vertex 297.436905803226 -26.9773493661337 3.00000010114023
endloop
endfacet
facet normal -2.74400766235245e-009 -8.97725632970479e-008 0.999999999999996
outer loop
vertex 309.436905721878 -14.4773494145003 3.00000091532739
vertex 301.936905725953 -15.97734910141 3.00000095021179
vertex 306.936905725953 -15.9773490546841 3.0000009817087
endloop
endfacet
facet normal -2.74400766235245e-009 -8.97725632970479e-008 0.999999999999996
outer loop
vertex 309.436905721878 -14.4773494145003 3.00000091532739
vertex 306.936905725953 -15.9773490546841 3.0000009817087
vertex 306.936905753989 -18.977349054684 3.00000099282099
endloop
endfacet
facet normal -2.74400766235245e-009 -8.97725632970479e-008 0.999999999999996
outer loop
vertex 281.937062588764 -23.9773496714916 3.00000037869563
vertex 278.937062588764 -23.9773496995271 3.00000036490239
vertex 278.937062697054 -26.9773496995271 3.00000012413906
endloop
endfacet
facet normal -2.74400766235245e-009 -8.97725632970479e-008 0.999999999999996
outer loop
vertex 251.937062753126 -32.9773499518474 2.9999999999999
vertex 278.937062697054 -26.9773496995271 3.00000012413906
vertex 251.937062697055 -26.9773499518474 2.9999999999999
endloop
endfacet
facet normal -2.74400766235245e-009 -8.97725632970479e-008 0.999999999999996
outer loop
vertex 278.937062697054 -26.9773496995271 3.00000012413906
vertex 251.937062753126 -32.9773499518474 2.9999999999999
vertex 251.937089304802 -37.9773437252701 3.00000050701031
endloop
endfacet
facet normal -2.74400766235245e-009 -8.97725632970479e-008 0.999999999999996
outer loop
vertex 212.43690603908 -49.9773503209763 2.99999981838821
vertex 215.436905614681 -23.9773500521849 2.99999999269033
vertex 212.436905635595 -23.9773504012383 2.99999997889707
endloop
endfacet
facet normal -2.74400766235245e-009 -8.97725632970479e-008 0.999999999999996
outer loop
vertex 215.436905614681 -23.9773500521849 2.99999999269033
vertex 212.43690603908 -49.9773503209763 2.99999981838821
vertex 215.436905803226 -26.9773499719304 2.99999983218147
endloop
endfacet
facet normal -2.74400766235245e-009 -8.97725632970479e-008 0.999999999999996
outer loop
vertex 215.436905803226 -26.9773499719304 2.99999983218147
vertex 212.43690603908 -49.9773503209763 2.99999981838821
vertex 248.937062911993 -49.9773499798754 2.99999998620665
endloop
endfacet
facet normal -2.74400766235245e-009 -8.97725632970479e-008 0.999999999999996
outer loop
vertex 215.436905803226 -26.9773499719304 2.99999983218147
vertex 248.937062911993 -49.9773499798754 2.99999998620665
vertex 248.936961833982 -42.9773375269099 2.99999457914105
endloop
endfacet
facet normal 2.37387462872844e-010 0.999999999999996 8.97725632976993e-008
outer loop
vertex 215.436905803226 -26.9773499719304 2.99999983218147
vertex 248.937062705287 -26.9773497105653 -1.379333590861e-008
vertex 215.436905811458 -26.9773497026128 -1.67818517761867e-007
endloop
endfacet
facet normal 2.37387462872844e-010 0.999999999999996 8.97725632976993e-008
outer loop
vertex 248.937062705287 -26.9773497105653 -1.379333590861e-008
vertex 215.436905803226 -26.9773499719304 2.99999983218147
vertex 248.937062697055 -26.977349979883 2.99999998620665
endloop
endfacet
facet normal 0.999999999999998 6.28482561350389e-008 2.7440133044015e-009
outer loop
vertex 215.436905811458 -26.9773497026128 -1.67818517761867e-007
vertex 215.436905614681 -23.9773500521849 2.99999999269033
vertex 215.436905803226 -26.9773499719304 2.99999983218147
endloop
endfacet
facet normal 0.999999999999998 6.28482561350389e-008 2.7440133044015e-009
outer loop
vertex 215.436905614681 -23.9773500521849 2.99999999269033
vertex 215.436905811458 -26.9773497026128 -1.67818517761867e-007
vertex 215.436905622913 -23.9773497828672 -7.30965769206996e-009
endloop
endfacet
facet normal -1.16351111422215e-007 0.999999999999989 8.97725629777789e-008
outer loop
vertex 212.436905635595 -23.9773504012383 2.99999997889707
vertex 215.436905622913 -23.9773497828672 -7.30965769206996e-009
vertex 212.436905643827 -23.9773501319206 -2.11029146286928e-008
endloop
endfacet
facet normal -1.16351111422215e-007 0.999999999999989 8.97725629777789e-008
outer loop
vertex 215.436905622913 -23.9773497828672 -7.30965769206996e-009
vertex 212.436905635595 -23.9773504012383 2.99999997889707
vertex 215.436905614681 -23.9773500521849 2.99999999269033
endloop
endfacet
facet normal -1.0 -1.5518620921861e-008 -2.74400905549884e-009
outer loop
vertex 212.436905635595 -23.9773504012383 2.99999997889707
vertex 212.436906047312 -49.9773500516587 -1.8161177469849e-007
vertex 212.43690603908 -49.9773503209763 2.99999981838821
endloop
endfacet
facet normal -1.0 -1.5518620921861e-008 -2.74400905549884e-009
outer loop
vertex 212.436906047312 -49.9773500516587 -1.8161177469849e-007
vertex 212.436905635595 -23.9773504012383 2.99999997889707
vertex 212.436905643827 -23.9773501319206 -2.11029146286928e-008
endloop
endfacet
facet normal 9.34519134064017e-009 -0.999999999999996 -8.97725632714046e-008
outer loop
vertex 248.937062920225 -49.9773497105577 -1.379333590861e-008
vertex 212.43690603908 -49.9773503209763 2.99999981838821
vertex 212.436906047312 -49.9773500516587 -1.8161177469849e-007
endloop
endfacet
facet normal 9.34519134064017e-009 -0.999999999999996 -8.97725632714046e-008
outer loop
vertex 212.43690603908 -49.9773503209763 2.99999981838821
vertex 248.937062920225 -49.9773497105577 -1.379333590861e-008
vertex 248.937062911993 -49.9773499798754 2.99999998620665
endloop
endfacet
facet normal 0.999999999895748 1.44396902273851e-005 2.74530395007132e-009
outer loop
vertex 248.937062920225 -49.9773497105577 -1.379333590861e-008
vertex 248.936961833982 -42.9773375269099 2.99999457914105
vertex 248.937062911993 -49.9773499798754 2.99999998620665
endloop
endfacet
facet normal 0.999999999895748 1.44396902273851e-005 2.74530395007132e-009
outer loop
vertex 248.936961833982 -42.9773375269099 2.99999457914105
vertex 248.937062920225 -49.9773497105577 -1.379333590861e-008
vertex 248.936961842214 -42.9773372575922 -5.42085893961057e-006
endloop
endfacet
facet normal -4.14177957835437e-006 -0.999999999991419 -8.97725746613528e-008
outer loop
vertex 251.9369119403 -42.9773499520413 2.9999872426247
vertex 248.936961842214 -42.9773372575922 -5.42085893961057e-006
vertex 251.936911948532 -42.9773496827236 -1.27573752879991e-005
endloop
endfacet
facet normal -4.14177957835437e-006 -0.999999999991419 -8.97725746613528e-008
outer loop
vertex 248.936961842214 -42.9773372575922 -5.42085893961057e-006
vertex 251.9369119403 -42.9773499520413 2.9999872426247
vertex 248.936961833982 -42.9773375269099 2.99999457914105
endloop
endfacet
facet normal -0.999999999767424 -2.15673847920683e-005 -2.74594382113067e-009
outer loop
vertex 251.9369119403 -42.9773499520413 2.9999872426247
vertex 251.937062920225 -49.9773496825222 -9.02518531355201e-014
vertex 251.937062911993 -49.9773499518398 2.9999999999999
endloop
endfacet
facet normal -0.999999999767424 -2.15673847920683e-005 -2.74594382113067e-009
outer loop
vertex 251.937062920225 -49.9773496825222 -9.02518531355201e-014
vertex 251.9369119403 -42.9773499520413 2.9999872426247
vertex 251.936911948532 -42.9773496827236 -1.27573752879991e-005
endloop
endfacet
facet normal 9.34519091760698e-009 -0.999999999999996 -8.97725632714046e-008
outer loop
vertex 309.436905977597 -49.9773491451752 7.26557370582332e-008
vertex 251.937062911993 -49.9773499518398 2.9999999999999
vertex 251.937062920225 -49.9773496825222 -9.02518531355201e-014
endloop
endfacet
facet normal 9.34519091760698e-009 -0.999999999999996 -8.97725632714046e-008
outer loop
vertex 251.937062911993 -49.9773499518398 2.9999999999999
vertex 309.436905977597 -49.9773491451752 7.26557370582332e-008
vertex 309.436905969365 -49.9773494144928 3.00000007265573
endloop
endfacet
facet normal 1.0 6.97146800998995e-009 2.74400828819901e-009
outer loop
vertex 309.436905977597 -49.9773491451752 7.26557370582332e-008
vertex 309.436905721878 -14.4773494145003 3.00000091532739
vertex 309.436905969365 -49.9773494144928 3.00000007265573
endloop
endfacet
facet normal 1.0 6.97146800998995e-009 2.74400828819901e-009
outer loop
vertex 309.436905721878 -14.4773494145003 3.00000091532739
vertex 309.436905977597 -49.9773491451752 7.26557370582332e-008
vertex 309.43690573011 -14.4773491451827 9.15327404702856e-007
endloop
endfacet
facet normal 4.03055200330326e-009 0.999999999999996 8.97725633081078e-008
outer loop
vertex 297.43690577891 -14.477349096816 9.43811886143073e-007
vertex 309.436905721878 -14.4773494145003 3.00000091532739
vertex 309.43690573011 -14.4773491451827 9.15327404702856e-007
endloop
endfacet
facet normal 4.03055200330326e-009 0.999999999999996 8.97725633081078e-008
outer loop
vertex 309.436905721878 -14.4773494145003 3.00000091532739
vertex 297.43690577891 -14.477349096816 9.43811886143073e-007
vertex 297.436905770678 -14.4773493661337 3.00000094381187
endloop
endfacet
facet normal -1.0 -2.60381879944194e-009 -2.74400789610395e-009
outer loop
vertex 297.436905770678 -14.4773493661337 3.00000094381187
vertex 297.436905811458 -26.977349096816 1.01140241058181e-007
vertex 297.436905803226 -26.9773493661337 3.00000010114023
endloop
endfacet
facet normal -1.0 -2.60381879944194e-009 -2.74400789610395e-009
outer loop
vertex 297.436905811458 -26.977349096816 1.01140241058181e-007
vertex 297.436905770678 -14.4773493661337 3.00000094381187
vertex 297.43690577891 -14.477349096816 9.43811886143073e-007
endloop
endfacet
facet normal -1.9700704823569e-008 0.999999999999996 8.9772563242989e-008
outer loop
vertex 281.937062705286 -26.9773494021738 1.37932321196252e-007
vertex 297.436905803226 -26.9773493661337 3.00000010114023
vertex 297.436905811458 -26.977349096816 1.01140241058181e-007
endloop
endfacet
facet normal -1.9700704823569e-008 0.999999999999996 8.9772563242989e-008
outer loop
vertex 297.436905803226 -26.9773493661337 3.00000010114023
vertex 281.937062705286 -26.9773494021738 1.37932321196252e-007
vertex 281.937062697054 -26.9773496714915 3.00000013793231
endloop
endfacet
facet normal 0.999999999999999 3.60966837031663e-008 2.74401090284428e-009
outer loop
vertex 281.937062705286 -26.9773494021738 1.37932321196252e-007
vertex 281.937062588764 -23.9773496714916 3.00000037869563
vertex 281.937062697054 -26.9773496714915 3.00000013793231
endloop
endfacet
facet normal 0.999999999999999 3.60966837031663e-008 2.74401090284428e-009
outer loop
vertex 281.937062588764 -23.9773496714916 3.00000037869563
vertex 281.937062705286 -26.9773494021738 1.37932321196252e-007
vertex 281.937062596996 -23.9773494021739 3.78695645140545e-007
endloop
endfacet
facet normal -9.34518885806036e-009 0.999999999999996 8.97725632714046e-008
outer loop
vertex 278.937062588764 -23.9773496995271 3.00000036490239
vertex 281.937062596996 -23.9773494021739 3.78695645140545e-007
vertex 278.937062596996 -23.9773494302094 3.64902399483788e-007
endloop
endfacet
facet normal -9.34518885806036e-009 0.999999999999996 8.97725632714046e-008
outer loop
vertex 281.937062596996 -23.9773494021739 3.78695645140545e-007
vertex 278.937062588764 -23.9773496995271 3.00000036490239
vertex 281.937062588764 -23.9773496714916 3.00000037869563
endloop
endfacet
facet normal -1.0 -3.60966837031657e-008 -2.74401090284428e-009
outer loop
vertex 278.937062588764 -23.9773496995271 3.00000036490239
vertex 278.937062705286 -26.9773494302095 1.24139075539495e-007
vertex 278.937062697054 -26.9773496995271 3.00000012413906
endloop
endfacet
facet normal -1.0 -3.60966837031657e-008 -2.74401090284428e-009
outer loop
vertex 278.937062705286 -26.9773494302095 1.24139075539495e-007
vertex 278.937062588764 -23.9773496995271 3.00000036490239
vertex 278.937062596996 -23.9773494302094 3.64902399483788e-007
endloop
endfacet
facet normal -9.34519554242564e-009 0.999999999999996 8.97725632714046e-008
outer loop
vertex 251.937062697055 -26.9773499518474 2.9999999999999
vertex 278.937062705286 -26.9773494302095 1.24139075539495e-007
vertex 251.937062705287 -26.9773496825297 -9.02518531355201e-014
endloop
endfacet
facet normal -9.34519554242564e-009 0.999999999999996 8.97725632714046e-008
outer loop
vertex 278.937062705286 -26.9773494302095 1.24139075539495e-007
vertex 251.937062697055 -26.9773499518474 2.9999999999999
vertex 278.937062697054 -26.9773496995271 3.00000012413906
endloop
endfacet
facet normal -1.0 -9.34515836566637e-009 -2.74400850129128e-009
outer loop
vertex 251.937062697055 -26.9773499518474 2.9999999999999
vertex 251.937062761358 -32.9773496825297 -9.02518531355201e-014
vertex 251.937062753126 -32.9773499518474 2.9999999999999
endloop
endfacet
facet normal -1.0 -9.34515836566637e-009 -2.74400850129128e-009
outer loop
vertex 251.937062761358 -32.9773496825297 -9.02518531355201e-014
vertex 251.937062697055 -26.9773499518474 2.9999999999999
vertex 251.937062705287 -26.9773496825297 -9.02518531355201e-014
endloop
endfacet
facet normal 4.14177957835424e-006 0.999999999991419 8.97725746613528e-008
outer loop
vertex 248.93711265504 -32.9773372573983 7.33651625813665e-006
vertex 251.937062753126 -32.9773499518474 2.9999999999999
vertex 251.937062761358 -32.9773496825297 -9.02518531355201e-014
endloop
endfacet
facet normal 4.14177957835424e-006 0.999999999991419 8.97725746613528e-008
outer loop
vertex 251.937062753126 -32.9773499518474 2.9999999999999
vertex 248.93711265504 -32.9773372573983 7.33651625813665e-006
vertex 248.937112646808 -32.977337526716 3.00000733651625
endloop
endfacet
facet normal 0.999999999965347 8.32497612946927e-006 2.7447550167039e-009
outer loop
vertex 248.93711265504 -32.9773372573983 7.33651625813665e-006
vertex 248.937062697055 -26.977349979883 2.99999998620665
vertex 248.937112646808 -32.977337526716 3.00000733651625
endloop
endfacet
facet normal 0.999999999965347 8.32497612946927e-006 2.7447550167039e-009
outer loop
vertex 248.937062697055 -26.977349979883 2.99999998620665
vertex 248.93711265504 -32.9773372573983 7.33651625813665e-006
vertex 248.937062705287 -26.9773497105653 -1.379333590861e-008
endloop
endfacet
facet normal 0.70710677364996 0.707106788723132 6.54190953534167e-008
outer loop
vertex 249.376429151166 -39.038003651662 3.99591675735286e-007
vertex 249.687089316942 -39.2763818519734 3.00000037334639
vertex 249.687089325174 -39.2763815826557 3.73346405600336e-007
endloop
endfacet
facet normal 0.499999992845858 0.866025407914881 7.91173245604359e-008
outer loop
vertex 249.687089316942 -39.2763818519734 3.00000037334639
vertex 249.376429151166 -39.038003651662 3.99591675735286e-007
vertex 249.376429142934 -39.0380039209797 3.00000039959166
endloop
endfacet
facet normal 0.70710677364996 0.707106788723132 6.54190953534167e-008
outer loop
vertex 249.376429151166 -39.038003651662 3.99591675735286e-007
vertex 249.138051206134 -38.7273437514276 3.00000043339997
vertex 249.376429142934 -39.0380039209797 3.00000039959166
endloop
endfacet
facet normal 0.866025399838292 0.500000006834925 4.7262662595061e-008
outer loop
vertex 249.138051206134 -38.7273437514276 3.00000043339997
vertex 249.376429151166 -39.038003651662 3.99591675735286e-007
vertex 249.138051214366 -38.7273434821099 4.33399983177771e-007
endloop
endfacet
facet normal 0.866025398385501 0.500000009351231 4.72626628169698e-008
outer loop
vertex 249.138051214366 -38.7273434821099 4.33399983177771e-007
vertex 248.988200568997 -38.3655723204818 3.00000047246736
vertex 249.138051206134 -38.7273437514276 3.00000043339997
endloop
endfacet
facet normal 0.965925824256821 0.258819052686968 2.58853576528478e-008
outer loop
vertex 248.988200568997 -38.3655723204818 3.00000047246736
vertex 249.138051214366 -38.7273434821099 4.33399983177771e-007
vertex 248.988200577229 -38.3655720511641 4.72467370192084e-007
endloop
endfacet
facet normal 0.96592582348384 0.258819055571775 2.58853579097032e-008
outer loop
vertex 248.988200577229 -38.3655720511641 4.72467370192084e-007
vertex 248.937089304802 -37.9773437533056 3.00000051413144
vertex 248.988200568997 -38.3655723204818 3.00000047246736
endloop
endfacet
facet normal 1.0 7.91324236038677e-009 2.74400837274451e-009
outer loop
vertex 248.937089304802 -37.9773437533056 3.00000051413144
vertex 248.988200577229 -38.3655720511641 4.72467370192084e-007
vertex 248.937089313034 -37.9773434839879 5.14131450022723e-007
endloop
endfacet
facet normal 1.0 1.07772748372993e-008 2.74400862985605e-009
outer loop
vertex 248.937089313034 -37.9773434839879 5.14131450022723e-007
vertex 248.98820056174 -37.5891151851742 3.00000055555288
vertex 248.937089304802 -37.9773437533056 3.00000051413144
endloop
endfacet
facet normal 0.965925828378259 -0.258819037305553 -2.05843405346598e-008
outer loop
vertex 248.98820056174 -37.5891151851742 3.00000055555288
vertex 248.937089313034 -37.9773434839879 5.14131450022723e-007
vertex 248.988200569972 -37.5891149158565 5.55552888657338e-007
endloop
endfacet
facet normal 0.965925829037293 -0.258819034846005 -2.05843403120515e-008
outer loop
vertex 248.988200569972 -37.5891149158565 5.55552888657338e-007
vertex 249.138051192116 -37.2273437514276 3.00000059390885
vertex 248.98820056174 -37.5891151851742 3.00000055555288
endloop
endfacet
facet normal 0.866025407943291 -0.499999992796654 -4.2509900646673e-008
outer loop
vertex 249.138051192116 -37.2273437514276 3.00000059390885
vertex 248.988200569972 -37.5891149158565 5.55552888657338e-007
vertex 249.138051200348 -37.2273434821099 5.93908865807299e-007
endloop
endfacet
facet normal 0.866025408970823 -0.499999991016916 -4.25099004840818e-008
outer loop
vertex 249.138051200348 -37.2273434821099 5.93908865807299e-007
vertex 249.37642912311 -36.9166835774201 3.0000006265855
vertex 249.138051192116 -37.2273437514276 3.00000059390885
endloop
endfacet
facet normal 0.707106787291236 -0.707106775081856 -6.1538481281379e-008
outer loop
vertex 249.37642912311 -36.9166835774201 3.0000006265855
vertex 249.138051200348 -37.2273434821099 5.93908865807299e-007
vertex 249.376429131342 -36.9166833081024 6.26585509420472e-007
endloop
endfacet
facet normal 0.500000008394319 -0.866025398937973 -7.63733160888003e-008
outer loop
vertex 249.687089300894 -36.6783053713024 6.51355948364915e-007
vertex 249.37642912311 -36.9166835774201 3.0000006265855
vertex 249.376429131342 -36.9166833081024 6.26585509420472e-007
endloop
endfacet
facet normal 0.707106787291236 -0.707106775081856 -6.1538481281379e-008
outer loop
vertex 249.37642912311 -36.9166835774201 3.0000006265855
vertex 249.687089300894 -36.6783053713024 6.51355948364915e-007
vertex 249.687089292662 -36.67830564062 3.00000065135594
endloop
endfacet
facet normal 0.258819054090517 -0.965925823880738 -8.60034356969998e-008
outer loop
vertex 250.04886073184 -36.5284547341646 6.66532105584714e-007
vertex 249.687089292662 -36.67830564062 3.00000065135594
vertex 249.687089300894 -36.6783053713024 6.51355948364915e-007
endloop
endfacet
facet normal 0.500000007792046 -0.866025399285695 -7.63733161216689e-008
outer loop
vertex 249.687089292662 -36.67830564062 3.00000065135594
vertex 250.04886073184 -36.5284547341646 6.66532105584714e-007
vertex 250.048860723608 -36.5284550034823 3.00000066653209
endloop
endfacet
facet normal 8.91989400945335e-009 -0.999999999999996 -8.97725632725717e-008
outer loop
vertex 250.437089299016 -36.4773434699701 6.71079764012325e-007
vertex 250.048860723608 -36.5284550034823 3.00000066653209
vertex 250.04886073184 -36.5284547341646 6.66532105584714e-007
endloop
endfacet
facet normal 0.258819054168057 -0.965925823859962 -8.60034356949219e-008
outer loop
vertex 250.048860723608 -36.5284550034823 3.00000066653209
vertex 250.437089299016 -36.4773434699701 6.71079764012325e-007
vertex 250.437089290784 -36.4773437392878 3.00000067107975
endloop
endfacet
facet normal -0.258819035321078 -0.965925828909994 -8.74238390321599e-008
outer loop
vertex 250.825317858916 -36.5284549962261 3.00000066468902
vertex 250.437089299016 -36.4773434699701 6.71079764012325e-007
vertex 250.825317867148 -36.5284547269085 6.6468903189105e-007
endloop
endfacet
facet normal 8.91989400945335e-009 -0.999999999999996 -8.97725632725717e-008
outer loop
vertex 250.437089299016 -36.4773434699701 6.71079764012325e-007
vertex 250.825317858916 -36.5284549962261 3.00000066468902
vertex 250.437089290784 -36.4773437392878 3.00000067107975
endloop
endfacet
facet normal -0.499999990967844 -0.866025408999153 -7.91173246526205e-008
outer loop
vertex 251.187089292662 -36.6783056266023 3.00000064779538
vertex 250.825317867148 -36.5284547269085 6.6468903189105e-007
vertex 251.187089300894 -36.6783053572846 6.47795391004855e-007
endloop
endfacet
facet normal -0.258819036830626 -0.965925828505512 -8.74238389999908e-008
outer loop
vertex 250.825317867148 -36.5284547269085 6.6468903189105e-007
vertex 251.187089292662 -36.6783056266023 3.00000064779538
vertex 250.825317858916 -36.5284549962261 3.00000066468902
endloop
endfacet
facet normal -0.707106773649853 -0.707106788723239 -6.5419095353426e-008
outer loop
vertex 251.49774946667 -36.9166835575959 3.00000062155011
vertex 251.187089300894 -36.6783053572846 6.47795391004855e-007
vertex 251.497749474902 -36.9166832882783 6.21550120869904e-007
endloop
endfacet
facet normal -0.499999992845894 -0.86602540791486 -7.91173245604341e-008
outer loop
vertex 251.187089300894 -36.6783053572846 6.47795391004855e-007
vertex 251.49774946667 -36.9166835575959 3.00000062155011
vertex 251.187089292662 -36.6783056266023 3.00000064779538
endloop
endfacet
facet normal -0.707106773649853 -0.707106788723239 -6.5419095353426e-008
outer loop
vertex 251.49774946667 -36.9166835575959 3.00000062155011
vertex 251.736127411702 -37.2273434578304 5.87741802147554e-007
vertex 251.73612740347 -37.2273437271481 3.00000058774179
endloop
endfacet
facet normal -0.866025399838246 -0.500000006835003 -4.72626625950679e-008
outer loop
vertex 251.736127411702 -37.2273434578304 5.87741802147554e-007
vertex 251.49774946667 -36.9166835575959 3.00000062155011
vertex 251.497749474902 -36.9166832882783 6.21550120869904e-007
endloop
endfacet
facet normal -0.866025398385455 -0.500000009351311 -4.72626628169769e-008
outer loop
vertex 251.73612740347 -37.2273437271481 3.00000058774179
vertex 251.88597804884 -37.5891148887762 5.48674415133241e-007
vertex 251.885978040608 -37.5891151580939 3.0000005486744
endloop
endfacet
facet normal -0.965925824256851 -0.258819052686857 -2.58853576528378e-008
outer loop
vertex 251.88597804884 -37.5891148887762 5.48674415133241e-007
vertex 251.73612740347 -37.2273437271481 3.00000058774179
vertex 251.736127411702 -37.2273434578304 5.87741802147554e-007
endloop
endfacet
facet normal -0.965925823483869 -0.258819055571666 -2.58853579096935e-008
outer loop
vertex 251.885978040608 -37.5891151580939 3.0000005486744
vertex 251.937089313034 -37.9773434559524 5.07010324022736e-007
vertex 251.937089304802 -37.9773437252701 3.00000050701031
endloop
endfacet
facet normal -1.0 -7.91324989918564e-009 -2.74400837274518e-009
outer loop
vertex 251.937089313034 -37.9773434559524 5.07010324022736e-007
vertex 251.885978040608 -37.5891151580939 3.0000005486744
vertex 251.88597804884 -37.5891148887762 5.48674415133241e-007
endloop
endfacet
facet normal -1.0 -1.07772823671866e-008 -2.74400862985672e-009
outer loop
vertex 251.937089304802 -37.9773437252701 3.00000050701031
vertex 251.885978056096 -38.3655720240838 4.65588896667987e-007
vertex 251.885978047864 -38.3655722934015 3.00000046558888
endloop
endfacet
facet normal -0.965925828378285 0.258819037305455 2.05843405346509e-008
outer loop
vertex 251.885978056096 -38.3655720240838 4.65588896667987e-007
vertex 251.937089304802 -37.9773437252701 3.00000050701031
vertex 251.937089313034 -37.9773434559524 5.07010324022736e-007
endloop
endfacet
facet normal -0.965925829037319 0.25881903484591 2.05843403120428e-008
outer loop
vertex 251.885978047864 -38.3655722934015 3.00000046558888
vertex 251.73612742572 -38.7273434578304 4.27232919518025e-007
vertex 251.736127417488 -38.7273437271481 3.00000042723291
endloop
endfacet
facet normal -0.866025407943234 0.499999992796752 4.2509900646682e-008
outer loop
vertex 251.73612742572 -38.7273434578304 4.27232919518025e-007
vertex 251.885978047864 -38.3655722934015 3.00000046558888
vertex 251.885978056096 -38.3655720240838 4.65588896667987e-007
endloop
endfacet
facet normal -0.866025408970767 0.499999991017015 4.25099004840908e-008
outer loop
vertex 251.736127417488 -38.7273437271481 3.00000042723291
vertex 251.497749494726 -39.0380036318379 3.94556275904853e-007
vertex 251.497749486494 -39.0380039011556 3.00000039455626
endloop
endfacet
facet normal -0.707106787291082 0.70710677508201 6.15384812813933e-008
outer loop
vertex 251.497749494726 -39.0380036318379 3.94556275904853e-007
vertex 251.736127417488 -38.7273437271481 3.00000042723291
vertex 251.73612742572 -38.7273434578304 4.27232919518025e-007
endloop
endfacet
facet normal -0.500000008394275 0.866025398937998 7.63733160888027e-008
outer loop
vertex 251.187089316942 -39.2763818379556 3.00000036978583
vertex 251.497749494726 -39.0380036318379 3.94556275904853e-007
vertex 251.187089325174 -39.2763815686379 3.6978583696041e-007
endloop
endfacet
facet normal -0.707106787291082 0.70710677508201 6.15384812813933e-008
outer loop
vertex 251.497749494726 -39.0380036318379 3.94556275904853e-007
vertex 251.187089316942 -39.2763818379556 3.00000036978583
vertex 251.497749486494 -39.0380039011556 3.00000039455626
endloop
endfacet
facet normal -0.258819054090591 0.965925823880718 8.60034356969979e-008
outer loop
vertex 250.825317885996 -39.4262324750934 3.00000035460966
vertex 251.187089325174 -39.2763815686379 3.6978583696041e-007
vertex 250.825317894228 -39.4262322057757 3.54609668460745e-007
endloop
endfacet
facet normal -0.500000007792 0.866025399285722 7.63733161216714e-008
outer loop
vertex 251.187089325174 -39.2763815686379 3.6978583696041e-007
vertex 250.825317885996 -39.4262324750934 3.00000035460966
vertex 251.187089316942 -39.2763818379556 3.00000036978583
endloop
endfacet
facet normal -8.91994992666771e-009 0.999999999999996 8.97725632725715e-008
outer loop
vertex 250.43708931882 -39.4773437392878 3.000000350062
vertex 250.825317894228 -39.4262322057757 3.54609668460745e-007
vertex 250.437089327052 -39.4773434699701 3.50062010033134e-007
endloop
endfacet
facet normal -0.258819054168128 0.965925823859942 8.600343569492e-008
outer loop
vertex 250.825317894228 -39.4262322057757 3.54609668460745e-007
vertex 250.43708931882 -39.4773437392878 3.000000350062
vertex 250.825317885996 -39.4262324750934 3.00000035460966
endloop
endfacet
facet normal 0.258819035320923 0.965925828910036 8.74238390321632e-008
outer loop
vertex 250.04886075892 -39.4262322130318 3.56452753434275e-007
vertex 250.43708931882 -39.4773437392878 3.000000350062
vertex 250.437089327052 -39.4773434699701 3.50062010033134e-007
endloop
endfacet
facet normal -8.91994992666771e-009 0.999999999999996 8.97725632725715e-008
outer loop
vertex 250.43708931882 -39.4773437392878 3.000000350062
vertex 250.04886075892 -39.4262322130318 3.56452753434275e-007
vertex 250.048860750688 -39.4262324823495 3.00000035645274
endloop
endfacet
facet normal 0.499999990967806 0.866025408999175 7.91173246526223e-008
outer loop
vertex 249.687089325174 -39.2763815826557 3.73346405600336e-007
vertex 250.048860750688 -39.4262324823495 3.00000035645274
vertex 250.04886075892 -39.4262322130318 3.56452753434275e-007
endloop
endfacet
facet normal 0.258819036830475 0.965925828505552 8.7423838999994e-008
outer loop
vertex 250.048860750688 -39.4262324823495 3.00000035645274
vertex 249.687089325174 -39.2763815826557 3.73346405600336e-007
vertex 249.687089316942 -39.2763818519734 3.00000037334639
endloop
endfacet
facet normal 9.34518901082069e-009 -0.999999999999996 -8.97725632714046e-008
outer loop
vertex 306.936905734185 -15.9773487853664 9.81708716350346e-007
vertex 301.936905725953 -15.97734910141 3.00000095021179
vertex 301.936905734185 -15.9773488320923 9.50211800075215e-007
endloop
endfacet
facet normal 9.34518901082069e-009 -0.999999999999996 -8.97725632714046e-008
outer loop
vertex 301.936905725953 -15.97734910141 3.00000095021179
vertex 306.936905734185 -15.9773487853664 9.81708716350346e-007
vertex 306.936905725953 -15.9773490546841 3.0000009817087
endloop
endfacet
facet normal -1.0 -9.34520349529431e-009 -2.74400850129533e-009
outer loop
vertex 306.936905725953 -15.9773490546841 3.0000009817087
vertex 306.936905762221 -18.9773487853664 9.92820997312413e-007
vertex 306.936905753989 -18.977349054684 3.00000099282099
endloop
endfacet
facet normal -1.0 -9.34520349529431e-009 -2.74400850129533e-009
outer loop
vertex 306.936905762221 -18.9773487853664 9.92820997312413e-007
vertex 306.936905725953 -15.9773490546841 3.0000009817087
vertex 306.936905734185 -15.9773487853664 9.81708716350346e-007
endloop
endfacet
facet normal -9.3451962015895e-009 0.999999999999996 8.97725632714046e-008
outer loop
vertex 301.936905762221 -18.9773488320923 1.06342230984197e-006
vertex 306.936905753989 -18.977349054684 3.00000099282099
vertex 306.936905762221 -18.9773487853664 9.92820997312413e-007
endloop
endfacet
facet normal -9.3451962015895e-009 0.999999999999996 8.97725632714046e-008
outer loop
vertex 306.936905753989 -18.977349054684 3.00000099282099
vertex 301.936905762221 -18.9773488320923 1.06342230984197e-006
vertex 301.936905753989 -18.97734910141 3.0000010634223
endloop
endfacet
facet normal 1.0 9.34520358868031e-009 2.74400850129534e-009
outer loop
vertex 301.936905762221 -18.9773488320923 1.06342230984197e-006
vertex 301.936905725953 -15.97734910141 3.00000095021179
vertex 301.936905753989 -18.97734910141 3.0000010634223
endloop
endfacet
facet normal 1.0 9.34520358868031e-009 2.74400850129534e-009
outer loop
vertex 301.936905725953 -15.97734910141 3.00000095021179
vertex 301.936905762221 -18.9773488320923 1.06342230984197e-006
vertex 301.936905734185 -15.9773488320923 9.50211800075215e-007
endloop
endfacet
endsolid uploads-c5-af-25-85-c2-plotclock_SUP7
